<?xml version="1.0" encoding="UTF-8"?>
<svg version="1.1" xmlns="http://www.w3.org/2000/svg" width="854" height="1280">
<path d="M0 0 C281.82 0 563.64 0 854 0 C854 422.4 854 844.8 854 1280 C572.18 1280 290.36 1280 0 1280 C0 857.6 0 435.2 0 0 Z " fill="#282828" transform="translate(0,0)"/>
<path d="M0 0 C281.82 0 563.64 0 854 0 C854 16.83 854 33.66 854 51 C572.18 51 290.36 51 0 51 C0 34.17 0 17.34 0 0 Z " fill="#2F2F2F" transform="translate(0,0)"/>
<path d="M0 0 C1.64021456 0.00279276 3.28042912 0.00558513 4.92064369 0.00837713 C44.44469317 0.07584336 83.96871433 0.15566663 123.49272785 0.24147995 C148.98293844 0.29682279 174.47315407 0.34838808 199.96337891 0.39672852 C201.24816426 0.39916689 201.24816426 0.39916689 202.55890488 0.40165452 C211.17078923 0.41799542 219.7826737 0.43427267 228.39455825 0.45050358 C245.8936446 0.48348574 263.39273014 0.51688906 280.89181519 0.55055237 C282.09519107 0.55286654 282.09519107 0.55286654 283.32287758 0.55522746 C335.69182896 0.65598401 388.06075919 0.76686772 440.4296875 0.87890625 C440.4296875 16.71890625 440.4296875 32.55890625 440.4296875 48.87890625 C343.0796875 48.87890625 245.7296875 48.87890625 145.4296875 48.87890625 C145.0996875 49.53890625 144.7696875 50.19890625 144.4296875 50.87890625 C144.4296875 50.21890625 144.4296875 49.55890625 144.4296875 48.87890625 C108.92076061 48.98347334 73.41185362 49.09324122 37.90296475 49.21002319 C33.71460683 49.22379343 29.52624877 49.23752042 25.33789062 49.2512207 C24.50403372 49.25394901 23.67017682 49.25667731 22.81105153 49.25948829 C9.2941368 49.30361121 -4.22278631 49.34422831 -17.73971574 49.38355886 C-31.60047038 49.42396754 -45.4612094 49.46812268 -59.32194102 49.5157848 C-67.88065683 49.54509622 -76.43937143 49.57145528 -84.99810757 49.59408522 C-90.86031233 49.60986475 -96.72249796 49.62927019 -102.5846815 49.65157466 C-105.97117392 49.66435104 -109.35765156 49.67548307 -112.74416161 49.68232536 C-116.40876905 49.69055966 -120.07330335 49.70482871 -123.73788452 49.72068787 C-125.35750786 49.72215503 -125.35750786 49.72215503 -127.00985086 49.72365183 C-127.98570032 49.72912627 -128.96154979 49.73460071 -129.96697044 49.74024105 C-131.23713495 49.74422811 -131.23713495 49.74422811 -132.53295934 49.74829572 C-134.63789289 49.75058186 -134.63789289 49.75058186 -136.5703125 50.87890625 C-136.5703125 50.21890625 -136.5703125 49.55890625 -136.5703125 48.87890625 C-139.2103125 48.87890625 -141.8503125 48.87890625 -144.5703125 48.87890625 C-144.9003125 49.53890625 -145.2303125 50.19890625 -145.5703125 50.87890625 C-145.5703125 50.21890625 -145.5703125 49.55890625 -145.5703125 48.87890625 C-148.5403125 48.87890625 -151.5103125 48.87890625 -154.5703125 48.87890625 C-154.9003125 49.53890625 -155.2303125 50.19890625 -155.5703125 50.87890625 C-155.5703125 50.21890625 -155.5703125 49.55890625 -155.5703125 48.87890625 C-162.51217367 48.99631507 -169.45387242 49.12114966 -176.39550781 49.2512207 C-178.75843251 49.29461141 -181.12138941 49.33628338 -183.484375 49.3762207 C-186.87509886 49.43382318 -190.26566 49.49754635 -193.65625 49.5625 C-195.24848892 49.58756874 -195.24848892 49.58756874 -196.87289429 49.61314392 C-197.85376007 49.63308914 -198.83462585 49.65303436 -199.84521484 49.67358398 C-201.14427261 49.69690041 -201.14427261 49.69690041 -202.46957397 49.72068787 C-204.62789143 49.74987217 -204.62789143 49.74987217 -206.5703125 50.87890625 C-206.5703125 50.21890625 -206.5703125 49.55890625 -206.5703125 48.87890625 C-274.8803125 48.87890625 -343.1903125 48.87890625 -413.5703125 48.87890625 C-413.5703125 33.03890625 -413.5703125 17.19890625 -413.5703125 0.87890625 C-325.15663153 0.41203242 -236.74088075 -0.05454101 0 0 Z " fill="#272727" transform="translate(413.5703125,430.12109375)"/>
<path d="M0 0 C0.73806747 -0.00000504 1.47613494 -0.00001007 2.23656809 -0.00001526 C96.11283207 -0.00065571 189.98868943 0.16505588 565.9375 1.125 C565.9375 13.995 565.9375 26.865 565.9375 40.125 C284.1175 40.125 2.2975 40.125 -288.0625 40.125 C-288.0625 27.255 -288.0625 14.385 -288.0625 1.125 C-195.02782698 0.26112138 -101.99262914 0.00268259 0 0 Z " fill="#232323" transform="translate(288.0625,1239.875)"/>
<path d="M0 0 C5.27579473 0.00451174 10.55158931 0.00309842 15.82738551 0.00264478 C26.23566574 0.00273194 36.64393533 0.00850685 47.05221228 0.01638556 C55.71464955 0.0228258 64.37708545 0.02692504 73.03952464 0.02968335 C150.1829878 0.05487975 227.32637665 0.15663459 459.72001756 0.55864537 C483.6208087 0.60360854 507.52160166 0.64747625 531.42239627 0.69055676 C532.25109588 0.69205082 533.07979548 0.69354488 533.93360719 0.69508421 C542.26496996 0.71010379 550.59633275 0.72510558 558.92769557 0.74009441 C575.86005713 0.77055757 592.79241848 0.80113854 609.7247797 0.83179212 C610.50122185 0.83319761 611.277664 0.83460309 612.0776347 0.83605117 C662.85165721 0.92797393 713.62567461 1.02266404 764.39969119 1.11780286 C764.39969119 7.05780286 764.39969119 12.99780286 764.39969119 19.11780286 C571.34969119 19.11780286 378.29969119 19.11780286 179.39969119 19.11780286 C179.06969119 19.77780286 178.73969119 20.43780286 178.39969119 21.11780286 C178.39969119 20.45780286 178.39969119 19.79780286 178.39969119 19.11780286 C176.51250369 19.36530286 176.51250369 19.36530286 174.58719119 19.61780286 C168.30707541 20.27122531 162.04330314 20.17072245 155.73831424 20.08069348 C153.62551842 20.05867417 151.51233081 20.08396679 149.39969119 20.11780286 C149.06969119 20.44780286 148.73969119 20.77780286 148.39969119 21.11780286 C145.63567712 21.218305 142.89661893 21.25396361 140.13211307 21.24719739 C138.8322018 21.24982587 138.8322018 21.24982587 137.5060297 21.25250745 C134.62681346 21.25692711 131.74765811 21.25398758 128.86844119 21.25061536 C126.87686393 21.25128836 124.88528674 21.25225836 122.89370975 21.25351453 C118.71389225 21.25499166 114.53409607 21.25283647 110.35428104 21.24817395 C104.98366593 21.24247666 99.61310079 21.24575558 94.24248752 21.25174642 C90.12826399 21.25535163 86.0140524 21.25421363 81.89982852 21.25161862 C79.91898333 21.25094924 77.93813707 21.25177816 75.95729312 21.25409818 C73.19392244 21.25662405 70.43063385 21.25278504 67.66726932 21.24719739 C66.84021991 21.24922162 66.0131705 21.25124585 65.16105899 21.25333142 C59.51395363 21.2320653 59.51395363 21.2320653 58.39969119 20.11780286 C56.99036544 20.02446877 55.57638091 20.00034992 54.16397342 20.00427747 C52.79308566 20.00438321 52.79308566 20.00438321 51.39450321 20.00449109 C49.87823337 20.01224057 49.87823337 20.01224057 48.33133182 20.02014661 C46.74345859 20.02233701 46.74345859 20.02233701 45.12350711 20.02457166 C42.81483237 20.02838906 40.5061606 20.03451746 38.19749698 20.04263806 C34.54040181 20.0553569 30.88334276 20.06190662 27.22622928 20.06677747 C18.13453566 20.08018092 9.04287591 20.10428741 -0.04879513 20.12817883 C-7.71430527 20.14793899 -15.37980234 20.1635738 -23.04533139 20.17374158 C-26.64192791 20.18020911 -30.238471 20.1927225 -33.83505002 20.20544934 C-36.0556306 20.20908456 -38.27621168 20.21243595 -40.49679318 20.21545911 C-41.49144589 20.22062543 -42.4860986 20.22579175 -43.5108923 20.23111463 C-49.28974192 20.23154964 -54.86819334 19.86164131 -60.60030881 19.11780286 C-60.93030881 19.77780286 -61.26030881 20.43780286 -61.60030881 21.11780286 C-61.60030881 20.45780286 -61.60030881 19.79780286 -61.60030881 19.11780286 C-64.57030881 19.11780286 -67.54030881 19.11780286 -70.60030881 19.11780286 C-70.93030881 19.77780286 -71.26030881 20.43780286 -71.60030881 21.11780286 C-71.60030881 20.45780286 -71.60030881 19.79780286 -71.60030881 19.11780286 C-74.57030881 19.11780286 -77.54030881 19.11780286 -80.60030881 19.11780286 C-80.60030881 19.77780286 -80.60030881 20.43780286 -80.60030881 21.11780286 C-83.57030881 21.11780286 -86.54030881 21.11780286 -89.60030881 21.11780286 C-89.60030881 14.51780286 -89.60030881 7.91780286 -89.60030881 1.11780286 C-59.72894935 0.39977585 -29.87979502 -0.03192805 0 0 Z " fill="#2A2A2A" transform="translate(89.60030880570412,49.88219714164734)"/>
<path d="M0 0 C18.10607616 -0.02332815 36.21214843 -0.04097876 54.31823635 -0.05181217 C62.72461384 -0.05697531 71.13098201 -0.06401834 79.53735352 -0.07543945 C86.86167932 -0.08538575 94.18599837 -0.0918533 101.51033074 -0.09408849 C105.39090787 -0.09539569 109.2714657 -0.09848212 113.15203667 -0.10573006 C116.80039557 -0.11248942 120.44872711 -0.11461713 124.09709167 -0.11310768 C126.08288419 -0.11351637 128.0686737 -0.118912 130.05445862 -0.12442017 C131.2254007 -0.1230455 132.39634277 -0.12167084 133.60276794 -0.12025452 C134.62687995 -0.12117631 135.65099195 -0.1220981 136.70613766 -0.12304783 C139 0 139 0 140 1 C142.76401408 1.10050214 145.50307226 1.13616075 148.26757812 1.12939453 C149.5674894 1.13202301 149.5674894 1.13202301 150.8936615 1.13470459 C153.77287773 1.13912425 156.65203309 1.13618472 159.53125 1.1328125 C161.52282727 1.13348551 163.51440446 1.1344555 165.50598145 1.13571167 C169.68579895 1.1371888 173.86559513 1.13503361 178.04541016 1.13037109 C183.41602526 1.1246738 188.7865904 1.12795273 194.15720367 1.13394356 C198.2714272 1.13754877 202.38563879 1.13641077 206.49986267 1.13381577 C208.48070786 1.13314639 210.46155412 1.1339753 212.44239807 1.13629532 C215.20576876 1.13882119 217.96905734 1.13498218 220.73242188 1.12939453 C221.55947128 1.13141876 222.38652069 1.13344299 223.2386322 1.13552856 C226.92056725 1.47318749 226.92056725 1.47318749 230 0 C231.35303885 -0.09680406 232.71109913 -0.12447426 234.0675965 -0.1241985 C235.3932948 -0.12756944 235.3932948 -0.12756944 236.74577489 -0.13100848 C238.22184304 -0.12706796 238.22184304 -0.12706796 239.72773075 -0.12304783 C240.76723441 -0.12420167 241.80673807 -0.12535552 242.87774184 -0.12654433 C246.40785439 -0.12921946 249.93792254 -0.1246815 253.46803284 -0.12025452 C256.00564823 -0.12069004 258.54326357 -0.12156458 261.08087867 -0.12284368 C266.62228557 -0.1246214 272.16367839 -0.12326382 277.70508385 -0.11920547 C285.94503801 -0.1131875 294.18498537 -0.11286808 302.42494133 -0.11374746 C316.28370381 -0.11506355 330.14246152 -0.11171169 344.00122261 -0.10573006 C357.72975246 -0.09981978 371.45828033 -0.09596548 385.18681145 -0.09487724 C386.46561324 -0.09477413 386.46561324 -0.09477413 387.77024942 -0.09466894 C392.09956808 -0.09433062 396.42888674 -0.09402923 400.75820541 -0.09374207 C431.44940066 -0.09163979 462.14059332 -0.08489723 492.83178711 -0.07543945 C522.65405259 -0.06626003 552.47631737 -0.05917396 582.29858398 -0.05493164 C583.67665327 -0.05473435 583.67665327 -0.05473435 585.08256235 -0.05453308 C594.30837367 -0.05321459 603.53418501 -0.05193877 612.75999635 -0.05069422 C631.55524317 -0.04815778 650.35048994 -0.04533652 669.14573669 -0.04234314 C670.00997509 -0.04220585 670.87421349 -0.04206856 671.76464093 -0.04192711 C729.50976171 -0.03272126 787.25488101 -0.01685471 845 0 C845 3.96 845 7.92 845 12 C563.18 12 281.36 12 -9 12 C-9 8.7 -9 5.4 -9 2 C-6.03 2 -3.06 2 0 2 C0 1.34 0 0.68 0 0 Z " fill="#444444" transform="translate(9,69)"/>
<path d="M0 0 C4.1117256 -0.02465746 8.22342278 -0.04283959 12.33520508 -0.05493164 C13.73495228 -0.0599708 15.1346942 -0.06680216 16.53442383 -0.07543945 C18.54245777 -0.0875232 20.55052957 -0.09269807 22.55859375 -0.09765625 C24.37315063 -0.10551147 24.37315063 -0.10551147 26.22436523 -0.11352539 C29 0 29 0 30 1 C32.43880177 1.09990489 34.84934264 1.1344195 37.28869629 1.12698364 C38.44660667 1.12932363 38.44660667 1.12932363 39.62790918 1.13171089 C42.23438031 1.13572392 44.84079398 1.13253008 47.44726562 1.12939453 C49.30783625 1.13074844 51.1684066 1.13252831 53.02897644 1.13470459 C58.0970112 1.13928019 63.1650257 1.13748885 68.23306084 1.1343255 C73.52439302 1.13180255 78.81572341 1.13413926 84.10705566 1.13571167 C92.99471347 1.13753356 101.88236298 1.13512656 110.77001953 1.13037109 C121.06115779 1.12492844 131.35227624 1.12669108 141.64341402 1.1321975 C150.46206218 1.13672809 159.28070436 1.13737944 168.09935331 1.13475883 C173.37384078 1.13319576 178.64831891 1.13300311 183.92280579 1.13629532 C188.88031763 1.13917325 193.83780382 1.13719978 198.79531288 1.13140106 C200.62030812 1.13007304 202.44530551 1.13046828 204.27029991 1.13266373 C206.75066418 1.1353736 209.23094485 1.13199612 211.71130371 1.12698364 C212.44309798 1.12921436 213.17489224 1.13144509 213.92886209 1.13374341 C217.24787889 1.4100032 217.24787889 1.4100032 220 0 C221.37445135 -0.09687355 222.7538558 -0.12447412 224.13171679 -0.1241985 C225.02984983 -0.12644579 225.92798288 -0.12869308 226.85333207 -0.13100848 C228.3534654 -0.12706796 228.3534654 -0.12706796 229.88390446 -0.12304783 C230.94029185 -0.12420167 231.99667925 -0.12535552 233.08507839 -0.12654433 C236.67262473 -0.12921952 240.26012738 -0.12468145 243.84767151 -0.12025452 C246.4265349 -0.12069003 249.00539825 -0.12156458 251.58426136 -0.12284368 C257.21579081 -0.12492323 262.84730973 -0.12326378 268.47883797 -0.11920547 C276.85280465 -0.11318755 285.22676465 -0.11286807 293.6007331 -0.11374746 C307.6848847 -0.11506355 321.76903161 -0.11171166 335.85318184 -0.10573006 C349.80499863 -0.0998198 363.75681348 -0.09596548 377.70863152 -0.09487724 C378.57502951 -0.0948085 379.44142751 -0.09473976 380.33407999 -0.09466894 C384.7337991 -0.09433062 389.13351822 -0.09402923 393.53323733 -0.09374207 C424.72357556 -0.09163978 455.91391125 -0.08489722 487.10424805 -0.07543945 C517.41153958 -0.06626004 547.71883041 -0.05917397 578.02612305 -0.05493164 C579.42660318 -0.05473435 579.42660318 -0.05473435 580.85537583 -0.05453308 C590.23122116 -0.05321459 599.60706649 -0.05193877 608.98291183 -0.05069422 C628.08381768 -0.04815778 647.18472349 -0.04533652 666.28562927 -0.04234314 C667.16392256 -0.04220585 668.04221585 -0.04206856 668.94712408 -0.04192711 C727.63141712 -0.03272125 786.31570872 -0.0168547 845 0 C845 3.96 845 7.92 845 12 C563.18 12 281.36 12 -9 12 C-9 8.7 -9 5.4 -9 2 C-6.03 2 -3.06 2 0 2 C0 1.34 0 0.68 0 0 Z " fill="#404040" transform="translate(9,109)"/>
<path d="M0 0 C62.04 0 124.08 0 188 0 C188 0.66 188 1.32 188 2 C189.00525092 1.89392856 189.00525092 1.89392856 190.03080994 1.78571427 C196.60205114 1.1342105 203.07854107 0.85713356 209.67918396 0.87301636 C210.69535941 0.87145637 211.71153485 0.86989638 212.7585035 0.86828911 C216.1325559 0.86432971 219.50656257 0.86744911 222.88061523 0.87060547 C225.31281053 0.86924911 227.74500562 0.86746785 230.17720032 0.86529541 C236.08129977 0.86121861 241.98538754 0.8618024 247.88948666 0.86470805 C252.69645248 0.8669748 257.50341474 0.86726911 262.31038094 0.86618423 C263.34024413 0.86595439 263.34024413 0.86595439 264.39091264 0.86571989 C265.78619114 0.86540013 267.18146964 0.86507591 268.57674814 0.8647473 C281.64236622 0.86190002 294.70797728 0.86516673 307.77359421 0.87054767 C318.94371152 0.87500602 330.11381843 0.87424632 341.28393555 0.86962891 C354.2917471 0.86425426 367.29955249 0.86218407 380.307365 0.86524117 C381.70000239 0.86555967 383.09263978 0.86587404 384.48527718 0.86618423 C385.17024564 0.86633851 385.85521409 0.86649279 386.56093917 0.86665174 C391.34817299 0.86750893 396.13540283 0.86607116 400.92263603 0.86370468 C407.39466711 0.86057543 413.86668333 0.86286421 420.33871269 0.86859894 C422.69916756 0.86990872 425.0596241 0.86956318 427.42007828 0.86733627 C441.3136361 0.85544911 455.1311383 1.14988734 469 2 C469 1.34 469 0.68 469 0 C495.07 0 521.14 0 548 0 C548 0.66 548 1.32 548 2 C558.23 2 568.46 2 579 2 C579 1.34 579 0.68 579 0 C669.75 0 760.5 0 854 0 C854 3.96 854 7.92 854 12 C572.18 12 290.36 12 0 12 C0 8.04 0 4.08 0 0 Z " fill="#414141" transform="translate(0,1229)"/>
<path d="M0 0 C4.39502641 0.00452739 8.79005272 0.00309682 13.18508092 0.00264478 C21.97759639 0.00273268 30.77009942 0.00856934 39.56261106 0.01638556 C46.97665011 0.02284839 54.39068757 0.02693689 61.8047289 0.02968335 C148.27854947 0.06246159 234.75234903 0.19863837 452.8335713 0.55864537 C478.67265033 0.60341154 504.51173073 0.64730549 530.35081235 0.69055676 C531.24321997 0.69205082 532.1356276 0.69354488 533.05507788 0.69508421 C542.02496524 0.71010068 550.99485262 0.72510278 559.96474002 0.74009441 C578.20324844 0.77057726 596.4417567 0.80115542 614.68026486 0.83179212 C615.51704527 0.83319761 616.35382567 0.83460309 617.21596306 0.83605117 C672.16594487 0.92835814 727.11592288 1.02288635 782.06590024 1.11780286 C782.06590024 3.75780286 782.06590024 6.39780286 782.06590024 9.11780286 C582.41590024 9.11780286 382.76590024 9.11780286 177.06590024 9.11780286 C176.73590024 9.77780286 176.40590024 10.43780286 176.06590024 11.11780286 C176.06590024 10.45780286 176.06590024 9.79780286 176.06590024 9.11780286 C175.4484393 9.18999036 174.83097836 9.26217786 174.19480649 9.33655286 C169.77601309 9.82080419 165.45143364 10.17501229 161.00340024 10.11780286 C159.70402524 10.11780286 158.40465024 10.11780286 157.06590024 10.11780286 C156.73590024 10.44780286 156.40590024 10.77780286 156.06590024 11.11780286 C153.62709847 11.21770775 151.21655759 11.25222236 148.77720395 11.2447865 C147.61929356 11.24712649 147.61929356 11.24712649 146.43799105 11.24951375 C143.83151992 11.25352678 141.22510625 11.25033294 138.61863461 11.24719739 C136.75806399 11.2485513 134.89749364 11.25033117 133.0369238 11.25250745 C127.96888904 11.25708304 122.90087453 11.25529171 117.8328394 11.25212836 C112.54150721 11.24960541 107.25017682 11.25194212 101.95884457 11.25351453 C93.07118677 11.25533641 84.18353725 11.25292942 75.29588071 11.24817395 C65.00474245 11.2427313 54.71362399 11.24449394 44.42248622 11.25000036 C35.60383805 11.25453095 26.78519587 11.2551823 17.96654692 11.25256169 C12.69205946 11.25099861 7.41758132 11.25080597 2.14309445 11.25409818 C-2.8144174 11.25697611 -7.77190358 11.25500264 -12.72941265 11.24920392 C-14.55440789 11.2478759 -16.37940527 11.24827114 -18.20439968 11.25046659 C-20.68476394 11.25317646 -23.16504461 11.24979898 -25.64540347 11.2447865 C-26.37719774 11.24701722 -27.10899201 11.24924794 -27.86296186 11.25154626 C-32.81994991 11.23195271 -32.81994991 11.23195271 -33.93409976 10.11780286 C-35.43334448 10.07020779 -36.9345568 10.08077711 -38.43409976 10.11780286 C-43.35629655 10.17454288 -48.05456396 9.74742038 -52.93409976 9.11780286 C-53.26409976 9.77780286 -53.59409976 10.43780286 -53.93409976 11.11780286 C-53.93409976 10.45780286 -53.93409976 9.79780286 -53.93409976 9.11780286 C-56.90409976 9.11780286 -59.87409976 9.11780286 -62.93409976 9.11780286 C-62.93409976 9.77780286 -62.93409976 10.43780286 -62.93409976 11.11780286 C-65.90409976 11.11780286 -68.87409976 11.11780286 -71.93409976 11.11780286 C-71.93409976 7.81780286 -71.93409976 4.51780286 -71.93409976 1.11780286 C-47.95092969 0.37637045 -23.99426746 -0.03094181 0 0 Z " fill="#0C0C0C" transform="translate(71.93409976363182,99.88219714164734)"/>
<path d="M0 0 C4.39502641 0.00452739 8.79005272 0.00309682 13.18508092 0.00264478 C21.97759639 0.00273268 30.77009942 0.00856934 39.56261106 0.01638556 C46.97665011 0.02284839 54.39068757 0.02693689 61.8047289 0.02968335 C148.27854947 0.06246159 234.75234903 0.19863837 452.8335713 0.55864537 C478.67265033 0.60341154 504.51173073 0.64730549 530.35081235 0.69055676 C531.24321997 0.69205082 532.1356276 0.69354488 533.05507788 0.69508421 C542.02496524 0.71010068 550.99485262 0.72510278 559.96474002 0.74009441 C578.20324844 0.77057726 596.4417567 0.80115542 614.68026486 0.83179212 C615.51704527 0.83319761 616.35382567 0.83460309 617.21596306 0.83605117 C672.16594487 0.92835814 727.11592288 1.02288635 782.06590024 1.11780286 C782.06590024 3.75780286 782.06590024 6.39780286 782.06590024 9.11780286 C781.25226733 9.11887107 781.25226733 9.11887107 780.42219741 9.11996087 C721.39863735 9.19748805 662.375079 9.27624426 603.35152951 9.36147046 C602.03010765 9.36337798 602.03010765 9.36337798 600.6819904 9.36532404 C581.53900881 9.39296505 562.39602756 9.42082802 543.25304664 9.4489198 C533.86603891 9.46269361 524.47903112 9.47641836 515.09202328 9.49011731 C513.6908044 9.49216344 513.6908044 9.49216344 512.26127806 9.4942509 C481.9546403 9.53848305 451.6479992 9.57947146 421.3413547 9.61878699 C390.21081508 9.65918839 359.08028169 9.70284376 327.94975248 9.75062397 C323.55801229 9.75736304 319.16627204 9.76406471 314.77453175 9.77074361 C313.47792931 9.7727172 313.47792931 9.7727172 312.15513288 9.77473066 C298.21155562 9.79585818 284.267976 9.81353087 270.32439246 9.82992817 C256.32401585 9.84646539 242.32364816 9.8666028 228.3232821 9.89047127 C219.99402111 9.90456044 211.66476711 9.91583321 203.33549737 9.92316724 C197.13337943 9.92893108 190.93128095 9.9398415 184.72917416 9.95283616 C182.20696826 9.95729696 179.68475867 9.96003668 177.162549 9.96096485 C173.75827387 9.96245845 170.35406648 9.96997847 166.94980469 9.97913766 C165.44967136 9.97760366 165.44967136 9.97760366 163.91923231 9.97603866 C163.02109926 9.97971938 162.12296622 9.98340009 161.19761702 9.98719233 C160.02799631 9.98883013 160.02799631 9.98883013 158.8347469 9.99050101 C157.03980577 9.92572257 157.03980577 9.92572257 156.06590024 11.11780286 C154.52469183 11.21581939 152.97899655 11.24412132 151.43467465 11.2447865 C149.9328539 11.24901624 149.9328539 11.24901624 148.40069333 11.25333142 C147.29312176 11.25130719 146.1855502 11.24928296 145.04441586 11.24719739 C143.88520123 11.24894971 142.7259866 11.25070203 141.53164425 11.25250745 C137.6784646 11.2569288 133.8253304 11.25398697 129.97215024 11.25061536 C127.30796508 11.25128832 124.64378133 11.25225656 121.97959653 11.25351453 C116.38742838 11.25533607 110.79527342 11.25293031 105.20310727 11.24817395 C98.72917522 11.24273136 92.25527466 11.24449402 85.78134337 11.25000036 C80.23230618 11.25453192 74.6832785 11.25518183 69.13424006 11.25256169 C65.81594715 11.25099915 62.49767238 11.2511946 59.17937985 11.25409818 C55.4820261 11.25662303 51.78473376 11.25278646 48.08738461 11.24719739 C46.97981305 11.24922162 45.87224148 11.25124585 44.73110715 11.25333142 C43.72989331 11.2505116 42.72867947 11.24769177 41.69712582 11.2447865 C40.82179951 11.24440948 39.9464732 11.24403245 39.04462186 11.243644 C37.06590024 11.11780286 37.06590024 11.11780286 36.06590024 10.11780286 C33.93534908 10.02878661 31.80180596 10.01094948 29.66941586 10.02014661 C29.00097653 10.02160687 28.3325372 10.02306714 27.64384213 10.02457166 C26.18640162 10.0283876 24.7289658 10.03451451 23.27154294 10.04263806 C20.9586419 10.05537726 18.64579814 10.06191237 16.33286801 10.06677747 C10.58019337 10.08016981 4.8275721 10.10421655 -0.92506656 10.12817883 C-5.77217555 10.14799902 -10.61926339 10.16361172 -15.46640262 10.17374158 C-17.7334647 10.18017687 -20.00043981 10.19269226 -22.26747379 10.20544934 C-29.23179035 10.22977931 -36.03090198 10.09900724 -42.93409976 9.11780286 C-43.26409976 9.77780286 -43.59409976 10.43780286 -43.93409976 11.11780286 C-43.93409976 10.45780286 -43.93409976 9.79780286 -43.93409976 9.11780286 C-46.90409976 9.11780286 -49.87409976 9.11780286 -52.93409976 9.11780286 C-53.26409976 9.77780286 -53.59409976 10.43780286 -53.93409976 11.11780286 C-53.93409976 10.45780286 -53.93409976 9.79780286 -53.93409976 9.11780286 C-56.90409976 9.11780286 -59.87409976 9.11780286 -62.93409976 9.11780286 C-62.93409976 9.77780286 -62.93409976 10.43780286 -62.93409976 11.11780286 C-65.90409976 11.11780286 -68.87409976 11.11780286 -71.93409976 11.11780286 C-71.93409976 7.81780286 -71.93409976 4.51780286 -71.93409976 1.11780286 C-47.95092969 0.37637045 -23.99426746 -0.03094181 0 0 Z " fill="#080808" transform="translate(71.93409976363182,79.88219714164734)"/>
<path d="M0 0 C8.23143712 0.00647074 16.46287281 0.01055249 24.69431197 0.01330534 C105.5451547 0.04102081 186.3959309 0.15657251 411.061048 0.54226735 C435.46136688 0.58716687 459.86168744 0.63104337 484.2620095 0.67417875 C485.10696492 0.67567281 485.95192035 0.67716686 486.82248048 0.67870619 C495.31667344 0.69372477 503.81086644 0.70872666 512.30505945 0.72371639 C529.57091695 0.75418588 546.83677426 0.78476595 564.10263145 0.8154141 C564.89450139 0.81681959 565.68637132 0.81822508 566.50223732 0.81967316 C618.35518885 0.91171945 670.20813572 1.00634124 722.06108176 1.10142484 C722.06108176 3.74142484 722.06108176 6.38142484 722.06108176 9.10142484 C529.01108176 9.10142484 335.96108176 9.10142484 137.06108176 9.10142484 C136.73108176 9.76142484 136.40108176 10.42142484 136.06108176 11.10142484 C136.06108176 10.44142484 136.06108176 9.78142484 136.06108176 9.10142484 C134.80295676 9.26642484 133.54483176 9.43142484 132.24858176 9.60142484 C125.96846598 10.25484729 119.70469371 10.15434443 113.39970481 10.06431547 C111.28690899 10.04229615 109.17372138 10.06758877 107.06108176 10.10142484 C106.73108176 10.43142484 106.40108176 10.76142484 106.06108176 11.10142484 C103.29706769 11.20192698 100.5580095 11.23758559 97.79350364 11.23081937 C96.49359237 11.23344785 96.49359237 11.23344785 95.16742026 11.23612943 C92.28820403 11.24054909 89.40904868 11.23760956 86.52983176 11.23423734 C84.53825449 11.23491035 82.5466773 11.23588035 80.55510032 11.23713651 C76.37528281 11.23861364 72.19548664 11.23645845 68.01567161 11.23179594 C62.6450565 11.22609864 57.27449136 11.22937757 51.90387809 11.2353684 C47.78965456 11.23897361 43.67544297 11.23783561 39.56121909 11.23524061 C37.5803739 11.23457123 35.59952764 11.23540014 33.61868369 11.23772016 C30.85531301 11.24024603 28.09202442 11.23640702 25.32865989 11.23081937 C24.50161048 11.23284361 23.67456107 11.23486784 22.82244956 11.23695341 C17.1753442 11.21568728 17.1753442 11.21568728 16.06108176 10.10142484 C14.65175601 10.00809076 13.23777148 9.98397191 11.82536399 9.98789945 C10.45447623 9.9880052 10.45447623 9.9880052 9.05589378 9.98811308 C7.53962394 9.99586256 7.53962394 9.99586256 5.99272239 10.00376859 C4.40484916 10.00595899 4.40484916 10.00595899 2.78489768 10.00819364 C0.47622294 10.01201105 -1.83244883 10.01813945 -4.14111245 10.02626005 C-7.79820762 10.03897889 -11.45526667 10.04552861 -15.11238015 10.05039945 C-24.20407377 10.0638029 -33.29573352 10.08790939 -42.38740456 10.11180082 C-50.0529147 10.13156097 -57.71841177 10.14719578 -65.38394082 10.15736356 C-68.98053734 10.1638311 -72.57708043 10.17634448 -76.17365945 10.18907133 C-78.39424003 10.19270654 -80.61482111 10.19605794 -82.83540261 10.19908109 C-83.83005532 10.20424741 -84.82470803 10.20941373 -85.84950173 10.21473661 C-91.62835135 10.21517162 -97.20680277 9.8452633 -102.93891824 9.10142484 C-103.26891824 9.76142484 -103.59891824 10.42142484 -103.93891824 11.10142484 C-103.93891824 10.44142484 -103.93891824 9.78142484 -103.93891824 9.10142484 C-106.90891824 9.10142484 -109.87891824 9.10142484 -112.93891824 9.10142484 C-113.26891824 9.76142484 -113.59891824 10.42142484 -113.93891824 11.10142484 C-113.93891824 10.44142484 -113.93891824 9.78142484 -113.93891824 9.10142484 C-116.90891824 9.10142484 -119.87891824 9.10142484 -122.93891824 9.10142484 C-122.93891824 9.76142484 -122.93891824 10.42142484 -122.93891824 11.10142484 C-125.90891824 11.10142484 -128.87891824 11.10142484 -131.93891824 11.10142484 C-131.93891824 7.80142484 -131.93891824 4.50142484 -131.93891824 1.10142484 C-87.96976065 -0.26362847 -43.98468896 -0.0350218 0 0 Z " fill="#070707" transform="translate(131.93891823664308,59.89857515692711)"/>
<path d="M0 0 C0.81038366 -0.001208 1.62076731 -0.00241601 2.45570805 -0.00366062 C5.16906395 -0.00647344 7.88236037 -0.00214788 10.59571362 0.00215912 C12.56887287 0.00163303 14.54203204 0.00067413 16.5151909 -0.00067854 C21.95352126 -0.00309253 27.39183151 0.00082435 32.83015946 0.00581622 C38.73427421 0.01019482 44.63838832 0.0089203 50.54250431 0.008461 C61.56001769 0.00854422 72.57752407 0.01348076 83.59503453 0.02083793 C93.97827989 0.02776247 104.36152376 0.03253248 114.744771 0.03549957 C191.76789418 0.05809759 268.79094787 0.14425213 523.21125834 0.56446159 C547.87181288 0.60947858 572.53236928 0.65333868 597.19292736 0.69637299 C598.04887756 0.69786704 598.90482776 0.6993611 599.78671584 0.70090043 C608.39255421 0.71592085 616.99839261 0.73092255 625.60423103 0.74591063 C643.09223681 0.77636846 660.58024237 0.80695018 678.0682478 0.83760834 C678.87005392 0.83901383 679.67186005 0.84041932 680.49796334 0.84186739 C732.87081643 0.93368601 785.24366436 1.02838826 837.61651134 1.12361908 C837.61651134 3.76361908 837.61651134 6.40361908 837.61651134 9.12361908 C644.56651134 9.12361908 451.51651134 9.12361908 252.61651134 9.12361908 C252.28651134 9.78361908 251.95651134 10.44361908 251.61651134 11.12361908 C251.61651134 10.46361908 251.61651134 9.80361908 251.61651134 9.12361908 C250.99905041 9.19580658 250.38158947 9.26799408 249.74541759 9.34236908 C245.34798667 9.82427932 241.04300658 10.18119951 236.61651134 10.12361908 C232.84011814 9.82547668 232.84011814 9.82547668 230.61651134 11.12361908 C230.61651134 10.46361908 230.61651134 9.80361908 230.61651134 9.12361908 C225.44716244 9.52918039 225.44716244 9.52918039 220.61651134 11.12361908 C220.61651134 10.46361908 220.61651134 9.80361908 220.61651134 9.12361908 C217.97651134 9.12361908 215.33651134 9.12361908 212.61651134 9.12361908 C212.28651134 9.78361908 211.95651134 10.44361908 211.61651134 11.12361908 C211.28651134 10.79361908 210.95651134 10.46361908 210.61651134 10.12361908 C209.2690405 9.89286826 207.9127357 9.71208845 206.55401134 9.56111908 C205.25463634 9.41674408 203.95526134 9.27236908 202.61651134 9.12361908 C202.28651134 9.78361908 201.95651134 10.44361908 201.61651134 11.12361908 C201.28651134 10.79361908 200.95651134 10.46361908 200.61651134 10.12361908 C199.2690405 9.89286826 197.9127357 9.71208845 196.55401134 9.56111908 C195.25463634 9.41674408 193.95526134 9.27236908 192.61651134 9.12361908 C192.28651134 9.78361908 191.95651134 10.44361908 191.61651134 11.12361908 C191.28651134 10.79361908 190.95651134 10.46361908 190.61651134 10.12361908 C189.2690405 9.89286826 187.9127357 9.71208845 186.55401134 9.56111908 C185.25463634 9.41674408 183.95526134 9.27236908 182.61651134 9.12361908 C182.28651134 9.78361908 181.95651134 10.44361908 181.61651134 11.12361908 C181.28651134 10.79361908 180.95651134 10.46361908 180.61651134 10.12361908 C179.2690405 9.89286826 177.9127357 9.71208845 176.55401134 9.56111908 C175.25463634 9.41674408 173.95526134 9.27236908 172.61651134 9.12361908 C172.28651134 9.78361908 171.95651134 10.44361908 171.61651134 11.12361908 C171.28651134 10.79361908 170.95651134 10.46361908 170.61651134 10.12361908 C169.2690405 9.89286826 167.9127357 9.71208845 166.55401134 9.56111908 C165.25463634 9.41674408 163.95526134 9.27236908 162.61651134 9.12361908 C162.28651134 9.78361908 161.95651134 10.44361908 161.61651134 11.12361908 C161.28651134 10.79361908 160.95651134 10.46361908 160.61651134 10.12361908 C159.2690405 9.89286826 157.9127357 9.71208845 156.55401134 9.56111908 C155.25463634 9.41674408 153.95526134 9.27236908 152.61651134 9.12361908 C152.28651134 9.78361908 151.95651134 10.44361908 151.61651134 11.12361908 C151.28651134 10.79361908 150.95651134 10.46361908 150.61651134 10.12361908 C149.2690405 9.89286826 147.9127357 9.71208845 146.55401134 9.56111908 C145.25463634 9.41674408 143.95526134 9.27236908 142.61651134 9.12361908 C142.28651134 9.78361908 141.95651134 10.44361908 141.61651134 11.12361908 C141.28651134 10.79361908 140.95651134 10.46361908 140.61651134 10.12361908 C139.2690405 9.89286826 137.9127357 9.71208845 136.55401134 9.56111908 C135.25463634 9.41674408 133.95526134 9.27236908 132.61651134 9.12361908 C132.28651134 9.78361908 131.95651134 10.44361908 131.61651134 11.12361908 C131.28651134 10.79361908 130.95651134 10.46361908 130.61651134 10.12361908 C129.2690405 9.89286826 127.9127357 9.71208845 126.55401134 9.56111908 C125.25463634 9.41674408 123.95526134 9.27236908 122.61651134 9.12361908 C122.28651134 9.78361908 121.95651134 10.44361908 121.61651134 11.12361908 C121.28651134 10.79361908 120.95651134 10.46361908 120.61651134 10.12361908 C119.2690405 9.89286826 117.9127357 9.71208845 116.55401134 9.56111908 C115.25463634 9.41674408 113.95526134 9.27236908 112.61651134 9.12361908 C112.28651134 9.78361908 111.95651134 10.44361908 111.61651134 11.12361908 C111.12151134 10.62861908 111.12151134 10.62861908 110.61651134 10.12361908 C109.2690405 9.89286826 107.9127357 9.71208845 106.55401134 9.56111908 C105.25463634 9.41674408 103.95526134 9.27236908 102.61651134 9.12361908 C102.28651134 9.78361908 101.95651134 10.44361908 101.61651134 11.12361908 C101.12151134 10.62861908 101.12151134 10.62861908 100.61651134 10.12361908 C99.2690405 9.89286826 97.9127357 9.71208845 96.55401134 9.56111908 C95.25463634 9.41674408 93.95526134 9.27236908 92.61651134 9.12361908 C92.28651134 9.78361908 91.95651134 10.44361908 91.61651134 11.12361908 C91.12151134 10.62861908 91.12151134 10.62861908 90.61651134 10.12361908 C89.2690405 9.89286826 87.9127357 9.71208845 86.55401134 9.56111908 C85.25463634 9.41674408 83.95526134 9.27236908 82.61651134 9.12361908 C82.28651134 9.78361908 81.95651134 10.44361908 81.61651134 11.12361908 C81.12151134 10.62861908 81.12151134 10.62861908 80.61651134 10.12361908 C79.2690405 9.89286826 77.9127357 9.71208845 76.55401134 9.56111908 C75.25463634 9.41674408 73.95526134 9.27236908 72.61651134 9.12361908 C72.28651134 9.78361908 71.95651134 10.44361908 71.61651134 11.12361908 C71.12151134 10.62861908 71.12151134 10.62861908 70.61651134 10.12361908 C69.2690405 9.89286826 67.9127357 9.71208845 66.55401134 9.56111908 C65.25463634 9.41674408 63.95526134 9.27236908 62.61651134 9.12361908 C62.28651134 9.78361908 61.95651134 10.44361908 61.61651134 11.12361908 C61.12151134 10.62861908 61.12151134 10.62861908 60.61651134 10.12361908 C59.2690405 9.89286826 57.9127357 9.71208845 56.55401134 9.56111908 C55.25463634 9.41674408 53.95526134 9.27236908 52.61651134 9.12361908 C52.28651134 9.78361908 51.95651134 10.44361908 51.61651134 11.12361908 C51.12151134 10.62861908 51.12151134 10.62861908 50.61651134 10.12361908 C49.2690405 9.89286826 47.9127357 9.71208845 46.55401134 9.56111908 C45.25463634 9.41674408 43.95526134 9.27236908 42.61651134 9.12361908 C42.28651134 9.78361908 41.95651134 10.44361908 41.61651134 11.12361908 C41.12151134 10.62861908 41.12151134 10.62861908 40.61651134 10.12361908 C39.2690405 9.89286826 37.9127357 9.71208845 36.55401134 9.56111908 C35.25463634 9.41674408 33.95526134 9.27236908 32.61651134 9.12361908 C32.28651134 9.78361908 31.95651134 10.44361908 31.61651134 11.12361908 C31.12151134 10.62861908 31.12151134 10.62861908 30.61651134 10.12361908 C29.2690405 9.89286826 27.9127357 9.71208845 26.55401134 9.56111908 C25.25463634 9.41674408 23.95526134 9.27236908 22.61651134 9.12361908 C22.28651134 9.78361908 21.95651134 10.44361908 21.61651134 11.12361908 C21.12151134 10.62861908 21.12151134 10.62861908 20.61651134 10.12361908 C19.2690405 9.89286826 17.9127357 9.71208845 16.55401134 9.56111908 C15.25463634 9.41674408 13.95526134 9.27236908 12.61651134 9.12361908 C12.61651134 9.78361908 12.61651134 10.44361908 12.61651134 11.12361908 C11.95651134 11.12361908 11.29651134 11.12361908 10.61651134 11.12361908 C10.61651134 10.46361908 10.61651134 9.80361908 10.61651134 9.12361908 C7.97651134 9.12361908 5.33651134 9.12361908 2.61651134 9.12361908 C2.61651134 9.78361908 2.61651134 10.44361908 2.61651134 11.12361908 C1.95651134 11.12361908 1.29651134 11.12361908 0.61651134 11.12361908 C0.61651134 10.46361908 0.61651134 9.80361908 0.61651134 9.12361908 C0.05963634 9.20740814 -0.49723866 9.2911972 -1.07098866 9.37752533 C-6.44139973 10.09418492 -11.03732297 9.99844619 -16.38348866 9.12361908 C-16.38348866 6.48361908 -16.38348866 3.84361908 -16.38348866 1.12361908 C-10.874808 0.34348264 -5.5588852 -0.01932787 0 0 Z " fill="#010101" transform="translate(16.383488655090332,129.87638092041016)"/>
<path d="M0 0 C1.64021456 0.00279276 3.28042912 0.00558513 4.92064369 0.00837713 C44.44469317 0.07584336 83.96871433 0.15566663 123.49272785 0.24147995 C148.98293844 0.29682279 174.47315407 0.34838808 199.96337891 0.39672852 C201.24816426 0.39916689 201.24816426 0.39916689 202.55890488 0.40165452 C211.17078923 0.41799542 219.7826737 0.43427267 228.39455825 0.45050358 C245.8936446 0.48348574 263.39273014 0.51688906 280.89181519 0.55055237 C282.09519107 0.55286654 282.09519107 0.55286654 283.32287758 0.55522746 C335.69182882 0.65598401 388.06076002 0.76654189 440.4296875 0.87890625 C440.4296875 3.51890625 440.4296875 6.15890625 440.4296875 8.87890625 C439.23492408 8.8806425 438.04016067 8.88237875 436.8091923 8.88416761 C384.17889189 8.96071617 331.54859342 9.03849293 278.91830444 9.12257385 C278.12207885 9.12384553 277.32585325 9.12511721 276.5054996 9.12642743 C259.20327785 9.15406884 241.90105647 9.18193181 224.59883545 9.21002319 C216.11439297 9.22379693 207.62995041 9.23752169 199.14550781 9.2512207 C197.87902091 9.25326683 197.87902091 9.25326683 196.58694841 9.25535429 C169.19740935 9.29958162 141.8078666 9.34057138 114.41832009 9.37989038 C86.28274752 9.42029737 58.14718183 9.4639543 30.01162076 9.51172736 C26.04183918 9.51846637 22.07205753 9.52516805 18.10227585 9.531847 C16.93025809 9.53382059 16.93025809 9.53382059 15.7345632 9.53583405 C3.13386277 9.55695655 -9.46684027 9.5746314 -22.06754762 9.59103156 C-34.72145284 9.60757401 -47.37534821 9.62771382 -60.02924179 9.65157466 C-66.89109162 9.66441284 -73.75293495 9.67562084 -80.61479378 9.68232536 C-86.88661145 9.68860802 -93.15840384 9.69941213 -99.43020768 9.71393955 C-101.70882573 9.71839659 -103.98744784 9.72113927 -106.26607005 9.72206824 C-109.34421057 9.72356428 -112.42227663 9.73109197 -115.50040245 9.74024105 C-116.4016036 9.73921838 -117.30280474 9.73819571 -118.23131502 9.73714206 C-122.53670268 9.62742461 -122.53670268 9.62742461 -126.5703125 10.87890625 C-126.5703125 10.21890625 -126.5703125 9.55890625 -126.5703125 8.87890625 C-131.7396614 9.28446756 -131.7396614 9.28446756 -136.5703125 10.87890625 C-136.5703125 10.21890625 -136.5703125 9.55890625 -136.5703125 8.87890625 C-139.2103125 8.87890625 -141.8503125 8.87890625 -144.5703125 8.87890625 C-144.5703125 9.53890625 -144.5703125 10.19890625 -144.5703125 10.87890625 C-145.2303125 10.87890625 -145.8903125 10.87890625 -146.5703125 10.87890625 C-146.5703125 10.21890625 -146.5703125 9.55890625 -146.5703125 8.87890625 C-147.83097503 9.04220901 -149.09163755 9.20551176 -150.39050198 9.37376308 C-155.75551715 9.96594137 -161.05479897 9.998725 -166.44728088 9.9611969 C-167.50852722 9.95796777 -168.56977355 9.95473864 -169.66317886 9.95141166 C-173.2007019 9.93939784 -176.73814499 9.92001254 -180.27563477 9.90063477 C-182.81880014 9.89048548 -185.36196738 9.88079252 -187.90513611 9.871521 C-193.37091962 9.85057106 -198.83667449 9.82646049 -204.30243111 9.79944038 C-212.20487639 9.76037996 -220.1073378 9.72707318 -228.00981473 9.69514512 C-240.83281563 9.64318177 -253.6557918 9.58660183 -266.47875977 9.52709961 C-278.93089843 9.46932807 -291.3830437 9.41374261 -303.83520508 9.36108398 C-304.60348543 9.35783427 -305.37176577 9.35458455 -306.16332734 9.35123635 C-310.01778187 9.33494599 -313.87223657 9.31869846 -317.72669137 9.30247223 C-349.67459578 9.16792469 -381.62246273 9.02587682 -413.5703125 8.87890625 C-413.5703125 6.23890625 -413.5703125 3.59890625 -413.5703125 0.87890625 C-330.81651792 0.43677363 -248.06168006 0.04182787 0 0 Z " fill="#000000" transform="translate(413.5703125,430.12109375)"/>
</svg>
