<?xml version="1.0" standalone="no"?>
<!DOCTYPE svg PUBLIC "-//W3C//DTD SVG 20010904//EN"
 "http://www.w3.org/TR/2001/REC-SVG-20010904/DTD/svg10.dtd">
<svg version="1.0" xmlns="http://www.w3.org/2000/svg"
 width="854.000000pt" height="1280.000000pt" viewBox="0 0 854.000000 1280.000000"
 preserveAspectRatio="xMidYMid meet">

<g transform="translate(0.000000,1280.000000) scale(0.100000,-0.100000)"
fill="#000000" stroke="none">
<path d="M5320 12690 l0 -110 -225 0 -225 0 0 70 0 70 -70 0 -70 0 0 -69 0
-68 -150 -8 -149 -7 -3 -71 -3 -72 -72 -3 -73 -3 0 -68 0 -68 -140 -7 c-78 -4
-316 -4 -530 0 l-390 7 0 68 0 69 -143 0 -144 0 -6 -107 c-4 -58 -7 -123 -7
-145 l0 -38 75 0 75 0 0 -150 0 -150 -57 -1 c-32 -1 -101 -3 -153 -5 -52 -2
-125 -4 -162 -4 l-68 0 0 -70 0 -70 70 0 70 0 0 -118 c0 -66 3 -167 7 -225 l6
-107 369 0 368 0 0 -150 0 -150 -75 0 -75 0 0 -225 0 -224 -72 -3 -73 -3 -3
-72 -3 -73 -69 0 -70 0 0 -75 0 -75 70 0 70 0 0 -155 0 -155 75 0 75 0 0 -295
0 -295 -75 0 -75 0 0 -80 0 -80 -70 0 -70 0 0 -75 0 -75 -73 0 -74 0 -6 -217
c-4 -120 -7 -388 -7 -595 l0 -377 78 -3 77 -3 -1 -297 -2 -297 77 -3 76 -3 2
-150 c1 -82 2 -182 3 -222 l0 -72 73 -3 72 -3 -2 -222 -3 -222 78 -3 77 -3 -2
-222 -3 -223 75 0 c40 0 76 -4 79 -8 3 -5 2 -109 -1 -230 l-6 -222 -69 0 -68
0 0 -70 0 -70 70 0 70 0 0 -150 0 -150 75 0 75 0 0 -380 0 -380 75 0 75 0 0
-450 0 -450 -70 0 -69 0 -3 -73 -3 -72 -72 -3 -73 -3 0 -142 c0 -78 -1 -212
-3 -297 l-2 -155 72 -3 72 -3 3 -72 3 -72 73 -3 72 -3 0 -69 0 -70 80 0 80 0
0 70 0 70 70 0 70 0 2 -222 c1 -123 4 -190 5 -150 l4 72 69 0 70 0 0 -150 0
-150 75 0 75 0 0 -413 c0 -228 3 -462 7 -520 l6 -107 69 0 68 0 0 75 0 75 80
0 80 0 0 70 0 70 70 0 70 0 0 -76 c0 -50 4 -73 11 -69 5 4 73 4 149 0 l139 -8
4 -71 3 -71 2 73 2 72 70 0 69 0 4 -72 3 -73 2 73 2 72 70 0 69 0 4 -72 3 -73
2 73 2 72 70 0 70 0 0 -72 0 -73 305 -3 305 -4 0 76 0 76 70 0 70 0 0 -145 0
-145 74 0 74 0 7 145 7 144 72 3 71 3 3 73 3 72 74 0 75 0 0 75 0 75 75 0 75
0 0 74 0 73 147 9 148 9 0 65 0 65 75 5 75 5 3 72 3 72 72 3 72 3 3 72 3 72
72 3 72 3 3 73 3 72 69 0 70 0 0 80 0 80 -70 0 -70 0 0 73 c-1 39 -2 140 -3
222 l-2 150 -72 3 -73 3 0 69 c-1 39 -1 140 -1 225 0 85 0 220 1 300 l0 145
70 0 70 0 0 80 0 80 75 0 75 0 0 150 0 150 75 0 75 0 0 145 0 145 -70 0 -69 0
-4 -72 c-1 -40 -4 -7 -5 75 l-2 147 -70 0 -69 0 -4 -72 c-1 -40 -4 -7 -5 74
l-2 148 -291 0 c-160 0 -295 2 -300 5 -5 4 -9 73 -9 156 l0 149 -70 0 -70 0 0
75 0 75 70 0 70 0 0 70 0 70 -75 0 -75 0 0 80 0 80 -75 0 -75 0 0 225 0 225
-75 0 -75 0 0 300 0 300 -300 0 -300 0 0 150 0 150 -75 0 -75 0 0 145 0 145
75 0 75 0 0 305 0 305 75 0 75 0 0 188 c0 104 3 236 6 295 l7 105 148 7 149 8
0 68 0 69 70 0 69 0 4 -72 3 -73 2 73 2 72 70 0 69 0 4 -72 3 -73 2 73 2 72
70 0 70 0 0 -72 0 -73 75 3 75 4 2 -79 2 -78 3 73 4 72 69 0 70 0 0 -147 0
-148 75 3 75 4 0 -150 0 -150 150 -7 150 -7 0 -149 0 -149 75 0 75 0 2 -147
c1 -82 4 -115 5 -75 l4 72 69 0 70 0 0 -151 0 -151 -154 7 c-85 4 -218 4 -295
0 l-141 -7 0 -69 0 -69 108 0 c59 0 158 -3 220 -7 l112 -6 0 -69 0 -68 75 0
75 0 0 -81 0 -80 -72 1 c-40 1 -105 1 -145 1 l-72 -1 -3 -72 -3 -73 -144 -2
c-79 -2 -145 -4 -147 -6 -1 -1 -4 -67 -6 -147 l-3 -145 225 0 225 0 3 73 3 72
69 0 69 0 4 -72 3 -73 2 73 2 72 70 0 69 0 4 -72 3 -73 2 73 2 72 105 0 105 0
0 225 0 225 -110 0 -110 0 0 300 0 300 110 0 110 0 0 750 0 750 -110 0 -110 0
0 80 0 80 -75 0 -75 0 0 38 c0 22 3 87 7 145 l6 107 69 0 68 0 0 -75 0 -75
110 0 110 0 0 155 0 155 -105 0 -105 0 0 70 0 70 105 0 105 0 0 1840 0 1840
-630 0 -630 0 0 -35 0 -35 -79 0 -79 0 3 35 2 35 -152 0 -151 0 0 -37 1 -38
-75 -5 -75 -5 1 -67 0 -68 -78 0 -78 0 0 69 0 69 -150 7 -150 7 0 34 0 34
-450 0 -450 0 0 -110z m2100 -1990 l0 -70 -70 0 -70 0 0 70 0 70 70 0 70 0 0
-70z m-3150 -450 l0 -70 -70 0 -70 0 0 70 0 70 70 0 70 0 0 -70z m300 -300 l0
-70 -70 0 -70 0 0 70 0 70 70 0 70 0 0 -70z m-300 -150 l0 -70 -70 0 -70 0 0
70 0 70 70 0 70 0 0 -70z m300 -300 l0 -70 -70 0 -70 0 0 70 0 70 70 0 70 0 0
-70z m3600 -145 l0 -75 75 0 75 0 0 -81 0 -80 -72 1 c-40 1 -139 1 -220 1
l-147 -1 -3 -72 -3 -73 -72 -3 -73 -3 -2 -72 -2 -72 -3 73 -4 72 -69 0 -70 0
-2 -72 -2 -73 -3 73 -4 72 -69 0 -69 0 -3 -72 -3 -73 -147 -3 -148 -3 -2 -72
-2 -72 -3 73 -4 72 -69 0 -70 0 0 -75 0 -75 -75 0 -75 0 -2 -72 -2 -73 -3 73
-4 72 -69 0 -70 0 0 -70 0 -70 -80 0 -80 0 0 300 0 300 75 0 75 0 0 68 0 69
113 6 c61 4 196 7 300 7 l187 0 0 70 0 69 78 4 c42 1 245 4 450 5 l372 2 0
-75z m-3150 -605 l0 -70 -70 0 -70 0 0 70 0 70 70 0 70 0 0 -70z m600 -905 l0
-225 -70 0 -69 0 -3 78 -3 77 -72 3 -73 3 0 69 0 70 75 0 75 0 0 75 0 75 70 0
70 0 0 -225z m-1650 -220 l0 -145 -70 0 -70 0 0 145 0 145 70 0 70 0 0 -145z
m452 73 l2 -73 3 73 4 72 69 0 70 0 2 -72 2 -73 3 73 4 72 219 0 220 0 0 -145
0 -145 75 0 75 0 0 -81 0 -81 -150 7 -151 7 3 -78 3 -79 80 1 c44 1 144 -1
223 -3 l142 -5 0 -144 0 -144 -150 0 -150 0 0 69 0 69 -74 4 c-41 2 -72 -1
-69 -5 3 -4 2 -71 -2 -148 l-8 -139 -71 0 -72 0 1 63 c1 34 -1 68 -3 75 -3 8
-27 12 -73 12 l-69 0 0 70 0 70 70 0 70 0 0 80 0 80 -76 0 -77 0 4 -227 4
-228 -72 -3 -73 -3 0 -69 0 -70 70 0 70 0 0 -75 0 -75 -72 0 -73 0 -2 -224 -2
-225 79 -3 80 -3 0 73 0 72 70 0 70 0 0 -76 c0 -50 4 -73 11 -69 5 4 73 4 150
0 l139 -8 2 -71 2 -71 3 73 4 72 69 0 70 0 2 -147 c1 -82 4 -116 5 -77 l4 71
106 6 c58 4 156 4 218 1 l112 -7 6 -108 c4 -60 4 -159 0 -219 l-6 -110 -142 0
-142 0 -6 -112 c-4 -62 -6 -165 -5 -228 1 -85 3 -96 5 -42 l4 72 69 0 70 0 0
-70 0 -70 75 0 75 0 0 75 0 75 -69 0 -69 0 -4 73 -3 72 75 0 75 0 3 73 3 72
69 0 70 0 0 80 0 80 75 0 75 0 0 -80 0 -80 -70 0 -70 0 0 -103 c0 -57 -3 -159
-7 -225 l-6 -122 76 0 77 0 0 -295 0 -295 -75 0 -75 0 0 -75 0 -75 -145 0
-145 0 0 70 0 70 69 0 c39 0 72 4 75 9 3 4 3 105 -1 225 l-6 216 -68 0 -68 0
-3 -72 -3 -73 -75 0 -75 0 -3 72 -3 72 -72 3 -72 3 -3 148 -3 147 -68 0 -69 0
-7 -150 -8 -150 -68 0 -69 0 -2 -72 -2 -73 -3 73 -4 72 -74 0 -75 0 0 150 0
150 -70 0 -69 0 -4 -72 c-1 -40 -4 95 -5 300 l-2 374 -75 -4 -75 -3 0 77 0 77
-72 3 -73 3 -3 73 -3 72 -74 0 -75 0 0 305 0 305 -75 0 -75 0 0 78 c0 42 3
175 7 295 l6 217 69 0 68 0 0 -150 0 -151 78 3 77 3 0 78 0 77 73 0 72 0 0 75
0 75 -69 0 -69 0 -7 141 c-4 77 -4 210 0 295 l7 154 69 0 69 0 2 -72z m898
-1123 l0 -145 -70 0 -70 0 0 145 0 145 70 0 70 0 0 -145z m-300 -75 l0 -80 75
0 75 0 0 -68 0 -69 -109 -6 c-60 -4 -161 -4 -225 0 l-116 6 0 37 c0 20 3 85 6
143 l7 106 71 4 c39 1 104 4 144 5 l72 2 0 -80z m1052 -1347 l3 -78 73 -3 72
-3 0 -69 0 -70 75 0 75 0 0 -231 0 -231 -75 4 -75 3 0 -72 0 -73 -76 0 -76 0
4 143 c1 78 2 213 1 300 l-3 157 -72 0 -73 0 -3 150 -3 150 75 0 75 0 3 -77z
m458 -3 l0 -70 -75 0 -75 0 0 70 0 70 75 0 75 0 0 -70z m440 -150 l0 -70 -75
0 -75 0 0 70 0 70 75 0 75 0 0 -70z m-2400 -375 l0 -145 -75 0 -75 0 0 -75 0
-75 -144 0 -144 0 -4 75 -3 75 73 0 72 0 0 70 0 70 -70 0 -70 0 0 75 0 75 220
0 220 0 0 -145z m197 -455 l103 0 0 -70 0 -70 -219 0 -219 0 -4 76 -3 77 119
-7 c66 -3 166 -6 223 -6z m1003 -220 l0 -70 -70 0 -70 0 0 70 0 70 70 0 70 0
0 -70z m-600 -150 l0 -70 -70 0 -70 0 0 70 0 70 70 0 70 0 0 -70z m-600 -445
l0 -75 -73 0 -73 0 2 73 c1 39 2 73 3 75 0 1 33 2 71 2 l70 0 0 -75z"/>
<path d="M4270 6655 l0 -75 75 0 75 0 0 75 0 75 -75 0 -75 0 0 -75z"/>
<path d="M4580 5300 l0 -70 70 0 70 0 0 70 0 70 -70 0 -70 0 0 -70z"/>
<path d="M0 8519 l0 -1202 62 7 c33 4 117 4 185 0 l123 -7 0 -68 0 -69 -147 0
-148 0 -4 -225 -3 -225 76 0 76 0 0 75 0 75 155 0 155 0 0 68 0 69 107 6 c58
4 157 7 220 7 l113 0 0 75 0 75 75 0 75 0 0 145 0 145 -67 0 c-38 0 -111 2
-163 4 -52 2 -121 4 -152 5 l-58 1 0 68 0 69 107 6 c58 4 157 7 220 7 l113 0
0 75 0 75 225 0 225 0 0 75 0 76 153 -3 152 -3 3 -71 3 -71 -151 -8 -150 -7 0
-144 0 -144 220 0 220 0 0 75 0 75 150 0 150 0 0 150 0 150 -222 -3 -223 -2
-3 78 -3 77 76 0 75 0 0 145 0 145 -70 0 -69 0 -4 -72 -3 -73 -2 73 -2 72
-150 0 -150 0 0 -69 0 -68 -139 -8 c-77 -4 -145 -4 -151 0 -8 5 -10 58 -6 184
3 97 3 228 -1 292 l-6 117 -148 7 -149 7 0 74 0 74 -75 0 -75 0 0 75 0 75
-144 0 -144 0 -7 145 -7 145 -74 0 -74 0 0 80 0 80 -75 0 -75 0 0 70 0 70 -70
0 -69 0 -4 -72 -3 -73 -2 73 -2 72 -35 0 -35 0 0 -1201z m670 -1119 l0 -80
-147 3 -148 2 -3 78 -3 77 151 0 150 0 0 -80z"/>
<path d="M7420 7253 l0 -73 75 0 75 0 0 69 0 69 -75 4 -75 3 0 -72z"/>
<path d="M2633 7023 l-152 -4 -4 -72 -3 -72 -2 73 -2 72 -70 0 -70 0 0 -75 0
-75 -150 0 -149 0 -4 -72 -3 -73 -2 73 -2 72 -70 0 -70 0 0 -75 0 -75 -150 0
-149 0 -4 -72 -3 -73 -2 73 -2 72 -70 0 -69 0 -3 -72 -3 -73 -148 -3 -147 -3
0 -68 0 -68 -122 -6 c-66 -4 -168 -7 -225 -7 l-103 0 0 -69 0 -68 -150 -8
-150 -7 0 -68 0 -67 -150 -8 -149 -7 -4 -71 -3 -72 -2 73 -2 72 -35 0 -35 0 0
-376 0 -377 61 7 c34 3 84 6 110 6 l49 0 0 69 0 68 145 7 c79 4 149 5 155 1 6
-4 10 20 10 69 l0 76 150 0 150 0 0 75 0 75 145 0 145 0 0 -145 0 -145 75 0
75 0 0 -225 0 -225 75 0 75 0 0 -81 0 -81 -72 4 -73 3 3 -71 4 -72 144 -7 144
-7 0 -149 0 -149 78 0 78 0 -1 -62 c-1 -35 1 -69 3 -75 3 -9 27 -13 73 -13
l69 0 0 75 0 74 -72 3 -73 3 -3 80 c-2 44 0 144 3 223 l7 142 69 0 68 0 3 -72
3 -73 71 -3 71 -3 8 150 7 149 144 7 144 7 0 76 0 75 -220 -6 -220 -7 -1 78
c0 42 0 110 1 150 l1 72 -80 0 -81 0 0 80 0 80 -68 0 -69 0 -6 -112 c-4 -62
-7 -132 -7 -155 l0 -43 75 0 75 0 0 -150 0 -151 -72 3 -73 3 -3 78 -3 77 -68
0 -69 0 -7 150 -8 150 -73 0 -74 0 0 113 c0 63 3 162 7 220 l6 107 68 0 68 0
4 -72 3 -73 2 72 2 72 73 3 72 3 3 73 3 72 69 0 69 0 4 -72 3 -73 2 71 2 72
145 7 145 7 0 69 0 69 75 0 75 0 0 80 0 80 75 0 75 0 0 75 0 75 75 0 75 0 0
75 0 75 150 0 150 0 0 75 0 75 75 0 75 0 0 75 0 75 -67 -2 c-38 -1 -136 -4
-220 -5z"/>
<path d="M7276 6610 c-3 -60 -3 -159 0 -220 l7 -110 69 0 68 0 0 220 0 220
-68 0 -69 0 -7 -110z"/>
<path d="M2175 5529 c-4 -77 -4 -143 -1 -146 3 -4 6 26 6 65 l0 72 70 0 70 0
0 75 0 75 -69 0 -68 0 -8 -141z"/>
<path d="M903 4773 l-73 -4 0 -68 0 -68 110 -6 c61 -4 160 -4 220 0 l110 6 0
67 0 67 -107 6 c-58 4 -125 6 -147 5 -23 -1 -74 -4 -113 -5z"/>
<path d="M603 4623 l-73 -4 0 -68 0 -68 141 -8 c86 -4 145 -3 151 3 5 5 8 40
6 78 l-3 69 -75 1 c-41 0 -108 -1 -147 -3z"/>
<path d="M2022 4553 l3 -78 73 -3 72 -3 0 81 0 80 -75 0 -76 0 3 -77z"/>
<path d="M8322 4553 l3 -78 108 -3 107 -3 0 81 0 80 -110 0 -111 0 3 -77z"/>
<path d="M230 4400 l0 -70 70 0 70 0 0 70 0 70 -70 0 -70 0 0 -70z"/>
<path d="M1870 3880 l0 -150 75 0 75 0 0 -75 0 -75 -263 0 c-145 0 -312 -3
-370 -6 l-106 -7 -3 -71 -3 -71 -85 -2 c-47 -2 -146 0 -222 3 l-136 6 -7 149
-8 149 -73 0 -74 0 0 -75 0 -75 -72 0 -73 0 3 -74 4 -74 144 -7 144 -7 0 -69
0 -69 -145 0 -145 0 0 69 0 69 -80 4 -80 3 0 -147 0 -148 -185 0 -185 0 0
-305 0 -305 40 0 40 0 0 75 0 75 70 0 69 0 4 -72 3 -73 2 72 2 72 73 3 72 3 3
73 3 72 69 0 69 0 4 -72 3 -73 2 73 2 72 75 0 75 0 0 75 0 75 70 0 69 0 4 -72
3 -73 2 71 2 72 150 7 150 7 0 69 0 68 148 3 147 3 3 73 3 72 103 0 c57 0 158
3 224 7 l122 6 0 68 0 68 148 3 147 3 0 75 0 75 73 -3 72 -4 0 75 0 75 -151 7
-151 8 4 146 3 146 -77 3 -78 3 0 -151z"/>
<path d="M1430 3800 l0 -70 70 0 70 0 0 70 0 70 -70 0 -70 0 0 -70z"/>
<path d="M1130 3650 l0 -70 70 0 70 0 0 70 0 70 -70 0 -70 0 0 -70z"/>
<path d="M8180 3350 l0 -81 73 3 72 3 0 75 0 75 -72 3 -73 3 0 -81z"/>
<path d="M1122 1703 l3 -78 73 -3 72 -3 0 81 0 80 -75 0 -76 0 3 -77z"/>
<path d="M822 1553 l3 -78 73 -3 72 -3 0 81 0 80 -75 0 -76 0 3 -77z"/>
<path d="M1353 1322 l-73 -3 0 -69 0 -70 -155 0 -155 0 0 -75 0 -75 -57 -1
c-32 -1 -101 -3 -153 -5 -52 -2 -125 -4 -162 -4 l-68 0 0 -70 0 -70 -155 0
-155 0 0 -75 0 -75 -110 0 -110 0 0 -365 0 -365 265 0 265 0 0 60 0 59 148 3
147 3 3 72 3 73 222 2 222 3 3 72 3 72 147 3 147 3 3 73 3 72 68 0 68 0 7 145
c4 79 5 149 1 155 -3 5 -40 10 -81 10 l-74 0 0 219 0 219 -72 4 c-40 2 -106 2
-145 0z"/>
<path d="M680 1250 l0 -70 70 0 70 0 0 70 0 70 -70 0 -70 0 0 -70z"/>
<path d="M7280 1100 l0 -70 70 0 70 0 0 70 0 70 -70 0 -70 0 0 -70z"/>
<path d="M8177 1063 c-4 -58 -7 -294 -7 -525 l0 -418 75 0 75 0 0 -60 0 -60
110 0 110 0 0 365 0 365 -103 0 -104 0 -6 107 c-4 58 -7 157 -7 220 l0 113
-68 0 -69 0 -6 -107z"/>
<path d="M6830 350 l0 -70 70 0 70 0 0 70 0 70 -70 0 -70 0 0 -70z"/>
<path d="M7280 350 l0 -70 70 0 70 0 0 70 0 70 -70 0 -70 0 0 -70z"/>
<path d="M1570 205 l0 -75 -150 0 -150 0 0 -65 0 -65 230 0 230 0 -3 138 -2
137 -77 3 -78 3 0 -76z"/>
<path d="M6970 66 l0 -66 149 0 c110 0 151 3 154 13 4 9 6 9 6 0 1 -9 22 -13
71 -13 l70 0 0 60 0 60 -68 0 c-38 0 -139 3 -225 6 l-157 5 0 -65z"/>
</g>
</svg>
