<?xml version="1.0" standalone="no"?>
<!DOCTYPE svg PUBLIC "-//W3C//DTD SVG 20010904//EN"
 "http://www.w3.org/TR/2001/REC-SVG-20010904/DTD/svg10.dtd">
<svg version="1.0" xmlns="http://www.w3.org/2000/svg"
 width="854.000000pt" height="1280.000000pt" viewBox="0 0 854.000000 1280.000000"
 preserveAspectRatio="xMidYMid meet">

<g transform="translate(0.000000,1280.000000) scale(0.100000,-0.100000)"
fill="#000000" stroke="none">
<path d="M5335 12780 c-3 -11 -6 -37 -5 -57 5 -125 1 -149 -28 -151 -29 -2
-60 -18 -89 -45 l-23 -20 -6 31 c-5 26 -11 32 -32 32 -27 0 -92 -36 -92 -51 0
-23 -20 -6 -28 24 -8 28 -12 32 -38 29 -16 -2 -45 -16 -65 -32 l-36 -29 -10
32 c-5 18 -6 48 -2 67 5 19 3 52 -2 73 -9 36 -13 38 -37 32 -57 -14 -112 -73
-112 -120 0 -15 -7 -21 -25 -23 -35 -3 -81 -27 -99 -53 -15 -21 -15 -21 -24
12 -7 29 -13 34 -36 32 -54 -4 -116 -68 -116 -119 0 -17 -8 -23 -39 -28 -48
-7 -111 -72 -111 -114 0 -22 -5 -28 -26 -30 -30 -2 -61 -18 -91 -45 l-23 -20
-6 32 c-7 31 -9 33 -42 27 -20 -3 -49 -19 -68 -37 l-32 -31 -12 36 c-16 49
-50 46 -112 -12 l-27 -25 -9 34 c-8 30 -12 34 -41 32 -22 -1 -44 -12 -66 -33
-27 -26 -33 -29 -39 -15 -3 9 -6 25 -6 36 0 40 -87 14 -124 -37 -13 -17 -15
-16 -21 19 -4 20 -10 39 -14 41 -12 8 -83 -22 -107 -45 l-24 -22 -6 32 c-4 17
-11 34 -15 37 -16 9 -75 -15 -100 -42 l-24 -25 -11 33 c-8 25 -8 42 1 68 8 27
8 43 -1 70 -11 31 -16 35 -44 33 -21 -1 -44 -12 -65 -33 l-34 -33 -8 34 c-11
41 -35 47 -81 19 -53 -33 -74 -76 -67 -140 6 -62 6 -58 -1 -125 -5 -59 8 -89
28 -64 22 26 46 41 81 48 30 7 33 6 35 -16 1 -14 6 -32 11 -41 5 -9 5 -27 -1
-44 -6 -16 -7 -45 -4 -66 11 -62 2 -137 -15 -127 -12 8 -80 -22 -106 -47 l-23
-21 -6 31 c-4 22 -12 32 -25 32 -30 0 -69 -19 -93 -45 l-24 -26 -12 36 c-13
41 -30 44 -78 15 -58 -36 -84 -100 -66 -167 l6 -23 29 24 c30 25 96 52 106 43
4 -5 13 -184 11 -234 0 -30 1 -124 2 -140 1 -10 -2 -34 -7 -53 -6 -21 -6 -49
-1 -69 l9 -34 16 23 c15 21 85 59 111 60 6 0 12 -11 12 -24 0 -13 3 -32 6 -41
6 -14 8 -13 21 5 16 22 54 44 96 54 23 6 27 3 27 -16 0 -37 14 -52 30 -33 16
19 55 40 93 49 23 6 27 3 27 -16 0 -38 14 -52 31 -32 15 18 85 53 107 54 6 0
12 -9 12 -19 0 -11 3 -26 6 -35 5 -14 10 -12 35 9 29 23 98 49 108 40 2 -3 5
-65 5 -139 0 -139 -7 -166 -43 -166 -28 0 -79 -38 -96 -70 -16 -32 -23 -109
-10 -129 3 -7 1 -33 -6 -60 -9 -36 -9 -56 -1 -79 17 -51 -5 -101 -51 -117 -21
-7 -44 -18 -52 -25 -21 -17 -58 -98 -50 -110 4 -6 -5 -10 -20 -10 -81 0 -143
-98 -119 -187 6 -22 6 -22 43 6 20 16 50 32 67 36 30 6 32 4 38 -27 4 -18 6
-42 5 -53 -2 -23 -2 -119 1 -137 1 -7 -2 -30 -5 -50 -4 -20 -4 -53 -1 -74 l7
-36 27 25 c32 29 64 47 86 47 22 0 36 -61 24 -107 -7 -28 -6 -49 4 -78 10 -29
11 -49 4 -74 -6 -22 -6 -46 1 -71 6 -25 6 -44 0 -56 -5 -9 -7 -46 -3 -83 8
-90 -2 -124 -40 -131 -65 -14 -114 -66 -114 -121 0 -23 -6 -28 -35 -33 -46 -9
-102 -65 -111 -111 -5 -27 -11 -35 -28 -35 -31 0 -83 -35 -107 -72 -15 -26
-19 -44 -15 -83 3 -27 5 -58 5 -67 0 -10 0 -44 -1 -75 0 -32 0 -67 0 -78 -1
-11 0 -77 0 -147 1 -71 1 -136 1 -145 0 -10 -2 -139 -4 -288 -2 -148 -1 -278
2 -288 5 -18 6 -18 26 1 26 23 53 37 88 46 24 5 27 2 33 -27 4 -17 6 -40 6
-49 -1 -10 -1 -43 -1 -73 0 -30 0 -64 0 -75 0 -11 0 -45 0 -75 0 -30 0 -63 0
-72 0 -77 -8 -223 -13 -231 -3 -5 -1 -24 5 -41 11 -32 11 -32 26 -10 15 20 85
58 109 59 12 0 26 -50 24 -82 -1 -10 -1 -43 -1 -73 0 -30 0 -64 0 -75 0 -11 0
-45 0 -75 0 -30 0 -63 1 -72 0 -10 -2 -35 -6 -55 -3 -21 -3 -50 0 -64 l7 -27
22 20 c26 24 52 38 88 47 24 5 27 2 33 -27 4 -17 6 -40 6 -49 -1 -10 -1 -43
-1 -73 0 -30 0 -64 0 -75 0 -11 0 -45 0 -75 0 -30 0 -63 1 -72 0 -10 -2 -35
-6 -55 -3 -21 -3 -49 0 -64 l7 -25 30 25 c24 21 100 52 104 43 15 -27 22 -84
14 -100 -6 -10 -8 -40 -5 -66 3 -25 6 -54 5 -63 -1 -26 -1 -125 1 -145 0 -10
-2 -35 -6 -55 -3 -21 -3 -49 0 -64 l7 -25 30 25 c24 21 100 52 104 43 15 -27
22 -84 14 -100 -6 -10 -8 -40 -5 -66 3 -25 5 -53 5 -61 -1 -8 -2 -51 -3 -95
-5 -141 -2 -132 -44 -138 -75 -12 -128 -102 -108 -182 l7 -26 30 25 c17 14 43
29 57 32 15 3 32 7 38 9 17 5 22 -52 18 -195 -2 -69 -1 -138 3 -154 5 -28 6
-29 19 -11 21 29 66 55 95 55 21 0 27 -6 31 -27 3 -16 4 -195 2 -399 -1 -204
2 -377 7 -385 7 -11 11 -10 23 7 14 20 73 54 93 54 18 0 32 -69 21 -101 -7
-20 -7 -43 1 -77 8 -31 8 -58 2 -79 -5 -17 -7 -34 -4 -37 7 -7 11 -506 5 -564
-4 -35 -8 -42 -26 -42 -51 0 -126 -75 -126 -126 0 -17 -8 -23 -37 -29 -77 -14
-129 -104 -105 -183 8 -24 8 -41 1 -55 -6 -10 -8 -40 -5 -66 3 -25 6 -54 5
-63 -1 -37 -1 -129 1 -140 1 -7 -2 -30 -5 -50 -4 -20 -4 -53 -1 -74 l7 -36 27
25 c31 29 64 47 86 47 22 0 40 -64 28 -100 -6 -16 -9 -37 -7 -47 17 -82 15
-79 33 -57 27 32 49 45 87 54 33 7 35 7 35 -19 0 -14 4 -32 9 -40 5 -7 4 -27
-2 -46 -5 -18 -7 -49 -3 -69 l7 -37 34 29 c18 17 47 33 64 37 22 5 31 13 36
34 9 43 88 111 129 111 22 0 36 -61 24 -108 -6 -26 -6 -51 0 -76 7 -24 7 -48
0 -73 -7 -26 -7 -48 2 -76 l11 -39 27 25 c31 29 64 47 86 47 24 0 40 -64 26
-106 -9 -27 -9 -45 0 -78 8 -29 8 -49 1 -68 -9 -25 -8 -59 5 -101 5 -16 9 -14
40 13 39 34 80 48 97 31 6 -6 10 -33 8 -61 -1 -27 -2 -63 -2 -80 0 -16 0 -48
0 -70 0 -22 0 -56 0 -75 0 -19 0 -53 0 -75 0 -22 0 -55 0 -72 0 -18 0 -49 1
-68 0 -19 1 -57 1 -85 0 -27 1 -61 2 -75 0 -14 -2 -39 -5 -55 -3 -17 0 -46 6
-65 8 -24 8 -47 2 -72 -7 -25 -6 -48 2 -74 7 -24 8 -43 2 -55 -12 -22 -13 -89
-2 -107 7 -9 13 -8 26 7 10 11 38 28 61 37 36 13 46 23 60 60 19 49 61 89 104
99 22 5 33 15 41 39 16 49 85 106 129 106 14 0 29 -69 24 -114 -3 -25 -2 -57
1 -72 l7 -27 22 21 c22 21 86 52 107 52 5 0 10 -11 10 -24 0 -13 3 -32 6 -41
6 -14 11 -12 38 14 17 17 46 33 63 37 29 6 32 3 43 -31 l12 -37 27 25 c57 53
97 61 107 20 11 -44 15 -46 43 -19 37 35 90 53 102 35 5 -8 9 -22 9 -31 0 -26
20 -32 35 -10 14 18 73 52 92 52 17 0 33 -74 24 -106 -4 -16 -7 -33 -5 -39 1
-5 5 -23 9 -39 l6 -29 22 21 c21 20 86 52 105 52 5 0 13 -19 16 -42 7 -42 7
-43 24 -23 27 33 49 46 87 55 32 7 35 6 35 -15 0 -13 3 -31 6 -40 6 -14 11
-12 38 13 17 17 48 35 69 40 35 10 37 9 37 -13 0 -54 10 -57 51 -20 23 20 49
35 64 35 19 0 28 7 35 27 26 70 58 105 111 118 22 5 27 2 37 -30 7 -24 7 -46
1 -61 -5 -14 -6 -41 -3 -62 7 -36 7 -58 4 -135 -1 -20 2 -46 5 -57 6 -19 8
-18 36 10 17 16 43 33 57 36 15 3 32 7 39 9 16 5 26 83 15 120 -19 67 34 154
107 172 26 7 36 16 46 47 18 50 49 82 97 98 33 11 43 21 53 52 18 51 49 82 98
99 31 10 43 21 50 43 15 46 44 80 83 99 44 21 59 15 67 -24 l6 -30 29 29 c16
16 42 32 58 36 38 9 54 22 54 45 0 31 66 96 107 106 31 7 38 14 46 43 11 46
61 97 105 107 31 7 38 14 45 45 10 43 52 85 102 102 30 11 40 21 51 51 16 49
50 83 100 100 28 9 40 20 46 41 10 33 1 111 -12 119 -13 8 -80 -22 -107 -47
l-22 -21 -7 27 c-3 14 -3 43 0 64 4 20 6 45 6 55 -2 20 -2 119 -1 145 1 9 -2
38 -5 63 -3 26 -1 56 4 66 10 18 -3 81 -20 98 -9 9 -79 -23 -105 -47 l-22 -21
-7 27 c-3 14 -3 43 0 64 4 20 6 45 6 55 -2 20 -2 119 -1 145 1 9 -2 38 -5 63
-3 26 -1 55 4 66 7 13 7 32 -1 60 -8 30 -8 51 0 77 8 25 8 46 1 70 -23 74 20
154 97 180 32 11 41 20 46 45 10 47 36 80 77 98 20 8 44 19 51 22 23 11 33 61
21 107 -19 78 16 144 94 179 45 20 54 29 60 56 3 17 1 50 -5 71 -7 28 -7 49 0
70 14 39 -3 108 -25 108 -22 0 -54 -18 -86 -47 l-27 -25 -11 39 c-9 28 -9 50
-2 76 13 45 -2 107 -24 107 -22 0 -54 -18 -86 -47 l-27 -25 -12 40 c-9 30 -9
48 0 73 14 40 -2 109 -25 109 -22 0 -55 -18 -86 -48 l-28 -26 -6 32 c-4 18
-11 35 -16 38 -16 10 -57 -6 -92 -36 l-34 -31 -12 36 c-16 48 -51 44 -112 -13
l-28 -26 -6 33 c-11 52 -56 54 -109 5 -37 -34 -45 -20 -44 76 1 41 2 95 2 120
0 151 -1 154 -56 135 -22 -7 -49 -23 -62 -35 -20 -19 -23 -19 -29 -5 -11 30
-5 89 12 125 12 25 32 42 68 60 41 19 54 31 62 57 10 33 -3 103 -19 103 -19 0
-66 -23 -87 -43 -33 -31 -44 -9 -38 71 8 91 0 122 -32 122 -52 0 -88 -35 -131
-128 -3 -8 -23 -20 -45 -27 -21 -7 -48 -23 -61 -35 l-24 -22 -11 41 c-6 22 -8
51 -5 64 9 35 74 94 115 104 29 8 35 15 42 47 4 20 4 54 0 74 -5 20 -5 54 0
75 4 21 4 55 0 75 -5 20 -5 53 -1 72 5 19 5 52 2 73 -5 32 -9 37 -32 37 -29 0
-74 -26 -95 -56 -14 -18 -15 -18 -20 6 -10 44 -10 54 -3 95 4 22 3 56 -1 75
-5 19 -5 52 0 73 4 20 4 54 0 75 -5 20 -5 54 0 75 4 21 4 55 0 75 -5 20 -5 53
0 72 4 19 5 52 2 73 -5 31 -10 37 -31 37 -29 0 -59 -14 -90 -43 l-23 -20 -6
31 c-5 26 -11 32 -33 32 -29 0 -74 -26 -95 -56 -13 -17 -15 -16 -21 19 -4 20
-10 39 -14 41 -12 8 -83 -22 -107 -45 l-24 -22 -6 32 c-4 17 -9 33 -13 35 -12
8 -83 -22 -106 -44 l-24 -22 -9 33 c-5 20 -5 49 1 72 6 23 6 51 0 75 -6 21 -6
50 -1 67 5 17 6 49 3 73 -6 37 -9 42 -32 42 -31 0 -89 -34 -98 -58 -6 -16 -7
-16 -16 0 -12 21 -14 73 -5 113 3 17 2 46 -4 64 -20 72 33 159 110 178 29 8
36 15 43 47 6 22 5 52 0 74 -5 20 -6 54 -1 75 4 21 4 55 0 75 -5 20 -5 53 0
72 4 19 5 49 1 65 -19 96 20 174 98 195 32 9 40 17 48 45 6 22 6 48 1 67 -6
17 -6 49 -1 72 5 23 7 101 5 175 -3 143 2 166 48 208 12 11 39 26 59 31 l37
10 6 -38 6 -38 28 28 c16 16 47 33 69 39 35 10 42 16 47 44 9 46 77 107 120
107 8 0 20 -16 26 -35 l12 -36 34 31 c35 30 76 46 92 36 5 -3 12 -20 16 -38
l6 -32 28 26 c31 30 64 48 86 48 21 0 37 -63 29 -116 -3 -23 -3 -54 1 -69 l7
-26 30 25 c17 14 43 29 57 32 15 3 33 7 40 10 7 2 11 0 8 -5 -3 -5 -1 -23 5
-41 l11 -31 27 25 c24 23 70 46 91 46 16 0 29 -68 20 -100 -5 -17 -6 -42 -2
-58 3 -15 5 -58 4 -97 -1 -38 1 -78 4 -87 5 -16 9 -16 39 8 32 24 111 51 100
34 -3 -4 0 -21 6 -38 7 -20 7 -42 1 -64 -6 -22 -5 -49 3 -80 6 -26 8 -53 4
-60 -5 -7 -9 -23 -9 -35 0 -17 -6 -23 -21 -23 -69 0 -129 -67 -129 -143 0 -71
6 -79 39 -46 15 15 47 32 69 39 32 8 42 16 42 31 0 30 26 75 57 97 30 21 95
39 91 25 -1 -4 1 -23 5 -42 l7 -35 33 33 c20 18 48 34 69 37 34 6 35 5 41 -33
4 -22 3 -53 -2 -69 -4 -16 -6 -43 -3 -59 4 -30 5 -57 2 -128 -1 -20 2 -47 5
-58 7 -21 7 -21 33 4 31 29 65 47 86 47 22 0 40 -64 27 -100 -9 -28 -8 -61 5
-103 6 -18 8 -17 32 6 31 29 65 47 86 47 22 0 40 -64 28 -99 -6 -16 -7 -46 -2
-72 13 -66 2 -129 -22 -129 -25 0 -69 -23 -92 -49 -22 -24 -36 -14 -36 26 0
12 -3 24 -8 26 -12 8 -83 -20 -108 -44 l-24 -22 -6 31 c-5 26 -11 32 -32 32
-30 0 -88 -34 -97 -57 -5 -15 -7 -15 -15 -3 -6 8 -10 26 -10 39 0 22 -3 23
-37 18 -77 -13 -125 -94 -108 -184 7 -36 7 -37 23 -17 27 32 49 45 87 54 33 7
35 7 35 -19 0 -14 4 -33 10 -41 8 -12 10 -12 15 2 9 22 51 49 91 58 31 7 32 6
38 -32 l6 -40 36 31 c19 17 36 31 37 31 1 0 16 4 32 9 28 8 31 6 34 -18 2 -14
3 -37 3 -51 -1 -14 -2 -44 -2 -67 -1 -23 1 -51 5 -62 6 -20 8 -20 36 9 17 16
43 33 57 36 15 3 32 7 37 8 6 2 15 -16 20 -38 13 -54 -1 -116 -28 -116 -24 0
-56 -17 -88 -47 l-27 -25 -12 37 c-11 34 -14 37 -43 31 -45 -9 -96 -62 -103
-107 -6 -33 -10 -37 -42 -43 -21 -3 -49 -19 -69 -37 l-33 -33 -6 33 c-4 18
-13 35 -21 38 -22 9 -71 -17 -104 -55 -30 -34 -31 -38 -26 -104 3 -37 2 -80
-2 -95 -4 -15 -3 -48 2 -72 l9 -43 33 32 c22 21 44 32 66 33 29 2 33 -2 41
-32 l9 -34 34 33 c22 21 44 32 66 33 29 2 33 -2 41 -32 l9 -34 28 28 c16 14
46 32 67 40 30 10 41 20 51 51 15 44 37 71 75 90 40 21 57 17 64 -13 11 -44
15 -46 43 -20 60 57 95 60 111 11 l12 -36 27 25 c49 46 96 59 149 43 l22 -7 0
225 0 226 -26 6 c-48 12 -105 -3 -139 -36 -40 -39 -50 -29 -46 45 3 52 3 71 3
145 -1 57 -1 103 0 160 0 80 0 99 -2 145 -3 83 59 147 145 147 24 0 49 -3 55
-7 7 -4 10 227 10 743 0 832 6 762 -66 762 -41 0 -68 -12 -105 -47 l-26 -24
-10 38 c-5 21 -6 54 -1 73 4 19 5 52 2 73 -5 32 -9 37 -32 37 -30 0 -75 -26
-96 -55 -13 -18 -15 -17 -24 18 -8 28 -7 49 2 82 8 25 10 49 5 56 -15 25 -9
93 11 127 21 34 74 72 102 72 24 0 43 -62 30 -100 -6 -16 -9 -37 -7 -47 2 -10
7 -31 10 -47 l6 -29 27 25 c50 47 97 60 150 44 l22 -7 0 151 c0 111 -3 152
-12 155 -54 19 -122 4 -163 -35 l-24 -22 -9 33 c-27 103 83 207 186 175 l22
-7 0 1845 0 1846 -625 0 -625 0 -6 -37 c-5 -34 -9 -38 -37 -40 -17 -1 -47 -16
-68 -33 l-37 -30 -8 33 c-4 17 -8 34 -7 37 0 3 3 20 6 38 l6 32 -149 0 -150 0
-6 -40 c-5 -31 -11 -40 -26 -40 -50 0 -127 -69 -131 -117 -1 -17 -5 -29 -10
-26 -14 9 -74 -17 -98 -43 l-24 -25 -11 33 c-8 25 -8 42 2 70 7 21 9 40 5 43
-5 2 -11 18 -14 35 -4 18 -13 30 -22 30 -23 0 -67 -24 -89 -49 -22 -24 -36
-14 -36 27 0 17 -6 22 -26 22 -28 0 -94 -36 -94 -51 0 -5 -4 -9 -10 -9 -16 0
-29 68 -19 103 5 17 9 33 9 34 0 2 -202 3 -449 3 -440 0 -450 0 -456 -20z
m2092 -2045 c16 -52 0 -103 -35 -111 -15 -4 -43 -19 -63 -35 l-36 -28 -12 39
c-17 59 8 110 74 151 44 28 60 24 72 -16z m-3151 -414 c-3 -4 -1 -22 3 -39 14
-49 -5 -100 -41 -108 -16 -3 -45 -19 -63 -35 l-33 -30 -8 23 c-24 76 18 152
102 182 49 18 46 18 40 7z m301 -313 c8 -91 4 -140 -9 -132 -15 9 -75 -16 -99
-42 l-24 -25 -11 33 c-21 64 32 151 107 175 19 6 34 11 34 12 0 1 1 -9 2 -21z
m-295 -238 c-3 -19 -5 -39 -4 -43 1 -5 -2 -6 -7 -2 -13 8 -80 -21 -107 -46
l-21 -19 -10 34 c-20 66 27 144 103 171 l39 13 7 -36 c4 -21 4 -53 0 -72z
m299 -238 c16 -53 -7 -107 -48 -115 -17 -3 -44 -17 -61 -31 -25 -22 -31 -24
-36 -10 -23 61 19 160 79 184 40 17 54 11 66 -28z m3154 -146 l6 -29 22 21
c22 21 86 52 107 52 5 0 10 -10 10 -22 0 -38 14 -52 31 -32 15 18 85 53 107
54 6 0 12 -10 12 -22 0 -40 14 -51 34 -29 22 24 103 57 114 47 4 -4 6 -49 5
-100 -2 -100 7 -132 29 -105 22 27 61 49 89 49 23 0 27 -5 32 -37 3 -21 3 -53
-1 -72 -6 -29 -13 -36 -42 -44 -19 -5 -49 -22 -66 -38 -27 -26 -32 -28 -38
-14 -3 9 -6 25 -6 36 0 36 -59 21 -111 -28 l-27 -25 -12 36 c-13 42 -30 45
-78 16 -37 -23 -72 -75 -72 -107 0 -17 -6 -23 -21 -23 -26 0 -57 -16 -91 -48
l-27 -25 -11 27 c-5 15 -10 32 -10 37 0 23 -82 -11 -105 -43 -17 -25 -31 -17
-39 23 -5 28 -9 31 -33 24 -58 -14 -113 -73 -113 -121 0 -17 -8 -23 -38 -28
-24 -3 -49 -17 -67 -36 -31 -32 -45 -27 -45 18 0 15 -6 22 -20 22 -27 0 -70
-22 -94 -49 -20 -22 -36 -19 -36 7 0 36 -15 45 -53 33 -45 -15 -84 -60 -93
-106 -5 -26 -11 -35 -26 -35 -25 0 -57 -16 -89 -47 -28 -26 -32 -24 -43 20 -6
25 -10 28 -34 23 -55 -14 -110 -70 -114 -118 -1 -15 -6 -24 -10 -22 -11 7 -80
-24 -105 -48 l-22 -20 -7 37 c-3 20 -2 51 3 68 6 22 5 44 -4 70 -10 29 -11 48
-3 78 7 27 8 51 1 77 -7 26 -7 49 -1 73 6 18 7 48 4 64 -22 97 22 178 108 199
18 4 30 16 37 39 16 47 70 97 114 104 34 5 37 4 37 -18 0 -13 4 -31 10 -39 8
-12 10 -12 15 3 10 23 67 57 99 57 20 0 26 -5 26 -22 0 -13 4 -30 10 -38 8
-12 10 -12 15 2 9 22 51 49 91 58 31 7 33 6 39 -27 l6 -35 28 26 c15 15 44 31
64 37 28 7 38 17 47 43 15 46 69 96 113 103 34 5 37 4 37 -18 0 -13 4 -31 10
-39 8 -12 10 -12 15 3 9 23 67 57 98 57 21 0 26 -6 32 -37 5 -29 9 -34 16 -22
17 32 120 80 126 60 1 -3 4 -19 8 -35z m-2703 -604 c5 -20 4 -48 -2 -72 -8
-32 -16 -40 -33 -40 -24 0 -64 -23 -85 -49 -20 -25 -34 5 -29 66 4 56 20 82
72 115 42 26 67 20 77 -20z m596 -748 c7 -23 7 -45 1 -60 -5 -14 -6 -41 -2
-62 4 -20 6 -48 6 -62 -2 -40 -3 -113 -1 -145 2 -67 -4 -83 -38 -90 -18 -3
-46 -19 -63 -34 -29 -27 -32 -28 -41 -11 -13 24 -13 86 -1 109 9 16 -5 81 -21
97 -9 8 -90 -29 -107 -50 -19 -23 -31 -4 -31 47 0 67 38 118 106 142 28 9 41
21 48 41 14 45 42 80 78 97 47 23 53 21 66 -19z m-702 -304 c19 16 36 30 37
30 1 0 16 4 32 9 28 8 31 6 34 -18 6 -40 5 -73 -1 -107 -3 -17 0 -47 7 -66 7
-21 9 -42 4 -50 -10 -15 -11 -63 -3 -96 6 -22 6 -22 41 8 18 16 39 30 46 30 7
0 23 3 37 7 14 3 22 3 18 -1 -3 -4 -2 -21 3 -38 4 -17 6 -50 2 -74 -4 -35 -10
-44 -25 -44 -26 0 -69 -23 -93 -50 l-20 -22 -11 38 c-9 33 -15 38 -35 35 -86
-12 -135 -89 -116 -180 l9 -43 28 27 c27 26 103 60 107 47 1 -4 4 -20 8 -36
l6 -29 22 21 c22 21 86 52 107 52 5 0 10 -11 10 -24 0 -13 3 -32 6 -41 6 -14
11 -12 38 13 17 17 48 35 69 40 43 12 39 25 39 -143 0 -52 0 -104 -1 -115 -1
-15 -15 -27 -48 -41 -27 -11 -58 -30 -70 -41 l-23 -21 -6 31 c-5 26 -11 32
-32 32 -30 0 -88 -34 -96 -57 -16 -41 -40 58 -25 105 8 23 7 42 -1 68 -11 33
-15 36 -43 30 -35 -7 -72 -38 -93 -78 -8 -16 -13 -57 -13 -105 0 -95 -2 -114
-12 -107 -12 7 -80 -24 -105 -47 l-22 -21 -8 24 c-9 30 -8 73 4 94 6 11 5 31
-3 58 -11 35 -16 40 -36 37 -63 -9 -105 -51 -115 -113 -6 -32 -10 -37 -40 -43
-19 -3 -50 -20 -69 -36 l-34 -30 -11 40 c-10 38 -11 39 -41 31 -49 -14 -79
-39 -95 -75 -16 -39 -18 -103 -4 -125 8 -13 11 -13 22 1 23 27 46 41 83 49 32
7 35 6 35 -14 0 -36 14 -50 31 -30 15 19 85 53 108 54 8 0 12 -3 9 -6 -4 -3
-2 -20 3 -37 5 -18 6 -51 3 -74 -5 -38 -9 -43 -31 -43 -71 0 -129 -78 -119
-158 4 -26 6 -58 5 -72 -2 -34 -2 -101 -1 -125 1 -11 -1 -41 -4 -68 -3 -26 -3
-59 0 -73 l7 -25 30 31 c17 16 43 33 57 36 47 10 50 12 57 43 9 41 42 81 81
97 19 8 38 14 43 14 12 0 33 -73 26 -91 -12 -34 -13 -72 -3 -100 10 -30 11
-30 25 -9 16 22 53 44 96 54 24 6 27 4 27 -21 0 -45 13 -57 36 -32 21 24 45
38 83 49 23 6 26 4 27 -16 1 -13 5 -32 8 -41 6 -14 10 -13 34 10 15 14 45 33
67 40 l40 14 4 -31 c5 -41 4 -65 -1 -101 -3 -16 -1 -45 4 -64 l9 -34 28 28
c28 26 104 60 108 47 1 -4 4 -20 8 -36 l6 -29 22 21 c22 21 86 52 107 52 5 0
10 -12 10 -27 0 -45 13 -57 36 -32 22 24 45 38 83 49 21 6 27 4 28 -9 3 -43 4
-80 3 -122 -1 -26 3 -55 8 -66 7 -13 7 -32 -1 -60 -7 -27 -7 -52 -1 -74 6 -21
6 -48 -1 -76 -8 -37 -13 -43 -35 -43 -28 0 -73 -27 -94 -56 -13 -18 -15 -17
-23 16 -11 42 -34 49 -81 24 -51 -27 -73 -79 -72 -172 0 -42 0 -90 0 -107 0
-16 2 -41 5 -54 l6 -24 27 26 c15 15 45 33 67 40 32 11 41 20 46 46 9 43 63
98 106 108 29 7 37 15 49 48 16 47 63 93 105 102 23 4 31 13 39 42 5 20 17 47
26 60 16 22 85 60 110 61 15 0 26 -70 18 -119 -6 -35 -10 -40 -40 -46 -46 -8
-101 -65 -110 -111 -4 -20 -2 -52 4 -71 7 -24 7 -43 0 -64 -6 -17 -8 -52 -4
-78 4 -27 2 -60 -3 -73 -6 -16 -6 -42 1 -72 l10 -48 28 27 c15 15 45 32 66 40
44 15 69 64 52 99 -6 11 -11 40 -11 66 -1 72 44 124 124 144 25 5 27 3 33 -38
4 -23 2 -62 -3 -86 -5 -23 -8 -49 -5 -56 15 -49 13 -49 48 -15 19 19 47 34 69
38 34 5 37 4 37 -18 0 -13 4 -30 9 -38 5 -7 4 -27 -2 -46 -5 -18 -7 -49 -3
-69 l7 -37 29 25 c30 25 97 52 107 43 8 -9 10 -240 2 -264 -5 -12 -2 -44 5
-72 7 -28 9 -56 5 -63 -5 -7 -9 -23 -9 -34 0 -17 -8 -23 -39 -28 -46 -7 -111
-72 -111 -111 0 -20 -7 -26 -40 -35 -21 -6 -53 -22 -69 -36 l-30 -25 -9 33
c-5 20 -5 45 1 63 5 17 8 39 6 50 -2 17 -2 87 0 143 1 9 -2 38 -5 64 -3 25 -2
54 4 63 6 12 5 32 -3 59 -8 27 -9 51 -3 74 10 37 2 108 -13 118 -16 10 -75
-15 -101 -44 -42 -45 -52 -97 -32 -164 3 -9 0 -35 -6 -58 -7 -27 -8 -52 -1
-75 6 -22 5 -48 -1 -75 -8 -29 -8 -52 0 -76 17 -55 -2 -99 -49 -113 -45 -14
-85 -58 -99 -111 -8 -31 -16 -40 -32 -40 -24 0 -88 -37 -88 -51 0 -23 -21 -6
-27 21 -3 17 -9 33 -14 36 -12 7 -91 -29 -108 -50 -19 -23 -31 -4 -31 47 0 67
46 128 109 144 45 12 63 58 46 118 -8 26 -9 51 -3 73 6 21 6 51 -1 82 -7 33
-7 58 -1 76 14 36 -5 104 -28 104 -47 0 -122 -78 -122 -126 0 -17 -8 -23 -38
-28 -24 -3 -49 -17 -67 -37 l-30 -30 -11 38 c-7 23 -8 49 -2 68 4 17 5 50 2
74 -7 43 -7 43 -42 37 -20 -3 -49 -19 -67 -36 l-32 -31 -11 41 c-6 26 -7 53
-1 75 6 20 6 49 0 75 -6 26 -6 54 0 73 5 18 7 49 3 70 -5 29 -10 37 -27 37
-32 0 -84 -35 -107 -72 -20 -33 -27 -102 -12 -126 5 -7 4 -32 -2 -57 -8 -33
-15 -45 -29 -45 -24 0 -56 -17 -88 -47 l-27 -25 -12 36 c-6 20 -18 36 -26 36
-22 0 -66 -25 -89 -50 l-20 -22 -11 38 c-7 25 -8 53 -2 77 5 24 4 53 -2 78 -7
26 -8 51 -1 74 10 37 -2 105 -19 105 -21 0 -67 -23 -92 -47 l-27 -25 -10 39
c-21 78 18 152 94 177 31 11 43 22 54 50 18 48 8 106 -20 106 -26 0 -69 -23
-93 -49 -10 -11 -22 -18 -26 -16 -15 9 -21 81 -10 110 8 22 8 40 0 71 -9 32
-9 51 0 78 16 48 4 106 -22 106 -25 0 -57 -16 -89 -47 l-27 -25 -11 35 c-9 25
-9 47 -1 78 6 27 7 56 2 74 -8 26 -13 30 -42 28 -21 -1 -43 -12 -65 -33 l-33
-32 -10 35 c-6 22 -7 51 -1 74 12 56 1 113 -23 113 -25 0 -57 -17 -89 -47
l-27 -25 -12 37 c-9 28 -9 47 -1 78 8 28 8 53 2 74 -6 19 -6 47 0 72 5 22 5
57 1 78 -5 21 -4 57 1 80 5 24 5 55 -1 75 -5 19 -5 46 0 63 5 17 6 49 3 73 -6
38 -9 42 -33 42 -30 0 -75 -26 -96 -55 -13 -18 -15 -17 -25 20 -7 27 -7 51 -1
76 6 21 7 53 2 75 -5 22 -4 58 1 81 5 25 5 55 -1 76 -7 24 -6 45 3 71 9 27 10
46 3 70 -21 68 14 145 78 172 19 8 38 14 43 14 16 0 30 -67 21 -100 -5 -16 -6
-47 -3 -67 3 -21 5 -49 5 -63 -4 -67 -2 -103 3 -121 7 -20 8 -20 34 5 15 14
44 32 65 39 34 12 41 19 53 60 15 52 47 82 103 97 33 9 38 14 44 48 3 21 1 54
-5 75 -9 34 -12 37 -37 31 -15 -4 -44 -19 -64 -35 l-37 -29 -7 36 c-4 20 -2
51 4 70 7 24 6 43 -3 70 -9 26 -9 47 -2 75 6 25 6 53 0 77 -6 22 -6 52 0 75 6
24 6 52 -1 76 -16 64 18 135 80 167 40 21 57 17 64 -13 11 -44 15 -46 43 -20
60 56 95 60 111 12 l12 -36 34 31 c35 30 76 46 92 36 5 -3 12 -20 16 -38 l6
-32 33 31 c17 17 48 36 67 40 35 9 35 9 43 -29 l8 -39 35 31z m-944 5 c5 -18
4 -49 -3 -77 -8 -33 -8 -57 -1 -77 17 -48 -4 -98 -45 -112 -18 -6 -47 -22 -63
-35 l-29 -25 -7 37 c-4 20 -2 50 3 68 6 21 5 44 -2 71 -20 68 5 126 70 167 41
25 67 20 77 -17z m1347 -1053 c7 -22 7 -50 2 -68 -4 -16 -6 -38 -4 -49 4 -20
4 -88 1 -122 -2 -12 -12 -19 -31 -20 -56 -4 -117 -70 -117 -125 0 -18 -6 -24
-26 -26 -30 -2 -61 -18 -91 -45 l-23 -20 -6 32 c-7 31 -9 33 -42 27 -19 -3
-48 -18 -64 -33 -24 -23 -30 -25 -38 -13 -5 8 -10 23 -10 32 0 9 -3 19 -8 21
-14 10 -87 -23 -109 -47 -19 -22 -22 -23 -27 -8 -14 50 -16 81 -7 105 7 18 7
36 0 54 -15 39 6 114 41 148 27 26 103 60 107 47 1 -4 4 -20 8 -36 l6 -29 22
20 c26 24 52 38 87 46 21 5 25 2 28 -21 4 -29 5 -63 2 -125 -1 -20 2 -47 5
-58 7 -20 8 -20 38 9 18 17 47 34 66 39 44 11 65 62 49 116 -21 68 13 145 76
173 47 20 54 17 65 -24z m1212 -1532 c0 -8 -3 -30 -7 -47 -5 -27 -11 -33 -31
-33 -30 0 -88 -34 -97 -56 -8 -21 -23 -10 -29 23 -15 73 34 152 109 178 l39
13 8 -31 c5 -18 8 -39 8 -47z m-2218 -422 c18 17 49 35 70 40 35 10 37 9 37
-13 0 -13 3 -31 6 -40 6 -14 12 -11 39 15 18 17 48 35 67 39 31 7 34 6 37 -18
5 -35 4 -69 -1 -106 -3 -16 -1 -43 3 -59 5 -15 6 -48 2 -72 -5 -39 -9 -44 -32
-44 -50 0 -121 -68 -121 -116 0 -16 -10 -24 -40 -33 -21 -6 -53 -23 -70 -37
l-30 -26 -6 31 c-4 17 -10 34 -15 37 -12 7 -91 -29 -108 -50 -33 -40 -43 61
-12 122 21 40 50 62 95 71 36 8 50 45 41 110 l-7 43 -35 -5 c-20 -4 -49 -19
-65 -34 -24 -23 -30 -25 -38 -13 -16 25 -11 89 9 128 21 41 50 62 96 72 28 6
30 4 38 -33 l9 -39 31 30z m302 -598 c22 21 44 32 66 33 29 2 33 -2 41 -32 l9
-34 32 31 c18 16 48 35 68 40 l37 10 6 -40 c9 -57 -9 -118 -36 -118 -27 0 -84
-35 -93 -57 -5 -15 -7 -15 -15 -3 -6 8 -10 25 -10 38 0 17 -6 22 -26 22 -28 0
-94 -36 -94 -51 0 -23 -21 -6 -27 21 -3 17 -8 32 -12 34 -11 7 -83 -22 -106
-44 -20 -19 -23 -19 -29 -5 -11 29 -6 86 10 120 18 38 54 65 99 75 28 6 30 4
38 -33 l9 -39 33 32z m1155 -145 c18 -53 -1 -101 -46 -115 -19 -7 -48 -23 -64
-36 -33 -29 -43 -21 -43 36 0 48 29 98 73 127 47 33 66 30 80 -12z m-601 -150
c6 -22 6 -48 0 -70 -8 -28 -17 -36 -46 -44 -20 -6 -48 -22 -64 -37 l-27 -26
-7 32 c-15 68 19 140 79 166 46 20 54 17 65 -21z m-596 -522 c-5 -38 -9 -43
-32 -43 -29 0 -74 -26 -95 -55 -13 -18 -14 -16 -21 16 -22 94 22 170 110 189
28 6 30 4 37 -29 3 -20 4 -55 1 -78z"/>
<path d="M4677 7165 c-46 -16 -64 -30 -83 -67 -20 -39 -25 -83 -12 -119 l10
-30 27 25 c15 14 44 32 66 39 32 11 40 20 50 53 8 28 8 48 0 71 -15 43 -14 43
-58 28z"/>
<path d="M5548 5052 c-63 -42 -86 -108 -63 -181 6 -20 8 -20 36 9 17 16 43 33
57 36 15 3 32 7 38 9 16 5 25 60 18 106 -6 34 -10 39 -33 39 -14 0 -38 -8 -53
-18z"/>
<path d="M17 9709 c-16 -9 -17 -78 -17 -1209 l0 -1199 37 13 38 13 2 -30 c3
-37 20 -57 29 -34 8 21 50 48 91 57 29 7 33 6 33 -14 0 -11 5 -28 10 -36 8
-13 11 -13 22 1 21 26 61 49 85 49 17 0 24 8 32 38 18 66 53 99 122 115 25 6
27 4 33 -32 l6 -39 29 28 c16 16 41 32 57 35 16 4 34 8 40 10 6 2 14 19 18 37
8 43 59 93 108 106 36 10 38 9 38 -13 0 -13 3 -31 6 -40 6 -14 8 -13 22 6 14
21 84 58 110 59 6 0 12 -10 12 -22 0 -13 5 -30 10 -38 8 -13 11 -13 22 1 21
26 61 49 85 49 17 0 24 8 32 38 18 66 53 99 124 116 23 6 27 3 27 -16 0 -37
14 -52 30 -33 16 19 55 40 91 49 24 5 27 3 33 -30 l7 -35 34 29 c18 17 46 33
62 36 21 5 34 19 53 59 25 52 57 79 113 92 23 6 27 4 27 -13 0 -11 3 -28 6
-37 6 -14 9 -14 29 5 13 12 40 28 62 35 31 10 41 21 53 53 20 54 55 90 101
104 50 14 65 52 48 119 -9 33 -9 54 -1 77 8 22 7 41 -1 67 -9 32 -14 35 -36
30 -30 -8 -81 -43 -81 -56 0 -23 -20 -6 -28 24 -8 28 -12 32 -41 30 -22 -1
-44 -12 -66 -33 -27 -26 -33 -29 -39 -15 -3 9 -6 25 -6 36 0 24 -29 25 -76 3
-37 -18 -73 -68 -76 -106 -1 -17 -8 -25 -25 -26 -33 -3 -79 -28 -97 -54 -16
-22 -16 -22 -22 11 -4 18 -13 35 -21 38 -18 7 -67 -14 -89 -38 -9 -10 -21 -19
-25 -19 -15 0 -26 64 -17 98 6 19 6 51 1 75 -6 25 -5 58 0 80 6 24 6 52 -1 76
-6 28 -6 49 3 75 10 29 10 43 0 72 -8 25 -10 49 -3 77 10 46 -6 107 -28 107
-22 0 -66 -25 -88 -49 -22 -24 -36 -14 -36 26 0 12 -3 24 -8 26 -12 8 -83 -20
-107 -43 l-24 -22 -9 33 c-5 20 -5 49 1 71 6 26 5 48 -4 77 l-14 39 -38 -13
c-22 -7 -49 -23 -62 -35 l-24 -22 -9 33 c-5 19 -5 47 0 64 11 38 0 105 -18
112 -24 9 -61 -6 -93 -37 l-30 -31 -11 40 c-10 38 -12 39 -40 31 -36 -10 -49
-17 -77 -43 l-22 -19 -9 33 c-6 23 -5 46 3 69 9 27 9 45 0 75 -8 27 -9 51 -2
74 6 24 5 47 -3 74 -11 37 -13 39 -43 33 -17 -4 -46 -20 -63 -37 -32 -31 -32
-31 -39 -9 -9 28 -9 82 0 109 10 34 -13 91 -37 91 -24 0 -88 -37 -88 -51 0 -5
-4 -9 -10 -9 -15 0 -27 62 -19 100 10 44 -6 110 -27 110 -21 0 -54 -18 -85
-47 l-27 -25 -12 36 c-12 37 -30 44 -63 25z"/>
<path d="M1964 7911 c-35 -15 -84 -79 -84 -111 0 -26 -4 -30 -26 -30 -32 0
-89 -34 -99 -57 -5 -15 -7 -15 -15 -3 -6 8 -10 26 -10 39 0 22 -3 23 -36 18
-82 -14 -135 -110 -105 -190 6 -16 6 -37 -1 -60 -6 -19 -8 -51 -4 -71 l7 -36
37 29 c20 16 52 32 70 36 29 6 32 4 32 -17 0 -38 14 -52 31 -32 14 18 85 53
105 54 7 0 15 -16 18 -36 l7 -35 34 29 c18 17 47 33 63 37 21 4 32 14 37 32
14 58 61 101 128 117 23 6 27 3 27 -16 0 -38 14 -52 31 -32 8 10 37 28 66 40
46 21 52 27 57 61 4 21 2 52 -2 68 -5 17 -5 44 0 63 5 19 6 51 3 73 -6 34 -10
39 -33 39 -30 0 -75 -26 -96 -56 -13 -17 -15 -16 -21 20 -7 37 -9 38 -43 32
-20 -3 -49 -19 -68 -37 l-33 -32 -8 34 c-10 36 -31 45 -69 30z"/>
<path d="M775 7465 c-50 -18 -83 -55 -91 -104 -6 -35 -9 -39 -43 -45 -23 -3
-48 -17 -66 -36 -31 -32 -45 -27 -45 19 0 22 -3 23 -37 18 -60 -10 -120 -82
-115 -137 0 -3 -11 -7 -24 -8 -30 -2 -62 -18 -91 -45 l-23 -20 -6 31 c-5 26
-11 32 -32 32 -71 0 -130 -83 -118 -167 4 -26 6 -54 5 -60 -1 -14 -1 -113 1
-140 0 -10 -2 -35 -6 -55 -3 -21 -3 -50 0 -64 l7 -27 22 21 c12 11 43 30 70
41 31 13 47 26 47 38 0 48 55 101 123 117 22 5 27 3 27 -13 0 -11 3 -26 6 -35
5 -14 10 -12 36 9 16 13 46 29 67 35 33 9 40 15 45 43 8 42 60 92 109 105 35
10 37 9 37 -13 0 -13 3 -31 6 -40 6 -14 8 -13 21 5 16 22 53 44 94 54 24 5 27
3 33 -30 l7 -35 34 29 c18 17 47 33 64 37 22 5 31 13 36 36 10 43 64 95 112
108 36 10 42 15 47 47 4 20 2 51 -5 71 -9 27 -9 45 0 75 16 53 -1 108 -32 108
-25 0 -71 -28 -91 -56 -13 -17 -15 -16 -21 20 -7 37 -9 38 -43 32 -20 -3 -49
-19 -68 -37 l-32 -31 -13 40 -14 40 -40 -13z"/>
<path d="M2410 7002 c-40 -20 -80 -74 -80 -108 0 -18 -6 -24 -20 -24 -27 0
-70 -22 -94 -49 -22 -24 -36 -14 -36 27 0 39 -56 26 -111 -25 l-27 -25 -12 37
c-11 33 -15 36 -39 30 -56 -14 -111 -73 -111 -121 0 -17 -8 -23 -38 -28 -24
-3 -49 -17 -67 -36 -31 -32 -45 -27 -45 18 0 39 -56 26 -111 -25 l-27 -25 -12
36 c-12 38 -27 43 -63 25 -44 -23 -77 -63 -83 -100 -6 -33 -10 -37 -42 -43
-21 -3 -49 -19 -69 -37 l-33 -33 -6 32 c-4 18 -11 35 -16 38 -31 19 -120 -46
-138 -101 -8 -25 -20 -37 -46 -45 -19 -7 -48 -23 -64 -37 l-30 -25 -7 32 c-6
30 -8 32 -41 26 -20 -3 -49 -19 -68 -37 l-32 -31 -12 36 c-13 42 -30 45 -78
16 -37 -23 -72 -75 -72 -107 0 -18 -6 -23 -26 -23 -32 0 -89 -34 -99 -57 -5
-15 -7 -15 -15 -3 -6 8 -10 25 -10 38 0 15 -6 22 -20 22 -53 0 -130 -70 -130
-119 0 -21 -5 -27 -26 -29 -30 -2 -61 -18 -91 -45 l-23 -20 -6 31 c-10 48 -55
41 -116 -16 l-27 -25 -11 27 c-5 15 -10 32 -10 37 0 12 -12 11 -44 -1 l-26
-10 0 -374 0 -374 37 13 c21 7 39 10 40 7 1 -4 4 -20 7 -35 l7 -28 29 25 c16
13 46 30 65 36 27 9 37 19 41 40 8 38 70 96 117 108 34 10 37 9 37 -11 0 -44
15 -51 45 -23 16 15 40 29 54 32 46 10 48 12 55 46 8 43 48 83 103 102 24 8
42 12 41 8 -1 -4 1 -22 5 -41 l7 -35 33 31 c17 17 48 35 66 40 29 7 37 15 44
44 9 36 39 74 71 91 28 15 77 28 71 19 -2 -5 0 -23 6 -41 l11 -32 32 30 c17
17 47 35 67 40 l37 10 5 -42 c4 -24 3 -56 -2 -72 -4 -16 -4 -47 1 -69 10 -46
10 -47 2 -97 -3 -21 -3 -50 0 -64 l7 -27 22 21 c12 11 43 30 68 40 39 17 47
25 53 55 4 19 2 47 -4 61 -9 25 0 99 13 113 3 3 0 22 -8 42 -24 69 20 147 99
174 40 14 41 14 42 -9 4 -54 12 -58 48 -26 19 17 49 33 66 37 21 5 34 15 41
33 18 50 33 74 59 92 33 23 80 36 80 22 0 -6 5 -23 10 -38 l11 -27 28 27 c28
27 104 61 108 48 1 -4 4 -20 7 -35 l7 -28 29 25 c16 13 45 29 64 36 25 8 37
20 45 43 16 44 69 96 107 103 26 5 33 12 43 44 16 54 45 86 94 105 35 13 46
25 67 68 21 43 33 56 76 76 42 20 55 33 75 75 24 51 57 78 112 91 24 6 27 4
27 -16 0 -41 14 -52 34 -30 10 11 37 27 60 36 34 13 46 25 66 68 21 44 33 56
78 77 59 28 78 63 66 124 -5 30 -10 36 -31 36 -31 0 -89 -34 -98 -57 -5 -15
-7 -15 -15 -3 -6 8 -10 26 -10 39 0 22 -3 23 -37 18 -22 -4 -50 -19 -70 -38
l-33 -33 -6 32 c-4 18 -11 35 -16 38 -16 10 -57 -6 -92 -36 -36 -32 -39 -31
-50 13 -7 32 -18 33 -66 9z"/>
<path d="M7364 6710 c-27 -11 -72 -65 -80 -96 -3 -13 -3 -41 0 -62 8 -47 8
-47 0 -107 -3 -27 -1 -61 4 -74 5 -16 5 -37 -1 -57 -5 -17 -7 -48 -3 -68 l7
-37 34 29 c18 17 47 33 64 37 25 5 33 14 41 45 7 26 7 47 0 65 -7 18 -7 40 1
69 8 31 8 54 -1 85 -8 32 -8 51 0 77 9 25 9 43 0 69 -12 36 -26 41 -66 25z"/>
<path d="M1646 5650 c-17 -10 -38 -34 -48 -52 -18 -35 -24 -114 -9 -137 6 -9
6 -22 -1 -34 -14 -26 -14 -105 0 -119 8 -8 13 -7 18 5 8 21 50 48 89 57 28 6
31 4 34 -19 5 -35 4 -69 -1 -106 -3 -16 -1 -43 4 -60 4 -16 6 -49 2 -72 -5
-37 -9 -42 -40 -47 -18 -4 -47 -18 -64 -33 -17 -14 -33 -23 -36 -21 -15 15
-20 67 -10 103 11 38 3 91 -16 111 -11 11 -74 -16 -99 -42 l-24 -25 -11 33
c-8 25 -8 42 2 69 10 30 10 44 -1 75 -8 25 -10 47 -4 68 5 17 6 50 3 74 -5 36
-10 42 -31 42 -64 0 -124 -69 -123 -141 1 -24 1 -62 0 -84 0 -22 -1 -56 0 -75
0 -19 1 -66 0 -105 0 -38 3 -78 6 -88 5 -16 8 -15 35 7 28 24 98 51 107 41 4
-4 4 -105 1 -136 -2 -11 -15 -19 -38 -23 -47 -7 -100 -60 -107 -108 -6 -32
-10 -36 -42 -42 -20 -3 -49 -19 -68 -37 l-33 -32 -6 37 c-4 20 -10 38 -14 40
-13 9 -87 -25 -108 -49 l-22 -25 -9 32 c-5 21 -15 34 -28 36 -44 6 -124 -73
-124 -123 0 -15 -7 -21 -25 -23 -35 -3 -81 -27 -98 -52 -13 -18 -15 -19 -21
-5 -3 9 -6 25 -6 36 0 48 -101 1 -132 -61 -19 -38 -23 -96 -8 -120 8 -13 11
-13 22 1 7 8 21 21 30 28 19 14 88 32 86 22 -1 -3 1 -21 5 -40 l7 -35 33 31
c17 17 47 35 66 40 28 7 36 16 48 53 18 53 28 67 62 84 36 18 84 29 77 18 -3
-6 -1 -24 5 -42 l11 -32 32 30 c17 17 48 35 69 40 34 10 37 9 37 -11 0 -39 14
-50 34 -28 10 11 37 27 60 36 34 13 46 25 66 68 25 52 57 78 113 91 15 4 26 3
25 -1 -1 -5 1 -23 5 -42 l7 -35 33 31 c17 17 48 36 68 41 l37 10 5 -42 c4 -24
3 -56 -2 -72 -4 -16 -4 -47 0 -69 4 -21 5 -63 2 -91 -3 -29 -3 -64 1 -79 l7
-28 28 27 c16 15 46 34 67 41 33 11 40 19 48 50 5 21 4 52 -1 73 -6 22 -6 52
0 75 6 23 6 52 0 75 -19 76 31 160 106 180 44 11 42 14 41 -93 0 -38 3 -83 6
-98 l6 -29 32 30 c17 17 47 34 66 39 30 8 36 14 43 51 5 23 4 56 -1 75 -19 69
39 160 111 177 34 7 37 6 37 -15 0 -48 10 -56 33 -29 12 14 40 31 62 38 52 18
71 63 52 125 l-12 39 -38 -13 c-22 -7 -49 -23 -62 -35 l-24 -22 -9 33 c-7 28
-12 33 -33 30 -35 -5 -75 -28 -92 -51 -13 -18 -15 -19 -21 -5 -3 9 -6 26 -6
37 0 18 -4 20 -37 15 -21 -4 -49 -19 -68 -37 l-32 -31 -10 39 c-8 29 -7 50 3
77 10 30 10 44 -1 74 -10 30 -10 44 0 74 9 27 10 45 1 72 -10 35 -13 36 -45
31 -19 -3 -48 -19 -66 -36 l-33 -32 -11 32 c-7 23 -8 45 0 77 13 60 -3 113
-34 113 -12 0 -35 -9 -51 -20z"/>
<path d="M2264 5656 c-66 -29 -102 -113 -80 -184 l8 -23 33 30 c18 16 47 32
63 36 24 5 32 13 40 46 11 43 -3 109 -22 109 -6 -1 -25 -7 -42 -14z"/>
<path d="M2135 4623 c-32 -8 -74 -42 -90 -73 -15 -30 -19 -101 -7 -133 7 -16
11 -15 37 12 15 17 43 33 60 37 43 8 62 63 44 124 -7 22 -15 39 -18 39 -3 -1
-15 -4 -26 -6z"/>
<path d="M8413 4610 c-54 -24 -83 -70 -82 -130 0 -25 4 -54 9 -65 7 -18 8 -18
15 -3 17 43 134 78 175 53 6 -4 10 19 10 69 0 41 -4 78 -10 81 -24 15 -78 13
-117 -5z"/>
<path d="M302 4450 c-43 -27 -72 -76 -72 -125 0 -59 11 -70 40 -40 13 14 43
31 66 36 38 10 42 14 48 49 7 46 -10 100 -32 100 -10 0 -32 -9 -50 -20z"/>
<path d="M1814 4461 c-11 -5 -34 -25 -52 -45 -26 -30 -32 -45 -32 -84 0 -26 5
-54 10 -62 8 -12 14 -10 37 12 16 15 43 31 61 34 27 5 34 13 42 45 21 77 -9
123 -66 100z"/>
<path d="M1946 4001 c-51 -34 -69 -73 -62 -138 3 -32 5 -62 6 -68 0 -5 -2 -22
-6 -37 -3 -15 -3 -44 0 -63 l7 -36 30 25 c16 14 47 31 69 37 34 11 39 15 44
53 4 22 2 55 -3 72 -6 20 -4 43 4 67 18 52 0 107 -35 107 -14 0 -38 -9 -54
-19z"/>
<path d="M1511 3852 c-61 -30 -93 -102 -77 -167 l7 -26 37 29 c20 16 50 33 66
38 36 11 50 52 35 106 -11 43 -20 45 -68 20z"/>
<path d="M2132 3723 c-32 -6 -89 -64 -98 -99 -9 -40 -19 -51 -53 -57 -15 -3
-42 -18 -60 -32 l-31 -27 -6 31 c-5 25 -11 31 -33 31 -29 0 -73 -26 -96 -56
-13 -18 -14 -17 -21 14 -4 19 -13 36 -20 39 -24 9 -61 -6 -92 -37 -31 -31 -42
-26 -42 21 0 40 -87 14 -124 -37 -14 -18 -15 -18 -25 9 -6 16 -11 33 -11 39 0
14 -48 1 -81 -22 -27 -20 -59 -75 -59 -103 0 -9 -14 -17 -37 -20 -21 -4 -50
-19 -69 -38 l-33 -32 -9 34 c-8 30 -12 34 -41 32 -22 -1 -44 -12 -66 -33 l-34
-33 -11 42 c-10 37 -14 41 -33 35 -69 -21 -117 -72 -117 -124 0 -20 -5 -26
-26 -28 -30 -2 -61 -18 -91 -45 l-23 -20 -6 32 c-4 17 -9 33 -13 35 -12 7 -83
-22 -106 -44 l-23 -22 -8 24 c-18 56 7 134 54 164 27 18 92 36 90 25 -1 -3 1
-21 5 -40 l7 -35 29 28 c16 15 46 33 67 41 50 17 70 66 50 123 -11 31 -11 45
-1 74 7 21 9 42 4 50 -5 7 -9 23 -9 36 0 17 -6 22 -27 22 -56 0 -123 -67 -123
-122 0 -24 -4 -28 -26 -28 -57 0 -124 -69 -124 -128 0 -15 -9 -21 -38 -25 -26
-5 -49 -18 -73 -44 -46 -49 -51 -64 -38 -121 14 -64 -4 -132 -35 -132 -24 0
-70 -28 -90 -56 -13 -17 -15 -16 -21 19 -4 20 -10 39 -14 41 -11 7 -83 -22
-105 -43 -25 -24 -36 -19 -36 16 0 18 -6 23 -24 23 -59 0 -56 14 -56 -316 l0
-303 37 13 c30 10 39 20 46 47 10 40 48 83 88 99 38 16 55 8 63 -31 l6 -33 29
28 c16 15 46 33 66 40 30 11 40 21 50 50 15 44 39 73 77 92 42 22 55 17 68
-22 l12 -36 28 27 c15 15 45 32 66 40 30 10 41 20 51 51 17 49 47 81 91 95 37
12 52 3 52 -33 0 -26 16 -29 36 -7 42 47 114 65 114 30 0 -47 11 -52 42 -21
16 17 42 33 56 36 48 10 52 13 52 39 0 40 67 106 109 108 31 2 35 -1 43 -32
l9 -34 32 31 c18 17 47 34 66 39 26 7 36 16 46 46 15 45 39 73 77 93 42 22 55
17 68 -22 l12 -36 28 27 c15 15 45 33 66 40 l39 13 10 -35 10 -35 24 26 c14
15 42 31 63 36 29 8 39 17 44 38 17 70 154 153 154 93 0 -11 3 -27 6 -36 6
-14 11 -12 38 14 17 16 46 33 65 38 26 7 36 16 46 47 17 50 51 84 101 101 32
11 40 19 46 47 4 18 4 50 1 72 -6 37 -7 38 -41 32 -20 -3 -49 -19 -68 -37
l-33 -32 -11 42 c-6 22 -14 40 -18 40 -4 -1 -17 -4 -30 -6z"/>
<path d="M1200 3698 c-65 -45 -84 -90 -66 -161 l7 -28 37 30 c20 16 49 31 64
35 36 8 54 61 38 111 -14 42 -33 45 -80 13z"/>
<path d="M8242 3400 c-51 -31 -78 -115 -58 -179 l8 -23 31 30 c18 17 47 34 66
39 45 11 65 61 48 117 -14 43 -43 48 -95 16z"/>
<path d="M1196 1751 c-44 -29 -66 -70 -66 -123 0 -76 7 -85 44 -49 17 16 46
33 65 38 41 11 55 44 45 111 -6 37 -9 42 -33 42 -14 0 -39 -9 -55 -19z"/>
<path d="M896 1601 c-58 -38 -83 -113 -61 -182 7 -20 8 -20 38 9 18 17 47 34
66 39 41 11 55 44 45 111 -6 37 -9 42 -33 42 -14 0 -39 -9 -55 -19z"/>
<path d="M753 1300 c-55 -33 -81 -91 -69 -155 l7 -35 37 29 c20 16 49 31 64
35 35 8 52 55 38 107 -12 45 -29 49 -77 19z"/>
<path d="M1365 1308 c-44 -24 -76 -63 -81 -100 -6 -33 -10 -38 -33 -38 -29 0
-74 -26 -95 -56 -13 -17 -15 -16 -21 19 -6 31 -11 37 -32 37 -54 0 -120 -65
-125 -122 -1 -17 -8 -25 -26 -26 -28 -2 -60 -18 -89 -45 l-23 -20 -6 32 c-7
31 -9 33 -42 27 -20 -3 -49 -19 -68 -37 -33 -32 -37 -31 -48 14 -7 31 -16 33
-63 11 -38 -19 -83 -77 -83 -109 0 -15 -7 -21 -26 -23 -30 -2 -61 -18 -91 -45
l-23 -20 -6 31 c-5 26 -11 32 -33 32 -52 0 -120 -66 -124 -119 -1 -16 -5 -27
-10 -24 -14 9 -74 -17 -98 -43 l-24 -25 -11 33 c-9 26 -16 32 -35 30 -51 -5
-49 11 -49 -367 l0 -355 265 0 c223 0 265 2 265 14 0 34 84 106 124 106 8 0
20 -16 26 -36 l12 -36 28 27 c15 15 45 32 65 39 30 11 40 21 50 50 15 44 39
73 77 92 42 22 55 17 68 -22 l12 -36 27 25 c52 49 111 64 111 28 0 -11 3 -27
6 -36 6 -14 11 -12 38 14 17 16 47 33 65 38 29 7 37 15 44 44 10 40 48 83 88
99 38 16 55 8 63 -31 l6 -33 33 31 c17 17 47 35 66 40 29 7 37 16 48 50 17 49
48 80 99 98 31 10 40 19 49 53 7 23 9 46 4 54 -12 18 -11 85 0 107 10 18 -10
97 -23 95 -4 -1 -19 -4 -35 -7 -15 -3 -42 -18 -59 -32 l-31 -26 -10 36 c-6 23
-6 47 0 71 7 24 7 46 -1 69 -8 24 -8 45 0 74 7 26 7 54 1 81 -6 25 -6 54 0 75
6 20 6 48 1 67 -8 29 -12 33 -41 31 -22 -1 -44 -12 -66 -33 l-33 -32 -12 36
c-12 38 -29 44 -65 24z"/>
<path d="M7365 1156 c-41 -18 -64 -47 -79 -98 -9 -30 -10 -52 -4 -71 l10 -27
33 29 c19 16 47 32 63 36 38 8 58 65 41 114 -12 34 -20 36 -64 17z"/>
<path d="M8253 1150 c-64 -38 -74 -76 -74 -277 0 -18 0 -51 0 -73 0 -22 0 -56
0 -75 0 -19 0 -52 0 -72 0 -21 0 -56 0 -78 0 -22 0 -56 0 -75 0 -19 0 -53 0
-75 0 -22 1 -101 1 -175 1 -74 3 -150 6 -168 l5 -33 35 30 c19 17 36 31 37 31
1 0 16 4 34 9 24 7 31 6 27 -3 -3 -7 0 -25 5 -39 7 -18 7 -36 1 -52 l-10 -25
110 0 110 0 0 355 0 355 -24 10 c-45 17 -107 0 -153 -42 -21 -20 -21 -20 -29
4 -9 30 -8 73 4 94 6 10 5 31 -3 58 -8 27 -9 51 -3 74 6 21 6 51 -1 82 -6 29
-7 60 -1 78 11 39 -7 102 -29 102 -9 0 -30 -9 -48 -20z"/>
<path d="M6902 400 c-43 -27 -72 -76 -72 -125 0 -56 12 -71 34 -46 10 11 38
28 62 37 35 13 46 23 53 50 12 44 -3 104 -27 104 -9 0 -32 -9 -50 -20z"/>
<path d="M7360 402 c-47 -23 -80 -75 -80 -126 0 -57 11 -72 34 -47 10 11 38
28 62 37 37 14 46 23 54 54 11 41 -3 100 -23 100 -7 0 -28 -8 -47 -18z"/>
<path d="M1677 265 c-51 -18 -73 -39 -93 -91 -13 -34 -24 -46 -50 -54 -19 -7
-48 -23 -64 -37 l-30 -25 -6 31 c-4 17 -10 34 -15 37 -16 10 -96 -33 -116 -62
-46 -67 -57 -64 196 -64 l228 0 11 26 c8 17 9 31 2 44 -13 24 -13 86 -1 109 9
15 -5 80 -20 95 -2 2 -21 -2 -42 -9z"/>
<path d="M7076 120 c-44 -14 -96 -72 -96 -110 0 -7 74 -10 224 -10 l224 0 6
26 c9 33 -11 94 -30 94 -22 0 -55 -18 -86 -48 l-27 -25 -11 27 c-5 15 -10 32
-10 37 0 22 -73 -3 -99 -35 -20 -24 -30 -20 -39 16 -9 36 -16 40 -56 28z"/>
</g>
</svg>
