<?xml version="1.0" standalone="no"?>
<!DOCTYPE svg PUBLIC "-//W3C//DTD SVG 20010904//EN"
 "http://www.w3.org/TR/2001/REC-SVG-20010904/DTD/svg10.dtd">
<svg version="1.0" xmlns="http://www.w3.org/2000/svg"
 width="854.000000pt" height="1280.000000pt" viewBox="0 0 854.000000 1280.000000"
 preserveAspectRatio="xMidYMid meet">

<g transform="translate(0.000000,1280.000000) scale(0.100000,-0.100000)"
fill="#000000" stroke="none">
<path d="M5327 12793 c-3 -5 -4 -34 -3 -65 1 -31 0 -55 -3 -53 -9 9 -41 -17
-41 -33 0 -9 -14 -23 -31 -31 -19 -8 -28 -18 -25 -28 3 -8 1 -11 -5 -8 -5 4
-16 2 -24 -5 -9 -8 -15 -8 -20 0 -3 6 -11 8 -16 4 -16 -9 -80 -11 -85 -2 -3 5
-14 3 -25 -2 -10 -6 -19 -9 -20 -8 0 2 -3 14 -5 27 -6 33 -11 36 -29 21 -11
-9 -15 -9 -15 -1 0 7 -10 11 -22 10 -13 -2 -29 0 -36 5 -7 4 -19 2 -27 -4 -15
-13 -19 -8 -16 22 2 21 -16 33 -33 19 -9 -7 -16 -7 -24 1 -8 8 -15 8 -25 0
-10 -9 -16 -9 -25 0 -9 9 -16 7 -32 -7 -11 -10 -17 -22 -13 -28 3 -6 1 -7 -5
-3 -7 4 -18 4 -24 -1 -7 -4 -22 -7 -33 -8 -11 0 -24 -10 -30 -22 -5 -13 -18
-23 -27 -23 -19 0 -41 -33 -30 -45 4 -5 1 -5 -5 -1 -7 4 -19 4 -25 -1 -7 -4
-22 -7 -33 -8 -10 0 -24 -9 -30 -20 -6 -11 -17 -21 -25 -23 -20 -4 -41 -33
-33 -45 4 -6 1 -7 -6 -3 -7 5 -21 0 -33 -11 -12 -10 -18 -12 -14 -5 6 10 3 13
-10 10 -11 -2 -23 -13 -29 -25 -5 -12 -17 -24 -27 -26 -10 -3 -21 -13 -25 -24
-8 -19 -21 -25 -63 -27 -13 0 -29 -10 -35 -21 -11 -21 -27 -28 -60 -27 -24 1
-57 -27 -48 -41 3 -6 1 -7 -6 -3 -6 4 -18 3 -26 -4 -9 -7 -15 -8 -20 0 -4 7
-12 7 -25 0 -13 -7 -21 -7 -25 0 -4 7 -12 7 -25 0 -13 -7 -21 -7 -25 0 -4 7
-12 7 -25 0 -13 -7 -21 -7 -25 0 -4 7 -13 7 -24 0 -12 -6 -22 -5 -29 2 -8 8
-15 8 -25 0 -10 -9 -16 -9 -25 0 -8 8 -15 8 -27 -2 -15 -13 -19 -8 -16 22 3
22 -17 32 -34 18 -12 -10 -15 -10 -15 0 0 8 -9 11 -25 8 -14 -3 -28 -1 -31 3
-3 5 -13 5 -23 -1 -12 -6 -22 -5 -29 2 -8 8 -15 8 -27 -2 -8 -7 -15 -11 -16
-9 0 2 -3 15 -5 28 -6 32 -11 36 -27 23 -10 -9 -16 -9 -25 0 -8 8 -15 8 -27
-2 -10 -8 -15 -9 -15 -1 0 6 -18 10 -47 9 -27 -1 -54 1 -61 6 -7 4 -19 2 -27
-4 -15 -13 -19 -8 -16 22 2 22 -17 32 -33 19 -10 -9 -15 -8 -20 4 -4 12 -10
13 -25 6 -22 -12 -31 -5 -31 26 0 24 -14 31 -25 13 -4 -7 -11 -7 -18 -2 -33
26 -121 2 -102 -27 3 -6 0 -8 -8 -5 -17 6 -49 -34 -40 -50 3 -6 3 -8 -2 -4 -4
4 -16 3 -26 -3 -15 -7 -19 -21 -19 -59 0 -48 1 -49 24 -41 20 8 23 6 23 -12 1
-60 0 -59 30 -40 15 10 24 12 19 5 -4 -7 -5 -26 -1 -42 6 -29 7 -29 31 -13 14
9 24 12 23 7 -1 -5 -1 -22 0 -39 1 -22 4 -26 13 -17 7 7 18 12 26 12 11 0 13
-21 11 -104 -3 -74 -7 -102 -15 -99 -7 2 -15 0 -18 -5 -3 -6 -15 -8 -26 -5
-11 3 -26 0 -34 -6 -11 -9 -15 -9 -18 1 -4 10 -8 10 -22 -1 -14 -12 -19 -12
-25 -2 -12 18 -51 -7 -43 -27 3 -10 1 -13 -7 -8 -6 4 -18 3 -26 -4 -9 -7 -15
-8 -20 0 -4 6 -12 7 -24 0 -11 -5 -21 -6 -27 0 -13 13 -57 -18 -50 -36 3 -8 0
-11 -8 -8 -8 3 -17 0 -21 -6 -5 -8 -11 -8 -21 1 -20 17 -44 -6 -44 -42 0 -29
1 -29 24 -14 22 15 23 14 23 -7 1 -88 3 -102 15 -90 13 13 39 16 37 5 -1 -5
-1 -33 0 -63 1 -42 4 -51 13 -42 32 32 36 14 35 -153 -1 -91 -1 -165 1 -165 1
0 15 8 29 18 15 9 24 11 20 5 -10 -16 -6 -16 27 -3 16 6 26 6 26 0 0 -6 9 -6
25 0 16 6 25 6 25 0 0 -6 9 -5 20 2 17 10 22 10 28 0 6 -9 13 -8 28 6 29 28
75 56 73 46 -4 -22 3 -23 26 -8 15 9 25 13 24 8 -4 -22 3 -23 28 -7 15 10 24
12 20 6 -10 -16 -6 -16 27 -3 21 8 26 6 26 -5 0 -13 4 -13 25 1 15 9 25 13 24
8 -4 -21 3 -23 26 -8 23 15 25 15 19 0 -8 -21 0 -20 33 2 16 10 24 12 19 4 -4
-7 -5 -24 -2 -38 6 -21 9 -23 27 -11 17 9 23 9 26 0 3 -8 12 -9 29 -3 19 8 24
6 24 -5 0 -14 3 -14 23 -1 21 14 22 14 22 -13 0 -16 -5 -27 -11 -24 -13 5 -29
-14 -37 -44 -6 -26 -7 -26 27 -13 22 8 26 7 26 -10 0 -11 -11 -27 -25 -36 -13
-9 -27 -24 -30 -34 -3 -10 -15 -20 -25 -23 -11 -3 -20 -12 -20 -20 0 -8 -11
-22 -25 -31 -17 -11 -25 -26 -25 -46 0 -18 -9 -38 -24 -52 -22 -21 -24 -33
-29 -131 -4 -96 -7 -110 -26 -123 -15 -11 -21 -26 -21 -55 0 -26 -4 -39 -13
-39 -19 0 -49 -35 -40 -45 5 -4 3 -5 -3 -2 -15 9 -56 -22 -50 -39 3 -8 0 -11
-8 -8 -14 5 -32 -12 -38 -36 -2 -8 -12 -17 -22 -20 -25 -7 -36 -49 -29 -111 5
-43 8 -47 24 -39 21 12 29 13 28 3 -1 -5 -1 -21 0 -36 1 -25 3 -27 23 -16 16
9 23 9 26 1 4 -14 42 3 55 24 4 8 16 18 25 23 14 8 17 4 17 -20 1 -15 -1 -26
-3 -24 -3 2 -13 0 -23 -6 -15 -7 -19 -21 -19 -58 0 -43 2 -49 19 -44 15 4 20
-2 24 -34 4 -31 1 -42 -19 -58 -15 -13 -24 -32 -24 -48 0 -27 0 -27 25 -11 19
12 25 13 25 3 0 -10 3 -10 12 -1 30 30 36 13 34 -88 -2 -91 -4 -102 -24 -116
-18 -12 -22 -25 -22 -66 0 -45 2 -49 16 -37 13 10 17 10 24 -1 11 -18 2 -37
-21 -43 -13 -3 -19 -14 -19 -31 0 -23 2 -25 19 -16 26 14 31 13 31 -6 0 -14 3
-14 16 -3 20 16 34 -3 28 -38 -4 -21 -3 -22 16 -11 15 10 22 10 31 1 10 -10
-6 -31 -70 -93 -45 -44 -79 -85 -76 -89 2 -5 -5 -11 -16 -14 -11 -3 -23 -15
-26 -26 -3 -11 -15 -21 -27 -23 -13 -2 -22 -11 -24 -24 -2 -12 -12 -24 -23
-27 -11 -3 -23 -14 -26 -25 -3 -11 -14 -22 -25 -25 -11 -3 -22 -14 -24 -24 -3
-10 -15 -23 -27 -28 -17 -8 -23 -20 -25 -52 -3 -34 -7 -42 -25 -45 -14 -2 -23
-11 -25 -24 -2 -12 -12 -24 -23 -27 -11 -3 -23 -14 -25 -24 -3 -10 -15 -23
-27 -28 -19 -9 -22 -19 -25 -75 -2 -57 -6 -67 -25 -75 -22 -10 -22 -14 -25
-214 -2 -183 -1 -202 13 -191 9 7 19 10 23 6 4 -4 8 -87 9 -184 1 -97 2 -187
3 -200 0 -19 3 -21 19 -12 11 5 22 10 25 10 3 0 6 -50 6 -110 0 -106 1 -110
19 -100 11 5 22 10 25 10 3 0 6 -50 6 -110 0 -106 1 -110 19 -100 11 5 22 10
25 10 3 0 6 -50 6 -110 0 -106 1 -110 19 -100 11 5 22 10 25 10 3 0 6 -38 6
-85 0 -82 1 -85 19 -75 11 5 22 10 25 10 3 0 6 -41 6 -91 0 -79 2 -90 15 -79
16 13 36 5 34 -13 -1 -7 -1 -43 0 -81 1 -60 3 -67 16 -56 23 19 27 8 33 -74 4
-74 5 -74 28 -66 l24 10 0 -86 c0 -81 1 -84 19 -74 11 5 22 10 25 10 3 0 6
-38 6 -85 0 -82 1 -85 19 -75 30 16 31 14 31 -50 0 -57 1 -60 19 -50 11 5 22
10 25 10 3 0 6 -38 6 -85 0 -82 1 -85 19 -75 11 5 22 10 25 10 3 0 6 -38 6
-85 0 -82 1 -85 19 -75 11 5 22 10 25 10 3 0 6 -38 6 -85 l0 -85 25 10 25 10
0 -66 c0 -57 2 -65 15 -54 16 13 36 5 34 -13 -1 -7 -1 -43 0 -81 1 -60 3 -67
16 -56 9 7 18 10 22 6 4 -3 9 -45 11 -93 4 -81 3 -87 -19 -104 -17 -13 -27
-15 -36 -7 -16 13 -43 3 -43 -16 0 -7 -11 -21 -25 -30 -20 -13 -25 -25 -25
-61 0 -43 1 -44 25 -35 25 9 25 9 25 -50 0 -59 0 -59 25 -50 25 9 25 9 25 -49
0 -57 1 -58 25 -53 25 4 25 4 25 -75 0 -80 0 -80 25 -75 25 4 25 4 25 -75 0
-80 0 -80 25 -75 l25 4 0 -137 c0 -119 2 -136 15 -125 16 13 36 5 34 -13 -1
-7 -1 -77 0 -156 1 -124 3 -142 16 -131 26 21 32 2 27 -90 -4 -100 1 -131 20
-112 21 21 28 13 28 -33 0 -34 -5 -47 -20 -55 -13 -7 -20 -21 -20 -42 0 -26 2
-29 15 -18 23 19 27 8 33 -74 4 -63 7 -73 22 -69 14 4 18 -4 24 -43 3 -26 6
-65 6 -87 0 -32 3 -38 12 -29 17 17 28 15 28 -6 0 -9 -9 -23 -20 -30 -11 -7
-20 -20 -20 -30 0 -9 -10 -22 -22 -27 -15 -6 -24 -21 -26 -39 -3 -26 -2 -28
12 -17 22 18 28 10 28 -35 0 -39 -18 -58 -57 -59 -10 0 -24 -9 -30 -20 -11
-22 -24 -27 -70 -29 -23 -1 -31 -6 -33 -22 -2 -12 -12 -24 -23 -27 -11 -3 -23
-14 -26 -25 -3 -11 -14 -22 -25 -25 -11 -3 -22 -14 -24 -24 -3 -10 -15 -23
-27 -28 -17 -8 -23 -20 -25 -50 -2 -31 -8 -43 -25 -50 -21 -10 -22 -16 -25
-157 l-3 -148 26 10 25 10 0 -86 c0 -81 1 -84 19 -74 11 5 22 10 25 10 3 0 6
-30 6 -66 0 -58 2 -65 15 -54 22 19 29 6 26 -50 l-2 -50 32 7 c32 6 32 6 26
-25 -6 -30 6 -52 18 -33 3 6 36 10 73 9 99 -1 102 0 112 26 8 21 16 25 50 24
22 0 43 -4 46 -9 3 -5 16 -2 30 7 18 13 24 13 24 3 0 -10 3 -10 12 -1 13 13
39 16 37 5 -3 -20 2 -24 17 -12 21 18 31 0 26 -50 -3 -28 -9 -41 -23 -44 -14
-4 -19 -14 -19 -38 0 -26 3 -30 12 -21 22 22 28 13 28 -41 0 -59 6 -72 27 -55
19 15 28 3 29 -43 3 -73 3 -73 19 -59 23 19 33 4 29 -46 -4 -55 2 -70 22 -53
20 17 24 9 26 -47 2 -59 6 -68 23 -54 19 16 37 3 30 -21 -9 -27 3 -43 21 -28
8 6 17 9 21 6 3 -4 7 -86 8 -184 2 -98 3 -180 4 -182 0 -2 8 2 16 9 9 7 18 10
22 7 3 -4 7 -86 8 -184 1 -98 3 -180 4 -182 0 -2 8 2 16 9 20 17 35 4 35 -31
0 -28 1 -29 22 -15 22 14 23 14 23 -13 0 -16 -5 -27 -11 -24 -5 2 -17 -4 -25
-14 -11 -14 -13 -38 -9 -109 5 -90 5 -91 28 -83 12 5 22 15 22 22 0 8 9 21 21
28 11 8 22 27 23 43 4 34 45 74 56 55 6 -8 9 -8 14 0 11 17 34 13 38 -6 2 -13
11 -9 40 21 29 30 41 36 51 28 10 -9 17 -8 26 1 9 9 14 9 21 -2 7 -12 11 -13
24 -1 21 17 30 6 35 -43 1 -4 11 -2 23 4 16 9 23 9 26 1 3 -9 9 -9 25 0 15 8
22 8 25 0 2 -7 11 -8 28 -2 19 8 24 6 24 -5 0 -13 4 -13 25 1 15 9 25 13 24 8
-4 -21 2 -26 17 -13 13 10 17 10 25 -2 5 -8 9 -22 9 -32 0 -15 3 -16 22 -6 16
8 23 9 26 1 2 -7 11 -8 28 -2 13 5 23 6 23 2 -3 -20 3 -21 26 -6 15 9 25 13
24 8 -4 -22 3 -23 26 -8 15 9 25 13 24 8 -4 -22 3 -23 26 -8 15 9 25 13 24 8
-4 -21 2 -26 17 -13 13 10 17 10 25 -2 5 -8 9 -22 9 -32 0 -15 3 -15 21 -5 17
10 23 10 26 1 3 -8 12 -9 29 -3 19 8 24 6 24 -5 0 -13 4 -13 25 1 15 9 25 13
24 8 -4 -21 2 -24 24 -9 22 14 24 14 22 -7 -3 -39 4 -49 27 -35 16 9 22 9 25
0 3 -8 12 -9 29 -3 15 6 24 6 24 0 0 -6 9 -6 25 0 14 5 24 6 24 2 -3 -20 3
-21 26 -6 23 15 25 15 19 0 -8 -20 0 -20 32 0 22 15 24 15 18 0 -8 -21 0 -20
33 1 16 11 24 13 19 5 -4 -7 -5 -24 -2 -38 6 -21 9 -23 27 -11 17 9 23 9 26 0
3 -8 12 -9 29 -3 15 6 24 6 24 0 0 -6 9 -6 25 0 16 6 25 6 25 0 0 -12 42 10
53 27 4 7 17 17 27 23 16 8 18 8 14 -5 -11 -27 12 -16 55 25 44 43 54 48 45
25 -8 -19 1 -19 31 1 19 12 24 24 23 50 -1 19 4 40 10 46 13 13 42 20 41 10
-1 -4 -1 -20 0 -36 1 -23 4 -27 13 -18 7 7 17 12 23 12 14 0 14 -257 0 -257
-5 0 -17 -2 -25 -4 -11 -3 -14 3 -12 24 2 18 -1 27 -10 27 -26 0 -38 -24 -38
-72 l0 -48 27 17 c17 12 24 13 19 4 -16 -25 35 -1 70 34 30 31 32 37 32 101 0
103 0 104 27 114 14 5 25 15 25 22 0 19 92 91 100 78 8 -13 56 25 162 133 69
69 100 94 83 68 -3 -5 -1 -12 4 -15 5 -4 74 58 152 136 78 78 144 137 146 131
8 -22 34 0 190 155 86 86 158 151 160 145 6 -17 34 -4 66 31 20 20 31 26 36
18 5 -9 13 -7 27 6 11 10 32 27 47 36 27 18 36 49 17 61 -6 4 -17 1 -25 -5
-12 -10 -15 -9 -15 5 0 10 34 51 75 91 l75 73 -1 63 c-2 75 -4 81 -30 68 -18
-10 -19 -7 -19 43 0 61 -5 70 -31 56 -18 -9 -19 -5 -19 69 0 43 -3 82 -6 85
-4 3 -15 2 -25 -4 -18 -9 -19 -5 -19 76 0 47 -3 85 -6 85 -3 0 -14 -5 -25 -10
-18 -10 -19 -7 -19 68 0 43 -3 82 -6 85 -4 3 -15 2 -25 -4 -18 -9 -19 -2 -20
198 -1 114 -1 214 0 222 5 29 -8 42 -29 31 -18 -9 -20 -8 -20 14 0 30 37 56
50 36 6 -9 13 -7 29 9 23 23 19 44 -7 39 -10 -1 -23 1 -30 6 -7 4 -19 3 -27
-4 -12 -10 -15 -9 -15 5 0 10 18 36 41 58 31 32 42 38 49 27 7 -12 11 -12 25
0 14 11 18 11 25 1 5 -9 13 -10 21 -5 8 5 21 9 29 10 8 1 23 2 32 3 9 0 20 10
23 21 8 24 45 46 54 32 3 -5 15 -6 28 -1 20 7 22 13 18 64 -4 52 -2 59 24 83
25 24 28 33 25 75 -3 42 1 53 23 75 25 25 25 28 27 184 2 154 -3 183 -27 159
-21 -21 -27 -11 -27 49 0 55 -10 75 -25 50 -13 -22 -27 -9 -22 20 7 32 -8 49
-26 31 -19 -19 -27 -12 -27 24 0 34 -12 46 -25 25 -10 -16 -27 0 -22 20 2 10
1 24 -3 31 -7 10 -11 10 -24 0 -13 -11 -17 -11 -22 3 -5 12 -10 13 -25 5 -19
-10 -23 -6 -20 23 2 21 -16 33 -33 19 -9 -7 -16 -7 -24 1 -8 8 -15 8 -26 -1
-8 -7 -17 -8 -20 -2 -8 12 -74 12 -82 0 -3 -6 -11 -5 -20 2 -11 9 -18 8 -30
-2 -13 -10 -17 -10 -24 1 -7 11 -11 11 -24 1 -9 -8 -16 -19 -16 -26 0 -13 -3
-13 -65 -17 -36 -2 -40 0 -37 19 4 26 -14 39 -33 23 -9 -8 -15 -8 -20 0 -4 6
-16 10 -28 8 -17 -2 -21 2 -19 19 4 26 -14 39 -33 23 -17 -14 -16 -15 -18 55
-2 45 -4 50 -24 49 -19 0 -23 5 -24 30 -1 17 -3 38 -4 46 -1 8 -3 21 -4 28 -1
10 -6 10 -21 2 -18 -9 -20 -8 -20 16 0 17 6 28 20 31 13 3 20 14 20 29 0 21
-4 23 -47 21 l-48 -2 3 45 c3 39 10 51 52 91 33 32 46 50 40 59 -7 11 -11 11
-24 1 -9 -8 -16 -19 -16 -25 0 -6 -11 -16 -24 -22 -20 -9 -26 -9 -30 3 -4 11
-10 11 -26 3 -19 -10 -20 -8 -21 47 -1 32 -1 80 0 106 1 44 -1 48 -22 45 -12
-1 -27 1 -34 5 -19 12 -56 -31 -49 -57 4 -17 -4 -30 -38 -60 -48 -41 -62 -43
-58 -8 4 24 -16 30 -36 10 -10 -10 -15 -10 -23 2 -8 13 -12 12 -27 -5 -10 -11
-28 -26 -40 -33 -20 -11 -22 -10 -22 8 0 27 66 94 86 86 8 -3 25 -1 38 5 20
10 24 18 23 56 0 48 -10 61 -32 43 -17 -14 -25 -1 -14 27 9 25 35 31 42 11 3
-10 8 -10 21 1 14 12 19 12 26 2 5 -9 10 -10 14 -2 4 6 16 11 27 11 14 0 19
-7 19 -29 0 -24 3 -28 20 -24 11 3 20 8 21 12 1 3 3 25 5 49 4 42 3 43 -23 40
l-26 -3 -1 75 c-1 73 -2 75 -26 75 -25 0 -25 1 -23 78 l2 78 -26 -3 -27 -3 1
128 1 128 -25 -3 -26 -3 -1 228 -1 228 -23 -4 c-12 -2 -25 0 -28 5 -3 4 -10 5
-16 2 -6 -4 -65 -7 -132 -7 -118 0 -122 0 -155 -28 -26 -21 -38 -26 -48 -17
-9 7 -17 7 -27 -1 -11 -9 -15 -9 -19 1 -3 10 -9 11 -25 1 -16 -10 -22 -10 -25
0 -3 9 -9 9 -26 -1 -18 -10 -21 -10 -21 5 0 31 -17 48 -32 35 -11 -9 -17 -9
-26 0 -8 8 -15 8 -27 -2 -18 -15 -17 -25 -17 138 l0 123 -26 -3 -26 -3 1 140
c2 135 3 141 26 160 24 19 25 25 25 150 0 126 1 130 25 150 22 17 25 28 25 79
-1 50 3 62 22 78 19 15 23 29 26 100 3 71 7 86 25 101 20 16 22 28 26 145 3
120 4 128 27 147 22 18 24 27 24 104 -1 72 2 86 18 97 10 8 32 26 48 41 18 16
31 22 34 15 5 -15 41 3 61 30 7 11 19 17 27 14 8 -3 25 -1 39 4 16 6 25 6 25
-1 0 -14 40 9 62 35 14 17 19 18 27 7 7 -11 13 -10 35 4 15 10 26 14 25 9 -4
-21 3 -23 26 -8 15 10 25 12 25 5 0 -7 8 -8 25 -1 16 6 25 6 25 0 0 -6 9 -6
25 0 16 6 25 6 25 0 0 -6 9 -6 25 0 20 8 25 6 25 -5 0 -13 4 -13 25 1 15 9 25
13 24 8 -4 -22 3 -23 26 -8 15 9 25 13 24 8 -4 -22 3 -23 26 -8 15 9 25 13 24
8 -4 -21 2 -26 16 -14 20 17 29 6 34 -42 1 -4 12 -3 26 2 14 5 24 6 24 2 -1
-4 -1 -20 0 -37 1 -22 4 -26 13 -17 13 13 39 16 37 5 -3 -20 3 -22 24 -8 22
14 23 13 24 -8 1 -59 1 -59 27 -42 22 15 23 14 23 -7 1 -60 1 -60 27 -43 22
15 23 14 23 -7 1 -58 2 -61 18 -48 9 7 17 11 20 9 5 -6 13 -57 14 -92 1 -26 2
-27 24 -13 21 14 22 14 23 -17 3 -104 2 -99 28 -82 22 15 23 14 23 -7 1 -84 3
-99 16 -91 24 15 32 10 33 -19 1 -20 -3 -28 -12 -24 -19 7 -33 -16 -36 -61 -2
-23 -7 -39 -11 -36 -5 3 -18 -3 -29 -14 -12 -10 -18 -12 -14 -5 6 10 3 13 -10
10 -11 -2 -23 -13 -29 -25 -5 -12 -18 -24 -28 -27 -10 -2 -21 -14 -24 -25 -3
-12 -14 -22 -27 -22 -11 -1 -30 -2 -41 -3 -10 -1 -24 -10 -30 -21 -11 -22 -24
-27 -70 -29 l-30 -1 -3 -103 c-3 -101 -2 -102 18 -90 11 7 20 23 20 35 0 23
18 47 98 129 42 43 62 54 62 34 0 -12 41 9 53 27 4 7 17 18 29 24 15 8 19 8
14 0 -4 -6 -4 -11 -1 -11 13 0 50 23 58 36 4 8 17 18 27 24 16 8 18 8 14 -5
-5 -13 -3 -13 22 0 17 9 30 11 32 5 5 -13 41 7 63 34 13 16 20 18 31 8 10 -8
18 -8 25 -1 13 13 34 3 32 -14 -1 -7 -1 -20 0 -31 1 -15 4 -16 16 -6 26 21 32
2 32 -95 0 -52 -2 -93 -5 -91 -13 14 -42 -17 -42 -45 0 -29 0 -29 25 -13 15 9
25 13 24 8 -1 -5 -1 -22 0 -37 1 -25 3 -27 24 -16 12 7 26 18 30 25 4 8 16 18
26 23 15 9 18 7 16 -13 -4 -30 5 -41 30 -41 11 0 21 -7 21 -15 1 -8 2 -23 3
-34 1 -15 4 -16 16 -6 9 7 17 11 20 9 4 -5 13 -55 14 -85 1 -15 7 -20 24 -20
23 1 24 -2 26 -67 1 -34 3 -37 20 -27 11 5 22 10 25 10 3 0 5 -58 4 -129 -1
-72 -6 -127 -10 -125 -5 3 -15 0 -23 -6 -8 -7 -15 -9 -16 -4 -1 5 -2 20 -2 34
-1 14 -6 24 -12 23 -5 -1 -17 -3 -25 -5 -9 -2 -15 5 -16 20 -2 31 -11 37 -30
22 -13 -11 -17 -11 -24 0 -7 11 -12 11 -22 2 -11 -9 -17 -9 -26 0 -8 8 -15 8
-27 -2 -12 -10 -15 -10 -15 0 0 8 -9 11 -25 8 -14 -3 -28 -1 -31 3 -3 5 -14 4
-25 -1 -19 -11 -23 -8 -20 22 2 21 -16 33 -33 19 -9 -7 -16 -7 -24 1 -8 8 -15
8 -27 -2 -14 -12 -18 -11 -25 0 -7 11 -12 11 -22 2 -11 -9 -17 -9 -26 0 -8 8
-15 8 -25 0 -10 -9 -16 -9 -25 0 -8 8 -15 8 -25 0 -10 -9 -16 -9 -25 0 -8 8
-15 8 -25 0 -10 -9 -16 -9 -25 0 -8 8 -15 8 -25 0 -10 -9 -16 -9 -25 0 -8 8
-15 8 -26 -1 -10 -9 -16 -9 -21 -1 -4 6 -16 10 -28 8 -17 -2 -21 2 -22 22 0
22 -5 25 -35 27 -19 1 -40 -3 -46 -8 -8 -7 -14 -6 -17 3 -3 10 -9 10 -23 2
-14 -8 -20 -25 -22 -60 -3 -39 -1 -47 9 -37 27 27 39 14 39 -40 0 -45 -3 -54
-22 -62 -15 -6 -24 -21 -26 -38 -3 -28 -3 -28 21 -12 23 15 24 15 24 -7 1 -88
3 -102 15 -90 23 23 38 13 38 -23 0 -34 1 -35 22 -24 16 9 23 9 26 1 5 -17 42
9 42 30 0 21 -11 23 -28 6 -14 -14 -13 -14 -16 67 -1 51 2 64 22 84 17 17 26
20 31 12 6 -8 17 -3 37 17 31 31 64 47 64 32 0 -6 9 -6 25 0 16 6 25 6 25 0 0
-6 9 -6 25 0 24 9 25 8 25 -25 0 -33 1 -34 25 -25 24 9 25 8 25 -30 l0 -40 25
16 c15 9 25 13 24 8 -4 -22 3 -23 28 -7 15 10 24 12 20 6 -10 -16 -6 -16 27
-3 16 6 26 6 26 0 0 -6 9 -6 25 0 20 8 25 6 25 -6 0 -13 3 -14 15 -4 16 13 36
5 34 -13 -1 -7 -1 -20 0 -31 1 -15 4 -16 16 -6 9 7 18 11 21 8 9 -10 13 -49 4
-43 -12 8 -52 -33 -45 -45 6 -9 -23 -15 -53 -11 -8 1 -20 -3 -29 -10 -12 -10
-16 -10 -23 1 -7 11 -11 11 -24 1 -9 -8 -16 -19 -16 -25 0 -17 -46 -36 -59
-23 -12 12 -54 -20 -45 -34 5 -9 -23 -13 -58 -10 -9 1 -19 -3 -23 -9 -5 -8
-11 -8 -21 1 -18 14 -44 -4 -44 -32 0 -16 4 -17 26 -9 16 7 23 7 19 0 -8 -13
1 -13 27 1 15 8 22 8 28 -1 5 -8 16 -2 36 17 32 32 64 48 64 32 0 -13 42 9 53
27 4 8 17 18 27 24 16 8 18 8 14 -5 -5 -13 -3 -13 22 0 16 8 30 11 32 5 4 -11
43 9 55 27 4 7 17 18 29 24 15 8 19 8 14 0 -9 -14 -4 -14 28 -1 17 6 26 6 26
0 0 -13 39 9 62 35 15 17 19 18 28 5 5 -8 10 -24 10 -34 0 -16 3 -17 12 -8 17
17 38 15 38 -4 0 -13 3 -14 15 -4 25 21 33 2 32 -69 -1 -38 -5 -67 -9 -64 -5
2 -13 1 -20 -3 -7 -4 -32 -8 -57 -8 -35 -1 -48 -6 -56 -21 -13 -24 -25 -28
-87 -27 -26 0 -50 -4 -54 -9 -4 -6 -11 -6 -20 2 -16 13 -44 -3 -44 -26 0 -12
-14 -15 -62 -15 -25 0 -55 -30 -43 -42 5 -5 -14 -8 -50 -9 -21 0 -57 -28 -50
-39 4 -7 -11 -10 -50 -11 -10 0 -25 -5 -33 -11 -10 -9 -16 -8 -22 2 -7 11 -11
11 -24 1 -9 -8 -16 -20 -16 -27 0 -8 -9 -14 -20 -14 -22 0 -42 -30 -32 -48 5
-7 13 -8 22 -2 25 16 30 12 30 -25 0 -32 2 -35 19 -25 30 16 31 14 31 -51 0
-55 2 -60 16 -48 13 10 17 10 25 -2 5 -8 9 -24 9 -35 0 -17 5 -20 25 -16 15 2
25 0 25 -7 0 -7 9 -5 25 5 15 9 25 12 25 5 0 -16 33 -1 57 28 18 21 24 23 32
12 7 -11 13 -10 35 4 16 11 26 13 26 6 0 -16 38 5 62 33 14 17 19 18 27 7 7
-11 13 -10 35 4 16 11 26 13 26 6 0 -16 38 5 61 33 14 16 20 18 30 9 9 -9 17
-8 35 4 16 10 24 11 24 4 0 -16 38 5 62 33 14 17 19 18 27 7 7 -11 13 -10 35
4 16 11 26 13 26 6 0 -16 38 5 62 33 14 17 19 18 27 7 7 -11 13 -10 35 4 14
10 26 13 26 7 0 -7 10 -6 30 1 l30 11 0 173 0 172 -22 -5 c-13 -3 -39 -6 -58
-7 -30 -1 -35 2 -36 21 -2 31 -11 37 -29 22 -12 -10 -16 -9 -21 4 -5 12 -10
13 -25 5 -19 -10 -22 -7 -20 21 0 8 -3 21 -8 29 -8 12 -12 12 -25 2 -19 -16
-18 -20 -18 91 0 91 4 108 28 108 10 0 14 13 14 50 0 51 -6 60 -28 38 -14 -14
-14 -14 -14 79 0 66 5 83 27 83 14 0 31 37 21 47 -9 9 13 42 35 54 15 8 19 8
15 0 -4 -6 -4 -11 -1 -11 13 0 50 23 58 36 4 8 17 19 29 25 16 8 19 8 13 -1
-6 -9 -1 -10 16 -4 13 4 30 7 37 7 9 0 12 127 12 602 0 566 -1 602 -17 602
-10 0 -24 -4 -30 -10 -10 -7 -13 -2 -14 19 -4 81 -10 94 -34 74 -8 -7 -15 -9
-16 -4 0 5 -2 30 -2 56 -2 54 -10 66 -32 48 -16 -14 -19 -7 -15 38 1 20 -2 23
-26 20 -25 -3 -28 0 -29 27 0 21 -4 29 -15 27 -8 -2 -19 -4 -24 -5 -5 -1 -10
21 -11 48 -3 68 -2 67 -25 55 -11 -6 -20 -9 -21 -8 0 2 -2 23 -4 48 -1 25 -3
49 -4 53 0 5 -11 7 -23 5 -21 -3 -22 1 -19 37 4 49 72 125 94 106 10 -8 17 -7
25 1 17 17 22 7 29 -51 4 -37 9 -49 16 -42 21 21 37 12 37 -22 0 -28 4 -33 23
-33 18 1 23 -5 25 -32 3 -27 6 -31 17 -22 16 13 36 5 34 -13 -1 -7 -1 -30 0
-52 1 -30 4 -36 13 -27 7 7 20 12 30 12 17 0 18 15 18 220 0 205 -1 220 -18
220 -10 0 -23 -5 -30 -12 -13 -13 -14 -10 -16 37 -1 14 -8 20 -26 20 -21 0
-25 4 -22 29 3 25 1 27 -25 24 -23 -2 -28 1 -29 20 -2 30 -10 37 -28 23 -11
-10 -16 -9 -24 5 -9 16 -12 16 -27 4 -15 -13 -17 -12 -13 9 1 13 13 30 26 39
21 13 22 13 16 -3 -7 -16 -5 -16 21 1 20 13 30 15 32 7 3 -8 12 -9 29 -3 13 5
24 6 24 1 0 -4 10 -7 23 -7 13 1 23 -5 23 -14 1 -8 2 -23 3 -33 1 -16 3 -16
24 -2 13 8 27 12 30 8 4 -3 7 834 7 1860 l0 1867 -611 0 c-548 0 -611 -2 -605
-16 3 -9 2 -12 -5 -9 -5 4 -16 2 -24 -5 -9 -8 -15 -8 -20 0 -3 6 -11 8 -16 4
-16 -9 -80 -11 -85 -2 -3 5 -14 3 -25 -3 -17 -9 -21 -7 -26 10 -5 20 -12 21
-155 21 -134 0 -149 -2 -144 -16 4 -11 2 -15 -8 -11 -22 9 -36 -14 -36 -60 0
-36 -3 -43 -19 -43 -11 0 -23 -5 -27 -11 -5 -8 -9 -8 -14 1 -10 16 -50 -8 -43
-27 3 -9 0 -11 -10 -7 -8 3 -18 0 -22 -6 -5 -8 -11 -8 -21 1 -11 9 -17 9 -29
-1 -8 -7 -15 -11 -16 -9 0 2 -3 15 -5 28 -6 33 -11 36 -30 21 -13 -11 -17 -11
-24 0 -7 11 -12 11 -22 2 -11 -9 -17 -9 -26 0 -8 8 -15 8 -25 -1 -12 -9 -16
-8 -21 4 -4 12 -10 14 -25 5 -20 -10 -38 1 -27 18 2 4 1 14 -4 22 -7 11 -12
11 -23 2 -12 -10 -16 -9 -21 3 -4 12 -10 14 -25 5 -20 -10 -38 1 -27 18 2 4 1
14 -4 22 -7 11 -12 11 -23 2 -12 -10 -16 -9 -21 3 -4 12 -10 13 -25 6 -21 -12
-32 -5 -24 15 4 12 -59 14 -420 14 -234 0 -428 -3 -430 -7z m2098 -2066 c0
-30 -4 -54 -10 -55 -43 -7 -132 -6 -142 1 -8 6 -19 5 -28 -3 -8 -7 -15 -11
-16 -9 0 2 -2 11 -4 20 -1 9 10 24 28 34 29 18 30 18 23 0 -6 -18 -6 -18 12
-2 20 18 42 22 42 8 0 -5 11 -4 24 2 14 7 23 14 20 16 -2 3 8 13 23 23 16 10
28 18 28 18 0 0 0 -24 0 -53z m-3351 -273 c9 -23 7 -36 -4 -29 -13 8 -52 -33
-44 -48 4 -7 4 -9 -1 -5 -4 4 -16 3 -26 -2 -36 -20 -29 9 13 54 47 51 53 53
62 30z m255 -131 c-3 -20 3 -22 24 -8 21 13 23 13 24 -5 2 -21 -42 -55 -52
-40 -4 7 -13 7 -25 0 -25 -13 -30 -13 -30 4 0 8 12 24 26 35 29 23 35 25 33
14z m-99 -74 c0 -18 -4 -28 -10 -24 -6 4 -17 2 -25 -5 -26 -21 -27 9 -1 35 32
32 36 31 36 -6z m394 -201 c-2 -45 3 -50 29 -33 21 13 22 13 22 -15 0 -15 -4
-26 -8 -23 -12 8 -37 -18 -37 -38 0 -19 -18 -24 -63 -20 -9 1 -31 -12 -48 -28
-17 -17 -35 -29 -39 -26 -10 6 -5 118 5 135 3 5 15 15 25 20 16 8 18 8 14 -5
-5 -13 -3 -13 17 -2 13 6 36 24 51 40 15 15 28 27 30 27 2 0 2 -15 2 -32z
m-447 -121 c1 -46 -1 -53 -23 -64 -26 -12 -26 -13 -26 46 0 24 6 40 22 53 12
10 23 18 24 18 0 0 2 -24 3 -53z m249 -27 c1 -16 -3 -27 -8 -24 -5 3 -15 1
-23 -6 -26 -21 -27 9 -1 35 14 14 26 25 28 25 2 0 3 -13 4 -30z m-201 -92 c-2
-92 1 -99 29 -88 20 7 22 5 22 -21 0 -16 -2 -27 -4 -24 -3 2 -13 0 -23 -5 -12
-7 -20 -7 -24 0 -4 7 -13 7 -26 0 -10 -6 -19 -9 -20 -8 -1 5 -1 172 0 186 1 7
11 17 24 22 12 5 22 9 23 9 0 1 0 -32 -1 -71z m-296 -35 c-3 -20 3 -22 24 -8
22 14 23 13 25 -15 2 -20 -2 -30 -11 -30 -19 0 -49 -35 -40 -45 5 -4 2 -5 -5
-1 -7 4 -19 2 -27 -4 -16 -13 -17 -12 -17 39 0 24 6 40 22 53 24 20 31 22 29
11z m615 -254 c14 22 36 11 36 -18 0 -21 -6 -30 -21 -34 -11 -3 -23 -14 -26
-25 -3 -11 -14 -22 -25 -25 -11 -3 -22 -14 -24 -24 -7 -25 -51 -46 -58 -27 -3
8 -12 11 -22 7 -22 -8 -122 -8 -130 0 -4 3 -15 2 -25 -3 -22 -12 -29 -2 -19
26 8 21 50 40 50 23 0 -5 11 -4 24 1 16 6 26 5 28 -1 6 -18 50 22 45 42 -5 18
17 59 32 59 5 0 11 -14 15 -30 5 -27 8 -30 26 -20 11 6 31 22 46 37 19 19 28
23 34 13 5 -8 9 -9 14 -1z m3281 -49 c-8 -12 -3 -13 29 0 16 6 26 6 26 0 0 -6
9 -6 25 0 16 6 25 6 25 0 0 -6 9 -6 25 0 16 6 25 6 25 0 0 -6 9 -6 25 0 24 9
25 8 25 -25 0 -33 1 -34 21 -23 17 10 23 10 26 1 3 -8 12 -9 29 -3 23 9 24 7
24 -26 0 -31 2 -34 19 -24 27 14 31 13 31 -7 0 -13 3 -14 12 -5 19 19 25 14
32 -24 6 -29 10 -33 21 -24 19 16 35 4 35 -26 0 -22 2 -24 22 -13 16 9 23 9
26 1 2 -8 9 -9 22 -2 13 7 20 6 24 -6 11 -29 6 -44 -15 -44 -12 0 -23 -8 -26
-20 -5 -20 -37 -36 -61 -31 -8 1 -20 -3 -28 -10 -10 -8 -14 -8 -14 0 0 14 -37
14 -46 0 -4 -8 -9 -7 -14 2 -7 10 -11 10 -24 0 -9 -8 -16 -19 -16 -26 0 -7 -9
-15 -20 -18 -11 -3 -23 -13 -27 -24 -9 -21 -21 -25 -88 -27 -38 -1 -52 -5 -60
-21 -12 -23 -23 -27 -90 -29 -42 -1 -52 -5 -60 -23 -9 -21 -29 -28 -63 -24 -8
1 -20 -3 -29 -10 -12 -10 -16 -10 -23 1 -7 11 -11 11 -24 1 -9 -8 -16 -19 -16
-25 0 -17 -48 -37 -53 -22 -3 8 -10 8 -24 -1 -15 -8 -23 -9 -31 -1 -8 8 -15 8
-25 0 -10 -9 -16 -9 -25 0 -9 9 -16 7 -32 -7 -11 -10 -18 -21 -15 -25 4 -7
-11 -10 -50 -11 -21 0 -57 -28 -50 -39 4 -7 -13 -10 -52 -10 -12 0 -25 -5 -28
-11 -5 -7 -11 -6 -21 2 -16 13 -44 -4 -44 -27 0 -13 -23 -18 -62 -15 -9 1 -19
-3 -23 -9 -5 -8 -11 -8 -21 1 -16 13 -44 -4 -44 -27 0 -13 -23 -18 -62 -15 -9
1 -19 -3 -23 -9 -5 -8 -11 -8 -21 1 -15 13 -44 -3 -44 -25 0 -17 -46 -36 -59
-23 -7 7 -17 5 -31 -8 -11 -10 -18 -21 -15 -25 4 -7 -13 -10 -52 -10 -12 0
-25 -5 -28 -11 -5 -7 -11 -6 -21 2 -15 13 -44 -3 -44 -25 0 -16 -48 -37 -53
-23 -5 17 -37 0 -47 -25 -5 -13 -9 -19 -9 -15 -1 4 -10 3 -21 -3 -19 -10 -20
-8 -20 34 0 35 5 48 22 60 21 15 21 21 23 274 1 142 4 263 8 269 9 14 47 24
47 12 0 -13 41 10 62 35 15 18 19 19 27 7 8 -12 12 -12 25 -2 8 7 21 11 28 8
7 -2 23 0 36 4 13 5 22 5 22 -2 0 -14 40 9 61 35 14 17 19 18 32 8 9 -8 18 -9
21 -3 4 5 19 9 35 9 15 -1 33 2 39 6 6 3 12 2 14 -4 2 -6 20 4 41 21 29 24 41
28 51 19 9 -7 16 -7 20 -1 4 5 19 9 35 9 15 -1 33 2 40 6 6 4 11 2 11 -3 0
-14 38 7 62 34 14 16 19 17 27 6 6 -9 14 -10 22 -5 8 5 34 10 59 10 25 1 53 5
63 9 10 4 17 3 17 -4 0 -14 38 6 61 34 13 15 20 17 31 7 8 -6 18 -8 22 -4 4 4
32 8 61 8 30 1 58 5 64 9 6 3 11 1 11 -5 0 -15 39 6 62 34 14 17 19 18 27 7 7
-11 13 -11 32 3 27 19 33 20 24 6z m-3205 -15 c0 -17 -80 -96 -91 -90 -13 9 3
48 22 52 10 3 25 16 34 29 17 27 35 32 35 9z m355 -705 c0 -16 -41 -44 -49
-32 -7 12 24 54 37 49 7 -2 12 -9 12 -17z m-1750 -99 c0 -16 -4 -27 -8 -24 -4
3 -14 0 -22 -7 -26 -21 -27 9 -1 35 14 14 26 25 28 25 2 0 3 -13 3 -29z m1295
1 c0 -9 -9 -23 -20 -30 -17 -10 -20 -10 -20 6 0 19 18 42 32 42 4 0 8 -8 8
-18z m3553 -60 c5 -22 11 -29 29 -28 20 1 23 -4 26 -44 2 -39 0 -46 -22 -56
-17 -8 -28 -8 -35 -1 -7 7 -15 6 -25 -2 -9 -8 -16 -8 -20 -2 -4 6 -28 9 -54 8
-44 -2 -47 0 -50 26 -3 28 -16 35 -28 16 -10 -16 -23 9 -17 32 7 24 45 47 51
31 3 -9 9 -9 25 0 15 8 22 8 25 0 4 -14 40 5 60 31 19 24 29 21 35 -11z
m-3198 -46 c0 -18 -40 -42 -49 -28 -2 4 0 17 5 30 11 28 44 26 44 -2z m-95
-249 c0 -14 -10 -26 -25 -34 -15 -7 -25 -7 -25 -1 0 5 -11 8 -25 6 -25 -3 -29
4 -22 34 4 12 16 16 51 16 41 0 46 -2 46 -21z m745 -287 c5 -8 12 -7 22 1 12
10 16 10 23 -1 7 -12 11 -12 25 0 14 12 18 12 25 -1 7 -11 12 -11 22 -1 18 18
28 15 28 -11 0 -12 -9 -28 -20 -35 -11 -7 -20 -22 -20 -33 0 -18 2 -19 15 -9
21 18 29 7 27 -41 -1 -29 -8 -46 -24 -58 -23 -19 -24 -27 -27 -161 -1 -69 -4
-77 -28 -94 -14 -11 -23 -14 -19 -8 10 16 -16 16 -32 0 -9 -9 -12 -9 -12 1 0
9 -9 12 -25 9 -22 -5 -25 -2 -26 26 -1 17 -1 38 0 48 3 22 -17 32 -34 18 -13
-11 -15 -1 -15 72 0 47 -3 88 -6 91 -4 3 -15 2 -24 -3 -16 -9 -19 -4 -22 51
-1 33 0 69 4 78 7 19 48 36 48 20 0 -14 34 3 53 28 20 25 32 29 42 13z m-1201
-245 c-8 -19 1 -19 32 1 14 10 24 13 23 8 -4 -21 3 -23 26 -8 23 15 25 15 19
0 -7 -18 7 -21 23 -5 16 16 33 2 33 -27 0 -22 2 -24 22 -13 16 8 23 9 26 1 2
-7 11 -8 28 -2 15 6 24 6 24 0 0 -6 9 -6 25 0 16 6 25 6 25 0 0 -6 9 -6 25 0
16 6 25 6 25 -1 0 -6 8 -6 21 2 15 8 24 8 28 0 4 -6 20 1 41 19 38 32 46 35
55 20 4 -6 16 -4 31 6 22 15 24 15 24 0 0 -15 2 -15 25 0 16 10 25 12 25 5 0
-8 5 -9 19 -1 23 12 31 13 30 3 -1 -5 -1 -56 0 -116 l1 -107 25 16 c16 10 25
12 25 5 0 -8 5 -9 19 -1 30 16 31 14 31 -52 0 -48 3 -59 12 -50 13 13 39 16
37 5 -3 -20 3 -22 24 -9 22 15 22 15 23 -38 1 -40 -2 -53 -11 -49 -16 5 -47
-36 -38 -51 3 -6 3 -8 -2 -4 -4 4 -16 3 -26 -2 -12 -7 -20 -7 -24 1 -5 7 -15
5 -30 -5 -18 -12 -25 -12 -28 -3 -5 15 -37 -9 -37 -28 0 -12 -3 -13 -55 -17
-39 -4 -55 -37 -50 -107 2 -31 4 -101 4 -156 1 -77 4 -96 13 -87 29 29 38 13
38 -67 0 -76 -1 -79 -25 -83 -14 -3 -28 -1 -31 3 -3 5 -13 5 -23 -1 -12 -6
-22 -5 -29 2 -9 9 -15 9 -24 0 -8 -8 -15 -8 -24 -1 -9 8 -18 4 -34 -13 -11
-13 -30 -32 -40 -43 -11 -12 -20 -25 -20 -31 0 -6 -6 -11 -12 -11 -7 0 -19 -2
-27 -4 -26 -7 -18 71 9 93 16 13 26 15 30 8 4 -7 15 -4 31 9 19 15 21 22 12
32 -9 9 -15 9 -27 0 -11 -9 -15 -9 -18 0 -6 18 -39 3 -45 -20 -3 -11 -15 -21
-27 -23 -13 -2 -22 -11 -24 -24 -2 -12 -12 -24 -23 -27 -11 -3 -23 -14 -26
-25 -5 -21 -49 -36 -59 -21 -3 5 -14 5 -24 -1 -19 -10 -36 2 -26 18 2 4 1 14
-4 22 -7 11 -11 11 -24 1 -13 -11 -17 -11 -22 3 -5 12 -10 13 -25 5 -21 -11
-21 -11 -20 54 0 41 -2 47 -20 47 -29 0 -34 -20 -30 -123 1 -34 3 -37 20 -27
11 5 22 10 25 10 3 0 6 -38 6 -85 l0 -85 25 10 c24 9 25 8 25 -25 0 -33 1 -34
25 -25 l25 10 0 -112 c0 -87 3 -109 12 -100 33 33 38 15 38 -128 l0 -140 25
16 25 16 0 -86 c0 -83 1 -86 19 -76 30 16 31 14 31 -50 0 -59 0 -59 24 -49 23
11 23 14 22 136 -1 137 3 158 32 165 18 5 20 1 18 -33 -3 -37 -2 -38 14 -24
19 17 40 20 40 5 0 -6 9 -6 25 0 14 5 24 6 24 2 -3 -20 3 -21 26 -6 15 9 25
13 24 8 -4 -21 2 -24 24 -10 22 15 22 14 21 -19 -1 -19 0 -35 1 -35 2 0 15 4
29 10 14 5 25 6 25 2 -1 -4 -1 -20 0 -36 1 -23 4 -27 13 -18 22 22 38 13 38
-22 0 -32 1 -33 23 -23 18 8 22 17 19 41 -3 26 2 34 27 49 18 10 31 15 30 10
-4 -20 3 -22 26 -7 l25 16 0 -36 c0 -33 2 -35 23 -27 21 8 23 6 22 -20 0 -20
-5 -29 -17 -29 -24 0 -34 -23 -30 -70 4 -35 6 -38 22 -30 25 13 30 13 30 -5 0
-14 3 -13 25 1 23 15 25 15 19 0 -8 -20 5 -20 30 -1 13 10 22 11 26 5 4 -6 15
-2 28 11 12 11 20 24 17 29 -3 4 -1 19 4 33 11 27 51 44 51 21 0 -12 3 -12 23
1 21 14 23 13 23 -8 1 -85 4 -95 24 -90 11 3 25 14 31 24 5 10 17 23 27 28 14
8 17 4 16 -22 -2 -41 4 -51 22 -36 19 16 21 13 27 -46 3 -27 6 -51 6 -52 1 -1
12 2 26 7 20 8 25 6 25 -5 0 -14 3 -14 24 0 22 15 23 14 23 -7 1 -88 3 -102
15 -90 26 26 38 13 38 -40 0 -47 -3 -54 -25 -65 -28 -13 -39 -3 -30 26 7 24
-11 37 -30 21 -15 -12 -26 -150 -12 -150 5 0 22 14 37 30 15 17 33 30 39 30 6
0 16 11 20 24 9 23 51 43 51 25 0 -5 10 -4 22 2 16 9 23 9 26 1 3 -9 9 -9 24
-1 14 8 23 8 27 1 4 -7 12 -8 21 -2 25 16 30 12 30 -25 0 -32 2 -35 19 -25 28
15 31 13 31 -20 0 -19 -5 -30 -14 -30 -22 0 -37 -25 -40 -70 -3 -31 0 -40 10
-36 8 4 21 9 29 12 8 3 15 1 15 -5 0 -8 5 -9 19 -1 29 15 31 13 31 -25 0 -32
2 -35 19 -25 11 5 23 10 26 10 4 0 5 -38 3 -84 l-3 -85 29 6 c27 6 29 5 24
-26 -4 -28 -2 -31 16 -25 12 4 23 11 25 17 6 15 40 47 51 47 6 0 10 -12 10
-28 0 -19 -7 -30 -22 -37 -15 -6 -24 -21 -26 -38 -3 -26 -2 -27 17 -16 11 7
24 23 30 36 6 13 17 23 24 23 8 0 19 11 25 25 6 14 16 25 22 25 13 0 80 66 80
79 0 5 8 16 18 23 10 7 22 31 27 53 8 30 15 41 33 43 19 3 22 -1 22 -26 0 -25
3 -29 19 -25 10 3 22 0 26 -7 5 -8 11 -8 21 1 11 9 18 9 26 1 8 -8 15 -8 24
-1 7 6 18 8 24 4 15 -9 12 -45 -3 -45 -19 0 -49 -35 -40 -45 5 -4 3 -5 -3 -2
-24 14 -48 -20 -49 -67 0 -41 2 -45 20 -40 28 9 28 10 32 52 3 45 53 89 53 47
0 -14 3 -14 24 0 23 15 24 22 24 102 -1 77 1 88 20 104 12 9 22 24 22 33 0 19
-11 21 -28 4 -9 -9 -12 -1 -12 38 0 46 12 74 32 74 4 0 8 -13 8 -30 0 -28 2
-29 32 -23 30 6 31 5 25 -24 -7 -36 1 -48 20 -31 10 8 17 8 25 0 9 -9 15 -9
26 0 10 9 16 8 23 -3 11 -18 -30 -52 -47 -38 -6 5 -14 6 -17 2 -4 -3 -21 -6
-39 -7 -26 -1 -33 -6 -39 -28 -7 -26 -5 -27 22 -21 26 5 29 3 29 -21 0 -15 -6
-26 -13 -26 -31 0 -45 -33 -42 -100 2 -36 4 -66 4 -68 1 -1 11 4 24 13 22 14
23 13 25 -13 1 -20 -4 -30 -23 -38 -19 -9 -25 -9 -29 3 -4 10 -10 11 -25 3
-13 -7 -22 -7 -26 0 -4 6 -12 7 -18 3 -6 -4 -24 -6 -40 -5 -21 2 -30 -3 -34
-17 -6 -22 -49 -45 -58 -31 -4 7 -13 6 -26 0 -18 -10 -23 -6 -20 14 1 4 -1 17
-4 27 -5 15 -10 17 -25 9 -42 -23 -29 13 24 65 31 30 56 61 56 70 0 25 -39 18
-52 -10 -11 -24 -17 -27 -63 -29 -11 -1 -24 -11 -30 -23 -5 -12 -19 -23 -30
-25 -11 -2 -21 -12 -23 -23 -2 -11 -13 -25 -25 -30 -12 -6 -23 -19 -25 -30 -7
-51 -13 -63 -32 -68 -15 -4 -20 -13 -20 -36 0 -31 0 -31 25 -15 15 10 25 12
25 5 0 -7 8 -8 25 -1 14 5 24 6 24 2 -3 -19 2 -23 16 -12 21 17 27 8 32 -45 5
-48 2 -51 -65 -45 -16 1 -25 -5 -29 -19 -7 -28 -49 -55 -56 -37 -3 8 -3 24 0
35 4 14 1 21 -9 21 -24 0 -38 -22 -38 -59 0 -28 -5 -38 -24 -47 -20 -9 -26 -9
-30 3 -4 11 -10 11 -26 3 -18 -9 -20 -8 -20 15 0 18 7 28 25 35 15 6 25 17 25
30 0 27 -22 25 -48 -5 -24 -27 -25 -28 -95 -26 -41 0 -49 -3 -59 -23 -11 -25
-44 -41 -54 -25 -3 5 -13 5 -24 -1 -13 -7 -21 -7 -25 0 -4 7 -13 7 -26 0 -20
-11 -22 -8 -19 28 1 18 -3 23 -17 20 -10 -2 -22 -12 -27 -24 -12 -26 -51 -45
-65 -31 -12 12 -41 -8 -41 -28 0 -7 -9 -15 -20 -18 -11 -3 -24 -16 -29 -29 -6
-12 -10 -19 -10 -15 -1 4 -10 3 -20 -3 -13 -6 -22 -7 -26 0 -8 13 13 50 29 50
8 0 16 6 18 13 6 15 2 77 -6 84 -7 8 -36 -16 -36 -31 0 -6 -11 -16 -24 -22
-18 -9 -25 -8 -33 5 -8 13 -13 14 -26 3 -10 -9 -17 -10 -22 -2 -4 6 -13 7 -23
1 -9 -4 -23 -6 -30 -4 -7 3 -19 -1 -27 -7 -12 -10 -15 -10 -15 0 0 8 -9 11
-25 8 -38 -8 -40 9 -6 41 17 16 31 34 31 40 0 6 11 17 25 23 25 11 34 41 15
53 -5 3 -26 -10 -45 -28 -25 -24 -43 -33 -56 -30 -14 4 -30 -5 -52 -27 -28
-28 -32 -30 -36 -14 -2 10 7 26 20 37 19 15 24 30 25 66 2 78 3 81 29 91 27
10 30 17 15 40 -7 12 -12 12 -21 3 -10 -10 -15 -9 -25 4 -10 15 -14 15 -28 4
-9 -7 -16 -10 -17 -5 0 5 -2 29 -2 54 -2 43 -4 45 -29 43 -25 -2 -28 2 -28 28
0 29 -13 39 -25 19 -5 -8 -11 -7 -21 1 -11 9 -17 9 -28 0 -15 -13 -26 4 -26
40 0 10 -4 19 -8 19 -19 0 -32 -27 -32 -67 0 -41 1 -42 25 -33 16 6 25 6 25
-1 0 -6 6 -6 19 1 11 5 22 10 25 10 3 0 6 -35 6 -78 0 -69 -2 -78 -22 -87 -25
-12 -48 -61 -23 -51 8 3 22 9 31 12 13 6 15 1 12 -22 -2 -19 -10 -31 -23 -34
-11 -3 -21 -16 -23 -28 -2 -12 -8 -22 -14 -22 -6 0 -26 -16 -45 -35 -28 -29
-38 -34 -49 -24 -11 9 -18 9 -29 -1 -12 -10 -15 -10 -15 0 0 9 -9 11 -30 7
-28 -6 -29 -5 -24 22 8 38 -14 51 -37 22 -14 -17 -16 -33 -12 -75 5 -52 4 -54
-23 -67 l-29 -14 0 -122 0 -121 28 5 29 6 -3 -81 c-2 -45 -1 -84 3 -87 3 -3
21 10 40 29 19 20 38 36 42 36 15 0 4 -36 -14 -48 -13 -8 -20 -23 -20 -42 0
-30 0 -30 24 -14 l25 16 -1 -69 c-1 -61 -4 -71 -28 -94 -15 -14 -29 -31 -31
-38 -5 -13 -88 -21 -95 -9 -3 5 -13 4 -23 -2 -23 -12 -31 -4 -31 28 0 27 -20
26 -35 -4 -6 -10 -16 -20 -23 -21 -6 -2 -18 -4 -24 -5 -8 -2 -12 7 -10 25 3
25 1 28 -20 26 -13 -2 -29 0 -36 5 -7 4 -19 3 -26 -3 -11 -9 -15 -5 -18 23 -5
45 6 73 30 80 11 4 22 15 25 25 2 10 14 20 26 24 18 4 21 1 21 -29 0 -32 1
-33 21 -22 17 10 23 10 26 1 3 -8 12 -9 29 -3 19 8 24 6 24 -5 0 -14 3 -13 24
1 25 16 26 26 17 147 -1 5 -11 7 -23 5 -23 -3 -23 -3 -23 150 0 130 -2 152
-15 150 -8 -2 -19 -12 -24 -24 -5 -11 -19 -25 -30 -30 -15 -7 -22 -20 -24 -49
-2 -31 -8 -43 -27 -52 -14 -6 -27 -8 -30 -3 -3 4 -23 8 -46 8 -32 1 -42 -3
-46 -18 -3 -11 -14 -22 -25 -26 -10 -3 -24 -16 -30 -29 -11 -25 -44 -39 -54
-24 -3 5 -13 5 -22 1 -9 -4 -48 -7 -87 -6 -66 2 -72 0 -100 -28 -29 -30 -30
-30 -33 -9 -4 23 15 54 28 46 11 -7 22 87 10 99 -6 6 -15 4 -26 -4 -14 -12
-16 -11 -12 9 1 13 13 30 26 39 20 13 22 13 16 -2 -8 -21 0 -20 33 2 15 9 24
11 20 5 -10 -16 -6 -16 27 -3 25 9 26 8 26 -26 0 -32 2 -34 20 -24 11 6 21 7
21 3 1 -4 3 -18 4 -31 3 -29 6 -31 32 -21 19 7 21 15 21 76 0 37 -2 72 -5 76
-3 4 -16 1 -29 -8 -22 -14 -24 -14 -24 0 0 20 52 73 57 58 5 -15 40 -5 48 15
8 22 -11 38 -28 23 -20 -16 -26 2 -21 63 4 45 3 47 -18 44 -15 -2 -24 -11 -26
-24 -2 -12 -12 -24 -23 -27 -10 -3 -23 -16 -28 -29 -6 -12 -10 -19 -10 -15 -2
17 -41 -15 -41 -33 0 -19 -20 -26 -58 -21 -8 1 -20 -3 -28 -10 -15 -12 -18 -4
-15 33 2 22 -17 32 -33 19 -10 -9 -15 -8 -20 5 -4 10 5 26 24 44 16 15 30 33
30 39 0 7 8 14 18 18 9 3 27 18 39 32 18 21 24 23 32 12 7 -11 13 -10 35 4 15
10 26 13 26 6 0 -7 7 -7 25 1 14 6 25 17 25 24 0 12 29 34 44 34 3 0 6 -16 6
-35 0 -33 1 -34 25 -25 16 6 25 6 25 -1 0 -6 6 -6 19 1 28 15 31 13 31 -18 0
-19 -7 -30 -22 -37 -13 -6 -24 -20 -26 -32 -3 -18 1 -20 18 -16 12 3 26 16 31
29 4 13 15 24 23 24 9 0 20 9 26 20 6 11 20 25 31 31 15 8 19 8 15 0 -9 -13
-4 -14 27 -2 24 9 24 10 24 155 -1 133 -2 146 -18 146 -18 0 -42 -32 -34 -44
3 -3 2 -4 -1 -1 -12 8 -44 -16 -44 -33 0 -22 -51 -47 -61 -30 -9 15 -39 -7
-39 -29 0 -8 -4 -12 -10 -8 -13 8 -90 -69 -90 -90 0 -10 -3 -15 -6 -12 -4 3
-15 2 -25 -4 -16 -8 -19 -6 -19 15 0 30 -16 42 -35 26 -8 -7 -15 -9 -16 -4 0
5 -2 26 -4 47 -3 28 1 43 15 57 21 21 40 26 40 10 0 -6 9 -6 25 0 24 9 25 8
25 -30 0 -40 0 -40 24 -25 13 9 26 25 29 35 3 11 12 20 20 20 9 0 19 9 22 20
8 24 47 48 53 32 5 -17 49 7 55 29 3 11 12 19 19 19 8 0 20 11 26 24 6 13 20
27 31 31 16 5 19 12 14 39 -4 29 -1 37 22 52 19 13 29 14 34 6 5 -9 13 -7 28
7 17 17 20 29 17 77 -5 66 -8 72 -29 54 -8 -7 -15 -9 -16 -4 -1 5 -3 31 -5 58
-5 58 -8 63 -29 46 -17 -14 -17 -14 -19 52 -1 53 -9 66 -30 49 -18 -15 -30 1
-21 28 7 24 -11 37 -30 21 -16 -13 -30 3 -21 25 10 27 -4 46 -25 34 -10 -5
-19 -8 -20 -7 0 2 -2 25 -5 53 -6 58 -8 62 -29 45 -17 -14 -26 0 -22 35 1 15
-4 20 -23 20 -21 0 -25 4 -22 29 3 25 1 27 -25 24 -24 -3 -28 0 -25 19 4 26
-14 39 -33 23 -19 -16 -25 -1 -19 58 3 41 1 52 -10 52 -8 0 -18 -5 -21 -10
-15 -25 -22 5 -19 81 l4 80 -27 -3 -27 -3 1 103 c1 103 -5 120 -35 90 -14 -14
-14 -18 -14 115 l0 98 -26 -3 -26 -3 1 128 1 128 -26 -3 -26 -3 2 93 c2 103 3
107 31 115 15 3 18 0 17 -17 -2 -12 0 -30 4 -40 6 -17 11 -14 43 19 43 44 49
42 56 -16 1 -3 11 -5 24 -5 19 1 22 -3 19 -28 -2 -16 -1 -40 3 -53 5 -19 9
-22 25 -13 30 16 32 13 25 -30 -8 -45 -5 -47 30 -24 23 15 24 20 22 115 -2
112 3 134 31 141 14 4 19 0 19 -16 1 -45 2 -46 28 -36 24 9 25 8 25 -26 0 -33
1 -34 22 -23 16 8 23 9 26 1 2 -7 11 -8 28 -2 15 6 24 6 24 -1 0 -6 8 -6 21 2
15 8 24 8 28 1 4 -7 12 -8 21 -2 21 14 30 12 30 -5 0 -14 3 -13 25 1 14 9 25
23 25 30 0 16 43 37 48 23 2 -4 14 -4 28 1 13 5 24 6 24 1 0 -10 39 -2 41 8 0
3 2 37 4 75 3 67 3 68 -21 63 -14 -2 -27 0 -30 4 -3 5 -14 5 -24 -1 -19 -10
-36 2 -26 18 2 4 1 14 -4 22 -7 11 -11 11 -24 1 -9 -8 -16 -20 -16 -28 0 -8
-5 -11 -10 -8 -6 4 -17 2 -25 -5 -9 -7 -15 -8 -20 0 -4 7 -12 7 -25 0 -13 -7
-21 -7 -25 0 -4 7 -12 7 -25 0 -13 -7 -21 -7 -25 0 -4 6 -13 7 -23 1 -9 -4
-23 -6 -30 -4 -7 3 -19 0 -26 -7 -10 -8 -16 -8 -21 0 -4 6 -16 10 -28 8 -20
-3 -21 1 -19 49 2 55 -9 73 -33 53 -16 -13 -17 -12 -17 39 0 24 6 40 21 52 12
10 21 29 21 43 0 23 -3 25 -18 17 -13 -7 -22 -7 -30 1 -8 8 -15 8 -26 -1 -8
-7 -17 -8 -19 -3 -8 12 18 57 31 55 7 -2 13 10 14 27 1 17 2 44 3 61 1 18 12
40 28 54 17 16 24 31 20 45 -6 22 -18 26 -28 10 -12 -19 -20 -2 -19 36 2 26 9
44 24 56 27 22 31 22 24 3z m-399 -55 c5 -8 11 -7 20 0 30 25 36 0 33 -151 -2
-82 -2 -149 0 -149 2 0 12 4 22 10 26 14 29 -4 26 -122 -2 -54 -2 -98 1 -98 2
0 14 7 27 15 l23 15 1 -70 c1 -60 -2 -71 -20 -84 -27 -19 -37 -13 -31 18 6 28
-12 43 -32 26 -8 -7 -15 -11 -15 -9 -1 2 -3 49 -6 103 -2 55 -7 102 -9 104 -3
3 -11 -1 -20 -8 -12 -10 -15 -10 -16 1 -4 55 -6 103 -7 157 -2 59 -3 62 -22
52 -11 -6 -20 -9 -21 -8 0 2 -2 39 -3 83 -2 55 1 87 11 103 15 24 28 28 38 12z
m301 -210 c1 -16 -3 -27 -8 -24 -5 3 -15 0 -23 -6 -12 -10 -15 -9 -15 8 0 12
10 28 22 36 12 9 23 16 23 16 0 0 0 -13 1 -30z m1100 -342 c-3 -99 0 -111 28
-93 20 13 21 12 21 -14 0 -16 -5 -27 -11 -24 -18 7 -33 -20 -35 -65 -2 -32 -7
-42 -20 -42 -10 0 -21 -5 -25 -11 -4 -8 -9 -7 -14 2 -7 10 -12 10 -25 -1 -14
-12 -18 -12 -25 1 -7 11 -12 11 -21 2 -9 -9 -16 -10 -26 -2 -9 9 -17 8 -28 -1
-11 -9 -15 -10 -15 -1 0 7 -10 11 -22 10 -13 -2 -29 0 -36 5 -19 12 -39 -12
-45 -52 -5 -33 -34 -65 -49 -56 -5 3 -8 15 -8 27 0 42 13 69 37 78 18 7 23 15
21 32 -2 12 -9 21 -16 20 -40 -9 -38 -12 -41 40 -1 15 -5 16 -21 7 -11 -6 -20
-7 -21 -3 -8 68 16 118 45 94 11 -10 21 -5 51 26 29 30 38 35 45 23 6 -8 10
-24 10 -34 0 -16 3 -17 12 -8 17 17 38 15 38 -3 0 -14 3 -14 24 0 15 10 25 12
28 6 3 -12 91 54 97 72 4 14 31 37 43 37 4 0 6 -33 4 -72z m-851 -48 c5 -8 11
-7 21 1 11 9 17 9 28 0 10 -8 16 -9 21 -1 10 16 25 12 25 -8 0 -21 -36 -46
-45 -32 -4 7 -13 7 -25 0 -13 -7 -21 -7 -25 0 -4 7 -12 7 -25 0 -25 -13 -33 2
-14 28 17 24 29 28 39 12z m-502 -53 c-3 -13 -13 -29 -24 -35 -16 -10 -19 -9
-19 7 0 15 33 51 46 51 1 0 -1 -10 -3 -23z m1327 -337 c27 17 31 11 29 -45 -2
-35 -7 -55 -14 -55 -24 0 -34 -28 -39 -106 -4 -65 -8 -81 -25 -93 -12 -7 -21
-21 -21 -31 0 -10 -9 -20 -21 -23 -11 -3 -23 -14 -25 -24 -3 -10 -15 -23 -27
-28 -13 -6 -24 -23 -28 -43 -7 -36 -38 -65 -54 -52 -6 5 -17 5 -24 0 -8 -4
-20 -6 -28 -3 -7 3 -19 0 -27 -6 -10 -9 -15 -8 -20 4 -4 12 -10 13 -24 6 -13
-7 -22 -7 -30 1 -8 8 -15 8 -26 -1 -12 -10 -15 -7 -18 21 -2 23 -7 32 -18 30
-8 -2 -19 -4 -25 -5 -5 -1 -11 10 -13 26 -3 28 -16 35 -27 17 -5 -8 -11 -8
-20 0 -8 6 -21 10 -31 8 -15 -3 -18 5 -18 47 -1 37 -5 50 -16 50 -8 0 -19 -9
-24 -20 -12 -27 -51 -46 -65 -32 -7 7 -15 6 -24 -2 -12 -9 -16 -8 -21 4 -4 13
-10 14 -26 5 -19 -10 -24 -6 -21 14 1 4 -1 17 -4 27 -5 15 -10 17 -26 9 -10
-6 -19 -9 -20 -8 0 2 -2 19 -3 38 -3 43 8 67 33 75 10 3 21 15 24 26 8 31 41
20 45 -14 3 -24 5 -26 25 -16 12 7 29 21 39 33 15 18 19 19 27 7 8 -12 12 -12
25 -2 21 17 37 5 32 -24 -6 -32 2 -37 31 -18 13 9 23 12 22 7 -4 -21 3 -23 26
-8 l25 16 0 -63 c0 -49 3 -60 12 -51 17 17 38 15 38 -5 0 -13 3 -14 12 -5 18
18 25 15 32 -18 5 -28 8 -30 28 -19 12 7 31 21 41 33 12 14 20 17 23 9 8 -17
40 4 105 68 l56 55 1 79 c1 57 5 83 17 94 13 13 17 14 24 2 7 -11 13 -11 32 3
13 9 26 12 29 6 3 -5 11 -5 20 0z m-372 -77 c2 -15 -4 -22 -23 -25 -33 -7 -45
17 -19 37 24 18 38 14 42 -12z m78 -73 c23 9 24 8 24 -30 0 -43 -35 -89 -53
-71 -7 7 -17 7 -28 1 -11 -7 -20 -7 -24 0 -4 7 -12 7 -25 0 -26 -14 -30 -13
-30 8 0 30 99 114 108 91 2 -4 14 -4 28 1z m774 -850 c0 -6 9 -6 25 0 25 9 25
9 25 -43 0 -45 -3 -53 -24 -63 -20 -9 -26 -9 -30 2 -3 8 -3 20 0 28 7 19 -14
30 -30 17 -30 -25 -35 20 -6 49 21 21 40 26 40 10z m50 -169 c0 -23 -5 -30
-25 -33 -30 -6 -34 -3 -28 23 5 17 25 32 51 38 1 1 2 -12 2 -28z m595 -223
c-4 -24 -15 -48 -24 -55 -20 -15 -21 -14 -23 34 -1 48 6 63 33 63 19 0 20 -4
14 -42z m447 -70 c6 -16 -80 -101 -93 -93 -12 8 -4 21 40 67 39 41 47 44 53
26z m-697 -58 c0 -16 -41 -44 -49 -32 -7 12 24 54 37 49 7 -2 12 -9 12 -17z
m205 -4 c0 -17 -7 -25 -25 -28 -32 -7 -38 3 -19 30 20 29 44 28 44 -2z m-1202
-293 c1 -21 -4 -31 -23 -39 -18 -9 -25 -9 -28 0 -7 21 6 48 27 56 11 5 21 9
21 9 1 1 2 -11 3 -26z m1347 -43 c5 -8 11 -7 21 1 12 10 17 9 27 0 9 -10 7
-17 -12 -32 -13 -11 -31 -17 -39 -14 -8 3 -20 1 -27 -5 -17 -14 -25 8 -14 38
9 23 33 30 44 12z m-150 -152 c-3 -12 -16 -31 -30 -43 -34 -26 -26 -59 11 -45
19 8 24 6 24 -7 0 -13 3 -14 12 -5 18 18 25 15 30 -12 4 -20 0 -26 -16 -28
-15 -2 -22 -11 -24 -31 -3 -26 -2 -27 17 -18 29 16 31 14 31 -20 0 -16 -4 -28
-8 -25 -4 2 -14 1 -22 -4 -9 -5 -19 -5 -27 2 -9 7 -17 7 -26 -1 -10 -7 -17 -7
-24 0 -8 8 -17 5 -31 -9 -11 -11 -21 -24 -23 -30 -2 -6 -13 -12 -24 -14 -16
-2 -19 2 -17 24 2 14 -2 29 -8 33 -20 12 -40 -16 -40 -59 0 -34 -4 -43 -25
-53 l-25 -11 0 129 c0 117 2 129 19 139 25 13 34 13 26 0 -3 -5 -1 -10 5 -10
9 0 35 22 107 92 16 16 25 19 35 11 10 -8 18 -8 32 3 25 18 26 18 21 -8z
m-1052 -95 c-6 -16 -5 -16 10 -4 19 15 47 8 47 -12 0 -20 -44 -39 -58 -25 -8
8 -15 8 -26 -1 -26 -22 -28 8 -2 34 30 29 38 32 29 8z m505 -25 c2 -20 7 -25
23 -21 10 3 19 1 20 -3 0 -5 2 -17 4 -26 2 -12 -3 -18 -17 -18 -11 0 -22 -8
-25 -20 -4 -16 -21 -27 -53 -34 -2 -1 -4 13 -5 29 0 22 -4 29 -15 26 -8 -2
-24 -4 -35 -5 -11 -1 -26 -5 -33 -9 -17 -12 -26 17 -12 42 11 22 35 28 45 11
9 -14 52 16 58 41 8 30 41 20 45 -13z m-348 -40 c0 -17 -3 -28 -6 -25 -4 3
-15 2 -25 -3 -29 -16 -33 7 -5 35 32 32 36 32 36 -7z m150 3 c0 -20 -6 -30
-20 -34 -11 -3 -24 -16 -29 -29 -6 -12 -10 -19 -10 -15 -1 4 -10 3 -20 -3 -34
-18 -35 8 -2 39 17 16 31 33 31 38 0 13 22 33 37 33 8 0 13 -12 13 -29z m-310
-49 c0 -9 -9 -23 -20 -30 -17 -10 -20 -10 -20 6 0 19 18 42 32 42 4 0 8 -8 8
-18z m1204 9 c10 -15 -4 -39 -25 -44 -27 -7 -34 11 -13 34 19 21 30 24 38 10z
m-800 -71 c-5 -39 -4 -40 15 -28 16 9 23 10 32 1 14 -14 59 11 59 33 0 12 29
34 46 34 3 0 4 -18 1 -40 l-5 -39 27 17 c14 9 32 25 39 34 17 24 32 23 32 -2
0 -11 -4 -20 -10 -20 -16 0 -43 -49 -36 -66 5 -13 9 -14 22 -4 12 10 17 11 27
1 9 -10 7 -16 -11 -31 -13 -11 -30 -16 -38 -13 -8 3 -21 0 -28 -6 -17 -15 -30
1 -22 27 3 9 1 23 -3 31 -16 25 -41 -6 -41 -50 0 -33 -4 -41 -26 -49 -14 -6
-31 -7 -36 -3 -6 3 -21 -5 -32 -20 -29 -36 -61 -40 -61 -7 0 33 -38 36 -43 4
-3 -24 -44 -38 -60 -22 -6 6 -23 -4 -45 -26 -40 -39 -43 -41 -52 -26 -4 6 19
35 49 65 52 51 65 73 50 88 -4 3 -15 2 -25 -3 -31 -17 -32 8 -2 37 23 24 28
25 31 11 3 -16 5 -16 28 -2 14 10 24 12 24 5 0 -7 8 -7 23 -2 17 6 22 17 23
46 1 25 8 43 20 52 28 20 33 16 28 -27z m854 -9 c2 -51 1 -52 -47 -65 -2 -1
-4 16 -6 37 -1 30 3 42 23 57 14 11 25 20 26 20 1 0 2 -22 4 -49z m-1098 -33
c0 -17 -3 -28 -6 -25 -4 3 -15 2 -25 -3 -29 -16 -33 7 -5 35 32 32 36 32 36
-7z m-560 4 c0 -9 -9 -23 -20 -30 -17 -10 -20 -10 -20 6 0 19 18 42 32 42 4 0
8 -8 8 -18z m1323 -144 c12 18 27 15 27 -7 0 -21 -22 -33 -64 -34 -28 -1 -28
0 -28 59 0 85 0 84 25 93 21 8 22 6 27 -58 3 -39 8 -61 13 -53z m-1768 21 c0
-44 -3 -53 -22 -60 -22 -8 -23 -6 -23 36 0 34 5 47 22 59 12 9 23 16 23 16 0
0 0 -23 0 -51z m645 25 c0 -9 -11 -25 -25 -36 -14 -11 -25 -25 -25 -33 0 -15
-37 -27 -45 -15 -6 9 74 100 88 100 4 0 7 -7 7 -16z m250 -2 c0 -9 -9 -23 -20
-30 -17 -10 -20 -10 -20 6 0 19 18 42 32 42 4 0 8 -8 8 -18z m103 4 c3 -9 -4
-21 -19 -30 -22 -15 -24 -15 -24 2 0 18 18 42 31 42 4 0 9 -6 12 -14z m507
-100 c0 -17 -7 -27 -22 -32 -13 -4 -25 -6 -28 -5 -10 4 2 36 18 49 24 18 32
15 32 -12z m-850 -8 c0 -22 -42 -53 -55 -40 -9 9 -5 38 7 50 20 20 48 14 48
-10z m540 -46 c0 -9 -9 -23 -20 -30 -15 -9 -20 -23 -20 -57 0 -36 -3 -45 -18
-45 -9 0 -30 -14 -45 -30 -16 -17 -33 -28 -38 -24 -12 7 7 41 31 54 13 7 20
21 20 41 0 22 11 42 38 70 41 43 52 47 52 21z m-629 -93 c-32 -32 -49 -41 -81
-43 -47 -4 -50 5 -13 42 24 24 27 24 33 8 5 -15 12 -12 50 25 36 35 45 40 48
26 2 -10 -13 -34 -37 -58z m185 13 c2 -34 -2 -44 -22 -57 -13 -8 -24 -21 -24
-28 0 -6 -11 -17 -24 -23 -40 -18 -42 12 -5 47 21 20 30 36 26 48 -6 23 20 64
36 58 6 -2 12 -22 13 -45z m-1 -142 c0 -39 -4 -53 -21 -65 -26 -18 -32 -8 -28
45 1 21 11 41 24 52 12 10 23 18 24 18 0 0 1 -22 1 -50z m501 29 c4 -8 9 -8
17 0 16 16 27 13 27 -8 0 -22 -22 -33 -65 -34 -31 0 -35 14 -13 40 13 16 25
16 34 2z m-698 -53 c1 -17 -5 -27 -19 -31 -11 -4 -25 -17 -31 -30 -10 -23 -44
-40 -52 -27 -8 14 14 51 33 57 12 3 21 13 21 20 0 12 25 34 40 35 3 0 7 -11 8
-24z m672 -36 c14 7 20 6 25 -8 8 -21 -33 -58 -48 -43 -7 7 -16 7 -28 1 -30
-17 -32 8 -3 37 17 17 29 23 32 15 2 -8 9 -9 22 -2z m-580 -68 c0 -19 -36 -47
-44 -33 -6 10 22 51 35 51 5 0 9 -8 9 -18z m106 -71 c0 -34 -28 -77 -44 -67
-9 5 -6 81 3 97 15 23 40 4 41 -30z m474 -261 c26 17 30 11 30 -38 0 -42 -3
-50 -25 -60 -15 -7 -26 -8 -30 -2 -4 7 -13 6 -26 0 -21 -12 -21 -11 -21 39 0
24 6 40 22 53 14 11 26 15 29 9 4 -6 12 -6 21 -1z m-1173 -125 c-3 -7 -15 -18
-26 -24 -32 -18 -35 6 -5 36 27 27 43 21 31 -12z m1099 -186 c4 -8 9 -8 17 0
16 16 27 13 27 -7 0 -9 -9 -23 -20 -30 -11 -7 -20 -19 -20 -26 0 -12 -18 -23
-50 -30 -6 -1 -4 70 3 88 7 18 33 21 43 5z m448 -323 c-3 -9 -10 -16 -14 -16
-5 0 -15 -3 -24 -6 -24 -9 -20 22 5 47 19 19 23 20 30 6 5 -8 6 -22 3 -31z
m-98 -89 c-6 -25 -41 -43 -52 -26 -3 5 -13 5 -25 -1 -16 -9 -19 -7 -19 8 0 27
26 48 43 34 8 -7 18 -6 31 4 24 17 30 12 22 -19z m103 -24 c-3 -20 2 -24 17
-12 13 10 17 10 24 -2 7 -10 1 -22 -19 -40 -22 -20 -29 -34 -27 -61 0 -19 -3
-35 -9 -35 -5 0 -17 -2 -25 -4 -11 -3 -14 3 -11 25 2 26 0 28 -23 24 -44 -9
-40 9 13 62 48 48 62 58 60 43z m-54 -322 c0 -16 -4 -27 -8 -24 -4 3 -14 -1
-22 -7 -12 -10 -15 -9 -15 8 0 12 10 28 22 36 12 9 23 16 23 16 0 0 0 -13 0
-29z m53 -98 c1 -21 -4 -31 -23 -40 -24 -10 -25 -9 -25 18 0 21 6 32 23 39 12
5 22 9 22 9 1 1 2 -11 3 -26z m52 -50 c0 -20 -7 -31 -25 -39 -21 -10 -25 -9
-31 9 -5 15 0 26 16 39 31 25 40 23 40 -9z m96 -119 c-2 -29 -10 -50 -22 -59
-23 -17 -23 -17 -26 29 -2 30 3 42 21 57 13 11 25 19 27 19 3 0 3 -21 0 -46z
m248 -1069 c-7 -18 7 -20 24 -3 16 16 22 8 26 -43 3 -39 1 -46 -20 -56 -26
-12 -28 -9 -25 34 3 26 -15 39 -34 23 -26 -21 -27 9 -1 35 29 29 38 32 30 10z"/>
<path d="M4092 6808 c-7 -7 -12 -20 -12 -30 0 -16 3 -17 21 -7 14 7 24 8 28 1
10 -16 53 6 49 25 -4 21 -68 29 -86 11z"/>
<path d="M4187 6763 c-4 -3 -7 -15 -7 -25 0 -10 -6 -18 -14 -18 -19 0 -38 -26
-34 -45 2 -12 11 -8 39 18 20 19 42 36 49 39 17 5 6 38 -13 38 -8 0 -17 -3
-20 -7z"/>
<path d="M4642 5718 c-7 -7 -12 -22 -12 -35 0 -21 2 -22 25 -11 17 8 25 18 23
32 -4 24 -20 30 -36 14z"/>
<path d="M5366 5386 c-41 -38 -46 -47 -42 -77 3 -19 5 -51 5 -72 l1 -37 25 16
c14 9 25 22 25 29 0 7 11 20 25 29 26 17 34 46 12 46 -7 0 -18 -5 -24 -11 -7
-7 -12 -6 -17 6 -4 11 4 26 24 45 30 28 38 54 21 64 -5 3 -30 -14 -55 -38z"/>
<path d="M5483 5408 c-6 -7 -10 -21 -10 -31 0 -13 6 -16 21 -11 24 7 37 24 33
39 -5 15 -33 17 -44 3z"/>
<path d="M5596 5322 c-3 -5 -16 -7 -30 -5 -29 6 -49 -23 -43 -64 3 -20 -2 -31
-17 -38 -12 -6 -23 -22 -24 -35 -3 -20 -1 -23 9 -12 17 15 43 16 33 0 -5 -8
-2 -9 10 -5 10 4 22 7 27 7 5 0 14 11 18 24 9 22 51 44 51 25 0 -5 11 -3 25 3
28 13 32 56 5 50 -8 -2 -19 -4 -24 -5 -5 -1 -10 11 -10 27 -1 29 -19 46 -30
28z"/>
<path d="M5842 5308 c-7 -7 -12 -31 -12 -55 0 -42 0 -42 26 -31 22 10 25 17
20 41 -3 16 -6 36 -6 43 0 17 -12 18 -28 2z"/>
<path d="M5242 5258 c-12 -17 -25 -58 -17 -58 17 0 55 35 55 51 0 22 -22 25
-38 7z"/>
<path d="M5742 5258 c-7 -7 -12 -20 -12 -30 0 -17 1 -18 25 -2 25 16 29 34 9
41 -5 2 -15 -2 -22 -9z"/>
<path d="M5383 5203 c-11 -23 -1 -162 10 -145 14 21 25 13 31 -24 6 -30 10
-34 22 -23 8 6 16 10 19 8 3 -4 12 -70 14 -108 1 -11 4 -11 16 -1 20 17 29 6
34 -43 1 -4 10 -2 21 5 17 11 22 10 30 -1 7 -12 14 -9 37 15 15 17 36 33 45
37 13 4 17 16 16 42 -1 28 5 42 26 62 19 18 24 29 17 36 -7 7 -14 7 -24 -1
-10 -9 -16 -9 -25 0 -8 8 -15 8 -27 -2 -10 -8 -15 -9 -15 -1 0 6 -18 10 -47 9
-27 -1 -54 1 -61 6 -7 4 -19 2 -27 -4 -8 -7 -15 -9 -16 -4 -1 5 -2 20 -2 34
-1 14 -7 24 -14 23 -7 -2 -18 -4 -25 -5 -8 -2 -11 13 -10 50 1 45 -1 52 -18
52 -11 0 -23 -8 -27 -17z m247 -250 c0 -20 -7 -31 -25 -40 -14 -6 -27 -7 -30
-3 -8 12 12 57 27 63 24 10 28 7 28 -20z"/>
<path d="M5192 5168 c-7 -7 -12 -22 -12 -35 0 -19 3 -21 23 -14 14 5 22 17 22
31 0 27 -16 35 -33 18z"/>
<path d="M5292 5158 c-7 -7 -12 -19 -12 -27 0 -8 -3 -11 -6 -8 -13 13 -44 -14
-44 -39 0 -21 3 -23 19 -14 29 15 31 13 31 -25 0 -33 1 -34 23 -24 22 10 24
17 24 80 0 69 -9 83 -35 57z"/>
<path d="M5842 5158 c-7 -7 -12 -18 -12 -25 0 -7 -8 -13 -19 -13 -31 0 -36
-20 -33 -123 3 -86 5 -97 18 -86 13 10 17 10 24 0 5 -9 10 -10 14 -2 9 14 46
15 46 1 0 -6 11 -3 25 6 15 10 25 12 25 5 0 -7 7 -7 25 1 14 6 25 20 25 30 0
15 -6 19 -27 16 -25 -3 -28 0 -25 24 3 27 3 28 -49 26 -59 -3 -71 10 -40 41
22 22 41 27 41 11 0 -6 9 -6 24 0 14 5 26 5 28 1 4 -10 48 5 48 16 0 4 -4 14
-9 22 -8 12 -13 12 -24 3 -12 -10 -16 -9 -21 3 -3 8 -3 21 0 29 8 20 -14 30
-33 14 -13 -10 -17 -10 -20 0 -6 15 -16 15 -31 0z"/>
<path d="M4640 5105 c-11 -10 -14 -32 -12 -79 4 -63 5 -65 24 -55 15 8 22 8
27 0 9 -14 51 15 51 36 0 12 -7 14 -29 10 l-29 -6 1 51 c2 54 -9 68 -33 43z"/>
<path d="M4892 5108 c-7 -7 -12 -20 -12 -30 0 -16 3 -16 20 -6 11 7 20 21 20
30 0 21 -11 23 -28 6z"/>
<path d="M5990 5056 c-6 -8 -10 -24 -8 -36 l3 -21 22 20 c13 12 20 28 17 36
-8 19 -18 19 -34 1z"/>
<path d="M6035 5010 c-3 -6 -8 -21 -11 -34 -4 -24 -4 -24 26 -9 19 9 30 21 28
31 -4 20 -33 28 -43 12z"/>
<path d="M4782 4953 c-5 -10 -7 -23 -5 -30 7 -19 53 6 53 29 0 23 -36 24 -48
1z"/>
<path d="M6047 4919 c-9 -6 -17 -16 -17 -24 0 -16 -35 -30 -67 -26 -23 2 -32
-7 -38 -39 -3 -17 0 -19 19 -14 13 3 27 1 30 -5 5 -7 15 -6 32 5 24 16 24 16
24 -21 0 -37 1 -37 23 -23 19 13 22 25 24 81 2 71 -2 81 -30 66z"/>
<path d="M4642 4857 c-12 -14 -17 -94 -14 -195 2 -49 3 -52 21 -42 26 13 29
13 33 -4 3 -13 6 -13 23 0 18 13 20 26 20 112 0 72 -3 96 -12 95 -7 -2 -18 -4
-25 -5 -6 -2 -12 8 -12 21 -1 28 -18 37 -34 18z"/>
<path d="M5790 4806 c-6 -6 -10 -18 -10 -28 0 -15 3 -17 19 -8 25 13 34 13 26
0 -8 -13 -2 -13 30 2 14 6 25 19 25 29 0 15 -8 18 -40 16 -22 -1 -45 -6 -50
-11z"/>
<path d="M4648 6519 c-10 -6 -18 -21 -18 -34 0 -21 3 -23 23 -16 23 9 35 37
20 51 -4 5 -16 4 -25 -1z"/>
<path d="M6240 4605 c-6 -8 -10 -22 -8 -32 3 -16 5 -16 26 5 12 12 22 27 22
32 0 15 -26 12 -40 -5z"/>
<path d="M5686 4359 c-21 -30 -11 -52 17 -37 15 8 22 8 25 0 5 -17 42 9 42 30
0 21 -11 23 -28 6 -9 -9 -13 -7 -18 5 -8 23 -20 21 -38 -4z"/>
<path d="M2742 11158 c-7 -7 -12 -17 -12 -23 0 -5 -10 -15 -22 -20 -13 -6 -24
-20 -26 -32 -3 -20 -1 -21 22 -10 13 6 23 15 20 18 -5 8 31 41 38 34 3 -3 8 6
10 20 6 27 -9 34 -30 13z"/>
<path d="M0 8474 c0 -1049 2 -1205 14 -1201 10 4 13 1 10 -8 -5 -12 -1 -12 24
1 17 8 32 21 35 29 3 7 16 19 28 25 15 8 19 9 15 1 -9 -13 -4 -14 28 -2 17 7
26 7 28 -1 2 -6 17 3 33 19 33 32 65 48 65 32 0 -13 42 9 53 27 4 8 17 19 29
25 15 8 19 8 14 0 -9 -13 -4 -14 28 -2 17 7 26 7 29 -2 2 -7 15 0 33 19 31 32
64 50 64 33 0 -6 8 -5 21 2 17 8 23 8 30 -2 5 -9 15 -5 36 17 30 32 63 50 63
33 0 -13 42 9 53 27 4 8 17 19 29 25 15 8 19 8 14 0 -9 -14 0 -14 26 0 15 8
22 8 28 0 4 -8 19 1 44 24 38 35 56 44 56 25 0 -14 42 8 53 26 4 8 17 19 29
25 16 9 19 8 13 -2 -6 -9 -3 -10 8 -6 10 4 24 10 32 13 8 3 15 1 15 -5 0 -7 7
-7 25 1 14 6 25 17 25 25 0 15 43 35 48 22 2 -4 14 -4 27 1 16 6 25 5 28 -3 2
-7 15 0 33 19 31 32 64 50 64 33 0 -13 42 9 53 27 4 8 17 19 29 25 15 8 19 8
14 0 -9 -14 0 -14 26 0 16 8 22 8 29 -2 5 -9 15 -5 36 17 30 32 63 50 63 33 0
-13 42 9 53 27 4 8 17 19 29 25 15 8 19 8 14 0 -9 -14 0 -14 26 0 15 8 22 8
27 0 5 -7 21 2 44 24 39 37 53 42 59 24 2 -6 21 6 41 25 39 36 57 45 57 26 0
-6 8 -5 20 2 16 10 22 10 28 1 11 -18 99 66 94 89 -3 14 -7 16 -23 8 -10 -6
-19 -9 -20 -8 0 2 -2 11 -4 21 -8 42 -14 50 -30 37 -8 -7 -15 -11 -15 -9 -1 2
-3 38 -6 79 -3 41 -7 76 -9 79 -3 2 -12 -2 -21 -9 -13 -11 -17 -11 -24 0 -7
11 -12 11 -23 2 -12 -10 -16 -9 -21 3 -4 13 -10 14 -26 5 -11 -6 -20 -9 -21
-8 0 2 -3 14 -5 27 -6 33 -11 36 -30 21 -13 -11 -17 -11 -24 0 -7 11 -11 11
-23 1 -11 -9 -17 -9 -22 -1 -4 7 -16 10 -26 7 -10 -3 -22 -1 -25 4 -3 6 -16 3
-31 -6 -14 -10 -22 -12 -19 -6 4 6 1 11 -6 11 -21 -1 -45 -24 -40 -39 3 -9 0
-12 -10 -8 -19 7 -38 -11 -38 -34 0 -9 -9 -19 -21 -22 -11 -3 -23 -14 -26 -25
-3 -11 -14 -22 -25 -25 -11 -3 -22 -14 -24 -24 -3 -10 -15 -23 -28 -29 -18 -9
-25 -8 -33 5 -9 14 -13 14 -27 2 -9 -7 -16 -10 -17 -5 -1 5 -2 20 -2 34 -1 14
-7 24 -14 23 -7 -2 -18 -4 -25 -5 -9 -2 -12 33 -11 140 1 141 6 167 35 167 13
0 20 126 7 146 -6 10 -10 10 -23 0 -9 -8 -16 -10 -17 -5 0 5 -2 29 -2 54 -2
38 -5 45 -22 45 -11 1 -26 4 -33 9 -7 4 -19 2 -27 -4 -8 -7 -15 -11 -16 -9 0
2 -2 14 -3 26 -4 31 -13 38 -30 24 -11 -9 -15 -8 -20 4 -4 12 -10 13 -25 6
-22 -12 -31 -5 -31 26 0 24 -14 31 -26 12 -9 -15 -24 9 -24 39 0 23 -14 30
-25 11 -5 -6 -12 -4 -20 8 -11 15 -15 15 -29 4 -17 -14 -19 -10 -17 26 3 26
-15 39 -33 24 -9 -7 -16 -7 -24 1 -8 8 -15 8 -27 -2 -8 -7 -15 -11 -16 -9 0 2
-2 48 -3 101 -1 53 -5 100 -9 104 -3 4 -14 1 -23 -6 -12 -11 -17 -11 -23 -1
-11 17 -51 -7 -44 -26 3 -8 0 -11 -9 -8 -17 7 -53 -29 -43 -44 3 -6 0 -8 -8
-5 -8 3 -18 0 -22 -6 -5 -8 -11 -8 -21 1 -11 9 -18 8 -32 -4 -16 -15 -17 -11
-16 59 0 72 10 99 37 99 7 0 10 9 9 20 -5 28 -9 30 -27 15 -12 -10 -15 -10
-16 1 -1 8 -2 23 -3 34 -1 14 -8 20 -26 21 -15 0 -24 5 -22 13 1 7 0 22 -3 32
-5 15 -10 17 -26 9 -10 -6 -19 -7 -20 -3 -1 4 -2 17 -3 28 -1 14 -8 20 -26 20
-20 0 -26 6 -28 28 -4 29 -11 34 -30 15 -12 -12 -16 -4 -13 32 0 8 -3 21 -8
29 -8 12 -12 12 -25 2 -9 -8 -16 -12 -17 -10 0 2 -2 25 -3 51 -3 55 -10 66
-30 49 -15 -13 -26 4 -26 40 0 22 -11 24 -28 7 -8 -8 -12 -9 -12 -1 0 8 -32
11 -100 10 -55 0 -103 2 -106 6 -4 4 -11 7 -16 7 -4 0 -8 -543 -8 -1206z"/>
<path d="M2187 7952 c-10 -10 -14 -22 -10 -27 5 -4 2 -5 -4 -1 -7 4 -19 4 -25
0 -7 -5 -31 -8 -53 -7 -38 1 -80 -21 -70 -37 5 -8 -1 -9 -75 -12 -43 -2 -57
-7 -65 -23 -12 -22 -27 -29 -66 -26 -30 1 -55 -22 -43 -40 4 -8 3 -9 -5 -5 -6
4 -18 3 -26 -4 -9 -8 -15 -8 -20 0 -3 6 -11 7 -17 4 -6 -4 -23 -7 -37 -8 -17
-1 -30 -10 -38 -26 -7 -14 -13 -21 -13 -17 0 4 -9 3 -20 -3 -16 -9 -20 -21
-20 -61 0 -46 1 -49 19 -39 11 5 22 10 25 10 3 0 6 -29 6 -65 l0 -65 23 14
c22 15 22 15 25 -41 1 -31 4 -58 5 -60 2 -1 20 13 40 32 37 35 57 44 57 25 0
-15 33 4 67 37 17 18 28 23 31 15 3 -9 9 -9 24 -1 15 8 22 8 28 0 4 -8 16 -2
36 17 32 31 64 47 64 31 0 -14 42 10 59 33 7 11 19 17 27 14 8 -3 25 -1 38 4
17 6 26 5 28 -2 2 -6 17 3 33 19 35 34 62 47 67 31 2 -6 20 5 40 25 19 21 40
37 46 37 10 0 7 128 -3 139 -3 2 -11 -2 -20 -9 -8 -7 -15 -9 -16 -4 0 5 -2 30
-2 56 -2 53 -10 66 -31 49 -11 -9 -15 -9 -19 1 -3 10 -9 11 -25 1 -13 -8 -23
-9 -27 -3 -9 15 -20 12 -38 -8z"/>
<path d="M1019 7492 c-22 -23 -34 -27 -70 -25 -36 2 -49 -3 -71 -24 -23 -22
-37 -27 -79 -26 -45 1 -56 -3 -80 -27 -19 -19 -35 -26 -49 -23 -11 3 -26 0
-34 -6 -11 -9 -15 -9 -18 1 -4 10 -8 10 -21 -1 -10 -7 -17 -19 -17 -26 0 -13
-2 -14 -80 -17 -43 -2 -57 -7 -65 -23 -11 -21 -24 -27 -65 -29 -13 0 -29 -10
-35 -21 -12 -23 -23 -27 -90 -29 -42 -1 -51 -5 -62 -26 -7 -14 -13 -21 -13
-17 0 4 -8 3 -18 -2 -13 -7 -22 -7 -29 0 -8 8 -17 5 -31 -9 -18 -18 -19 -30
-15 -233 3 -118 6 -215 8 -217 1 -1 15 10 31 26 34 34 61 46 67 29 2 -7 15 0
33 19 31 32 64 50 64 33 0 -13 42 9 53 27 4 8 17 19 29 25 16 8 19 8 13 -1
-14 -23 39 1 63 29 14 16 25 22 28 14 4 -8 12 -8 32 3 17 9 28 10 33 3 3 -6
18 1 35 18 32 32 64 48 64 32 0 -13 41 9 57 30 6 9 26 16 43 17 22 1 39 11 55
30 12 15 27 24 33 21 5 -4 22 -3 35 2 17 7 27 7 29 -1 2 -5 17 3 33 19 34 34
62 47 67 31 2 -6 17 3 33 19 32 31 65 48 65 33 0 -6 11 -5 25 2 14 6 25 17 25
25 0 7 11 18 24 23 22 8 24 13 21 75 -3 74 -8 84 -30 65 -8 -7 -15 -9 -16 -4
0 5 -2 42 -5 83 -2 41 -6 76 -9 79 -2 3 -11 -1 -20 -8 -10 -8 -15 -9 -15 -1 0
21 -35 11 -61 -17z"/>
<path d="M1442 7358 c-7 -7 -12 -20 -12 -30 0 -16 3 -16 20 -6 11 7 20 21 20
30 0 21 -11 23 -28 6z"/>
<path d="M2987 7202 c-9 -10 -14 -22 -10 -26 4 -4 0 -4 -9 -1 -9 4 -19 2 -22
-3 -3 -6 -14 -8 -24 -5 -30 7 -40 -18 -44 -108 -2 -60 -7 -85 -14 -82 -7 2
-15 -1 -19 -7 -5 -8 -11 -8 -21 1 -11 9 -17 9 -29 -1 -8 -7 -15 -11 -15 -9 -1
2 -3 26 -5 53 -5 57 -9 63 -30 46 -10 -8 -15 -9 -15 -1 0 20 -84 7 -95 -15 -6
-10 -17 -20 -25 -22 -21 -4 -41 -33 -33 -46 3 -6 3 -8 -2 -4 -12 11 -45 -11
-45 -30 0 -9 -11 -22 -25 -29 -15 -7 -25 -7 -25 -1 0 5 -12 8 -27 6 -23 -2
-28 1 -26 17 4 28 -12 49 -28 39 -8 -4 -23 -8 -34 -9 -10 0 -25 -11 -32 -25
-7 -14 -13 -21 -13 -17 0 18 -40 -15 -40 -33 0 -19 -20 -26 -58 -21 -8 1 -20
-3 -29 -10 -12 -10 -16 -10 -23 1 -7 11 -12 11 -22 2 -11 -9 -17 -9 -26 0 -9
9 -15 9 -24 0 -8 -8 -15 -9 -25 -1 -9 8 -17 8 -26 0 -10 -8 -17 -7 -25 1 -13
13 -42 -6 -42 -28 0 -12 -28 -20 -54 -15 -19 4 -57 -23 -51 -36 2 -8 0 -11 -5
-8 -6 3 -16 3 -22 -1 -7 -5 -31 -7 -53 -7 -30 1 -46 -4 -67 -24 -22 -21 -38
-26 -80 -27 -45 -1 -55 -4 -63 -23 -9 -22 -25 -27 -72 -24 -11 1 -24 -3 -28
-9 -6 -9 -10 -9 -15 1 -7 10 -11 10 -24 0 -9 -8 -16 -20 -16 -27 0 -13 -25
-19 -58 -15 -16 3 -53 -28 -47 -39 4 -7 -13 -10 -57 -10 -15 0 -30 -5 -34 -11
-5 -8 -9 -7 -14 2 -7 10 -11 10 -24 0 -9 -8 -16 -20 -16 -27 0 -13 -25 -19
-58 -15 -16 3 -53 -28 -47 -39 5 -8 -1 -9 -75 -12 -43 -2 -57 -7 -65 -23 -11
-21 -27 -28 -60 -27 -22 1 -57 -26 -49 -39 5 -9 -21 -13 -63 -10 -11 1 -24 -3
-28 -9 -6 -9 -10 -9 -15 1 -7 10 -11 10 -24 0 -9 -8 -16 -20 -16 -27 0 -13
-25 -19 -58 -15 -16 3 -53 -28 -47 -39 5 -8 -1 -9 -75 -12 -46 -3 -57 -7 -65
-25 -5 -13 -19 -24 -30 -24 -11 -1 -29 -2 -40 -3 -11 -1 -24 -10 -29 -21 -12
-27 -51 -46 -65 -32 -12 12 -41 -8 -41 -29 0 -13 -25 -19 -58 -15 -8 1 -20 -3
-29 -10 -12 -10 -16 -10 -23 1 -7 11 -11 11 -24 1 -9 -8 -16 -19 -16 -25 0
-15 -54 -40 -58 -26 -2 5 -8 10 -13 10 -5 0 -9 -152 -9 -370 0 -322 2 -370 15
-370 8 0 15 -4 15 -10 0 -11 32 -1 42 14 4 6 5 19 2 28 -6 21 44 77 55 60 4
-7 22 1 51 24 31 24 46 31 51 22 5 -8 16 -3 36 18 30 33 63 50 63 33 0 -6 14
0 31 13 61 46 70 51 68 42 -4 -21 3 -23 26 -8 16 10 25 12 25 5 0 -15 41 5 53
25 4 8 17 19 29 25 16 8 19 8 13 -1 -19 -31 43 7 91 56 54 56 68 65 58 39 -8
-19 1 -19 31 1 16 11 25 12 25 5 0 -15 41 5 53 25 4 8 17 18 27 24 16 8 18 8
14 -5 -8 -19 1 -19 31 1 15 10 25 12 25 5 0 -7 8 -8 25 -1 16 6 25 6 25 -1 0
-14 42 9 58 33 19 27 29 22 36 -17 7 -33 8 -34 29 -20 21 13 22 13 23 -18 3
-89 2 -87 28 -78 20 8 23 6 23 -12 1 -96 2 -97 27 -88 20 8 23 6 23 -12 1
-102 3 -110 18 -97 9 7 18 10 21 7 5 -4 9 -68 13 -190 1 -26 2 -27 24 -13 22
15 22 15 23 -47 3 -125 1 -119 27 -103 22 15 23 14 23 -17 3 -103 2 -99 27
-83 l22 15 0 -78 c0 -83 1 -82 -57 -81 -15 0 -30 -5 -34 -11 -5 -8 -9 -7 -14
2 -7 10 -11 10 -24 0 -9 -8 -16 -19 -16 -26 0 -13 -2 -13 -75 -17 -27 -2 -56
-7 -64 -12 -8 -5 -16 -4 -21 4 -11 17 -50 -9 -42 -28 3 -10 1 -13 -7 -8 -16
10 -41 -12 -41 -35 0 -13 -8 -20 -22 -20 -13 -1 -30 -2 -38 -3 -8 -1 -21 -5
-29 -10 -8 -5 -16 -4 -21 5 -7 10 -11 10 -24 0 -9 -8 -16 -20 -16 -27 0 -8 -9
-14 -19 -14 -11 0 -23 -5 -27 -11 -4 -8 -9 -7 -14 2 -7 10 -12 10 -25 -1 -14
-12 -18 -12 -25 0 -7 11 -11 11 -24 1 -9 -8 -16 -20 -16 -28 0 -8 -4 -12 -10
-8 -12 7 -53 -33 -45 -45 3 -5 0 -7 -8 -4 -8 3 -18 1 -21 -5 -4 -6 -13 -8 -21
-4 -9 3 -22 -1 -31 -8 -13 -10 -17 -10 -24 1 -7 11 -11 11 -24 1 -9 -8 -16
-19 -16 -27 0 -7 -10 -14 -22 -16 -12 -2 -25 -12 -28 -23 -6 -23 -17 -27 -85
-29 -41 -1 -52 -5 -60 -23 -5 -12 -17 -24 -27 -26 -16 -5 -41 -46 -33 -55 2
-2 14 2 26 9 17 9 24 9 27 1 3 -9 9 -9 25 0 15 8 22 8 25 0 5 -16 52 7 52 25
0 16 43 35 48 22 2 -5 13 -4 25 3 16 8 22 8 25 0 3 -9 9 -9 25 0 15 8 22 8 25
0 2 -7 11 -8 28 -2 15 6 24 6 24 -1 0 -13 42 9 53 27 4 8 17 19 29 25 15 8 19
8 14 0 -14 -22 12 -11 40 17 32 32 64 47 64 31 0 -6 14 0 31 13 62 46 73 53
65 41 -9 -16 -5 -16 28 -3 17 6 26 6 26 -1 0 -13 42 9 53 27 4 8 17 18 27 24
16 9 18 8 13 -6 -5 -15 -3 -14 21 1 21 14 30 16 35 6 6 -9 16 -4 37 18 16 17
34 31 41 31 7 0 17 9 23 20 6 11 20 25 31 31 15 8 19 8 15 0 -9 -13 -4 -14 28
-2 16 7 26 7 28 -1 2 -5 17 3 33 19 34 34 65 48 65 31 0 -9 3 -9 12 0 17 17
38 15 38 -3 0 -14 2 -14 23 0 21 14 23 13 23 -8 0 -12 1 -41 2 -65 2 -42 2
-42 25 -28 21 14 22 14 23 -17 3 -103 2 -99 27 -83 25 17 22 28 25 -102 2 -49
3 -52 21 -42 27 14 28 13 28 -12 1 -95 2 -99 22 -88 23 12 31 13 30 3 -1 -5
-1 -21 0 -36 1 -25 3 -27 22 -16 14 7 24 8 28 1 3 -5 15 -6 28 -1 21 8 22 13
20 98 -2 50 -6 93 -10 97 -3 4 -13 1 -22 -6 -8 -7 -15 -9 -16 -4 0 5 -2 32 -2
59 -2 45 -4 50 -25 50 -23 0 -24 2 -27 123 -1 68 -5 125 -8 129 -4 3 -13 1
-21 -6 -10 -9 -15 -9 -19 1 -7 20 11 58 27 58 9 0 20 9 26 20 14 25 52 48 44
25 -8 -20 1 -19 33 3 15 9 24 11 20 5 -10 -16 -6 -16 27 -3 14 5 25 6 25 2 -1
-4 -1 -22 0 -40 1 -31 2 -32 24 -18 21 14 22 14 23 -17 3 -105 1 -99 29 -81
23 15 25 15 19 0 -8 -20 0 -20 32 0 22 15 24 15 18 0 -8 -22 8 -20 34 4 24 23
26 29 13 49 -8 12 -12 12 -25 2 -9 -8 -16 -12 -17 -10 0 2 -1 42 -2 89 -2 78
0 87 22 110 16 16 26 20 29 12 5 -15 31 -2 69 35 16 17 28 23 30 16 3 -8 12
-9 29 -3 15 6 24 6 24 -1 0 -14 33 5 65 37 22 22 25 33 25 101 l0 75 -26 -17
c-15 -9 -23 -12 -19 -5 5 8 1 11 -11 8 -10 -2 -23 -12 -29 -23 -11 -20 -27
-28 -55 -27 -25 1 -61 -21 -56 -34 3 -8 0 -11 -8 -8 -8 3 -17 1 -20 -4 -3 -6
-15 -8 -26 -5 -11 3 -26 0 -34 -6 -11 -9 -15 -9 -18 1 -4 10 -8 10 -20 1 -11
-9 -17 -10 -26 -1 -8 8 -15 8 -27 -2 -8 -7 -15 -9 -15 -4 -3 50 -11 107 -16
115 -4 6 -11 6 -20 -2 -8 -6 -14 -10 -15 -8 0 2 -1 49 -2 104 -1 99 -9 124
-34 103 -13 -11 -14 -10 -16 32 -1 14 -6 24 -12 23 -5 -1 -17 -3 -25 -5 -11
-2 -14 4 -12 25 3 26 1 28 -25 25 -25 -3 -28 0 -25 24 4 31 -13 45 -33 28 -8
-7 -15 -11 -16 -9 0 2 -2 26 -2 54 -2 38 -6 51 -19 53 -26 5 -29 -11 -29 -136
0 -204 -2 -185 24 -168 22 15 23 14 23 -17 3 -103 2 -99 27 -83 21 14 22 14
23 -17 3 -103 2 -99 27 -83 l22 15 3 -78 c3 -73 1 -79 -18 -84 -12 -3 -24 -15
-27 -26 -3 -12 -14 -21 -24 -21 -10 0 -21 -5 -25 -11 -4 -8 -9 -7 -14 2 -7 10
-12 10 -23 1 -12 -10 -16 -9 -21 4 -3 8 -6 24 -6 35 0 22 -11 24 -28 7 -9 -9
-12 -9 -13 3 -1 7 -2 25 -2 39 -2 24 -5 26 -36 18 -12 -2 -14 12 -13 74 1 79
-8 99 -33 78 -17 -14 -17 -12 -16 52 1 51 -11 67 -34 48 -8 -7 -15 -11 -15 -9
-1 2 -3 26 -5 53 -5 57 -9 63 -30 46 -16 -13 -15 -15 -18 40 -1 14 -6 24 -12
23 -5 -1 -16 -3 -24 -5 -11 -2 -14 8 -13 42 1 58 -10 79 -32 61 -9 -8 -16 -11
-17 -7 -1 8 -1 212 0 230 1 18 95 90 99 77 3 -8 10 -7 24 0 15 8 22 8 28 -1 5
-9 9 -9 14 -1 10 16 36 13 36 -4 0 -14 3 -14 24 0 22 15 23 14 23 -7 1 -88 3
-102 15 -90 27 27 38 13 38 -48 0 -57 1 -59 23 -51 23 9 22 5 18 130 -1 32 -2
33 -24 19 l-22 -15 1 69 c2 69 2 70 48 114 44 42 64 56 51 34 -3 -5 -3 -10 0
-10 13 0 50 23 58 36 9 16 48 38 46 27 -3 -20 3 -22 26 -7 16 10 25 12 25 5 0
-15 41 5 53 25 4 8 17 18 27 24 16 9 18 8 13 -6 -5 -14 -2 -14 22 2 16 11 40
30 53 43 16 15 26 20 31 13 4 -7 22 1 50 23 46 37 57 42 45 24 -16 -26 43 6
71 38 17 19 51 57 78 84 30 32 47 59 47 74 0 17 27 52 95 120 53 52 100 95
105 95 4 0 10 -6 12 -12 3 -7 31 14 67 50 59 60 81 74 81 52 0 -7 7 -7 21 1
17 8 23 8 29 -2 12 -19 140 114 140 147 0 17 17 41 51 75 31 30 53 62 55 77 1
14 13 35 27 48 18 17 24 31 22 60 -3 44 -15 52 -38 26z"/>
<path d="M7292 6958 c-7 -7 -12 -22 -12 -35 0 -21 2 -22 20 -11 11 7 20 23 20
35 0 25 -10 29 -28 11z"/>
<path d="M7292 6868 c-7 -7 -12 -22 -12 -34 0 -17 5 -21 19 -17 23 6 33 26 25
48 -7 18 -16 19 -32 3z"/>
<path d="M2142 5658 c-7 -7 -12 -22 -12 -35 0 -22 1 -23 24 -8 l24 16 -3 -40
c-4 -46 -3 -47 28 -26 22 14 23 14 22 -25 0 -35 1 -38 16 -25 8 8 19 12 22 8
4 -3 7 17 7 45 0 48 -10 66 -25 42 -13 -21 -25 -9 -25 25 0 37 -8 43 -29 23
-11 -10 -14 -10 -18 0 -6 15 -16 15 -31 0z"/>
<path d="M1992 5608 c-7 -7 -12 -17 -12 -23 0 -5 -12 -16 -27 -22 -20 -9 -28
-20 -28 -37 0 -19 3 -22 14 -13 17 15 41 18 41 6 0 -6 6 -7 13 -2 23 14 39 12
33 -4 -6 -14 -4 -14 10 -2 24 20 47 21 39 1 -5 -12 -1 -12 16 4 11 10 24 17
27 14 3 -3 6 5 7 18 2 22 -19 31 -30 12 -13 -21 -25 -9 -25 25 0 37 -8 43 -29
23 -11 -10 -14 -10 -18 0 -6 15 -16 15 -31 0z"/>
<path d="M2101 4671 c-7 -5 -21 -7 -30 -4 -35 9 -45 -21 -42 -125 1 -42 1 -42
24 -27 21 14 23 13 23 -8 1 -81 4 -101 16 -89 22 22 37 13 40 -24 3 -35 3 -35
24 -16 17 16 20 30 19 103 -1 81 -2 84 -24 84 -21 0 -24 5 -25 53 -3 58 -6 65
-25 53z"/>
<path d="M8488 4608 c-33 -33 -20 -66 16 -42 13 8 26 11 29 7 4 -3 7 7 7 24 0
35 -23 40 -52 11z"/>
<path d="M8392 4568 c-10 -13 -15 -33 -13 -56 1 -9 8 -8 27 4 16 11 24 24 22
37 -4 25 -21 32 -36 15z"/>
<path d="M142 4358 c-7 -7 -12 -21 -12 -32 0 -16 3 -17 12 -8 14 14 42 16 33
2 -8 -13 -2 -13 30 2 29 13 34 48 7 48 -10 0 -23 -5 -30 -12 -9 -9 -12 -9 -12
0 0 7 -4 12 -8 12 -4 0 -13 -5 -20 -12z"/>
<path d="M1892 4058 c-7 -7 -12 -29 -12 -49 0 -29 -4 -38 -21 -42 -11 -3 -23
-14 -25 -24 -7 -24 -55 -48 -65 -31 -6 9 -11 9 -22 0 -19 -16 -30 -55 -14 -49
47 19 50 20 43 9 -9 -15 -5 -15 28 -2 17 6 26 6 26 -1 0 -6 6 -6 19 1 29 15
31 13 31 -27 0 -29 3 -34 12 -25 26 26 41 14 35 -28 l-5 -39 26 17 c19 12 27
13 30 4 3 -9 9 -9 25 0 14 7 22 7 24 1 5 -15 53 8 53 25 0 15 43 34 48 21 2
-5 13 -4 25 3 14 7 22 7 25 0 4 -13 39 -4 45 11 2 7 2 29 -1 50 -3 28 -8 37
-21 35 -9 -2 -17 -13 -19 -26 -2 -14 -11 -23 -25 -23 -12 -1 -29 -2 -39 -3 -9
-1 -20 -4 -24 -8 -4 -4 -13 0 -19 9 -11 14 -16 15 -28 5 -10 -9 -17 -10 -22
-3 -3 6 17 34 46 63 29 29 54 47 56 41 4 -10 9 -9 25 0 15 9 22 9 25 1 2 -7
12 -10 23 -7 13 4 19 16 22 50 3 47 -5 62 -26 44 -9 -7 -16 -7 -24 1 -8 8 -15
8 -27 -2 -10 -8 -15 -9 -15 -1 0 20 -84 7 -95 -15 -6 -10 -16 -20 -23 -21 -6
-2 -18 -4 -24 -5 -8 -2 -12 6 -10 19 4 27 -14 39 -35 21 -13 -10 -17 -10 -20
0 -6 15 -16 15 -31 0z"/>
<path d="M1642 3858 c-7 -7 -12 -20 -12 -30 0 -15 3 -16 25 -6 14 6 24 18 23
26 -4 20 -21 25 -36 10z"/>
<path d="M1492 3808 c-7 -7 -12 -17 -12 -22 0 -17 -48 -36 -53 -22 -3 8 -11 7
-27 -2 -18 -11 -24 -11 -31 -1 -6 10 -10 10 -23 0 -9 -8 -16 -19 -16 -25 0
-17 -48 -37 -53 -22 -3 8 -11 7 -27 -2 -18 -11 -24 -11 -31 -1 -6 10 -10 10
-23 0 -9 -8 -16 -20 -16 -27 0 -12 -28 -20 -54 -15 -19 4 -57 -23 -51 -36 3
-8 0 -11 -6 -8 -5 4 -16 2 -24 -5 -9 -8 -15 -8 -20 0 -3 6 -12 7 -18 3 -6 -4
-23 -6 -38 -5 -29 2 -55 -21 -43 -39 4 -8 3 -9 -5 -5 -6 4 -18 2 -26 -4 -8 -7
-15 -11 -16 -9 0 2 -1 37 -3 76 -3 80 -8 92 -31 73 -12 -10 -15 -10 -15 0 0 8
-9 11 -25 8 -14 -3 -28 -1 -31 3 -3 5 -14 5 -24 -1 -19 -10 -36 2 -26 18 2 4
1 14 -4 22 -7 12 -11 12 -25 0 -14 -12 -18 -12 -25 0 -7 11 -11 11 -23 1 -10
-7 -17 -8 -21 -2 -16 26 -114 -6 -99 -33 3 -6 3 -8 -2 -4 -14 13 -45 -12 -45
-37 0 -22 3 -23 24 -15 16 6 26 5 28 -1 2 -5 20 6 41 26 37 35 57 44 57 24 0
-6 5 -7 13 -2 24 15 32 10 32 -18 0 -18 -5 -27 -11 -25 -17 6 -34 -15 -34 -42
0 -16 4 -21 13 -15 24 15 32 10 32 -17 0 -16 -4 -26 -8 -23 -12 8 -37 -18 -37
-38 0 -12 -7 -19 -19 -19 -22 0 -45 -25 -36 -39 3 -6 0 -8 -8 -5 -8 3 -18 1
-21 -4 -3 -5 -16 -7 -30 -5 -17 4 -27 -1 -35 -15 -6 -11 -7 -23 -3 -27 4 -5 2
-5 -5 -1 -14 7 -57 -30 -49 -43 5 -7 -4 -10 -41 -12 -31 -1 -64 -22 -58 -36 2
-8 0 -11 -5 -8 -6 3 -15 3 -22 -1 -14 -9 -216 -10 -224 -1 -4 4 -15 2 -25 -3
-12 -7 -20 -7 -24 0 -15 24 -25 6 -25 -45 0 -44 3 -53 15 -49 8 4 15 1 15 -5
0 -9 6 -9 22 0 16 9 23 9 26 1 3 -9 9 -9 25 0 15 8 22 8 25 0 4 -13 42 5 55
25 4 7 17 17 27 23 16 8 18 8 14 -5 -5 -13 -3 -13 22 0 16 8 30 11 32 6 4 -13
50 12 55 30 2 9 13 18 24 21 30 8 30 -44 0 -57 -12 -6 -24 -21 -25 -35 -3 -20
-1 -22 10 -12 17 14 28 6 28 -19 0 -23 -24 -31 -101 -33 -66 -1 -105 -18 -92
-39 3 -6 1 -7 -6 -3 -6 4 -18 3 -26 -4 -9 -8 -15 -8 -20 0 -3 6 -11 7 -17 4
-6 -4 -23 -7 -37 -8 -17 -1 -29 -9 -36 -23 -5 -13 -15 -23 -22 -23 -10 0 -13
-56 -13 -251 0 -214 2 -250 14 -246 8 3 16 1 18 -5 2 -5 24 7 48 27 24 20 46
32 48 27 5 -15 34 -3 54 22 10 12 30 21 49 22 21 1 39 10 50 25 11 15 29 24
50 25 21 1 39 11 55 30 18 23 25 26 33 15 7 -11 13 -10 35 4 16 11 26 13 26 6
0 -16 32 1 67 36 17 18 28 23 31 15 4 -14 42 2 55 24 4 8 17 19 29 25 16 8 19
8 13 -1 -14 -23 39 1 62 29 18 20 24 23 32 12 7 -11 13 -10 34 3 15 10 26 13
29 7 1 -6 23 5 48 25 24 19 46 31 48 25 5 -14 33 1 69 36 15 16 28 23 30 16 6
-17 40 -3 58 24 10 14 22 22 31 19 8 -3 25 -1 39 4 16 6 25 6 25 -1 0 -6 8 -5
22 2 16 8 23 9 26 1 5 -16 52 7 52 25 0 16 42 35 50 22 6 -9 59 31 102 76 22
23 31 27 37 16 7 -11 13 -10 34 3 15 10 26 13 29 7 1 -6 23 5 48 25 24 19 46
31 48 25 5 -14 40 4 64 33 14 17 19 18 27 7 7 -11 13 -10 34 3 15 10 26 13 29
7 1 -6 23 5 48 25 24 19 46 31 48 25 5 -14 42 5 61 31 7 11 19 17 27 14 8 -3
25 -1 38 4 16 6 26 5 28 -2 2 -5 24 7 48 27 24 20 46 32 48 27 5 -16 34 -2 59
27 17 20 24 23 34 14 9 -9 17 -8 35 3 22 15 23 21 20 105 -2 49 -6 93 -10 96
-4 4 -18 -5 -32 -20 -14 -15 -28 -27 -32 -28 -4 0 -39 -1 -78 -2 -59 -2 -77
-6 -103 -26 -28 -21 -42 -25 -102 -24 -38 1 -72 -3 -75 -8 -3 -6 -11 -5 -20 2
-11 9 -19 8 -34 -6 -11 -10 -18 -21 -15 -25 5 -9 1 -9 -125 -12 -93 -3 -106
-5 -115 -23 -12 -24 -25 -28 -85 -27 -25 0 -51 -5 -58 -11 -10 -8 -16 -7 -22
3 -7 11 -11 11 -24 1 -9 -8 -16 -20 -16 -27 0 -14 -12 -16 -85 -16 -42 1 -79
-22 -68 -42 3 -6 3 -8 -2 -4 -4 4 -16 3 -26 -2 -12 -7 -20 -7 -24 0 -4 6 -12
7 -22 1 -9 -4 -24 -6 -33 -4 -10 3 -21 0 -25 -7 -5 -8 -10 -8 -21 1 -16 13
-44 -3 -44 -26 0 -11 -14 -15 -57 -15 -12 0 -25 -5 -28 -11 -5 -7 -11 -6 -21
2 -10 8 -18 8 -27 0 -10 -8 -17 -7 -25 1 -13 13 -42 -6 -42 -28 0 -8 -8 -14
-17 -15 -10 0 -49 -1 -88 -2 -38 -1 -75 -5 -81 -9 -26 -17 -23 24 3 50 17 17
28 22 31 14 5 -15 39 2 63 32 14 16 20 18 30 9 9 -9 17 -8 35 4 14 9 24 11 24
4 0 -20 34 2 87 56 47 48 73 68 58 43 -3 -5 -3 -10 0 -10 13 0 50 23 58 36 4
8 17 19 29 25 15 8 19 8 14 0 -9 -13 -4 -14 28 -2 15 6 26 6 28 1 2 -5 23 6
48 26 24 19 46 31 48 25 4 -13 43 5 55 25 4 8 17 18 27 24 16 9 18 8 13 -6 -5
-15 -3 -14 21 1 21 14 30 15 35 6 6 -8 16 -4 37 17 30 30 64 47 64 33 0 -5 11
-4 25 2 14 7 25 18 25 25 0 15 43 33 50 21 3 -4 15 0 27 9 16 12 20 21 14 31
-8 12 -12 12 -24 2 -10 -8 -17 -9 -22 -1 -8 13 -18 13 -33 -2z"/>
<path d="M8292 3558 c-7 -7 -12 -29 -12 -49 0 -29 -4 -38 -21 -42 -11 -3 -23
-14 -26 -25 -3 -11 -14 -22 -25 -25 -11 -3 -22 -15 -25 -26 -3 -11 -15 -21
-27 -23 -15 -2 -22 -11 -24 -31 -3 -27 -2 -28 19 -16 16 8 24 9 27 1 2 -6 10
-8 18 -5 8 3 20 0 28 -6 10 -9 22 -2 55 29 45 44 54 48 44 24 -5 -14 -2 -14
22 2 20 13 30 15 32 7 6 -16 53 5 53 23 0 20 -19 27 -35 14 -12 -10 -16 -9
-21 4 -5 12 -10 13 -24 6 -25 -14 -28 -6 -28 75 1 69 -7 86 -30 63z"/>
<path d="M8489 3407 c-10 -8 -14 -19 -9 -31 4 -14 9 -16 14 -8 4 7 16 12 27
12 12 0 19 7 19 20 0 23 -26 26 -51 7z"/>
<path d="M4042 2308 c-7 -7 -12 -20 -12 -30 0 -16 3 -16 20 -6 11 7 20 21 20
30 0 21 -11 23 -28 6z"/>
<path d="M1682 1904 c-5 -9 -7 -25 -5 -35 5 -17 7 -17 29 -2 29 19 32 53 4 53
-10 0 -23 -7 -28 -16z"/>
<path d="M1532 1854 c-5 -9 -7 -25 -5 -35 5 -17 7 -17 29 -2 29 19 32 53 4 53
-10 0 -23 -7 -28 -16z"/>
<path d="M1440 1810 c-20 -20 -26 -41 -14 -53 11 -10 54 24 54 44 0 28 -17 32
-40 9z"/>
<path d="M1342 1764 c-21 -14 -29 -44 -16 -57 11 -10 54 24 54 44 0 26 -13 30
-38 13z"/>
<path d="M1185 1705 c-3 -8 -7 -21 -9 -29 -7 -22 4 -26 29 -10 15 10 24 11 27
4 4 -14 48 17 48 36 0 17 -22 18 -38 2 -9 -9 -12 -9 -12 0 0 17 -40 15 -45 -3z"/>
<path d="M1090 1660 c-20 -20 -26 -41 -14 -53 11 -10 54 24 54 44 0 28 -17 32
-40 9z"/>
<path d="M992 1614 c-21 -14 -29 -44 -16 -57 11 -10 54 24 54 44 0 26 -13 30
-38 13z"/>
<path d="M841 1561 c-16 -16 -19 -32 -12 -59 1 -1 12 5 26 14 23 15 25 15 25
0 0 -15 2 -15 25 0 32 21 34 57 3 53 -13 -2 -28 0 -35 4 -7 5 -21 -1 -32 -12z"/>
<path d="M1990 1555 c-6 -8 -10 -22 -8 -31 3 -15 5 -14 27 3 14 11 21 25 17
31 -10 16 -21 15 -36 -3z"/>
<path d="M740 1510 c-20 -20 -26 -41 -14 -53 11 -10 54 24 54 44 0 28 -17 32
-40 9z"/>
<path d="M1097 1519 c-10 -6 -17 -22 -17 -40 0 -29 0 -29 25 -13 39 25 31 75
-8 53z"/>
<path d="M1890 1505 c-6 -8 -10 -21 -8 -30 3 -14 6 -13 26 5 12 12 20 25 17
31 -9 13 -21 11 -35 -6z"/>
<path d="M642 1465 c-16 -12 -21 -12 -25 -2 -5 15 -37 -8 -37 -28 0 -12 -3
-13 -62 -17 -24 -2 -34 -8 -36 -23 -4 -26 -48 -49 -56 -28 -8 19 -42 1 -51
-27 -10 -31 3 -42 30 -24 18 12 24 12 27 2 3 -9 16 -1 37 21 26 28 36 33 49
24 19 -12 62 10 62 32 0 7 7 19 16 26 13 11 17 10 25 -4 9 -16 12 -16 34 -1
24 16 33 48 17 58 -5 3 -18 -1 -30 -9z"/>
<path d="M1790 1455 c-6 -8 -10 -21 -8 -30 3 -14 6 -13 26 5 12 12 20 25 17
31 -9 13 -21 11 -35 -6z"/>
<path d="M1542 1358 c-7 -7 -12 -18 -12 -25 0 -7 -8 -13 -19 -13 -23 0 -45
-25 -35 -41 4 -8 3 -9 -4 -5 -7 4 -18 4 -24 0 -7 -5 -31 -8 -53 -7 -22 1 -46
-4 -53 -10 -10 -8 -16 -7 -22 3 -7 11 -11 11 -24 1 -9 -8 -16 -20 -16 -27 0
-8 -9 -14 -19 -14 -11 0 -23 -5 -27 -11 -4 -8 -9 -7 -14 2 -7 10 -11 10 -24 0
-9 -8 -16 -19 -16 -26 0 -11 -14 -15 -57 -15 -12 0 -25 -5 -28 -11 -5 -7 -11
-6 -21 2 -16 13 -44 -4 -44 -27 0 -13 -8 -15 -65 -18 -10 -1 -24 -10 -30 -21
-11 -21 -24 -27 -65 -29 -13 0 -29 -10 -35 -21 -11 -20 -27 -28 -55 -27 -26 1
-61 -21 -55 -35 2 -8 0 -11 -5 -8 -6 3 -15 3 -22 -1 -7 -4 -32 -8 -57 -8 -38
-1 -48 -5 -56 -23 -9 -21 -29 -28 -63 -24 -16 3 -53 -28 -47 -39 5 -8 -9 -10
-83 -11 -39 -1 -55 -6 -62 -19 -5 -10 -6 -21 -2 -25 4 -5 1 -5 -6 -1 -7 4 -19
3 -27 -4 -9 -7 -15 -8 -20 0 -4 7 -12 7 -26 0 -11 -6 -24 -8 -30 -4 -13 8 -50
-26 -42 -39 3 -6 1 -7 -6 -3 -6 4 -18 3 -26 -4 -9 -7 -15 -8 -20 0 -4 6 -12 7
-24 1 -9 -5 -25 -9 -36 -8 -10 1 -24 -7 -29 -19 -6 -11 -17 -19 -24 -16 -9 3
-12 -75 -12 -362 l0 -366 241 0 c207 0 240 2 236 15 -3 7 3 24 13 37 16 18 21
20 29 9 7 -11 13 -10 34 3 16 11 26 13 29 6 2 -7 11 -4 23 7 48 43 54 46 69
34 11 -10 21 -4 51 26 27 28 38 34 44 24 7 -11 13 -10 34 3 18 12 26 14 29 5
2 -7 18 1 41 21 29 25 40 30 51 21 11 -10 22 -4 51 26 27 28 38 34 44 24 7
-11 14 -10 35 4 16 11 26 13 26 6 0 -16 38 5 61 33 14 17 19 18 32 8 13 -11
21 -7 52 25 28 29 38 34 45 23 6 -10 12 -11 22 -3 7 6 26 11 42 11 19 0 35 8
51 28 18 22 26 26 36 17 11 -9 19 -8 33 3 12 8 22 10 26 4 3 -5 20 3 38 19 19
16 45 28 61 28 19 0 40 12 65 37 37 36 37 37 35 112 -2 58 2 79 14 92 13 12
20 13 28 5 9 -9 18 -8 35 4 37 24 30 72 -7 53 -12 -7 -20 -7 -24 0 -4 7 -13 7
-26 0 -17 -10 -19 -7 -19 19 0 45 -15 46 -57 4 l-38 -38 -5 35 c-3 20 -11 34
-18 33 -7 -2 -17 -4 -23 -5 -8 -2 -12 22 -13 72 -1 73 -2 75 -26 75 -19 1 -24
5 -22 20 2 11 13 27 24 36 17 13 20 28 22 98 2 69 5 86 21 97 29 21 35 17 35
-22 0 -35 1 -36 22 -22 27 18 38 98 13 98 -7 0 -17 -5 -20 -10 -10 -16 -26 -1
-24 23 4 42 -1 87 -9 87 -4 0 -13 -5 -20 -12z"/>
<path d="M290 1310 c-20 -20 -26 -41 -14 -53 11 -10 54 24 54 44 0 28 -17 32
-40 9z"/>
<path d="M792 1308 c-7 -7 -12 -17 -12 -23 0 -5 -10 -15 -22 -20 -17 -7 -24
-20 -26 -47 -2 -26 -10 -41 -28 -52 -13 -9 -24 -23 -24 -31 0 -9 -9 -15 -21
-15 -12 0 -23 -8 -26 -20 -6 -21 -53 -57 -53 -40 0 17 -40 11 -47 -7 -3 -10
-15 -25 -27 -35 -17 -14 -22 -14 -31 -2 -9 12 -13 12 -33 -1 -21 -15 -29 -45
-16 -58 4 -3 17 1 30 10 16 10 24 11 24 4 0 -15 40 5 57 28 6 9 26 16 43 17
22 1 39 11 55 30 12 15 27 24 33 21 5 -4 22 -3 37 3 24 9 27 15 21 40 -5 25
-1 33 25 52 25 19 30 28 25 52 -4 20 -1 35 10 48 18 19 40 24 46 9 6 -17 48 8
48 29 0 23 -29 27 -48 8 -9 -9 -12 -9 -12 0 0 7 -4 12 -8 12 -4 0 -13 -5 -20
-12z"/>
<path d="M192 1264 c-21 -14 -29 -44 -16 -57 11 -10 54 24 54 44 0 26 -13 30
-38 13z"/>
<path d="M637 1263 c-4 -3 -7 -19 -7 -35 0 -28 0 -28 25 -12 29 19 34 54 7 54
-10 0 -22 -3 -25 -7z"/>
<path d="M30 1199 c-16 -19 -30 -44 -30 -56 0 -30 9 -29 37 5 18 21 24 24 32
13 7 -11 13 -10 35 4 37 25 33 78 -4 55 -9 -5 -19 -5 -27 2 -9 7 -20 1 -43
-23z"/>
<path d="M8285 1200 c-10 -11 -14 -20 -9 -20 5 0 -5 -7 -21 -15 -27 -14 -30
-20 -27 -53 3 -33 0 -38 -27 -50 -19 -9 -28 -18 -24 -28 3 -9 0 -12 -9 -9 -21
8 -36 -14 -39 -60 -3 -28 -10 -43 -24 -50 -15 -8 -21 -24 -25 -62 -5 -43 -3
-50 8 -40 35 28 38 18 39 -157 1 -94 2 -176 2 -183 1 -8 7 -8 25 0 13 7 23 14
21 18 -2 3 8 12 23 21 27 16 27 16 27 -12 0 -16 -5 -26 -11 -23 -22 8 -32 -24
-36 -114 -1 -50 -7 -89 -11 -86 -15 9 -37 -20 -37 -48 0 -28 1 -29 23 -15 22
15 22 15 22 -39 0 -33 -4 -53 -10 -51 -17 6 -43 -24 -38 -44 4 -16 8 -17 25
-7 15 9 22 9 25 1 6 -17 42 -5 54 17 5 10 17 23 27 28 15 8 17 3 15 -55 l-1
-64 134 0 134 0 0 386 0 385 -22 -3 c-13 -2 -27 -12 -32 -23 -13 -31 -51 -46
-63 -26 -9 14 -13 14 -27 2 -19 -16 -18 -24 -18 114 0 135 -3 149 -29 135 -10
-6 -19 -9 -20 -8 0 2 -1 59 -3 127 -1 74 -6 126 -12 128 -6 2 -19 -6 -29 -17z"/>
<path d="M7342 1108 c-7 -7 -12 -18 -12 -25 0 -7 -6 -13 -14 -13 -21 0 -37
-25 -39 -63 -1 -20 -7 -33 -13 -30 -14 5 -33 -18 -39 -46 -6 -32 10 -25 59 24
32 33 42 51 39 66 -4 14 4 29 26 49 17 16 31 34 31 39 0 15 -23 14 -38 -1z"/>
<path d="M6840 805 c-6 -8 -10 -21 -8 -30 3 -14 6 -13 26 5 12 11 22 25 22 30
0 15 -26 12 -40 -5z"/>
<path d="M4692 758 c-7 -7 -12 -20 -12 -30 0 -16 3 -16 20 -6 11 7 20 21 20
30 0 21 -11 23 -28 6z"/>
<path d="M6734 706 c-3 -8 -4 -22 -2 -31 3 -14 5 -14 26 0 12 9 22 23 22 31 0
18 -39 18 -46 0z"/>
<path d="M6697 619 c-13 -8 -17 -23 -17 -65 l0 -54 24 15 c20 13 24 24 23 61
0 50 -5 57 -30 43z"/>
<path d="M7042 568 c-7 -7 -12 -22 -12 -35 0 -21 2 -22 20 -11 20 13 27 43 12
52 -5 3 -14 0 -20 -6z"/>
<path d="M6542 508 c-7 -7 -12 -20 -12 -30 0 -16 3 -16 20 -6 11 7 20 21 20
30 0 21 -11 23 -28 6z"/>
<path d="M6641 456 c-7 -9 -11 -40 -9 -81 3 -61 4 -65 20 -53 23 17 35 148 14
148 -7 0 -19 -6 -25 -14z"/>
<path d="M6892 358 c-7 -7 -12 -17 -12 -24 0 -6 -9 -14 -21 -17 -11 -3 -23
-15 -26 -26 -3 -12 -11 -21 -18 -21 -19 0 -37 -26 -33 -47 3 -14 20 -2 76 55
40 41 70 78 66 83 -7 12 -18 11 -32 -3z"/>
<path d="M7333 358 c-5 -7 -10 -24 -11 -37 -1 -23 -1 -23 21 -5 29 25 37 36
31 46 -8 12 -30 10 -41 -4z"/>
<path d="M7239 307 c-9 -7 -13 -19 -10 -28 8 -20 45 -2 47 24 2 20 -14 22 -37
4z"/>
<path d="M7143 258 c-6 -7 -13 -24 -16 -36 -5 -23 -5 -23 15 -5 11 10 23 18
26 18 3 0 7 8 7 18 2 20 -18 23 -32 5z"/>
<path d="M1643 215 c-16 -12 -23 -12 -27 -2 -3 8 -10 6 -23 -9 -27 -31 -58
-45 -70 -33 -7 7 -22 -1 -48 -25 -26 -24 -42 -33 -49 -27 -7 6 -17 6 -24 2 -8
-4 -25 -6 -38 -3 -19 3 -26 0 -30 -16 -7 -23 -47 -45 -61 -31 -14 14 -53 -19
-53 -47 l0 -24 249 0 249 0 4 30 c5 35 -6 47 -27 30 -13 -11 -15 0 -15 79 0
50 -3 91 -8 91 -4 0 -17 -7 -29 -15z"/>
<path d="M7086 161 c-10 -11 -15 -24 -11 -30 3 -6 0 -8 -8 -5 -8 3 -18 1 -21
-4 -3 -6 -14 -8 -24 -5 -26 6 -40 -15 -44 -67 l-3 -45 201 -3 201 -2 1 34 c1
37 -13 55 -30 38 -6 -6 -17 -8 -24 -5 -8 3 -21 -1 -30 -8 -13 -10 -17 -10 -24
1 -7 12 -11 12 -25 0 -15 -12 -18 -12 -27 4 -8 13 -13 15 -24 5 -8 -6 -14 -10
-15 -8 0 2 -3 15 -5 28 -6 33 -11 36 -29 21 -16 -13 -15 -15 -18 39 -2 32 -19
36 -41 12z"/>
<path d="M4692 158 c-7 -7 -12 -20 -12 -30 0 -16 3 -17 20 -8 11 6 20 20 20
30 0 23 -10 26 -28 8z"/>
</g>
</svg>
