<?xml version="1.0" standalone="no"?>
<!DOCTYPE svg PUBLIC "-//W3C//DTD SVG 20010904//EN"
 "http://www.w3.org/TR/2001/REC-SVG-20010904/DTD/svg10.dtd">
<svg version="1.0" xmlns="http://www.w3.org/2000/svg"
 width="854.000000pt" height="1280.000000pt" viewBox="0 0 854.000000 1280.000000"
 preserveAspectRatio="xMidYMid meet">

<g transform="translate(0.000000,1280.000000) scale(0.100000,-0.100000)"
fill="#000000" stroke="none">
<path d="M5700 12725 l0 -75 -75 0 -75 0 0 -75 0 -75 -75 0 -75 0 0 -75 0 -75
-75 0 -75 0 0 -75 0 -75 75 0 75 0 0 -75 0 -75 -225 0 -225 0 0 225 0 225 -75
0 -75 0 0 -75 0 -75 -150 0 -150 0 0 -75 0 -75 -150 0 -150 0 0 -75 0 -75
-300 0 -300 0 0 75 0 75 -150 0 -150 0 0 -75 0 -75 75 0 75 0 0 -150 0 -150
225 0 225 0 0 75 0 75 225 0 225 0 0 75 0 75 75 0 75 0 0 -150 0 -150 -75 0
-75 0 0 -75 0 -75 -75 0 -75 0 0 -75 0 -75 75 0 75 0 0 -75 0 -75 -300 0 -300
0 0 -75 0 -75 -75 0 -75 0 0 -150 0 -150 -75 0 -75 0 0 -450 0 -450 -75 0 -75
0 0 -75 0 -75 75 0 75 0 0 -75 0 -75 75 0 75 0 0 -75 0 -75 -75 0 -75 0 0
-150 0 -150 -75 0 -75 0 0 -75 0 -75 75 0 75 0 0 -150 0 -150 -75 0 -75 0 0
-225 0 -225 75 0 75 0 0 -150 0 -150 -150 0 -150 0 0 225 0 225 -75 0 -75 0 0
-375 0 -375 75 0 75 0 0 -300 0 -300 75 0 75 0 0 -225 0 -225 75 0 75 0 0
-225 0 -225 75 0 75 0 0 -225 0 -225 75 0 75 0 0 -225 0 -225 -75 0 -75 0 0
-75 0 -75 75 0 75 0 0 -150 0 -150 75 0 75 0 0 -375 0 -375 75 0 75 0 0 -450
0 -450 75 0 75 0 0 75 0 75 75 0 75 0 0 75 0 75 75 0 75 0 0 75 0 75 75 0 75
0 0 -75 0 -75 75 0 75 0 0 -75 0 -75 -75 0 -75 0 0 -75 0 -75 -75 0 -75 0 0
-150 0 -150 -225 0 -225 0 0 -75 0 -75 -150 0 -150 0 0 -150 0 -150 75 0 75 0
0 -75 0 -75 225 0 225 0 0 -150 0 -150 75 0 75 0 0 -150 0 -150 75 0 75 0 0
-375 0 -375 300 0 300 0 0 -75 0 -75 450 0 450 0 0 -75 0 -75 75 0 75 0 0 75
0 75 150 0 150 0 0 -75 0 -75 75 0 75 0 0 75 0 75 75 0 75 0 0 75 0 75 75 0
75 0 0 75 0 75 75 0 75 0 0 75 0 75 75 0 75 0 0 75 0 75 150 0 150 0 0 75 0
75 75 0 75 0 0 75 0 75 75 0 75 0 0 75 0 75 75 0 75 0 0 75 0 75 -75 0 -75 0
0 225 0 225 -75 0 -75 0 0 375 0 375 75 0 75 0 0 75 0 75 75 0 75 0 0 150 0
150 75 0 75 0 0 75 0 75 -150 0 -150 0 0 75 0 75 -75 0 -75 0 0 150 0 150
-225 0 -225 0 0 150 0 150 -75 0 -75 0 0 225 0 225 -75 0 -75 0 0 225 0 225
-75 0 -75 0 0 300 0 300 -300 0 -300 0 0 150 0 150 -75 0 -75 0 0 150 0 150
75 0 75 0 0 375 0 375 75 0 75 0 0 225 0 225 150 0 150 0 0 75 0 75 300 0 300
0 0 -75 0 -75 75 0 75 0 0 -75 0 -75 75 0 75 0 0 -75 0 -75 75 0 75 0 0 -150
0 -150 75 0 75 0 0 -150 0 -150 75 0 75 0 0 -75 0 -75 75 0 75 0 0 -150 0
-150 75 0 75 0 0 150 0 150 70 0 70 0 0 675 0 675 -70 0 -70 0 0 150 0 150
-75 0 -75 0 0 150 0 150 75 0 75 0 0 -75 0 -75 70 0 70 0 0 150 0 150 -70 0
-70 0 0 75 0 75 70 0 70 0 0 750 0 750 -370 0 -370 0 0 225 0 225 75 0 75 0 0
-75 0 -75 295 0 295 0 0 975 0 975 -295 0 -295 0 0 -75 0 -75 -450 0 -450 0 0
-150 0 -150 -75 0 -75 0 0 75 0 75 -300 0 -300 0 0 75 0 75 -225 0 -225 0 0
75 0 75 -75 0 -75 0 0 -75z m450 -300 l0 -75 -75 0 -75 0 0 75 0 75 75 0 75 0
0 -75z m1050 -600 l0 -75 -150 0 -150 0 0 75 0 75 150 0 150 0 0 -75z m-450
-300 l0 -75 -150 0 -150 0 0 -75 0 -75 -75 0 -75 0 0 150 0 150 225 0 225 0 0
-75z m-1050 -750 l0 -75 225 0 225 0 0 -75 0 -75 -75 0 -75 0 0 -75 0 -75
-300 0 -300 0 0 75 0 75 -75 0 -75 0 0 75 0 75 150 0 150 0 0 75 0 75 75 0 75
0 0 -75z m1800 -75 l0 -150 -150 0 -150 0 0 75 0 75 -75 0 -75 0 0 75 0 75
225 0 225 0 0 -150z m-3300 -375 l0 -75 75 0 75 0 0 -75 0 -75 -75 0 -75 0 0
-75 0 -75 225 0 225 0 0 75 0 75 75 0 75 0 0 -150 0 -150 -150 0 -150 0 0 -75
0 -75 -75 0 -75 0 0 -75 0 -75 -75 0 -75 0 0 75 0 75 -75 0 -75 0 0 -75 0 -75
-75 0 -75 0 0 75 0 75 75 0 75 0 0 75 0 75 75 0 75 0 0 75 0 75 -150 0 -150 0
0 75 0 75 75 0 75 0 0 75 0 75 -75 0 -75 0 0 75 0 75 150 0 150 0 0 -75z
m3000 0 l0 -75 75 0 75 0 0 -75 0 -75 -150 0 -150 0 0 150 0 150 75 0 75 0 0
-75z m900 -750 l0 -75 -75 0 -75 0 0 75 0 75 75 0 75 0 0 -75z m-3450 -150 l0
-75 -75 0 -75 0 0 75 0 75 75 0 75 0 0 -75z m3600 -150 l0 -75 75 0 75 0 0
-75 0 -75 -150 0 -150 0 0 -75 0 -75 -150 0 -150 0 0 -75 0 -75 -300 0 -300 0
0 -75 0 -75 -150 0 -150 0 0 -75 0 -75 -75 0 -75 0 0 -75 0 -75 -75 0 -75 0 0
450 0 450 300 0 300 0 0 75 0 75 525 0 525 0 0 -75z m-3600 -150 l0 -75 -75 0
-75 0 0 75 0 75 75 0 75 0 0 -75z m450 -450 l0 -75 -75 0 -75 0 0 75 0 75 75
0 75 0 0 -75z m3000 -150 l0 -75 75 0 75 0 0 -75 0 -75 -75 0 -75 0 0 75 0 75
-75 0 -75 0 0 75 0 75 75 0 75 0 0 -75z m-3150 -300 l0 -75 -75 0 -75 0 0 75
0 75 75 0 75 0 0 -75z m750 -450 l0 -225 75 0 75 0 0 75 0 75 75 0 75 0 0 75
0 75 75 0 75 0 0 -150 0 -150 -75 0 -75 0 0 -375 0 -375 75 0 75 0 0 -75 0
-75 -75 0 -75 0 0 -750 0 -750 75 0 75 0 0 -75 0 -75 150 0 150 0 0 75 0 75
75 0 75 0 0 75 0 75 75 0 75 0 0 -150 0 -150 150 0 150 0 0 -75 0 -75 -225 0
-225 0 0 -75 0 -75 -75 0 -75 0 0 -75 0 -75 75 0 75 0 0 -75 0 -75 -150 0
-150 0 0 -75 0 -75 -75 0 -75 0 0 300 0 300 -75 0 -75 0 0 -300 0 -300 -75 0
-75 0 0 -75 0 -75 -150 0 -150 0 0 75 0 75 75 0 75 0 0 150 0 150 -75 0 -75 0
0 -75 0 -75 -75 0 -75 0 0 150 0 150 -75 0 -75 0 0 75 0 75 -75 0 -75 0 0
-150 0 -150 -150 0 -150 0 0 -150 0 -150 -300 0 -300 0 0 225 0 225 150 0 150
0 0 75 0 75 -75 0 -75 0 0 150 0 150 -75 0 -75 0 0 150 0 150 -75 0 -75 0 0
75 0 75 -75 0 -75 0 0 75 0 75 -75 0 -75 0 0 225 0 225 -75 0 -75 0 0 300 0
300 -75 0 -75 0 0 75 0 75 75 0 75 0 0 75 0 75 150 0 150 0 0 300 0 300 75 0
75 0 0 -300 0 -300 75 0 75 0 0 -150 0 -150 75 0 75 0 0 225 0 225 -75 0 -75
0 0 150 0 150 75 0 75 0 0 75 0 75 300 0 300 0 0 75 0 75 75 0 75 0 0 -75 0
-75 75 0 75 0 0 -300 0 -300 150 0 150 0 0 75 0 75 75 0 75 0 0 75 0 75 -75 0
-75 0 0 150 0 150 -75 0 -75 0 0 75 0 75 75 0 75 0 0 75 0 75 75 0 75 0 0
-225z m-2100 -450 l0 -75 -75 0 -75 0 0 75 0 75 75 0 75 0 0 -75z m3450 -3000
l0 -75 -150 0 -150 0 0 75 0 75 150 0 150 0 0 -75z m-1950 -150 l0 -75 -75 0
-75 0 0 -75 0 -75 -225 0 -225 0 0 75 0 75 225 0 225 0 0 75 0 75 75 0 75 0 0
-75z m1950 -225 l0 -150 -150 0 -150 0 0 150 0 150 150 0 150 0 0 -150z m300
75 l0 -75 -75 0 -75 0 0 75 0 75 75 0 75 0 0 -75z m-1500 -150 l0 -75 -75 0
-75 0 0 -75 0 -75 -75 0 -75 0 0 75 0 75 75 0 75 0 0 75 0 75 75 0 75 0 0 -75z
m1950 0 l0 -75 -75 0 -75 0 0 75 0 75 75 0 75 0 0 -75z m-2550 -150 l0 -75
-75 0 -75 0 0 75 0 75 75 0 75 0 0 -75z m600 -300 l0 -75 -75 0 -75 0 0 75 0
75 75 0 75 0 0 -75z m450 -75 l0 -150 -75 0 -75 0 0 150 0 150 75 0 75 0 0
-150z m-1350 -75 l0 -75 -75 0 -75 0 0 -75 0 -75 -75 0 -75 0 0 75 0 75 75 0
75 0 0 75 0 75 75 0 75 0 0 -75z m1200 -825 l0 -150 75 0 75 0 0 -150 0 -150
-75 0 -75 0 0 150 0 150 -75 0 -75 0 0 150 0 150 75 0 75 0 0 -150z m450
-1425 l0 -75 -75 0 -75 0 0 75 0 75 75 0 75 0 0 -75z"/>
<path d="M4950 7175 l0 -75 75 0 75 0 0 75 0 75 -75 0 -75 0 0 -75z"/>
<path d="M3900 6500 l0 -600 75 0 75 0 0 -75 0 -75 75 0 75 0 0 -150 0 -150
150 0 150 0 0 -75 0 -75 75 0 75 0 0 -75 0 -75 75 0 75 0 0 75 0 75 -75 0 -75
0 0 150 0 150 -75 0 -75 0 0 75 0 75 -75 0 -75 0 0 75 0 75 -75 0 -75 0 0 300
0 300 -75 0 -75 0 0 300 0 300 -75 0 -75 0 0 -600z"/>
<path d="M4650 7025 l0 -75 75 0 75 0 0 75 0 75 -75 0 -75 0 0 -75z"/>
<path d="M5550 7025 l0 -75 -75 0 -75 0 0 -75 0 -75 -75 0 -75 0 0 -75 0 -75
-75 0 -75 0 0 -150 0 -150 75 0 75 0 0 -75 0 -75 -300 0 -300 0 0 -75 0 -75
-75 0 -75 0 0 -75 0 -75 75 0 75 0 0 75 0 75 150 0 150 0 0 -75 0 -75 225 0
225 0 0 75 0 75 75 0 75 0 0 -75 0 -75 75 0 75 0 0 -150 0 -150 75 0 75 0 0
525 0 525 -75 0 -75 0 0 225 0 225 -75 0 -75 0 0 -75z m0 -450 l0 -75 -75 0
-75 0 0 -75 0 -75 -75 0 -75 0 0 150 0 150 150 0 150 0 0 -75z"/>
<path d="M4650 6650 l0 -150 150 0 150 0 0 75 0 75 -75 0 -75 0 0 75 0 75 -75
0 -75 0 0 -150z"/>
<path d="M5700 5375 l0 -75 -75 0 -75 0 0 -75 0 -75 -75 0 -75 0 0 -75 0 -75
75 0 75 0 0 -75 0 -75 75 0 75 0 0 75 0 75 -75 0 -75 0 0 75 0 75 75 0 75 0 0
75 0 75 75 0 75 0 0 75 0 75 -75 0 -75 0 0 -75z"/>
<path d="M4500 4925 l0 -75 75 0 75 0 0 -150 0 -150 75 0 75 0 0 150 0 150
-75 0 -75 0 0 75 0 75 -75 0 -75 0 0 -75z"/>
<path d="M5850 4925 l0 -75 75 0 75 0 0 75 0 75 -75 0 -75 0 0 -75z"/>
<path d="M6450 4925 l0 -75 75 0 75 0 0 75 0 75 -75 0 -75 0 0 -75z"/>
<path d="M3150 11375 l0 -75 75 0 75 0 0 75 0 75 -75 0 -75 0 0 -75z"/>
<path d="M0 8675 l0 -75 75 0 75 0 0 75 0 75 -75 0 -75 0 0 -75z"/>
<path d="M750 8675 l0 -75 -75 0 -75 0 0 -75 0 -75 -75 0 -75 0 0 -75 0 -75
-150 0 -150 0 0 -75 0 -75 -75 0 -75 0 0 -300 0 -300 75 0 75 0 0 75 0 75 150
0 150 0 0 150 0 150 75 0 75 0 0 75 0 75 75 0 75 0 0 -75 0 -75 75 0 75 0 0
-75 0 -75 150 0 150 0 0 375 0 375 -150 0 -150 0 0 75 0 75 -75 0 -75 0 0 -75z"/>
<path d="M2100 7775 l0 -75 -150 0 -150 0 0 -75 0 -75 300 0 300 0 0 150 0
150 -150 0 -150 0 0 -75z"/>
<path d="M750 7625 l0 -75 75 0 75 0 0 75 0 75 -75 0 -75 0 0 -75z"/>
<path d="M0 7325 l0 -75 75 0 75 0 0 75 0 75 -75 0 -75 0 0 -75z"/>
<path d="M750 7325 l0 -75 -75 0 -75 0 0 -75 0 -75 -225 0 -225 0 0 -225 0
-225 75 0 75 0 0 75 0 75 150 0 150 0 0 75 0 75 150 0 150 0 0 75 0 75 150 0
150 0 0 150 0 150 -225 0 -225 0 0 -75z"/>
<path d="M2850 6875 l0 -75 -225 0 -225 0 0 -75 0 -75 -75 0 -75 0 0 75 0 75
-75 0 -75 0 0 -150 0 -150 -75 0 -75 0 0 75 0 75 -225 0 -225 0 0 -75 0 -75
-150 0 -150 0 0 -75 0 -75 -150 0 -150 0 0 -75 0 -75 -225 0 -225 0 0 -75 0
-75 -150 0 -150 0 0 -75 0 -75 -75 0 -75 0 0 -300 0 -300 75 0 75 0 0 75 0 75
150 0 150 0 0 75 0 75 150 0 150 0 0 75 0 75 225 0 225 0 0 -75 0 -75 75 0 75
0 0 150 0 150 150 0 150 0 0 75 0 75 150 0 150 0 0 75 0 75 150 0 150 0 0 75
0 75 75 0 75 0 0 75 0 75 75 0 75 0 0 75 0 75 150 0 150 0 0 75 0 75 75 0 75
0 0 75 0 75 -75 0 -75 0 0 -75z"/>
<path d="M7800 6425 l0 -75 150 0 150 0 0 -75 0 -75 150 0 150 0 0 -150 0
-150 -225 0 -225 0 0 -75 0 -75 -150 0 -150 0 0 -75 0 -75 225 0 225 0 0 75 0
75 220 0 220 0 0 225 0 225 -70 0 -70 0 0 75 0 75 -150 0 -150 0 0 75 0 75
-150 0 -150 0 0 -75z"/>
<path d="M1350 5300 l0 -150 75 0 75 0 0 150 0 150 -75 0 -75 0 0 -150z"/>
<path d="M1500 4925 l0 -75 75 0 75 0 0 75 0 75 -75 0 -75 0 0 -75z"/>
<path d="M1650 4625 l0 -75 75 0 75 0 0 75 0 75 -75 0 -75 0 0 -75z"/>
<path d="M8400 4475 l0 -75 70 0 70 0 0 75 0 75 -70 0 -70 0 0 -75z"/>
<path d="M1950 3875 l0 -75 75 0 75 0 0 75 0 75 -75 0 -75 0 0 -75z"/>
<path d="M2100 3575 l0 -75 -300 0 -300 0 0 -75 0 -75 -75 0 -75 0 0 -75 0
-75 -75 0 -75 0 0 75 0 75 -75 0 -75 0 0 -75 0 -75 -300 0 -300 0 0 -75 0 -75
-150 0 -150 0 0 -75 0 -75 -75 0 -75 0 0 -225 0 -225 75 0 75 0 0 75 0 75 150
0 150 0 0 75 0 75 150 0 150 0 0 75 0 75 225 0 225 0 0 75 0 75 150 0 150 0 0
75 0 75 150 0 150 0 0 75 0 75 225 0 225 0 0 75 0 75 75 0 75 0 0 75 0 75
-150 0 -150 0 0 -75z m-1800 -750 l0 -75 -75 0 -75 0 0 75 0 75 75 0 75 0 0
-75z"/>
<path d="M750 3425 l0 -75 75 0 75 0 0 75 0 75 -75 0 -75 0 0 -75z"/>
<path d="M8250 3275 l0 -75 75 0 75 0 0 75 0 75 -75 0 -75 0 0 -75z"/>
<path d="M1200 1625 l0 -75 75 0 75 0 0 75 0 75 -75 0 -75 0 0 -75z"/>
<path d="M900 1475 l0 -75 75 0 75 0 0 75 0 75 -75 0 -75 0 0 -75z"/>
<path d="M1500 1025 l0 -75 75 0 75 0 0 75 0 75 -75 0 -75 0 0 -75z"/>
<path d="M1200 875 l0 -75 -150 0 -150 0 0 -150 0 -150 -75 0 -75 0 0 -75 0
-75 -150 0 -150 0 0 -75 0 -75 -150 0 -150 0 0 75 0 75 75 0 75 0 0 75 0 75
75 0 75 0 0 75 0 75 -225 0 -225 0 0 -325 0 -325 300 0 300 0 0 25 0 25 150 0
150 0 0 75 0 75 225 0 225 0 0 75 0 75 150 0 150 0 0 75 0 75 75 0 75 0 0 150
0 150 -150 0 -150 0 0 -75 0 -75 -75 0 -75 0 0 150 0 150 -75 0 -75 0 0 -75z
m0 -300 l0 -75 -75 0 -75 0 0 75 0 75 75 0 75 0 0 -75z"/>
<path d="M1650 125 l0 -75 -150 0 -150 0 0 -25 0 -25 225 0 225 0 0 100 0 100
-75 0 -75 0 0 -75z"/>
</g>
</svg>
