<?xml version="1.0" standalone="no"?>
<!DOCTYPE svg PUBLIC "-//W3C//DTD SVG 20010904//EN"
 "http://www.w3.org/TR/2001/REC-SVG-20010904/DTD/svg10.dtd">
<svg version="1.0" xmlns="http://www.w3.org/2000/svg"
 width="854.000000pt" height="1280.000000pt" viewBox="0 0 854.000000 1280.000000"
 preserveAspectRatio="xMidYMid meet">

<g transform="translate(0.000000,1280.000000) scale(0.100000,-0.100000)"
fill="#000000" stroke="none">
<path d="M5300 12750 l0 -50 -50 0 -50 0 0 -50 0 -50 -100 0 -100 0 0 50 0 50
-150 0 -150 0 0 -50 0 -50 -100 0 -100 0 0 -50 0 -50 -50 0 -50 0 0 -50 0 -50
-100 0 -100 0 0 -50 0 -50 -400 0 -400 0 0 50 0 50 -250 0 -250 0 0 -100 0
-100 50 0 50 0 0 -50 0 -50 50 0 50 0 0 -100 0 -100 -250 0 -250 0 0 -100 0
-100 50 0 50 0 0 -100 0 -100 50 0 50 0 0 -100 0 -100 -50 0 -50 0 0 -50 0
-50 -50 0 -50 0 0 -100 0 -100 50 0 50 0 0 50 0 50 50 0 50 0 0 50 0 50 200 0
200 0 0 50 0 50 50 0 50 0 0 -50 0 -50 100 0 100 0 0 -100 0 -100 -50 0 -50 0
0 -200 0 -200 -50 0 -50 0 0 -50 0 -50 -100 0 -100 0 0 -50 0 -50 -50 0 -50 0
0 -50 0 -50 50 0 50 0 0 -50 0 -50 100 0 100 0 0 -150 0 -150 50 0 50 0 0
-100 0 -100 -50 0 -50 0 0 -100 0 -100 100 0 100 0 0 -50 0 -50 -50 0 -50 0 0
-50 0 -50 -50 0 -50 0 0 -50 0 -50 -50 0 -50 0 0 -50 0 -50 -50 0 -50 0 0 -50
0 -50 -50 0 -50 0 0 -50 0 -50 -50 0 -50 0 0 -500 0 -500 50 0 50 0 0 -200 0
-200 50 0 50 0 0 -150 0 -150 50 0 50 0 0 -200 0 -200 50 0 50 0 0 -100 0
-100 50 0 50 0 0 -150 0 -150 50 0 50 0 0 -150 0 -150 50 0 50 0 0 -100 0
-100 50 0 50 0 0 -200 0 -200 -50 0 -50 0 0 -100 0 -100 50 0 50 0 0 -150 0
-150 50 0 50 0 0 -200 0 -200 50 0 50 0 0 -350 0 -350 50 0 50 0 0 -250 0
-250 -100 0 -100 0 0 -50 0 -50 -50 0 -50 0 0 -100 0 -100 -50 0 -50 0 0 -150
0 -150 50 0 50 0 0 -100 0 -100 50 0 50 0 0 -100 0 -100 100 0 100 0 0 50 0
50 150 0 150 0 0 -50 0 -50 -50 0 -50 0 0 -50 0 -50 50 0 50 0 0 -100 0 -100
50 0 50 0 0 -100 0 -100 50 0 50 0 0 -200 0 -200 50 0 50 0 0 -300 0 -300 50
0 50 0 0 50 0 50 400 0 400 0 0 -50 0 -50 200 0 200 0 0 -50 0 -50 250 0 250
0 0 -50 0 -50 100 0 100 0 0 50 0 50 -50 0 -50 0 0 50 0 50 100 0 100 0 0 -50
0 -50 50 0 50 0 0 50 0 50 50 0 50 0 0 100 0 100 50 0 50 0 0 50 0 50 50 0 50
0 0 50 0 50 50 0 50 0 0 50 0 50 50 0 50 0 0 50 0 50 50 0 50 0 0 50 0 50 50
0 50 0 0 50 0 50 50 0 50 0 0 50 0 50 100 0 100 0 0 50 0 50 50 0 50 0 0 100
0 100 50 0 50 0 0 50 0 50 -50 0 -50 0 0 150 0 150 -50 0 -50 0 0 50 0 50 50
0 50 0 0 50 0 50 -50 0 -50 0 0 50 0 50 -50 0 -50 0 0 200 0 200 50 0 50 0 0
100 0 100 50 0 50 0 0 50 0 50 50 0 50 0 0 50 0 50 50 0 50 0 0 300 0 300 -50
0 -50 0 0 50 0 50 -50 0 -50 0 0 50 0 50 -300 0 -300 0 0 100 0 100 -50 0 -50
0 0 100 0 100 -50 0 -50 0 0 150 0 150 -50 0 -50 0 0 -50 0 -50 -100 0 -100 0
0 50 0 50 50 0 50 0 0 50 0 50 50 0 50 0 0 100 0 100 -50 0 -50 0 0 -50 0 -50
-100 0 -100 0 0 100 0 100 100 0 100 0 0 150 0 150 -50 0 -50 0 0 250 0 250
-150 0 -150 0 0 -50 0 -50 -100 0 -100 0 0 50 0 50 -50 0 -50 0 0 100 0 100
-50 0 -50 0 0 150 0 150 50 0 50 0 0 250 0 250 50 0 50 0 0 200 0 200 50 0 50
0 0 150 0 150 100 0 100 0 0 50 0 50 300 0 300 0 0 -50 0 -50 50 0 50 0 0 -50
0 -50 50 0 50 0 0 -50 0 -50 50 0 50 0 0 -100 0 -100 50 0 50 0 0 -50 0 -50
-50 0 -50 0 0 -50 0 -50 -50 0 -50 0 0 -50 0 -50 -100 0 -100 0 0 -100 0 -100
50 0 50 0 0 50 0 50 50 0 50 0 0 50 0 50 100 0 100 0 0 50 0 50 150 0 150 0 0
-100 0 -100 -50 0 -50 0 0 -50 0 -50 100 0 100 0 0 -50 0 -50 50 0 50 0 0
-100 0 -100 50 0 50 0 0 -100 0 -100 -50 0 -50 0 0 50 0 50 -350 0 -350 0 0
50 0 50 -100 0 -100 0 0 -50 0 -50 50 0 50 0 0 -50 0 -50 -50 0 -50 0 0 -50 0
-50 50 0 50 0 0 -50 0 -50 50 0 50 0 0 100 0 100 150 0 150 0 0 -50 0 -50 100
0 100 0 0 -50 0 -50 -50 0 -50 0 0 -50 0 -50 100 0 100 0 0 50 0 50 100 0 100
0 0 -100 0 -100 -150 0 -150 0 0 -50 0 -50 -150 0 -150 0 0 -50 0 -50 -100 0
-100 0 0 -50 0 -50 100 0 100 0 0 -100 0 -100 100 0 100 0 0 50 0 50 150 0
150 0 0 50 0 50 150 0 150 0 0 50 0 50 70 0 70 0 0 200 c0 193 -1 200 -20 200
-17 0 -20 -7 -20 -50 l0 -50 -50 0 -50 0 0 50 0 50 -50 0 -50 0 0 250 0 250
50 0 50 0 0 50 0 50 70 0 70 0 0 600 c0 593 0 600 -20 600 -17 0 -20 7 -20 50
l0 50 -50 0 -50 0 0 100 0 100 -50 0 -50 0 0 50 0 50 -50 0 -50 0 0 150 0 150
50 0 50 0 0 -50 0 -50 50 0 50 0 0 -50 0 -50 50 0 50 0 0 -100 c0 -93 1 -100
20 -100 19 0 20 7 20 250 0 243 -1 250 -20 250 -17 0 -20 7 -20 50 l0 50 -50
0 -50 0 0 50 0 50 70 0 70 0 0 1850 0 1850 -920 0 -920 0 0 -50 0 -50 -200 0
-200 0 0 50 0 50 -500 0 -500 0 0 -50z m-700 -2800 l0 -50 -50 0 -50 0 0 50 0
50 50 0 50 0 0 -50z m-100 -500 l0 -50 -50 0 -50 0 0 50 0 50 50 0 50 0 0 -50z
m3500 0 l0 -50 100 0 100 0 0 -50 0 -50 100 0 100 0 0 -50 0 -50 -150 0 -150
0 0 -50 0 -50 -100 0 -100 0 0 -50 0 -50 -150 0 -150 0 0 -50 0 -50 -150 0
-150 0 0 -50 0 -50 -150 0 -150 0 0 -50 0 -50 -150 0 -150 0 0 -50 0 -50 -100
0 -100 0 0 300 0 300 150 0 150 0 0 50 0 50 200 0 200 0 0 50 0 50 300 0 300
0 0 50 0 50 100 0 100 0 0 -50z m-3000 -700 l0 -50 -50 0 -50 0 0 50 0 50 50
0 50 0 0 -50z m-100 -200 l0 -50 -50 0 -50 0 0 50 0 50 50 0 50 0 0 -50z
m3200 0 l0 -50 -100 0 -100 0 0 50 0 50 100 0 100 0 0 -50z m-2500 -750 l0
-200 -50 0 -50 0 0 50 0 50 -50 0 -50 0 0 150 0 150 100 0 100 0 0 -200z
m-1100 -50 l0 -50 150 0 150 0 0 50 0 50 100 0 100 0 0 -150 0 -150 50 0 50 0
0 -100 0 -100 -100 0 -100 0 0 -250 0 -250 -100 0 -100 0 0 -50 0 -50 -150 0
-150 0 0 50 0 50 -50 0 -50 0 0 -150 0 -150 50 0 50 0 0 -100 0 -100 50 0 50
0 0 -200 0 -200 50 0 50 0 0 50 0 50 100 0 100 0 0 -50 0 -50 50 0 50 0 0 -50
0 -50 150 0 150 0 0 -50 0 -50 50 0 50 0 0 50 0 50 50 0 50 0 0 -50 0 -50 100
0 100 0 0 -50 0 -50 50 0 50 0 0 -50 0 -50 100 0 100 0 0 -100 0 -100 50 0 50
0 0 -50 0 -50 50 0 50 0 0 -100 0 -100 100 0 100 0 0 -200 0 -200 50 0 50 0 0
-50 0 -50 -50 0 -50 0 0 -50 0 -50 -100 0 -100 0 0 100 0 100 50 0 50 0 0 50
0 50 -450 0 -450 0 0 50 0 50 -50 0 -50 0 0 50 0 50 50 0 50 0 0 50 0 50 -50
0 -50 0 0 50 0 50 -50 0 -50 0 0 -150 0 -150 -50 0 -50 0 0 -50 0 -50 -100 0
-100 0 0 -50 0 -50 -50 0 -50 0 0 150 0 150 -50 0 -50 0 0 50 0 50 100 0 100
0 0 50 0 50 -100 0 -100 0 0 50 0 50 50 0 50 0 0 100 0 100 -50 0 -50 0 0 100
0 100 -50 0 -50 0 0 50 0 50 -50 0 -50 0 0 50 0 50 -50 0 -50 0 0 50 0 50 -50
0 -50 0 0 150 0 150 -50 0 -50 0 0 200 0 200 -50 0 -50 0 0 200 0 200 100 0
100 0 0 -100 0 -100 50 0 50 0 0 100 0 100 250 0 250 0 0 100 0 100 -200 0
-200 0 0 50 0 50 -50 0 -50 0 0 150 0 150 50 0 50 0 0 100 0 100 50 0 50 0 0
-50z m-500 -200 l0 -150 -50 0 -50 0 0 150 0 150 50 0 50 0 0 -150z m100 -400
l0 -50 -50 0 -50 0 0 50 0 50 50 0 50 0 0 -50z m1000 0 l0 -50 50 0 50 0 0 50
0 50 50 0 50 0 0 -150 0 -150 -100 0 -100 0 0 50 0 50 -50 0 -50 0 0 100 0
100 50 0 50 0 0 -50z m-500 -600 l0 -50 100 0 100 0 0 -50 0 -50 150 0 150 0
0 50 0 50 50 0 50 0 0 -100 0 -100 -50 0 -50 0 0 -50 0 -50 -100 0 -100 0 0
50 0 50 -100 0 -100 0 0 50 0 50 -100 0 -100 0 0 100 0 100 50 0 50 0 0 -50z
m400 0 l0 -50 -50 0 -50 0 0 50 0 50 50 0 50 0 0 -50z m1500 -1400 l0 -150
-50 0 -50 0 0 150 0 150 50 0 50 0 0 -150z m300 -100 l0 -50 -100 0 -100 0 0
50 0 50 100 0 100 0 0 -50z m-2400 -100 l0 -50 -50 0 -50 0 0 -50 0 -50 50 0
50 0 0 -50 0 -50 50 0 50 0 0 50 0 50 50 0 50 0 0 -200 0 -200 -100 0 -100 0
0 -50 0 -50 50 0 50 0 0 -50 0 -50 50 0 50 0 0 -50 0 -50 200 0 200 0 0 -50 0
-50 -250 0 -250 0 0 100 0 100 -50 0 -50 0 0 50 0 50 -150 0 -150 0 0 100 0
100 50 0 50 0 0 -50 0 -50 50 0 50 0 0 150 0 150 -50 0 -50 0 0 150 0 150 100
0 100 0 0 -50z m2200 -100 l0 -50 -50 0 -50 0 0 50 0 50 50 0 50 0 0 -50z
m-2500 -200 l0 -50 -50 0 -50 0 0 50 0 50 50 0 50 0 0 -50z m1400 -100 l0 -50
-50 0 -50 0 0 50 0 50 50 0 50 0 0 -50z m400 -50 l0 -100 50 0 50 0 0 -50 0
-50 -50 0 -50 0 0 50 0 50 -50 0 -50 0 0 50 0 50 -50 0 -50 0 0 50 0 50 100 0
100 0 0 -100z m700 -50 l0 -50 -50 0 -50 0 0 50 0 50 50 0 50 0 0 -50z m-1800
-150 l0 -100 -50 0 -50 0 0 100 0 100 50 0 50 0 0 -100z m800 0 l0 -100 -50 0
-50 0 0 100 0 100 50 0 50 0 0 -100z m-500 -50 l0 -50 -50 0 -50 0 0 50 0 50
50 0 50 0 0 -50z m700 -300 l0 -50 -50 0 -50 0 0 -50 0 -50 -50 0 -50 0 0 50
0 50 50 0 50 0 0 50 0 50 50 0 50 0 0 -50z m-800 -100 l0 -50 -50 0 -50 0 0
50 0 50 50 0 50 0 0 -50z m700 -400 l0 -50 -50 0 -50 0 0 50 0 50 50 0 50 0 0
-50z m400 -600 l0 -50 -50 0 -50 0 0 -50 0 -50 -50 0 -50 0 0 50 0 50 50 0 50
0 0 50 0 50 50 0 50 0 0 -50z"/>
<path d="M4600 5850 l0 -50 50 0 50 0 0 50 0 50 -50 0 -50 0 0 -50z"/>
<path d="M4700 5550 l0 -50 50 0 50 0 0 50 0 50 -50 0 -50 0 0 -50z"/>
<path d="M5400 5450 l0 -50 -50 0 -50 0 0 -50 0 -50 -50 0 -50 0 0 -50 0 -50
100 0 100 0 0 50 0 50 50 0 50 0 0 -50 0 -50 150 0 150 0 0 -50 0 -50 50 0 50
0 0 100 0 100 -200 0 -200 0 0 100 0 100 -50 0 -50 0 0 -50z"/>
<path d="M5600 5450 l0 -50 50 0 50 0 0 50 0 50 -50 0 -50 0 0 -50z"/>
<path d="M4900 5150 l0 -50 50 0 50 0 0 50 0 50 -50 0 -50 0 0 -50z"/>
<path d="M5400 5050 l0 -50 50 0 50 0 0 -50 0 -50 100 0 100 0 0 100 0 100
-150 0 -150 0 0 -50z"/>
<path d="M5800 4950 l0 -50 50 0 50 0 0 -50 0 -50 100 0 100 0 0 50 0 50 -50
0 -50 0 0 50 0 50 -100 0 -100 0 0 -50z"/>
<path d="M0 8500 l0 -1200 100 0 100 0 0 50 0 50 150 0 150 0 0 50 0 50 100 0
100 0 0 50 0 50 150 0 150 0 0 50 0 50 150 0 150 0 0 50 0 50 100 0 100 0 0
50 0 50 150 0 150 0 0 50 0 50 100 0 100 0 0 50 0 50 100 0 100 0 0 50 0 50
-50 0 -50 0 0 50 0 50 -50 0 -50 0 0 50 0 50 -100 0 -100 0 0 50 0 50 -100 0
-100 0 0 -50 0 -50 -50 0 -50 0 0 -50 0 -50 -50 0 -50 0 0 250 0 250 -100 0
-100 0 0 50 0 50 -100 0 -100 0 0 100 0 100 -50 0 -50 0 0 50 0 50 -50 0 -50
0 0 50 0 50 -100 0 -100 0 0 50 0 50 -50 0 -50 0 0 50 0 50 -50 0 -50 0 0 50
0 50 -50 0 -50 0 0 50 0 50 -150 0 -150 0 0 -1200z"/>
<path d="M2100 7950 l0 -50 -100 0 -100 0 0 -50 0 -50 -150 0 -150 0 0 -150 0
-150 200 0 200 0 0 50 0 50 100 0 100 0 0 50 0 50 100 0 100 0 0 150 0 150
-150 0 -150 0 0 -50z"/>
<path d="M900 7450 l0 -50 -150 0 -150 0 0 -50 0 -50 -150 0 -150 0 0 -50 0
-50 -100 0 -100 0 0 -50 0 -50 -50 0 -50 0 0 -50 0 -50 50 0 50 0 0 -100 0
-100 100 0 100 0 0 50 0 50 150 0 150 0 0 50 0 50 100 0 100 0 0 50 0 50 100
0 100 0 0 50 0 50 100 0 100 0 0 100 0 100 -50 0 -50 0 0 50 0 50 -100 0 -100
0 0 -50z"/>
<path d="M1400 7350 l0 -50 50 0 50 0 0 50 0 50 -50 0 -50 0 0 -50z"/>
<path d="M2900 7100 l0 -100 -50 0 -50 0 0 50 0 50 -100 0 -100 0 0 -50 0 -50
-50 0 -50 0 0 -50 0 -50 -50 0 -50 0 0 50 0 50 -50 0 -50 0 0 -50 0 -50 -150
0 -150 0 0 -50 0 -50 -150 0 -150 0 0 -50 0 -50 -150 0 -150 0 0 -50 0 -50
-100 0 -100 0 0 -50 0 -50 -150 0 -150 0 0 -50 0 -50 -100 0 -100 0 0 -50 0
-50 -150 0 -150 0 0 -50 0 -50 -100 0 -100 0 0 -50 0 -50 -100 0 -100 0 0
-500 0 -500 50 0 50 0 0 150 0 150 50 0 50 0 0 50 0 50 100 0 100 0 0 50 0 50
150 0 150 0 0 -50 0 -50 -50 0 -50 0 0 -50 0 -50 100 0 100 0 0 50 0 50 50 0
50 0 0 50 0 50 50 0 50 0 0 50 0 50 -50 0 -50 0 0 50 0 50 100 0 100 0 0 -50
0 -50 50 0 50 0 0 -150 0 -150 50 0 50 0 0 -50 0 -50 -100 0 -100 0 0 -50 0
-50 -50 0 -50 0 0 -200 0 -200 -50 0 -50 0 0 -50 0 -50 -100 0 -100 0 0 -50 0
-50 -100 0 -100 0 0 -50 0 -50 -100 0 -100 0 0 -50 0 -50 -100 0 -100 0 0 -50
0 -50 100 0 100 0 0 50 0 50 200 0 200 0 0 50 0 50 100 0 100 0 0 50 0 50 50
0 50 0 0 -50 0 -50 50 0 50 0 0 50 0 50 50 0 50 0 0 50 0 50 100 0 100 0 0 50
0 50 50 0 50 0 0 -100 0 -100 50 0 50 0 0 -100 0 -100 50 0 50 0 0 -50 0 -50
50 0 50 0 0 -50 0 -50 100 0 100 0 0 50 0 50 -50 0 -50 0 0 50 0 50 -50 0 -50
0 0 100 0 100 -50 0 -50 0 0 150 0 150 100 0 100 0 0 -100 0 -100 50 0 50 0 0
-100 0 -100 50 0 50 0 0 -50 0 -50 50 0 50 0 0 100 0 100 -50 0 -50 0 0 150 0
150 -50 0 -50 0 0 50 0 50 100 0 100 0 0 50 0 50 50 0 50 0 0 250 0 250 -50 0
-50 0 0 50 0 50 -100 0 -100 0 0 -50 0 -50 -150 0 -150 0 0 100 0 100 -50 0
-50 0 0 100 0 100 50 0 50 0 0 50 0 50 100 0 100 0 0 50 0 50 100 0 100 0 0
50 0 50 50 0 50 0 0 50 0 50 50 0 50 0 0 50 0 50 50 0 50 0 0 50 0 50 50 0 50
0 0 50 0 50 50 0 50 0 0 50 0 50 100 0 100 0 0 50 0 50 50 0 50 0 0 50 0 50
50 0 50 0 0 100 0 100 -50 0 -50 0 0 -100z m-1400 -1250 l0 -50 50 0 50 0 0
-200 0 -200 -100 0 -100 0 0 100 0 100 -50 0 -50 0 0 150 0 150 100 0 100 0 0
-50z m-600 -200 l0 -50 -100 0 -100 0 0 50 0 50 100 0 100 0 0 -50z m400 -500
l0 -50 50 0 50 0 0 -100 0 -100 -150 0 -150 0 0 50 0 50 50 0 50 0 0 100 0
100 50 0 50 0 0 -50z m400 -50 l0 -100 -50 0 -50 0 0 100 0 100 50 0 50 0 0
-100z"/>
<path d="M7500 6150 l0 -50 100 0 100 0 0 50 0 50 -100 0 -100 0 0 -50z"/>
<path d="M1900 4050 l0 -50 -50 0 -50 0 0 -50 0 -50 -100 0 -100 0 0 -50 0
-50 100 0 100 0 0 -50 0 -50 50 0 50 0 0 50 0 50 150 0 150 0 0 50 0 50 -50 0
-50 0 0 50 0 50 50 0 50 0 0 50 0 50 -150 0 -150 0 0 -50z m0 -200 l0 -50 -50
0 -50 0 0 50 0 50 50 0 50 0 0 -50z"/>
<path d="M500 3750 l0 -50 -50 0 -50 0 0 -50 0 -50 50 0 50 0 0 50 0 50 50 0
50 0 0 -100 0 -100 -100 0 -100 0 0 -50 0 -50 -100 0 -100 0 0 -50 0 -50 -50
0 -50 0 0 50 0 50 -50 0 -50 0 0 -100 0 -100 50 0 50 0 0 -50 0 -50 -50 0 -50
0 0 -250 0 -250 100 0 100 0 0 50 0 50 100 0 100 0 0 50 0 50 150 0 150 0 0
50 0 50 100 0 100 0 0 50 0 50 100 0 100 0 0 50 0 50 150 0 150 0 0 50 0 50
100 0 100 0 0 50 0 50 100 0 100 0 0 50 0 50 150 0 150 0 0 50 0 50 100 0 100
0 0 100 0 100 -150 0 -150 0 0 -50 0 -50 -250 0 -250 0 0 -50 0 -50 -200 0
-200 0 0 -50 0 -50 -100 0 -100 0 0 50 0 50 50 0 50 0 0 50 0 50 150 0 150 0
0 50 0 50 100 0 100 0 0 50 0 50 -100 0 -100 0 0 -50 0 -50 -150 0 -150 0 0
50 0 50 -50 0 -50 0 0 -50 0 -50 -50 0 -50 0 0 50 0 50 -150 0 -150 0 0 -50z
m300 -400 l0 -50 -100 0 -100 0 0 50 0 50 100 0 100 0 0 -50z m-500 -100 l0
-50 -50 0 -50 0 0 50 0 50 50 0 50 0 0 -50z"/>
<path d="M8200 3450 l0 -50 -50 0 -50 0 0 -50 0 -50 100 0 100 0 0 50 0 50
120 0 120 0 0 50 0 50 -170 0 -170 0 0 -50z"/>
<path d="M1500 1850 l0 -50 50 0 50 0 0 50 0 50 -50 0 -50 0 0 -50z"/>
<path d="M1300 1750 l0 -50 50 0 50 0 0 50 0 50 -50 0 -50 0 0 -50z"/>
<path d="M1100 1650 l0 -50 50 0 50 0 0 50 0 50 -50 0 -50 0 0 -50z"/>
<path d="M800 1550 l0 -50 50 0 50 0 0 50 0 50 -50 0 -50 0 0 -50z"/>
<path d="M600 1450 l0 -50 50 0 50 0 0 50 0 50 -50 0 -50 0 0 -50z"/>
<path d="M1700 1450 l0 -50 50 0 50 0 0 50 0 50 -50 0 -50 0 0 -50z"/>
<path d="M400 1350 l0 -50 50 0 50 0 0 50 0 50 -50 0 -50 0 0 -50z"/>
<path d="M1500 1350 l0 -50 -100 0 -100 0 0 -50 0 -50 -150 0 -150 0 0 -50 0
-50 -100 0 -100 0 0 -50 0 -50 -100 0 -100 0 0 50 0 50 -50 0 -50 0 0 -50 0
-50 50 0 50 0 0 -50 0 -50 -300 0 -300 0 0 -450 0 -450 250 0 250 0 0 50 0 50
100 0 100 0 0 50 0 50 150 0 150 0 0 50 0 50 100 0 100 0 0 50 0 50 150 0 150
0 0 50 0 50 100 0 100 0 0 100 0 100 50 0 50 0 0 50 0 50 -150 0 -150 0 0 200
0 200 50 0 50 0 0 100 0 100 -50 0 -50 0 0 -50z"/>
<path d="M8200 1350 l0 -50 50 0 50 0 0 50 0 50 -50 0 -50 0 0 -50z"/>
<path d="M600 1250 l0 -50 100 0 100 0 0 50 0 50 -100 0 -100 0 0 -50z"/>
<path d="M8100 1000 l0 -200 -50 0 -50 0 0 -250 0 -250 50 0 50 0 0 -50 0 -50
-50 0 -50 0 0 -100 0 -100 270 0 270 0 0 400 c0 393 0 400 -20 400 -17 0 -20
-7 -20 -50 l0 -50 -50 0 -50 0 0 150 0 150 -50 0 -50 0 0 100 0 100 -100 0
-100 0 0 -200z m100 -550 l0 -50 -50 0 -50 0 0 50 0 50 50 0 50 0 0 -50z"/>
<path d="M7300 1050 l0 -50 -50 0 -50 0 0 -50 0 -50 -50 0 -50 0 0 -100 0
-100 -50 0 -50 0 0 -100 0 -100 50 0 50 0 0 100 0 100 50 0 50 0 0 100 0 100
50 0 50 0 0 50 0 50 50 0 50 0 0 50 0 50 -50 0 -50 0 0 -50z"/>
<path d="M6600 450 l0 -50 -50 0 -50 0 0 -50 0 -50 100 0 100 0 0 100 0 100
-50 0 -50 0 0 -50z"/>
<path d="M7400 450 l0 -50 -150 0 -150 0 0 -100 0 -100 -100 0 -100 0 0 -50 0
-50 -50 0 -50 0 0 50 0 50 -50 0 -50 0 0 -100 0 -100 400 0 400 0 0 100 0 100
-50 0 -50 0 0 -50 0 -50 -50 0 -50 0 0 100 0 100 50 0 50 0 0 50 0 50 50 0 50
0 0 50 0 50 -50 0 -50 0 0 -50z"/>
<path d="M4600 200 l0 -100 50 0 50 0 0 100 0 100 -50 0 -50 0 0 -100z"/>
<path d="M1500 150 l0 -50 -150 0 -150 0 0 -50 0 -50 250 0 250 0 0 100 0 100
-100 0 -100 0 0 -50z"/>
</g>
</svg>
