<?xml version="1.0" standalone="no"?>
<!DOCTYPE svg PUBLIC "-//W3C//DTD SVG 20010904//EN"
 "http://www.w3.org/TR/2001/REC-SVG-20010904/DTD/svg10.dtd">
<svg version="1.0" xmlns="http://www.w3.org/2000/svg"
 width="854.000000pt" height="1280.000000pt" viewBox="0 0 854.000000 1280.000000"
 preserveAspectRatio="xMidYMid meet">

<g transform="translate(0.000000,1280.000000) scale(0.100000,-0.100000)"
fill="#000000" stroke="none">
<path d="M5420 12771 c0 -16 -4 -33 -10 -36 -5 -3 -10 -13 -10 -22 0 -13 3
-13 15 -3 9 7 18 10 22 6 3 -3 1 -6 -5 -6 -7 0 -12 -13 -12 -30 0 -20 -5 -30
-15 -30 -8 0 -15 -4 -15 -9 0 -6 -11 -22 -25 -37 -14 -15 -25 -31 -25 -35 0
-5 -4 -9 -10 -9 -15 0 -50 -33 -44 -42 3 -5 2 -7 -3 -6 -11 4 -59 -31 -55 -40
2 -4 -18 -12 -45 -17 -44 -10 -48 -14 -51 -43 -3 -26 -8 -32 -28 -32 -26 0
-33 -15 -11 -23 7 -3 25 -3 38 0 26 5 59 -21 45 -34 -4 -4 -11 -1 -16 7 -7 11
-12 12 -21 3 -8 -8 -6 -13 10 -18 19 -6 51 -55 51 -80 0 -16 -45 -57 -61 -55
-29 4 -50 0 -44 -10 3 -5 -3 -10 -15 -10 -12 0 -18 4 -15 10 3 6 -1 7 -9 4 -9
-3 -16 -11 -16 -16 0 -6 -6 -5 -15 2 -8 7 -27 10 -42 7 -16 -4 -22 -4 -15 -1
14 7 16 36 2 50 -15 15 0 54 21 54 11 0 19 7 19 15 0 8 -7 15 -15 15 -8 0 -15
5 -15 10 0 6 8 10 18 10 14 0 14 2 3 9 -11 7 -3 12 27 22 23 7 42 14 42 16 0
2 -13 17 -30 33 -16 16 -30 33 -30 38 0 5 -7 15 -15 22 -9 7 -14 15 -11 17 9
10 -72 79 -107 91 -74 26 -120 20 -186 -26 -33 -23 -61 -42 -64 -42 -3 0 -35
-18 -71 -40 -36 -22 -70 -40 -74 -40 -5 0 -39 -27 -75 -60 -36 -33 -69 -60
-74 -60 -16 0 -70 -29 -83 -45 -7 -8 -19 -15 -27 -15 -7 0 -16 -7 -19 -15 -3
-8 -27 -25 -52 -37 -35 -18 -46 -29 -44 -43 3 -20 3 -20 -13 -1 -15 19 -15 19
-15 -2 0 -20 -3 -21 -21 -12 -14 8 -29 9 -47 2 -15 -6 -54 -14 -87 -17 -37 -4
-64 -13 -72 -23 -11 -16 -12 -16 -13 1 0 12 -6 17 -17 15 -21 -3 -67 27 -60
39 3 4 -14 9 -37 10 -22 2 -42 7 -44 13 -2 5 -10 10 -17 10 -8 0 -19 9 -25 21
-9 16 -14 18 -26 8 -8 -6 -14 -7 -14 -2 0 9 -11 11 -105 16 -33 2 -64 5 -70 7
-5 1 -14 2 -19 1 -5 -1 -16 1 -25 5 -19 9 -27 11 -42 13 -5 0 -7 6 -3 12 4 8
-1 9 -16 4 -21 -7 -66 11 -162 61 -33 18 -36 18 -41 -3 -4 -17 -5 -17 -6 0 -1
13 -8 17 -28 14 -16 -2 -28 -9 -28 -15 0 -16 -15 -27 -16 -11 0 8 -5 3 -10
-10 -6 -16 -6 -28 1 -35 5 -5 10 -17 10 -26 0 -8 9 -21 20 -28 11 -7 20 -18
20 -25 0 -6 27 -20 60 -30 33 -9 60 -22 60 -27 0 -6 27 -10 60 -10 63 0 63 0
74 -51 3 -14 15 -36 26 -49 29 -33 28 -121 -1 -149 -20 -18 -20 -21 -6 -35 9
-9 20 -16 26 -16 6 0 11 -8 11 -18 0 -26 11 -34 27 -20 18 15 29 2 13 -17 -8
-10 -9 -15 -1 -15 6 0 11 5 11 10 0 6 6 10 13 10 6 0 33 20 59 45 49 46 62 52
73 35 3 -5 11 -10 18 -10 8 0 8 3 -1 12 -21 21 -13 27 19 16 29 -10 43 -6 45
13 1 5 2 14 3 19 0 6 9 10 19 10 14 0 15 2 2 10 -13 9 -13 10 0 10 9 0 26 -7
39 -16 17 -12 25 -14 30 -5 4 7 30 12 57 12 81 -1 130 2 117 6 -20 7 -15 23 7
23 10 0 24 8 29 18 8 15 21 19 56 17 25 0 51 2 58 7 8 5 4 8 -11 8 -13 0 -20
4 -17 10 3 6 15 10 26 10 10 0 19 -4 19 -10 0 -11 33 -14 44 -3 3 4 21 7 39 7
24 1 31 5 29 17 -2 12 11 21 43 30 28 8 40 16 32 21 -8 5 -4 8 10 8 12 0 23
-6 26 -12 3 -9 10 -8 26 6 11 11 21 14 21 8 0 -7 -6 -12 -12 -12 -24 0 28 -27
65 -34 39 -7 49 -28 22 -44 -14 -7 -13 -11 6 -28 16 -14 23 -15 26 -6 5 13 43
17 43 4 0 -4 -9 -13 -21 -20 -11 -7 -18 -19 -16 -26 4 -9 -3 -13 -18 -13 -13
0 -31 -8 -40 -17 -9 -9 -23 -16 -31 -16 -8 0 -14 -7 -14 -15 0 -8 -8 -15 -18
-15 -11 0 -19 -8 -20 -22 -1 -13 -3 -32 -5 -43 -1 -11 -11 -28 -22 -38 -16
-15 -17 -19 -5 -27 13 -8 12 -12 -5 -24 -11 -9 -28 -16 -37 -16 -10 0 -18 -6
-18 -12 0 -9 -3 -9 -9 1 -12 19 -41 6 -41 -19 0 -11 -7 -20 -15 -20 -8 0 -15
-8 -16 -17 0 -15 -2 -15 -9 2 -6 13 -9 15 -9 5 -1 -25 14 -41 32 -34 9 3 14
11 11 16 -4 6 2 5 14 -1 11 -6 27 -8 35 -5 10 4 15 -1 14 -13 -1 -10 3 -17 9
-16 6 1 20 -15 30 -37 12 -24 22 -34 26 -27 4 7 8 -4 8 -23 0 -45 -8 -57 -45
-65 -20 -4 -26 -3 -17 3 11 7 8 11 -9 15 -13 4 -26 1 -30 -5 -6 -9 -11 -8 -23
1 -12 10 -24 8 -63 -9 -73 -33 -102 -40 -129 -30 -18 7 -24 6 -24 -4 0 -15
-21 -26 -51 -26 -10 0 -19 -4 -19 -9 0 -5 -13 -9 -30 -9 -16 1 -30 6 -30 11 0
6 -10 2 -22 -9 -12 -10 -18 -14 -14 -7 5 9 -5 11 -36 9 -45 -3 -108 -30 -108
-46 0 -6 -6 -10 -14 -10 -8 0 -16 -7 -20 -15 -3 -8 -12 -15 -21 -15 -8 0 -14
-3 -13 -7 5 -18 -16 -60 -43 -89 -24 -25 -26 -31 -12 -30 10 1 18 -3 18 -9 0
-5 -3 -9 -7 -8 -4 2 -5 -3 -2 -10 2 -8 -12 -31 -33 -53 -48 -51 -88 -118 -97
-167 -10 -53 -19 -76 -27 -71 -5 3 -9 -2 -9 -11 0 -10 5 -13 13 -9 9 6 9 5 0
-8 -7 -8 -11 -17 -8 -20 3 -2 -4 -29 -14 -59 -11 -29 -16 -56 -11 -59 5 -3 4
-23 -1 -45 -6 -22 -12 -87 -14 -145 -5 -113 -18 -202 -41 -262 -13 -35 -11
-42 8 -39 4 0 0 -18 -8 -40 -17 -50 -17 -52 -2 -43 6 4 8 3 5 -3 -4 -6 -9 -28
-12 -49 -4 -22 -10 -55 -16 -74 -11 -44 -11 -50 1 -50 6 0 10 12 10 27 0 14 2
24 5 22 2 -3 8 -65 14 -139 5 -83 16 -151 26 -177 17 -42 17 -44 -5 -80 -22
-37 -22 -38 -1 -19 12 11 21 15 21 10 0 -5 5 -2 11 6 8 12 9 10 4 -8 -5 -16
-3 -22 7 -20 9 2 13 -10 14 -42 0 -25 4 -57 7 -71 8 -32 -30 -80 -44 -57 -7
10 -9 10 -9 -3 0 -9 -7 -22 -15 -29 -9 -7 -14 -19 -11 -27 9 -22 -10 -14 -22
10 -10 20 -10 19 -8 -11 2 -18 -1 -35 -7 -39 -6 -4 -7 -1 -2 7 5 8 4 11 -3 7
-5 -4 -8 -17 -4 -30 5 -20 4 -21 -13 -7 -17 14 -18 13 -12 -3 5 -13 -1 -20
-22 -30 -16 -6 -56 -46 -90 -87 -80 -98 -76 -93 -86 -110 -8 -13 -7 -13 11 0
12 9 11 5 -5 -13 -26 -29 -37 -35 -25 -14 6 9 3 8 -9 -1 -28 -24 -78 -110
-109 -190 -49 -125 -50 -310 -2 -672 51 -384 276 -1160 498 -1717 46 -117 105
-285 131 -374 25 -89 59 -187 75 -218 15 -31 49 -120 75 -196 52 -157 54 -144
-30 -187 -22 -12 -57 -32 -78 -45 l-38 -24 26 -32 c34 -45 72 -132 143 -327
75 -204 94 -279 127 -495 27 -180 58 -329 99 -485 27 -100 32 -132 14 -90 -6
14 -10 30 -9 37 1 6 -3 14 -9 18 -6 4 -10 -15 -10 -54 0 -47 3 -60 16 -63 12
-2 17 -15 19 -43 1 -22 21 -96 45 -164 30 -88 40 -129 33 -140 -5 -8 -29 -22
-54 -30 -35 -12 -39 -16 -21 -19 12 -2 20 -8 16 -13 -8 -14 16 -79 29 -79 8 0
7 -3 -1 -9 -8 -4 -13 -10 -12 -12 6 -15 -15 -58 -32 -62 -14 -4 -18 -2 -14 9
3 8 1 14 -4 14 -6 0 -10 -4 -10 -9 0 -5 -38 -28 -84 -50 -135 -65 -202 -157
-226 -311 -17 -104 2 -210 65 -355 30 -68 48 -126 49 -152 0 -24 4 -43 7 -43
4 0 9 -9 12 -21 3 -12 10 -18 16 -15 6 4 32 -5 58 -20 56 -31 81 -29 216 17
99 33 110 35 83 14 -11 -8 -15 -15 -9 -15 5 0 21 9 34 21 13 11 34 29 46 39
27 23 29 20 42 -61 13 -78 13 -92 2 -85 -4 3 -17 -4 -27 -15 -19 -21 -19 -21
1 -18 11 2 23 9 27 14 4 6 8 -2 8 -16 0 -21 173 -380 228 -474 23 -40 62 -363
62 -521 l0 -151 73 -13 c44 -9 63 -16 48 -18 -19 -3 -21 -6 -10 -13 11 -7 10
-9 -5 -9 -17 0 -18 -2 -4 -17 15 -18 14 -53 -2 -53 -5 0 -11 8 -13 18 -3 9 -5
2 -6 -16 -1 -26 4 -35 19 -39 11 -3 20 -12 20 -19 0 -8 5 -14 10 -14 6 0 10
-9 10 -19 0 -11 5 -23 10 -26 6 -3 10 -11 10 -16 0 -6 -4 -7 -10 -4 -5 3 -10
1 -10 -5 0 -31 27 4 47 60 22 64 43 97 43 69 1 -11 4 -10 14 3 12 16 15 16 36
-7 22 -23 96 -52 106 -42 3 3 -13 12 -36 21 -22 9 -40 23 -40 31 0 13 12 14
73 9 70 -6 107 -10 117 -14 3 -1 -8 -5 -25 -9 -22 -5 -2 -9 70 -15 55 -4 129
-14 165 -22 64 -13 181 -30 290 -40 30 -3 66 -9 80 -14 14 -5 53 -14 88 -21
34 -7 62 -16 62 -21 0 -4 14 -5 30 -3 17 2 30 -1 30 -7 0 -6 3 -9 6 -6 3 3 21
2 40 -3 53 -15 90 -20 218 -31 92 -8 128 -8 160 2 22 7 50 14 60 15 10 1 24 9
30 17 6 8 19 14 28 12 11 -1 15 3 11 14 -4 10 -2 13 6 8 7 -5 20 1 32 15 21
24 25 19 9 -11 -8 -16 -8 -18 5 -14 8 4 15 1 15 -5 0 -6 5 -11 11 -11 14 0 6
69 -21 185 -10 43 -16 83 -14 87 8 12 21 10 38 -8 10 -10 16 -11 16 -3 0 9 3
9 14 0 20 -16 30 -69 17 -84 -6 -8 -6 -18 0 -27 7 -13 10 -13 18 -1 17 27 24
-13 25 -148 0 -110 -3 -146 -19 -188 -21 -59 -15 -76 16 -47 28 25 37 49 65
183 22 107 42 151 68 151 6 0 17 9 24 20 7 11 23 20 35 20 53 0 322 213 731
578 137 123 308 241 348 242 19 1 48 25 48 41 0 8 -14 23 -31 33 -20 12 -27
22 -21 28 13 13 67 1 83 -18 6 -8 16 -14 21 -14 5 0 -5 14 -23 31 -20 19 -37
28 -48 24 -9 -3 11 19 44 49 33 30 63 55 68 56 14 0 6 30 -39 136 -25 60 -62
161 -81 224 -19 63 -48 147 -64 185 -41 96 -79 292 -90 465 -4 80 -11 157 -15
171 -3 15 -1 29 4 33 6 4 8 -2 5 -14 -4 -14 0 -20 10 -20 8 0 18 -6 20 -12 3
-7 6 -1 6 15 1 15 -3 27 -7 27 -5 0 -16 15 -25 32 l-16 33 -1 -30 c-2 -29 -2
-29 -9 -5 -20 65 -21 77 -6 77 8 0 17 -7 19 -14 3 -8 1 -11 -4 -8 -6 3 -10 1
-10 -4 0 -6 7 -11 15 -11 7 0 19 -8 25 -18 9 -14 10 -13 4 8 -4 14 -8 30 -11
35 -2 6 22 9 63 7 60 -3 73 0 144 35 l78 38 36 98 c63 173 87 267 93 367 5 89
3 101 -27 185 -19 53 -47 107 -69 134 -52 64 -140 126 -210 146 -33 10 -58 22
-55 26 3 5 -8 4 -23 -1 -15 -4 -81 -16 -146 -26 -97 -14 -129 -15 -179 -6 -34
6 -65 18 -70 25 -4 8 -21 20 -37 26 -16 7 -31 22 -34 34 -3 12 -10 42 -16 67
-15 62 -52 140 -66 140 -18 0 -51 93 -104 300 -37 142 -72 257 -101 333 -13
34 -19 68 -16 82 4 17 1 27 -12 34 -12 6 -27 39 -41 85 -44 148 -111 557 -111
678 0 39 -3 48 -17 48 -297 5 -393 4 -418 -3 -18 -5 -58 -3 -101 4 l-72 13
-15 101 c-9 55 -28 138 -42 184 -26 82 -26 84 -11 150 20 81 36 192 36 247 0
23 15 93 34 155 37 122 110 425 121 499 4 25 17 90 30 145 13 55 29 127 35
160 17 95 20 105 28 103 4 -1 25 6 47 16 73 32 246 86 311 97 87 15 359 7 399
-12 35 -16 111 -68 173 -117 46 -38 114 -127 179 -237 23 -38 60 -88 82 -110
22 -22 40 -44 41 -48 0 -4 9 -21 21 -36 28 -39 18 -67 -34 -91 -23 -11 -67
-40 -97 -66 -49 -41 -171 -106 -272 -148 -35 -14 -38 -18 -38 -55 0 -23 3 -41
8 -41 11 0 76 46 109 76 36 33 66 48 126 63 27 6 72 25 100 40 64 36 201 75
233 67 33 -9 73 -55 80 -93 9 -48 -4 -102 -31 -129 -13 -13 -19 -26 -14 -29 5
-4 7 -11 3 -16 -16 -26 79 -52 97 -26 12 17 58 -17 90 -69 19 -30 50 -80 70
-112 108 -172 103 -160 103 -251 1 -73 -1 -85 -19 -97 -19 -12 -24 -11 -52 15
-31 28 -87 54 -96 45 -8 -8 -165 25 -197 41 -18 9 -54 15 -88 15 -31 -1 -120
0 -198 2 -135 3 -142 4 -180 31 -38 25 -71 36 -61 20 8 -12 -47 -10 -55 2 -14
19 -8 -53 7 -81 19 -37 19 -67 0 -105 -9 -16 -14 -33 -11 -37 3 -5 29 -6 58
-2 41 4 64 14 97 40 40 33 49 35 127 39 l85 3 45 -46 c56 -55 64 -58 136 -46
71 11 113 0 150 -40 30 -33 32 -39 20 -56 -13 -21 -246 -122 -409 -178 -23 -8
-33 -17 -32 -31 0 -11 3 -14 6 -7 2 6 13 12 23 12 10 0 21 4 25 9 3 5 20 13
38 16 17 4 75 24 127 45 114 45 293 106 337 115 85 17 202 -91 155 -143 -16
-18 -234 -102 -264 -102 -38 0 -135 -34 -239 -84 -131 -62 -262 -116 -284
-116 -12 0 -12 -3 3 -18 10 -11 21 -15 28 -11 15 12 42 -19 121 -142 63 -96
70 -104 83 -88 8 9 71 36 140 59 69 22 161 54 205 69 44 16 176 60 292 97
l213 69 0 168 c0 92 -4 167 -9 167 -5 0 -27 -7 -50 -15 -41 -14 -42 -14 -67
14 -14 16 -36 32 -49 35 -28 7 -82 86 -91 133 -4 21 0 55 11 88 15 48 15 66 5
146 -9 71 -9 101 0 134 16 55 73 115 136 139 27 11 64 28 82 39 l32 19 0 560
0 560 -50 69 c-28 38 -61 93 -74 122 -13 28 -42 72 -65 97 -37 41 -121 170
-121 186 0 4 -7 15 -16 25 -9 11 -17 38 -17 68 -2 56 23 100 65 115 35 13 57
-7 156 -138 45 -61 91 -122 102 -136 20 -25 20 -25 20 170 l0 195 -43 55 c-68
87 -112 127 -154 137 -33 7 -38 13 -41 39 -3 26 2 33 27 44 30 12 45 11 85 -6
14 -5 17 -4 12 4 -4 7 -4 17 0 24 5 8 26 -9 60 -48 l54 -59 0 802 c0 760 -1
802 -17 796 -10 -4 -21 -11 -24 -16 -4 -5 -14 -5 -27 2 -15 8 -24 6 -42 -9
-36 -31 -118 -31 -186 2 -24 11 -54 21 -67 22 -19 1 -23 6 -20 26 2 14 0 19
-3 13 -6 -14 -44 -18 -44 -5 0 14 -73 11 -103 -4 -19 -10 -39 -13 -56 -8 -36
10 -105 4 -113 -9 -4 -7 -19 -5 -47 7 -34 16 -41 24 -46 60 -4 22 -13 55 -20
73 -8 18 -16 49 -19 69 -4 20 -9 40 -12 45 -3 5 0 25 6 44 12 38 61 72 83 58
14 -9 19 -10 48 -12 12 0 39 -19 61 -40 21 -22 55 -45 74 -51 19 -6 34 -15 34
-19 0 -12 50 -32 61 -25 6 3 15 1 22 -4 16 -14 85 -18 122 -7 17 4 36 17 43
27 19 26 61 43 102 41 59 -3 75 -9 78 -31 2 -14 11 -22 23 -22 11 0 17 -5 14
-10 -4 -6 -11 -8 -16 -5 -5 4 -9 2 -9 -3 0 -12 46 -32 75 -32 l25 0 0 990 0
990 -382 -4 c-400 -5 -434 -6 -457 -20 -8 -5 -16 -4 -21 4 -5 8 -18 10 -41 4
-19 -4 -40 -7 -47 -5 -8 1 -16 -7 -19 -18 -5 -18 -14 -20 -104 -20 -71 0 -110
-5 -134 -17 -19 -9 -39 -13 -45 -9 -7 4 -29 -1 -50 -10 -38 -17 -39 -17 -94
10 -31 15 -56 34 -56 41 0 8 -5 14 -11 14 -5 0 -7 -4 -4 -10 13 -21 -13 -9
-31 15 -17 23 -25 25 -101 25 l-82 0 -11 -40 c-6 -21 -14 -41 -19 -44 -4 -3
-7 -21 -6 -40 1 -20 -4 -41 -11 -47 -17 -14 -18 -33 -1 -23 9 6 9 4 -1 -8 -7
-9 -21 -14 -33 -11 -12 4 -25 -1 -34 -13 -8 -11 -15 -14 -15 -9 0 6 -4 4 -9
-3 -6 -11 -17 -11 -45 -4 -26 8 -36 7 -36 -1 0 -9 -2 -9 -8 -1 -11 17 -70 30
-127 27 -52 -2 -115 14 -115 30 0 5 -6 7 -14 4 -8 -3 -20 1 -26 8 -7 8 -16 12
-21 9 -5 -3 -9 0 -9 5 0 6 -12 11 -27 11 -21 0 -24 3 -13 10 17 11 17 11 -37
34 -23 10 -44 25 -47 32 -3 8 -12 14 -21 14 -8 0 -15 7 -15 15 0 8 -6 15 -14
15 -7 0 -19 6 -25 14 -10 12 -71 15 -357 16 l-344 1 0 -30z m630 -210 c-1 -27
-17 -54 -38 -62 -28 -11 -44 -3 -22 11 13 8 12 10 -2 10 -9 0 -28 5 -41 11
l-25 11 20 20 c17 17 24 18 45 9 14 -7 28 -9 31 -6 3 3 0 5 -6 5 -7 0 -12 4
-12 10 0 6 10 5 25 -2 14 -6 25 -14 25 -17z m-87 -47 c10 -11 -35 -45 -51 -39
-7 3 -16 5 -18 5 -2 0 -4 6 -4 14 0 19 58 35 73 20z m-3 -54 c0 -5 -4 -10 -10
-10 -5 0 -10 5 -10 10 0 6 5 10 10 10 6 0 10 -4 10 -10z m-920 -80 c0 -5 -9
-10 -21 -10 -11 0 -17 5 -14 10 3 6 13 10 21 10 8 0 14 -4 14 -10z m-94 -189
c0 -11 -4 -17 -8 -15 -4 3 -8 12 -8 20 0 8 4 14 8 14 4 0 8 -9 8 -19z m-17
-30 c8 -5 9 -11 3 -15 -5 -3 -15 1 -22 9 -14 16 -3 20 19 6z m-772 -33 c-3 -7
-5 -2 -5 12 0 14 2 19 5 13 2 -7 2 -19 0 -25z m806 -19 c9 0 17 -7 17 -15 0
-8 -9 -14 -19 -14 -11 0 -22 -6 -25 -12 -3 -7 -3 -3 0 10 4 16 1 22 -10 22 -9
0 -15 -3 -15 -7 4 -22 -2 -43 -11 -43 -5 0 -10 8 -11 18 0 14 -2 14 -9 -3 -8
-18 -9 -17 -9 7 -1 31 24 51 54 42 11 -3 28 -6 38 -5z m-327 -113 c10 -8 16
-18 11 -22 -4 -4 -7 -2 -7 4 0 7 -6 12 -14 12 -8 0 -18 5 -21 10 -9 15 8 12
31 -4z m2364 -62 c0 -9 8 -14 18 -13 39 4 50 -3 66 -35 9 -19 22 -37 29 -39 6
-3 -4 -6 -23 -6 -24 -1 -31 -4 -21 -10 11 -7 9 -10 -8 -16 -16 -5 -20 -12 -16
-26 7 -21 -5 -25 -22 -8 -8 8 -13 7 -18 -1 -4 -7 -2 -16 5 -20 7 -4 8 -10 3
-13 -5 -4 -20 1 -33 10 -35 24 -81 27 -86 6 -5 -18 -27 -20 -114 -13 l-25 2
25 7 25 7 -22 8 c-14 4 -26 20 -32 39 -7 27 -5 35 13 50 48 40 61 47 86 47 14
0 31 5 36 10 6 6 27 12 48 14 20 2 39 6 43 10 11 11 23 6 23 -10z m-3590 -84
c0 -5 -5 -10 -11 -10 -5 0 -7 5 -4 10 3 6 8 10 11 10 2 0 4 -4 4 -10z m3390
-130 c0 -5 -2 -10 -4 -10 -3 0 -8 5 -11 10 -3 6 -1 10 4 10 6 0 11 -4 11 -10z
m60 0 c0 -5 -9 -10 -19 -10 -11 0 -23 5 -26 10 -4 6 5 10 19 10 14 0 26 -4 26
-10z m-242 -53 c25 -12 29 -27 7 -27 -8 0 -15 -4 -15 -10 0 -5 6 -10 14 -10 8
0 16 -7 20 -15 4 -10 -1 -15 -14 -15 -13 0 -20 -7 -20 -20 0 -13 -9 -22 -27
-26 -16 -4 -33 -11 -39 -16 -6 -4 -19 -5 -28 -2 -10 4 -25 -1 -35 -10 -10 -9
-25 -16 -32 -14 -9 2 -13 -4 -11 -14 2 -11 -3 -18 -13 -18 -8 0 -15 -9 -15
-21 0 -11 -4 -18 -9 -14 -5 3 -12 -3 -16 -14 -5 -17 -14 -19 -63 -17 -31 1
-61 -1 -67 -5 -17 -12 -77 -17 -65 -5 5 5 10 19 10 29 0 14 5 18 20 14 25 -6
26 2 3 18 -14 10 -15 16 -5 28 7 8 10 21 6 30 -3 8 -1 18 5 22 6 3 11 17 11
31 0 13 5 24 10 24 6 0 10 6 10 13 1 28 96 71 160 72 22 0 40 -6 48 -17 16
-22 31 -23 47 -2 9 13 16 14 32 6 26 -14 38 -3 15 14 -15 12 -14 12 8 8 14 -3
35 -11 48 -17z m1472 -117 c0 -5 -4 -10 -10 -10 -5 0 -10 5 -10 10 0 6 5 10
10 10 6 0 10 -4 10 -10z m-2489 -101 c6 -9 4 -15 -6 -17 -8 -2 -15 -10 -15
-18 0 -8 -12 -20 -27 -27 -16 -6 -37 -20 -47 -29 -20 -18 -53 -22 -94 -12 -19
5 -22 12 -20 37 4 45 84 88 152 83 27 -2 52 -9 57 -17z m1583 -594 c-7 -18 0
-19 28 -4 15 8 22 8 28 -1 5 -9 14 -10 26 -4 11 4 43 9 72 9 46 2 55 -1 62
-19 4 -12 20 -31 34 -43 23 -20 26 -31 26 -82 0 -49 -5 -65 -25 -89 -20 -24
-32 -29 -72 -30 -69 -3 -163 24 -196 56 -70 66 -114 168 -79 180 7 2 12 10 12
17 0 10 9 12 34 8 19 -3 36 -1 40 6 10 16 16 13 10 -4z m-1529 -44 c51 -10 98
-22 104 -26 7 -4 18 -1 26 5 8 7 24 10 35 7 11 -3 20 -1 20 4 0 16 31 10 57
-11 21 -16 29 -18 41 -8 32 27 142 11 142 -20 0 -7 5 -10 11 -7 5 4 19 -1 30
-11 14 -13 16 -19 7 -25 -9 -6 -8 -12 4 -26 14 -15 14 -21 4 -35 -7 -10 -24
-18 -37 -19 l-24 -1 25 -7 c17 -5 21 -9 12 -15 -7 -4 -21 -5 -31 -1 -23 7 -69
-12 -98 -42 -12 -13 -29 -23 -37 -23 -8 0 -17 -4 -20 -9 -4 -5 -24 -12 -46
-16 -22 -4 -42 -11 -46 -16 -3 -5 -14 -9 -24 -9 -11 0 -24 -9 -30 -20 -6 -11
-21 -20 -33 -20 -13 0 -29 -6 -35 -12 -15 -15 -112 -18 -112 -3 0 7 -3 7 -8 0
-10 -15 -31 -12 -42 5 -6 9 -10 10 -10 3 0 -14 -39 -14 -58 0 -7 6 -15 7 -19
3 -3 -3 -1 -6 5 -6 7 0 12 -5 12 -11 0 -8 -4 -8 -14 1 -8 6 -13 17 -10 24 3 7
-12 28 -33 48 -21 19 -47 46 -59 59 -12 13 -30 30 -40 37 -10 7 -12 10 -4 6
11 -6 11 -2 -2 13 -10 11 -18 34 -18 51 0 18 -4 32 -10 32 -5 0 -14 9 -20 21
-11 20 -11 20 17 2 15 -9 31 -21 34 -26 3 -5 9 -2 12 6 3 9 -1 21 -9 27 -8 7
-14 9 -14 6 0 -4 -9 -2 -20 4 -11 6 -17 16 -14 25 5 11 1 14 -12 9 -16 -5 -16
-4 -4 5 12 8 18 6 29 -9 7 -11 18 -20 23 -20 6 0 6 6 -1 14 -17 20 2 30 63 33
28 2 54 9 60 18 13 16 83 24 109 12 10 -5 60 -16 112 -26z m-374 -128 c13 -35
9 -35 -24 -4 -26 25 -26 27 -7 28 14 1 24 -7 31 -24z m2309 -123 c9 0 27 -11
40 -26 19 -19 22 -27 11 -33 -7 -5 -16 -24 -20 -42 -6 -31 -10 -34 -49 -37
-36 -3 -43 -7 -48 -29 -6 -23 -8 -24 -19 -10 -14 20 -47 23 -40 5 3 -7 -10
-20 -29 -30 -31 -15 -34 -15 -47 3 -18 25 -29 6 -24 -41 2 -19 1 -27 -1 -17
-7 21 -9 21 -38 1 -13 -8 -27 -27 -30 -41 -6 -22 -11 -25 -40 -21 -19 2 -38
-2 -45 -9 -6 -7 -21 -13 -32 -13 -12 0 -23 -8 -26 -19 -3 -10 -21 -24 -44 -31
-23 -8 -39 -20 -39 -29 0 -14 -2 -14 -9 -1 -6 8 -8 17 -5 21 2 4 -2 9 -8 12
-10 4 -11 7 0 18 17 18 15 29 -4 29 -11 0 -14 5 -9 18 4 9 10 23 13 31 3 9 1
12 -5 8 -7 -5 -11 12 -12 48 0 30 4 57 10 60 5 4 6 11 3 17 -4 7 0 7 12 0 11
-5 25 -7 33 -4 7 2 18 -2 23 -9 8 -11 9 -10 4 4 -4 14 1 17 24 17 19 0 29 -5
28 -12 -4 -16 73 -12 83 3 3 6 6 28 7 51 2 50 7 56 33 39 26 -16 40 -4 16 13
-9 7 -17 18 -17 25 0 15 27 14 32 -1 3 -7 9 -8 19 -3 8 5 23 8 34 7 19 -2 19
-2 2 12 -15 12 -15 14 -3 19 9 4 18 2 21 -2 5 -9 14 -8 110 7 28 5 54 4 60 0
5 -4 16 -8 25 -8z m-2230 -80 c6 -11 8 -20 6 -20 -3 0 -10 9 -16 20 -6 11 -8
20 -6 20 3 0 10 -9 16 -20z m-1260 -16 c0 -2 -13 -17 -29 -34 -18 -20 -31 -28
-35 -21 -4 6 -2 11 3 11 6 0 11 6 11 13 0 17 17 34 35 34 8 0 15 -2 15 -3z
m-133 -46 c-3 -8 -6 -5 -6 6 -1 11 2 17 5 13 3 -3 4 -12 1 -19z m1557 -3 c11
-8 18 -17 15 -19 -2 -2 -15 4 -28 15 -27 22 -15 26 13 4z m-1520 -33 c-7 -25
-22 -29 -30 -7 -7 18 16 49 27 38 5 -5 6 -18 3 -31z m393 -72 c1 -14 -5 -20
-20 -21 -12 -1 -29 -2 -38 -3 -9 -1 -25 -8 -35 -18 -11 -9 -41 -18 -69 -21
-27 -3 -44 -3 -36 0 11 4 11 7 0 13 -8 6 0 11 24 15 21 4 40 11 43 16 3 5 18
9 33 9 21 0 88 21 96 30 1 0 1 -9 2 -20z m-1030 -108 c-14 -18 -19 -9 -11 24
6 25 8 26 14 9 4 -11 3 -26 -3 -33z m28 -237 c1 -42 -4 -116 -12 -163 -8 -48
-12 -96 -9 -107 5 -19 4 -19 -8 -2 -15 19 -31 174 -22 204 3 10 8 34 11 53 3
19 10 39 16 45 5 5 9 20 9 34 0 13 3 22 6 18 4 -3 8 -40 9 -82z m1225 65 c0
-11 5 -20 12 -20 6 0 8 -3 5 -7 -4 -3 2 -12 13 -20 24 -17 27 -38 4 -29 -9 4
-23 -2 -32 -14 -10 -11 -30 -22 -46 -24 -16 -3 -34 -10 -40 -16 -13 -13 -49
-13 -97 2 -42 12 -47 19 -26 37 9 7 24 8 44 2 32 -9 60 0 49 17 -3 6 0 13 6
15 10 4 9 8 -2 16 -13 9 -13 11 3 11 9 0 17 5 17 10 0 6 6 10 14 10 7 0 19 7
26 15 18 22 50 19 50 -5z m-440 -82 c5 -13 16 -50 26 -83 9 -33 21 -65 26 -72
5 -7 5 -14 -1 -17 -6 -4 2 -24 19 -49 25 -37 27 -43 12 -49 -27 -11 -39 -9
-62 10 -23 18 -23 19 -4 47 16 25 17 28 3 23 -13 -5 -19 3 -28 35 -7 28 -7 43
0 46 5 1 3 8 -6 15 -21 15 -27 116 -8 116 8 0 18 -10 23 -22z m3962 -97 c-2
-8 3 -11 12 -8 12 5 13 1 6 -19 -13 -32 -12 -37 0 -29 6 3 10 -5 10 -19 0 -20
-4 -24 -17 -19 -16 6 -16 5 -5 -10 12 -14 12 -19 -2 -32 -9 -9 -16 -21 -16
-27 0 -6 -8 -16 -17 -23 -13 -9 -16 -26 -15 -71 3 -82 -11 -112 -57 -120 l-36
-7 34 -9 c40 -11 117 -61 183 -119 37 -33 56 -42 95 -45 26 -3 54 -11 62 -19
47 -47 -117 -144 -178 -106 -17 11 -41 3 -41 -12 0 -30 -50 -59 -159 -93 -196
-61 -315 -101 -349 -119 -33 -17 -35 -34 -4 -36 12 0 9 -4 -8 -11 -39 -17 -49
-17 -59 -1 -13 24 -144 3 -229 -37 -37 -18 -98 -43 -137 -55 -172 -57 -402
-142 -450 -169 -16 -9 -37 -16 -45 -17 -10 0 -9 -3 5 -10 17 -8 17 -9 -5 -5
-38 8 -70 -4 -70 -25 0 -13 -10 -20 -37 -25 -21 -4 -43 -11 -50 -16 -7 -5 -21
-7 -32 -3 -14 4 -21 1 -24 -12 -10 -39 -6 37 9 177 15 136 13 381 -2 446 -5
19 0 23 43 33 43 9 201 50 488 125 272 72 738 156 861 156 101 0 123 13 81 47
-34 28 -57 68 -63 115 -9 61 -5 152 6 156 6 2 8 8 4 13 -9 15 6 49 22 49 8 0
13 3 13 8 -3 20 7 23 89 20 67 -2 86 -6 84 -17z m-4716 -84 c-9 -23 -14 -31
-11 -17 2 14 5 41 5 60 1 29 2 32 11 17 8 -13 6 -29 -5 -60z m514 -8 c0 -6 6
-9 14 -6 9 4 16 -3 19 -18 3 -18 -2 -29 -19 -40 -13 -9 -24 -12 -24 -7 0 4 -9
8 -20 8 -11 0 -20 -4 -20 -8 0 -18 -16 -7 -17 12 -1 11 3 20 9 20 6 0 6 6 -2
15 -10 13 -9 15 11 15 19 0 21 2 9 10 -12 8 -9 10 13 10 15 0 27 -5 27 -11z
m-467 -175 c-6 -16 -7 -16 -13 2 -10 26 0 52 12 31 4 -8 5 -23 1 -33z m1127
-35 c0 -20 -5 -29 -16 -29 -11 0 -14 5 -10 16 3 9 6 25 6 35 0 11 5 17 10 14
6 -3 10 -19 10 -36z m-90 27 c0 -3 -4 -8 -10 -11 -5 -3 -10 -1 -10 4 0 6 5 11
10 11 6 0 10 -2 10 -4z m48 -64 c3 -37 1 -42 -17 -42 -13 0 -21 -7 -21 -16 0
-9 -9 -18 -19 -21 -11 -3 -21 -12 -23 -20 -4 -19 -125 -66 -134 -52 -4 6 -11
6 -20 -2 -11 -9 -18 -9 -26 -1 -6 6 -16 8 -23 6 -13 -5 -55 40 -55 58 0 6 11
3 25 -6 22 -14 25 -15 25 -1 0 18 5 18 30 5 14 -7 20 -6 24 6 5 12 14 15 34
11 22 -5 30 -1 38 16 6 16 17 21 37 20 20 -1 27 3 27 17 0 24 17 35 34 21 11
-9 15 -5 20 20 4 22 11 30 23 27 13 -2 19 -15 21 -46z m42 -21 c0 -5 -6 -14
-14 -20 -12 -10 -13 -8 -9 8 5 21 23 30 23 12z m-1137 -36 c-7 -21 -13 -19
-13 6 0 11 4 18 10 14 5 -3 7 -12 3 -20z m887 15 c0 -5 -2 -10 -4 -10 -3 0 -8
5 -11 10 -3 6 -1 10 4 10 6 0 11 -4 11 -10z m204 -29 c7 -10 -22 -37 -30 -28
-9 8 3 37 15 37 5 0 12 -4 15 -9z m35 -18 c-21 -28 -61 -63 -72 -63 -5 0 3 10
19 22 16 12 35 30 42 40 7 10 16 18 19 18 3 0 -1 -8 -8 -17z m-94 -73 c-3 -5
-13 -10 -21 -10 -8 0 -12 5 -9 10 3 6 13 10 21 10 8 0 12 -4 9 -10z m-60 -20
c-3 -5 -21 -10 -38 -9 -27 0 -29 2 -12 9 28 12 57 12 50 0z m-1275 -245 c0 -2
-10 -9 -22 -15 -22 -11 -22 -10 -4 4 21 17 26 19 26 11z m-42 -70 c-3 -3 -9 2
-12 12 -6 14 -5 15 5 6 7 -7 10 -15 7 -18z m1853 -242 c-12 -20 -14 -14 -5 12
4 9 9 14 11 11 3 -2 0 -13 -6 -23z m-20 -50 c-12 -20 -14 -14 -5 12 4 9 9 14
11 11 3 -2 0 -13 -6 -23z m-1755 -30 c-10 -10 -19 5 -10 18 6 11 8 11 12 0 2
-7 1 -15 -2 -18z m29 18 c-3 -5 3 -12 12 -14 14 -4 13 -5 -4 -6 -23 -1 -30 9
-16 22 9 10 15 8 8 -2z m18 -59 c-18 -5 -27 3 -18 17 4 7 10 7 20 -2 11 -10
11 -13 -2 -15z m1620 -107 c-21 -38 -59 -91 -85 -119 -52 -55 -52 -55 -111 12
-59 66 -68 85 -10 23 49 -53 62 -63 81 -57 23 8 95 103 131 174 13 24 24 42
27 40 2 -3 -13 -36 -33 -73z m3234 35 c40 -24 51 -61 29 -95 -18 -28 -79 -44
-100 -26 -8 7 -33 11 -55 10 -44 -3 -64 13 -76 60 -8 33 12 51 71 60 78 13 97
12 131 -9z m-3357 -231 c0 8 3 12 6 9 3 -4 0 -16 -6 -28 -11 -20 -10 -21 9
-10 31 16 57 -2 55 -37 -2 -40 -3 -43 -13 -43 -5 0 -6 10 -3 22 5 21 4 21 -20
-5 -26 -27 -27 -28 -47 -10 -25 21 -27 46 -6 63 9 8 13 21 10 34 -5 17 -4 18
4 6 9 -12 11 -13 11 -1z m873 -337 c10 -9 15 -23 11 -34 -8 -27 2 -22 26 15
l21 32 -6 -40 c-3 -22 -7 -76 -9 -120 -4 -67 -42 -324 -62 -415 -5 -22 -7 -23
-15 -8 -7 12 -5 27 6 47 8 17 15 43 15 58 -1 27 -1 27 -16 8 -9 -12 -24 -19
-36 -17 -11 2 -25 -2 -30 -10 -7 -10 -8 -9 -4 5 3 11 0 17 -9 17 -7 0 -17 5
-21 11 -4 8 1 9 17 4 21 -7 22 -6 7 9 -9 9 -21 16 -27 16 -11 0 -12 2 -16 35
-1 12 -7 30 -14 42 -6 12 -11 42 -11 66 0 31 -5 47 -15 51 -8 3 -15 13 -15 22
0 9 -8 23 -17 30 -15 10 -16 15 -5 25 19 20 14 37 -10 41 -42 6 -23 33 52 76
110 63 142 68 183 34z m-1210 -236 c9 -1 20 -5 23 -9 4 -4 18 -7 31 -7 13 0
23 -3 23 -8 0 -14 63 -35 99 -32 20 1 52 3 73 4 20 0 34 5 31 9 -3 5 10 8 28
7 19 -2 50 4 70 13 49 22 162 18 190 -7 17 -14 20 -25 16 -58 -3 -22 1 -65 9
-96 11 -40 12 -57 3 -62 -7 -5 -5 -9 6 -13 9 -4 13 -3 10 2 -3 5 -1 12 5 16 6
4 8 11 5 16 -4 5 1 12 10 16 19 7 37 -15 30 -34 -2 -7 0 -15 6 -19 6 -3 8 -12
5 -20 -7 -18 22 -30 36 -16 13 13 52 -4 43 -18 -3 -5 -1 -11 4 -15 15 -9 11
-85 -5 -85 -7 0 -25 -11 -40 -25 -15 -14 -34 -23 -41 -21 -7 3 -34 -4 -60 -15
-29 -12 -57 -18 -74 -14 -16 4 -30 1 -34 -5 -5 -9 0 -10 16 -6 20 6 18 3 -6
-11 -16 -9 -33 -16 -37 -15 -5 1 -8 -3 -8 -9 0 -6 -9 -8 -20 -4 -11 4 -20 2
-20 -4 0 -6 5 -11 12 -11 6 0 8 -3 5 -7 -4 -3 2 -16 14 -29 17 -19 20 -31 16
-88 -2 -36 -2 -68 1 -71 3 -3 7 -19 9 -36 3 -28 20 -77 44 -121 16 -31 10 -56
-22 -83 -31 -25 -56 -29 -52 -6 3 13 -49 11 -59 -3 -7 -10 -62 -11 -78 -1 -5
3 -10 18 -10 32 0 22 -3 24 -27 18 -30 -7 -82 -45 -82 -60 -1 -6 -15 -22 -31
-35 -17 -14 -38 -32 -47 -40 -19 -17 -41 -22 -49 -9 -3 5 -16 6 -28 3 -16 -4
-25 0 -30 11 -3 9 -10 13 -16 10 -5 -3 -10 1 -10 9 0 9 -8 16 -19 16 -22 0
-31 19 -31 63 0 24 -3 28 -10 17 -8 -12 -10 -10 -10 10 0 20 -2 22 -10 10 -17
-26 -12 21 5 54 14 25 14 27 0 16 -8 -7 -15 -19 -15 -28 0 -8 -3 -12 -7 -9 -3
4 -12 2 -20 -4 -7 -6 -13 -8 -13 -4 0 4 8 14 18 21 14 11 14 13 2 14 -9 0 -4
9 14 24 l30 23 -28 7 c-24 6 -27 10 -21 35 3 16 2 32 -4 35 -11 7 -4 36 9 36
5 0 11 -8 13 -17 3 -13 5 -10 6 7 l2 25 14 -25 c8 -14 14 -21 15 -17 0 5 13 0
30 -9 23 -14 27 -21 18 -32 -17 -20 9 -33 41 -20 14 6 51 10 82 9 34 -1 77 6
110 18 30 10 68 21 84 24 17 3 37 8 45 11 10 4 21 -3 31 -20 l16 -27 1 44 c0
30 -6 51 -20 66 -19 20 -19 23 -4 39 22 21 16 38 -15 43 -13 1 -27 7 -30 13
-9 14 -76 13 -129 -1 -25 -7 -75 -11 -112 -9 -37 2 -65 2 -63 -1 8 -7 -16 -31
-31 -31 -7 0 -16 9 -19 20 -4 11 -10 18 -15 15 -5 -3 -12 10 -15 29 -4 19 -15
43 -26 55 -23 24 -24 35 -3 27 9 -3 12 -2 9 5 -4 5 -16 7 -28 4 -21 -6 -21 -5
2 13 26 21 40 15 54 -18 4 -11 6 -9 6 5 1 35 -11 65 -23 58 -6 -4 -5 1 3 10 9
11 10 17 2 17 -6 0 -11 12 -11 26 0 14 -4 23 -10 19 -6 -4 -10 5 -10 19 0 16
-5 25 -12 24 -21 -5 -23 118 -3 125 8 4 15 1 15 -6 0 -8 4 -6 10 3 13 21 12
33 -2 24 -8 -5 -9 -2 -5 10 4 10 7 22 7 27 0 5 7 9 15 9 17 0 20 16 4 25 -7 5
-5 13 6 25 14 15 14 18 0 30 -17 14 -21 35 -5 25 6 -3 10 1 10 10 0 11 6 14
23 10 13 -4 31 -7 40 -9z m-83 -55 c0 -4 -3 -11 -7 -15 -5 -4 -8 -11 -9 -14 0
-4 -6 -18 -13 -32 -11 -24 -11 -23 -6 9 3 18 5 42 5 52 0 12 5 16 15 13 8 -4
15 -9 15 -13z m-325 -15 c15 -6 16 -9 6 -15 -11 -7 -11 -16 -3 -39 7 -22 7
-42 0 -68 -6 -25 -6 -50 1 -77 5 -23 8 -44 5 -48 -3 -5 2 -23 9 -41 8 -18 11
-42 7 -52 -4 -12 2 -36 16 -63 13 -24 19 -43 13 -43 -5 0 -3 -10 6 -23 21 -33
31 -113 15 -132 -10 -12 -16 -13 -39 0 -14 7 -42 27 -61 44 l-35 31 43 -19
c23 -10 45 -21 49 -24 12 -12 22 -7 17 8 -4 8 -12 15 -19 15 -8 0 -17 9 -20
20 -3 11 -15 20 -26 20 -15 0 -19 7 -19 33 0 18 -5 38 -11 44 -6 6 -11 32 -12
59 -2 32 -12 66 -30 98 -32 58 -33 59 -6 51 18 -6 19 -4 10 13 -6 11 -8 22 -5
24 3 3 -5 22 -17 42 -25 42 -33 106 -14 106 7 0 15 9 18 19 3 13 15 21 38 23
37 4 36 4 64 -6z m249 -172 c21 -21 20 -30 -1 -13 -15 12 -16 12 -8 -6 14 -35
17 -72 6 -79 -14 -9 -27 22 -30 72 -2 44 7 52 33 26z m36 -123 c0 -17 5 -33
10 -36 17 -11 11 -44 -10 -55 -25 -13 -27 2 -3 26 17 16 16 17 -20 10 -31 -6
-36 -4 -31 9 4 10 13 13 27 9 18 -6 19 -3 14 30 -3 20 -2 36 4 36 5 0 9 -13 9
-29z m920 -41 c0 -5 -4 -10 -10 -10 -5 0 -10 5 -10 10 0 6 5 10 10 10 6 0 10
-4 10 -10z m125 -140 c3 -5 -3 -10 -15 -10 -12 0 -18 5 -15 10 3 6 10 10 15
10 5 0 12 -4 15 -10z m-1397 -55 c-3 -3 -9 2 -12 12 -6 14 -5 15 5 6 7 -7 10
-15 7 -18z m1415 10 c4 -8 2 -17 -4 -20 -5 -4 -12 1 -15 9 -3 9 -10 14 -14 11
-5 -3 -11 -1 -15 5 -4 6 4 10 18 10 14 0 27 -7 30 -15z m-246 -35 c-30 -24
-59 -27 -51 -6 6 15 24 23 58 25 16 1 15 -2 -7 -19z m238 -19 c5 -11 1 -11
-13 2 -10 9 -24 17 -31 17 -7 0 -9 4 -6 10 7 12 42 -8 50 -29z m-62 18 c29
-16 38 -30 31 -51 -3 -11 0 -18 9 -18 19 0 40 -47 24 -54 -9 -3 -9 -7 2 -14 9
-7 10 -12 2 -16 -6 -4 -9 -11 -6 -16 3 -5 0 -12 -7 -17 -7 -4 -18 -17 -24 -28
-8 -14 -20 -19 -38 -17 -14 1 -26 -2 -26 -8 0 -12 -72 -13 -85 -1 -6 5 -26 11
-45 13 -19 1 -40 10 -47 18 -7 8 -13 12 -13 8 0 -4 -11 -1 -25 6 -14 7 -39 12
-55 10 -18 -2 -30 1 -30 8 0 6 3 9 6 5 3 -3 17 5 30 18 27 27 30 37 10 29 -7
-3 -21 6 -30 20 -10 16 -12 26 -5 26 6 0 9 6 6 14 -5 11 13 15 91 18 92 4 113
9 172 43 30 18 27 18 53 4z m-698 -39 c3 -5 -7 -12 -22 -16 -15 -3 -41 -9 -58
-14 -16 -5 -43 -11 -59 -15 -26 -6 -28 -5 -16 10 29 35 139 60 155 35z m-550
-110 c15 0 25 -6 25 -14 0 -13 -6 -13 -45 1 -25 8 -45 19 -45 23 0 5 -3 16 -6
25 -4 11 3 7 19 -9 14 -14 37 -26 52 -26z m375 14 c0 -2 -7 -4 -15 -4 -8 0
-15 4 -15 10 0 5 7 7 15 4 8 -4 15 -8 15 -10z m232 4 c-7 -7 -33 -13 -57 -13
-23 0 -41 -3 -38 -7 2 -5 -1 -8 -6 -8 -6 0 -11 5 -11 10 0 15 39 29 85 29 31
1 37 -1 27 -11z m-557 -136 c20 -82 68 -198 95 -232 l21 -25 -13 30 c-6 17
-17 37 -23 45 -12 16 -42 86 -55 132 -5 14 -4 50 0 80 l9 53 -2 -55 c-1 -58
18 -130 34 -130 6 0 22 -12 36 -27 17 -16 28 -22 31 -14 2 6 -8 21 -22 32 -38
30 -56 71 -56 126 0 58 8 73 38 70 20 -1 33 -27 15 -27 -18 0 -30 -47 -19 -69
11 -19 14 -20 31 -7 18 13 21 12 35 -13 8 -16 23 -44 34 -62 19 -34 19 -34 -1
-16 -11 9 -22 15 -25 12 -3 -3 -13 4 -23 15 -10 11 -25 20 -33 20 -10 0 -7 -7
9 -25 13 -13 29 -25 35 -25 33 0 114 -124 114 -174 0 -17 -83 -13 -113 7 -31
20 -44 22 -25 4 32 -32 65 -47 101 -47 25 0 40 -5 44 -16 5 -13 7 -13 14 -2 7
10 9 10 9 0 0 -7 11 -29 24 -50 12 -20 26 -50 29 -67 3 -16 10 -50 15 -75 5
-25 22 -83 37 -130 19 -59 28 -109 30 -165 2 -84 9 -108 82 -250 37 -72 179
-312 195 -330 15 -16 -30 84 -51 114 -10 14 -26 44 -35 66 -10 22 -24 52 -32
66 -7 14 -11 29 -7 33 3 3 2 6 -4 6 -14 0 -24 26 -30 73 -3 26 -1 37 7 32 5
-3 8 -10 5 -15 -3 -5 -1 -11 5 -15 5 -3 10 3 10 14 0 11 -4 22 -9 25 -5 3 -7
15 -4 27 5 16 12 20 33 17 27 -4 27 -3 13 18 -9 15 -11 24 -4 29 17 10 13 25
-6 18 -12 -5 -14 -3 -8 7 6 10 4 12 -8 7 -9 -3 -19 -2 -22 3 -4 6 -1 10 6 10
8 0 6 7 -5 19 -16 18 -16 19 9 23 14 3 30 -1 37 -9 6 -8 17 -12 25 -9 7 3 13
0 13 -5 0 -7 11 -9 25 -7 13 3 26 1 27 -4 2 -5 11 -10 19 -11 20 -3 53 -35 55
-54 4 -22 14 -29 14 -10 0 10 4 17 10 17 5 0 7 -6 4 -14 -3 -8 3 -16 16 -19
11 -3 19 -11 18 -19 -2 -8 4 -12 16 -10 35 6 104 -21 115 -45 7 -15 19 -23 33
-22 15 1 18 3 7 6 -9 2 -19 15 -22 29 -3 20 0 24 19 24 13 0 24 5 24 10 0 6
-10 10 -22 10 -12 0 -18 3 -15 6 3 4 2 15 -4 25 -7 15 -6 19 5 19 8 0 18 -5
21 -10 5 -7 11 -8 18 -1 8 6 18 5 30 -4 15 -11 15 -14 2 -25 -8 -7 -15 -17
-15 -23 0 -5 9 -2 20 8 18 17 20 17 20 1 0 -9 -7 -19 -15 -22 -8 -4 -16 -18
-16 -33 -1 -15 -3 -19 -6 -9 -8 31 -30 28 -29 -3 1 -23 5 -29 18 -25 10 2 21
0 24 -5 3 -5 -1 -9 -8 -9 -7 0 0 -7 17 -16 16 -8 37 -21 45 -29 8 -7 26 -16
40 -20 22 -7 23 -6 11 9 -14 17 -5 21 18 7 7 -5 10 -14 7 -20 -4 -6 0 -11 8
-11 19 0 20 5 6 31 -6 11 -7 19 -3 18 22 -4 31 3 38 28 3 15 14 33 23 41 9 7
11 11 5 7 -27 -13 -12 12 17 28 30 18 32 17 34 -18 1 -13 7 -19 19 -19 19 2
23 -11 7 -21 -6 -4 -8 -11 -4 -16 3 -5 9 -7 13 -4 5 2 7 -6 6 -18 -4 -35 37
-51 65 -25 25 23 36 17 45 -23 5 -24 10 -28 20 -19 12 10 13 6 5 -18 -6 -24
-5 -30 6 -25 7 3 13 8 12 11 -2 20 4 23 18 11 11 -9 17 -10 23 -1 4 7 17 9 36
3 23 -5 31 -15 35 -37 l6 -29 19 43 c16 35 24 42 46 42 16 0 32 -7 37 -16 5
-9 13 -15 18 -15 12 1 25 -47 14 -54 -5 -3 -24 4 -43 15 l-35 21 -16 -23 c-9
-12 -16 -27 -16 -33 0 -5 5 -3 10 5 8 13 10 13 10 -1 0 -9 -7 -23 -16 -30 -13
-11 -17 -10 -25 4 -13 23 -25 21 -25 -3 0 -11 6 -20 13 -20 17 0 16 -15 -2
-30 -12 -10 -15 -9 -16 6 0 16 -2 15 -10 -4 -5 -13 -6 -29 -3 -35 3 -7 -4 -1
-15 13 -23 28 -28 21 -9 -13 7 -12 11 -33 10 -47 -2 -22 -1 -23 8 -7 13 21 30
22 30 2 0 -8 -5 -15 -11 -15 -5 0 -7 -4 -4 -10 8 -12 16 -12 35 0 12 8 12 11
-1 27 -18 21 -23 63 -7 63 15 0 37 31 38 53 0 9 5 17 11 17 5 0 7 -5 3 -12 -4
-7 -3 -8 4 -4 7 4 12 2 12 -3 0 -6 -4 -11 -10 -11 -5 0 -10 -11 -10 -25 0 -15
-6 -25 -14 -25 -15 0 -28 -24 -19 -34 4 -3 15 -6 25 -6 10 0 18 -4 18 -10 0
-6 9 -6 26 0 46 18 129 12 149 -10 10 -11 22 -17 26 -14 5 3 9 -6 9 -19 0 -29
-33 -73 -60 -82 -11 -4 -20 -10 -20 -15 0 -5 7 -7 15 -4 8 4 15 1 15 -7 0 -7
3 -10 6 -6 10 9 102 -42 123 -69 26 -33 44 -90 38 -115 -4 -13 4 -31 23 -52
24 -27 30 -29 44 -18 26 22 17 115 -10 104 -12 -4 -13 -1 -3 19 8 19 7 33 -5
61 -22 53 -11 46 18 -12 14 -26 28 -71 32 -100 4 -32 11 -51 20 -51 18 0 30
23 15 28 -11 4 -11 6 0 14 11 7 11 11 2 15 -7 2 -13 11 -13 19 0 9 5 12 10 9
6 -4 10 17 10 57 0 42 3 58 9 48 6 -8 7 -18 5 -22 -3 -4 2 -8 10 -8 8 0 18 9
21 20 4 11 11 18 16 14 6 -3 8 -12 5 -19 -2 -7 2 -16 11 -19 10 -4 13 -2 10 8
-3 8 1 22 8 33 13 17 14 16 15 -9 0 -17 5 -28 14 -28 7 0 19 -7 26 -15 10 -12
8 -16 -11 -24 -19 -7 -25 -5 -31 9 -5 13 -14 16 -33 13 -33 -7 -31 -40 3 -35
12 2 22 -2 22 -8 0 -7 -7 -10 -15 -6 -17 6 -35 -22 -35 -53 0 -14 6 -21 19
-21 11 0 25 -2 33 -3 7 -2 10 -2 6 0 -15 9 -8 40 13 59 12 10 23 18 25 17 15
-10 22 5 27 62 6 60 1 88 -28 170 -6 18 -4 17 14 -3 27 -31 43 -93 43 -161 0
-56 19 -60 21 -5 1 16 8 35 14 42 7 7 13 22 13 32 0 11 9 24 21 30 19 11 20
10 8 -12 -17 -30 -39 -89 -39 -107 0 -8 9 -3 20 12 11 14 20 31 20 39 0 7 8
18 18 23 10 6 39 25 65 44 38 29 44 37 36 53 -11 21 9 26 28 7 15 -15 34 -3
26 16 -3 9 1 15 10 15 33 0 26 -20 -17 -45 -24 -14 -50 -33 -58 -42 -11 -14
-9 -14 20 1 18 9 55 20 83 23 33 4 49 10 49 20 0 8 -4 12 -9 8 -10 -6 -26 13
-18 21 8 8 47 -20 47 -33 0 -9 17 -13 48 -14 26 -1 61 -5 77 -10 19 -5 -6 -7
-70 -4 -55 2 -94 2 -87 -1 14 -7 16 -34 2 -34 -5 0 -13 8 -19 17 -9 16 -12 16
-66 -1 -31 -10 -59 -25 -62 -34 -4 -9 -18 -32 -31 -49 -26 -36 -20 -42 16 -17
16 11 34 14 55 10 18 -4 55 -8 82 -9 55 -4 104 -21 106 -37 1 -5 2 -13 3 -17
1 -5 16 -22 34 -40 30 -30 38 -55 32 -107 -1 -11 3 -15 9 -12 14 9 14 81 1
107 -10 17 -7 19 30 19 35 0 42 -4 51 -27 20 -50 -29 -173 -80 -205 -11 -6
-17 -18 -14 -25 3 -7 -2 -13 -10 -13 -17 0 -40 24 -30 33 3 4 -3 7 -15 7 -12
0 -22 5 -22 10 0 6 4 10 9 10 13 0 23 97 15 158 -5 38 -11 56 -23 59 -9 2 -25
18 -36 34 -16 24 -25 29 -45 24 -14 -3 -33 -6 -42 -6 -10 0 -18 -4 -18 -10 0
-5 -4 -9 -10 -9 -5 0 -10 9 -10 21 0 14 -4 18 -12 12 -7 -4 -15 -8 -18 -8 -46
-7 -71 -19 -66 -32 4 -10 2 -13 -8 -10 -10 4 -13 1 -9 -9 3 -9 -2 -14 -16 -14
-17 0 -21 6 -21 30 0 17 4 30 9 30 11 0 64 80 57 87 -8 8 -53 -42 -61 -67 -7
-23 -21 -26 -28 -7 -3 6 -3 -3 0 -20 3 -21 1 -33 -5 -33 -6 0 -9 -7 -6 -15 3
-8 9 -14 12 -13 21 2 32 -4 32 -17 0 -8 -7 -15 -15 -15 -8 0 -15 -4 -15 -10 0
-5 -7 -7 -15 -3 -9 3 -15 2 -13 -3 1 -5 -4 -20 -11 -33 -10 -18 -15 -21 -22
-10 -4 7 -4 18 0 24 23 29 19 42 -11 40 l-30 -2 22 17 c19 14 20 18 7 23 -19
7 -62 -30 -72 -61 -4 -13 -2 -29 5 -37 11 -13 8 -14 -19 -9 -25 5 -30 4 -26
-8 4 -9 -1 -18 -10 -22 -17 -6 -54 -80 -55 -109 0 -14 4 -16 19 -7 26 14 38
13 23 -2 -18 -18 -15 -27 8 -21 22 6 28 -12 8 -20 -8 -3 -6 -6 5 -6 9 -1 17 5
17 12 0 9 3 8 9 -2 10 -16 114 -17 119 -1 2 5 12 10 23 10 10 0 19 3 19 8 0
15 68 7 79 -10 15 -23 8 -26 -111 -43 -145 -21 -162 -27 -166 -56 -2 -15 -17
-33 -40 -48 -46 -30 -25 -41 23 -11 32 20 35 20 60 4 24 -15 24 -17 8 -30 -10
-7 -25 -14 -33 -14 -8 -1 -1 -6 15 -12 35 -12 75 -46 75 -64 0 -7 -9 -19 -20
-27 -12 -8 -20 -21 -18 -28 2 -8 -7 -15 -21 -17 -20 -3 -22 -8 -17 -35 l6 -31
-34 40 c-28 31 -35 35 -36 20 0 -19 -1 -18 -21 3 -17 18 -23 20 -31 9 -7 -9
-8 -7 -5 9 3 15 1 20 -9 16 -8 -3 -14 1 -14 8 0 12 -15 4 -15 -9 -1 -4 -4 -20
-8 -35 -4 -15 -4 -33 0 -40 4 -7 6 -25 4 -41 -2 -20 1 -26 9 -21 9 5 10 1 5
-14 -5 -16 -3 -20 8 -15 11 4 17 -5 22 -35 4 -25 12 -41 21 -41 9 0 14 -12 14
-35 0 -19 -4 -35 -9 -35 -10 0 -3 -71 8 -80 3 -3 6 -25 7 -49 1 -38 -1 -42
-12 -27 -7 10 -15 45 -19 79 -4 34 -16 77 -27 95 -11 18 -24 48 -28 65 -5 18
-16 59 -24 91 -23 82 -20 193 5 207 21 11 26 39 7 39 -9 0 -9 3 0 12 8 8 16 6
30 -12 12 -15 24 -20 31 -15 10 6 11 9 1 15 -10 6 -9 22 2 74 15 64 15 66 -3
50 -10 -9 -17 -20 -14 -23 2 -4 0 -13 -4 -20 -7 -10 -18 -7 -52 14 -49 30 -99
74 -99 87 0 4 16 8 36 8 33 0 34 1 19 16 -11 12 -13 20 -5 29 8 9 3 15 -19 25
-25 10 -36 9 -76 -9 -46 -20 -65 -20 -65 0 0 5 7 9 16 9 13 0 72 30 94 47 2 2
-2 8 -10 13 -13 8 -12 10 2 10 9 0 20 -4 23 -10 3 -5 21 -10 38 -10 27 1 30 2
16 13 -9 7 -14 18 -11 26 3 8 0 11 -7 7 -6 -4 -11 0 -12 11 0 16 -1 16 -9 -2
-7 -17 -10 -14 -28 25 -12 25 -27 45 -34 45 -7 0 -13 9 -13 20 0 13 -6 19 -18
17 -9 -2 -17 3 -17 11 0 13 -80 57 -105 57 -8 0 -19 -10 -26 -21 -9 -17 -13
-19 -20 -8 -7 11 -10 9 -15 -9 -6 -22 -10 -23 -55 -17 -51 7 -93 -1 -84 -16 4
-5 19 -9 35 -9 16 0 41 -5 57 -12 15 -6 53 -13 83 -15 30 -2 65 -10 78 -19 12
-8 26 -12 31 -10 14 9 32 -20 25 -39 -5 -12 -13 -15 -28 -10 -11 4 -37 9 -56
12 -63 7 -80 13 -80 26 0 8 -19 12 -57 13 -54 0 -220 17 -253 25 -12 3 -17
-14 -25 -81 l-10 -85 45 -19 c25 -10 66 -21 93 -23 42 -5 47 -3 47 15 0 11 14
33 32 49 17 15 45 42 61 60 17 18 34 30 39 27 4 -3 8 -23 8 -45 0 -47 16 -57
61 -39 28 12 32 11 55 -13 13 -14 24 -30 24 -34 0 -14 -51 -52 -95 -70 -41
-17 -65 -45 -65 -78 0 -13 -48 -59 -69 -67 -6 -1 -8 -13 -5 -25 4 -13 11 -20
20 -16 16 6 19 -13 3 -22 -10 -7 -44 31 -44 49 0 5 -10 12 -21 17 -19 6 -21 5
-16 -14 2 -12 9 -28 15 -34 6 -9 6 -13 -1 -13 -6 0 -13 4 -17 9 -3 5 -21 7
-40 4 -28 -4 -35 -2 -35 10 0 9 -4 19 -10 22 -16 10 -12 -22 5 -39 8 -8 15
-19 15 -25 0 -17 -18 -13 -30 7 -8 12 -13 13 -16 5 -10 -24 -19 -13 -20 22 -1
47 -20 67 -39 41 -9 -11 -20 -16 -31 -12 -9 3 -23 1 -31 -5 -19 -16 -25 -7
-17 25 4 16 13 26 25 26 20 0 39 28 32 48 -9 23 -20 12 -15 -14 4 -23 3 -25
-15 -16 -26 14 -47 0 -40 -27 3 -12 -1 -28 -10 -37 -14 -13 -17 -13 -32 1 -10
8 -23 15 -30 15 -9 0 -11 8 -7 26 6 23 4 25 -11 19 -54 -23 -70 -19 -97 28
-15 25 -33 51 -41 57 -18 15 -95 3 -95 -15 0 -7 -7 -16 -16 -19 -8 -3 -12 -2
-9 4 14 23 -14 7 -60 -35 -43 -39 -52 -43 -62 -29 -10 13 -12 13 -18 -5 -12
-40 -22 -25 -51 77 -2 6 -19 12 -39 12 -41 0 -48 -24 -15 -53 11 -9 20 -27 20
-39 0 -22 -7 -35 -62 -114 l-27 -39 19 -75 c30 -122 67 -243 83 -273 20 -37
51 -59 74 -51 12 4 14 3 6 -3 -10 -7 -10 -16 -1 -40 10 -26 9 -34 -5 -48 -9
-9 -17 -22 -17 -30 0 -7 -20 -21 -45 -30 -35 -14 -57 -16 -112 -9 -37 5 -77 7
-87 6 -11 -1 -22 2 -26 8 -3 5 -18 11 -33 12 -15 1 -27 6 -27 10 0 4 -7 8 -16
8 -20 0 -53 75 -59 137 l-5 48 20 -43 c19 -41 47 -78 54 -71 2 2 9 14 15 27
17 33 31 27 31 -14 0 -31 3 -35 18 -29 30 13 92 14 124 3 26 -9 33 -8 44 7 8
11 10 24 5 34 -5 9 -7 21 -4 27 2 6 -3 17 -12 24 -8 7 -15 21 -15 32 0 11 -6
29 -12 41 -17 29 -40 117 -37 142 2 25 2 87 -1 120 -2 13 -9 30 -16 36 -8 6
-14 18 -14 26 0 21 -24 10 -29 -13 -1 -10 -10 -27 -20 -37 -9 -11 -23 -40 -31
-65 -14 -43 -17 -47 -45 -45 -16 2 -31 7 -33 13 -7 20 -20 10 -14 -12 4 -15 2
-19 -7 -13 -8 4 -23 -3 -39 -18 -34 -31 -90 -60 -102 -52 -21 13 -9 57 23 87
17 17 24 28 15 25 -15 -5 -15 -4 0 24 15 26 15 31 2 39 -30 19 -59 9 -119 -42
-34 -28 -61 -54 -61 -57 0 -3 10 -12 22 -20 19 -12 23 -11 35 5 12 17 13 16
13 -5 0 -13 4 -20 11 -16 11 7 38 -22 39 -42 0 -18 -58 -33 -145 -35 -77 -3
-80 -2 -83 20 -3 19 -8 23 -24 18 -15 -3 -9 5 18 27 21 18 47 40 56 50 10 9
21 17 24 17 8 0 96 71 111 90 7 8 13 25 13 37 0 16 8 24 28 29 43 9 49 12 25
13 -12 1 -25 6 -29 12 -5 8 1 10 20 7 14 -3 26 -4 26 -2 0 2 -28 18 -62 34
-80 39 -123 35 -163 -16 -15 -19 -36 -34 -46 -34 -10 0 -19 -6 -19 -12 0 -26
-20 17 -20 44 0 28 43 88 65 88 7 0 18 6 24 14 6 7 32 19 57 26 31 9 43 17 40
27 -4 11 -1 11 15 2 19 -10 20 -9 9 10 -16 31 -6 25 22 -11 29 -38 49 -92 27
-70 -19 18 -29 15 -29 -10 0 -16 11 -28 36 -40 42 -22 61 -24 46 -5 -6 7 -12
26 -14 42 -2 17 -6 32 -9 35 -3 3 -20 27 -38 53 -22 32 -38 46 -47 43 -36 -14
-89 55 -82 106 3 20 9 23 45 24 50 2 68 -15 65 -58 -2 -29 38 -114 62 -130 6
-4 26 -8 45 -8 l34 0 -6 60 c-3 32 -2 74 2 92 5 25 3 37 -10 50 -10 9 -20 14
-23 10 -3 -3 -6 1 -6 10 0 21 47 45 61 31 8 -8 18 -4 34 15 13 15 27 24 31 19
4 -4 -2 -17 -14 -30 -40 -43 -64 -125 -60 -202 5 -87 42 -173 64 -150 8 7 15
24 16 37 3 26 36 40 54 23 7 -5 11 -12 9 -15 -2 -3 3 -16 11 -30 l13 -25 2 30
c1 17 1 33 0 37 0 4 -3 55 -6 115 -3 59 -8 115 -10 123 -3 8 2 41 9 73 l14 59
-27 -5 c-14 -2 -34 -8 -43 -12 -25 -10 -23 18 3 47 11 13 31 39 43 58 15 25
35 39 66 50 25 8 53 25 63 38 10 12 23 19 29 16 7 -4 8 -2 4 4 -5 9 -14 7 -31
-4 -24 -16 -24 -15 -55 53 -18 37 -38 84 -45 103 -22 62 -106 182 -198 282
-78 87 -87 100 -77 119 10 19 10 20 -8 10 -17 -9 -24 -6 -45 22 -99 130 -147
295 -314 1073 -5 22 -4 22 40 7 44 -15 45 -16 62 -81z m13 23 c0 -16 -2 -15
-8 5 -4 14 -8 36 -8 50 0 22 1 22 8 -5 4 -16 8 -39 8 -50z m950 -7 c19 -19 14
-34 -13 -46 -33 -15 -48 -15 -39 0 5 8 2 9 -9 5 -16 -6 -16 -4 -2 23 16 31 42
39 63 18z m501 -112 c-7 -42 -17 -76 -21 -76 -4 0 -8 33 -8 74 0 63 3 75 18
78 9 3 18 3 20 2 2 -1 -2 -36 -9 -78z m-199 -65 c0 -64 -12 -111 -27 -111 -9
0 -13 -6 -9 -15 4 -10 -5 -20 -27 -29 -18 -8 -25 -15 -17 -15 12 -1 13 -3 1
-10 -8 -5 -10 -14 -5 -22 13 -22 13 -59 0 -71 -7 -7 -11 -21 -8 -31 3 -12 -2
-20 -15 -23 -11 -3 -26 -17 -33 -30 -8 -13 -17 -24 -21 -24 -5 0 -5 -8 -2 -17
5 -12 2 -15 -9 -10 -10 3 -19 0 -22 -9 -3 -8 0 -14 6 -14 6 0 9 -2 7 -4 -2 -2
-7 -4 -11 -3 -3 1 -15 -10 -27 -24 -17 -22 -28 -26 -71 -26 -27 0 -56 -5 -63
-11 -10 -8 -16 -6 -25 9 -15 24 -32 25 -33 2 -1 -16 -2 -17 -6 -1 -2 10 -10
15 -19 11 -8 -3 -14 1 -14 10 0 9 -13 18 -30 22 -17 4 -45 19 -62 35 -17 16
-37 26 -45 23 -13 -5 -13 -2 -4 15 14 26 14 32 0 32 -5 0 -7 -4 -4 -10 3 -5 2
-10 -4 -10 -13 0 -30 32 -24 47 6 16 -33 5 -49 -15 -10 -12 -10 -14 0 -8 14 9
31 -29 24 -56 -4 -15 -6 -15 -19 -3 -19 19 -34 19 -27 0 4 -9 0 -15 -10 -15
-9 0 -16 6 -16 14 0 15 -18 33 -39 38 -19 4 -66 50 -74 72 -4 9 -13 16 -22 16
-8 0 -15 7 -15 16 0 8 4 13 9 10 12 -8 0 37 -12 45 -6 4 -5 14 2 25 6 11 11
14 11 7 0 -14 62 -74 69 -68 2 3 -3 13 -13 24 -12 13 -15 27 -10 45 3 14 8 26
9 26 15 0 35 -15 35 -26 0 -12 12 -18 32 -16 3 1 13 -14 22 -33 10 -19 19 -35
22 -35 5 0 34 64 34 74 0 2 -10 2 -22 -2 -15 -4 -19 -2 -13 7 10 17 58 7 147
-30 60 -26 78 -30 117 -23 29 5 39 9 26 12 -11 2 -31 9 -45 14 -24 10 -23 11
20 23 25 7 66 20 93 29 46 15 47 14 37 -4 -5 -10 -19 -22 -30 -25 -11 -3 -20
-10 -20 -15 0 -10 67 5 84 19 9 8 16 8 20 2 3 -5 -7 -15 -24 -23 -16 -7 -30
-16 -30 -20 0 -5 -7 -8 -15 -8 -8 0 -25 -5 -38 -12 -49 -25 -58 -28 -101 -29
-40 -2 -43 -4 -33 -21 7 -10 15 -18 19 -18 3 0 14 -7 22 -16 10 -10 16 -11 16
-3 0 9 4 8 15 -1 8 -7 15 -9 15 -4 0 4 5 3 11 -3 21 -21 149 22 135 46 -2 3 2
12 10 19 8 7 14 10 14 6 0 -8 49 43 51 54 1 4 9 12 17 18 12 9 12 13 2 19 -10
6 -9 9 1 16 12 8 11 11 -1 19 -12 8 -12 10 -1 10 10 0 12 8 8 30 -4 19 -2 30
5 30 6 0 8 3 5 7 -11 10 14 33 35 33 14 0 18 5 14 16 -4 10 -1 14 6 12 14 -5
15 -9 17 -58 0 -16 6 -30 12 -30 6 0 9 9 6 20 -3 12 1 33 9 48 8 15 14 38 14
51 0 20 2 21 15 11 8 -7 15 -29 15 -49z m-628 32 c18 -20 10 -49 -12 -48 -8 1
-21 -3 -29 -9 -7 -6 -25 -11 -40 -13 -14 -1 -20 0 -13 3 6 3 12 13 12 22 0 19
38 62 55 62 7 0 19 -8 27 -17z m288 -81 c0 -10 -56 -28 -113 -37 -25 -4 -37
-3 -33 4 4 5 28 13 54 17 26 3 54 10 62 15 19 11 30 11 30 1z m-63 -98 c-10
-10 -110 -23 -122 -15 -11 6 30 15 90 19 22 2 36 0 32 -4z m1503 -439 c-47
-18 -65 -19 -49 -2 6 6 28 13 48 14 l36 2 -35 -14z m-1912 -76 c-3 -8 -7 -3
-11 10 -4 17 -3 21 5 13 5 -5 8 -16 6 -23z m142 -119 c0 -5 -7 -10 -16 -10 -8
0 -12 5 -9 10 3 6 10 10 16 10 5 0 9 -4 9 -10z m1577 -292 c-3 -8 -6 -5 -6 6
-1 11 2 17 5 13 3 -3 4 -12 1 -19z m-438 -34 c6 -6 -27 -34 -41 -34 -4 0 -8
11 -8 24 0 20 4 24 21 21 12 -3 24 -7 28 -11z m-1 -61 c-4 -22 -22 -20 -26 1
-2 10 3 16 13 16 10 0 15 -7 13 -17z m-16 -38 c0 -5 -5 -11 -11 -13 -6 -2 -11
4 -11 13 0 9 5 15 11 13 6 -2 11 -8 11 -13z m918 -71 c0 -8 -4 -12 -10 -9 -5
3 -10 10 -10 16 0 5 5 9 10 9 6 0 10 -7 10 -16z m-165 -94 c3 -5 1 -10 -4 -10
-6 0 -11 5 -11 10 0 6 2 10 4 10 3 0 8 -4 11 -10z m285 -40 c0 -5 -4 -10 -9
-10 -6 0 -13 5 -16 10 -3 6 1 10 9 10 9 0 16 -4 16 -10z m-110 -20 c0 -5 -7
-7 -15 -4 -10 4 -15 0 -15 -10 0 -9 10 -20 22 -25 18 -7 19 -8 4 -14 -10 -4
-19 -1 -23 9 -3 8 -12 13 -19 10 -24 -9 -16 28 9 40 23 11 37 9 37 -6z m-510
-10 c0 -5 -4 -10 -10 -10 -5 0 -10 5 -10 10 0 6 5 10 10 10 6 0 10 -4 10 -10z
m644 -19 c3 -5 15 -7 26 -4 11 3 20 0 20 -6 0 -6 -4 -11 -10 -12 -42 -5 -55
-2 -58 14 -4 18 13 24 22 8z m-84 -16 c0 -8 -4 -15 -9 -15 -13 0 -22 16 -14
24 11 11 23 6 23 -9z m-380 -5 c0 -5 -4 -10 -10 -10 -5 0 -10 5 -10 10 0 6 5
10 10 10 6 0 10 -4 10 -10z m390 -75 c0 -8 5 -15 11 -15 5 0 7 -4 4 -10 -3 -5
-1 -10 6 -10 20 0 -7 -23 -31 -27 -12 -2 -20 3 -20 12 0 8 7 15 15 15 20 0 19
16 -1 24 -8 3 -12 10 -9 16 9 15 25 12 25 -5z m100 -6 c0 -5 -7 -9 -15 -9 -9
0 -12 6 -9 15 6 15 24 11 24 -6z m-225 1 c-3 -5 -10 -10 -16 -10 -5 0 -9 5 -9
10 0 6 7 10 16 10 8 0 12 -4 9 -10z m41 -19 c14 11 14 -7 1 -28 -5 -8 -3 -13
7 -13 8 0 17 6 20 13 3 6 3 2 0 -10 -4 -17 -1 -20 13 -17 11 3 26 -3 36 -14
17 -19 17 -20 -3 -25 -16 -4 -20 -2 -16 8 8 21 -10 27 -25 9 -21 -25 -98 -66
-114 -60 -8 3 -27 -7 -43 -24 -47 -46 -77 -35 -75 28 1 6 -5 12 -13 12 -8 0
-14 7 -14 15 0 8 2 15 4 15 2 0 12 3 21 7 14 5 16 2 11 -13 -11 -38 8 -44 42
-13 18 16 28 29 22 29 -16 0 -12 35 8 57 9 11 26 19 36 17 11 -1 27 1 35 6 10
5 20 5 25 0 6 -6 14 -5 22 1z m143 -60 c9 -16 8 -18 -9 -14 -21 5 -25 15 -13
26 9 10 11 9 22 -12z m-419 -53 c0 -18 -2 -20 -9 -8 -6 8 -7 18 -5 22 9 14 14
9 14 -14z m410 7 c0 -8 5 -15 12 -15 6 0 9 -2 6 -5 -3 -3 -13 -3 -22 1 -17 7
-22 34 -6 34 6 0 10 -7 10 -15z m-1206 -58 c-22 -48 -54 -91 -54 -74 0 12 34
85 52 110 31 43 32 26 2 -36z m1176 16 c0 -13 -3 -14 -11 -6 -6 6 -18 9 -27 6
-10 -4 -13 -2 -8 5 11 18 46 14 46 -5z m-1085 -3 c3 -5 -1 -10 -9 -10 -9 0
-16 5 -16 10 0 6 4 10 9 10 6 0 13 -4 16 -10z m280 0 c3 -5 1 -10 -4 -10 -6 0
-11 5 -11 10 0 6 2 10 4 10 3 0 8 -4 11 -10z m45 -2 c0 -4 -4 -8 -9 -8 -6 0
-12 4 -15 8 -3 5 1 9 9 9 8 0 15 -4 15 -9z m700 -8 c0 -18 -3 -19 -21 -9 -17
9 -19 13 -8 20 22 14 29 11 29 -11z m-283 -22 c-3 -8 -6 -5 -6 6 -1 11 2 17 5
13 3 -3 4 -12 1 -19z m29 -25 c-11 -11 -19 6 -11 24 8 17 8 17 12 0 3 -10 2
-21 -1 -24z m134 27 c0 -5 -9 -10 -19 -10 -11 0 -23 5 -26 10 -4 6 5 10 19 10
14 0 26 -4 26 -10z m210 -13 c0 -22 -26 -52 -34 -39 -10 17 -26 15 -26 -3 0
-8 5 -15 10 -15 6 0 10 -4 10 -10 0 -5 -8 -10 -19 -10 -19 0 -38 42 -21 48 5
2 6 10 3 18 -6 17 9 18 26 2 10 -11 14 -10 22 5 12 20 29 23 29 4z m21 -122
c-6 -50 -18 -53 -15 -5 2 63 4 74 13 65 4 -6 6 -32 2 -60z m-790 -59 c17 -14
27 -26 23 -26 -4 0 1 -9 11 -20 10 -11 23 -20 29 -19 30 4 76 -2 76 -9 0 -5
-20 -9 -44 -11 -48 -2 -86 15 -86 38 0 18 -75 8 -134 -18 -23 -10 -63 -21 -88
-25 -44 -7 -46 -6 -56 23 -13 36 -6 43 75 77 75 32 149 28 194 -10z m-289
-108 c-20 -20 -36 5 -20 31 l13 21 9 -20 c6 -14 5 -25 -2 -32z m-335 -73 c-10
-18 -11 -18 -15 -2 -2 9 -12 17 -23 17 -21 0 -24 11 -8 27 9 9 17 8 34 -5 19
-14 21 -20 12 -37z m333 51 c0 -3 -4 -8 -10 -11 -5 -3 -10 -1 -10 4 0 6 5 11
10 11 6 0 10 -2 10 -4z m-617 -21 c8 -19 -3 -25 -38 -21 -36 4 -44 23 -13 29
41 8 46 7 51 -8z m212 -12 c0 -6 3 -15 8 -19 4 -4 7 -13 7 -21 0 -7 -3 -13 -7
-13 -8 0 -33 48 -33 63 0 5 6 7 13 5 6 -3 12 -10 12 -15z m524 -42 c-13 -38
-5 -52 16 -25 8 10 15 14 15 7 0 -7 12 -19 27 -26 l27 -14 -22 -12 c-18 -10
-23 -9 -28 4 -3 8 -11 15 -16 15 -6 0 -8 -7 -5 -15 4 -8 2 -17 -4 -21 -6 -3
-7 -19 -4 -35 6 -24 3 -29 -13 -29 -24 0 -37 -26 -16 -34 19 -7 18 -26 -1 -26
-13 0 -12 -6 5 -37 22 -41 19 -53 -15 -53 -18 0 -22 4 -18 20 3 11 2 20 -3 20
-15 0 -44 -34 -44 -52 0 -16 -3 -17 -20 -8 -11 6 -20 17 -20 24 0 7 -9 21 -20
31 -20 18 -20 17 -20 -12 0 -17 7 -36 15 -43 19 -16 3 -40 -26 -40 -19 0 -23
9 -20 42 2 13 -3 16 -14 12 -8 -4 -14 -11 -13 -18 4 -14 -11 -16 -39 -5 -14 5
-23 17 -23 30 0 26 31 67 48 61 6 -2 12 3 12 12 0 17 -24 12 -51 -10 -13 -12
-19 -11 -37 6 -12 12 -22 25 -22 31 0 6 -4 8 -9 5 -9 -6 -25 23 -17 31 8 9 46
-22 41 -34 -3 -9 5 -13 24 -13 30 0 34 10 25 67 -3 18 -8 32 -12 30 -13 -4
-84 71 -78 81 3 6 -5 17 -19 26 -25 17 -33 36 -15 36 6 0 10 -6 10 -14 0 -10
9 -14 28 -13 18 1 27 -3 28 -13 1 -8 2 -21 3 -29 1 -10 10 -6 31 14 26 25 30
26 36 11 4 -11 -1 -24 -15 -37 -24 -23 -30 -49 -6 -29 13 10 15 9 15 -11 0
-13 5 -31 10 -39 8 -13 11 -13 26 1 16 17 11 65 -6 54 -5 -3 -11 -1 -14 4 -3
5 8 14 26 20 40 14 43 14 28 -4 -8 -9 -9 -15 -2 -15 18 0 24 18 13 39 -6 11
-19 18 -28 17 -10 -2 -13 -1 -7 1 7 2 10 12 7 22 -6 24 26 37 34 13 6 -17 38
-52 48 -52 3 0 4 5 3 12 -2 6 8 17 22 25 14 7 21 13 16 13 -6 0 -4 6 3 13 10
10 16 7 31 -13 l20 -25 0 25 c1 23 2 24 14 8 14 -19 32 -25 21 -8 -9 14 5 34
16 23 6 -6 5 -22 -2 -42z m-579 35 c0 -3 -4 -8 -10 -11 -5 -3 -10 -1 -10 4 0
6 5 11 10 11 6 0 10 -2 10 -4z m298 -8 c-2 -6 -10 -14 -16 -16 -7 -2 -10 2 -6
12 7 18 28 22 22 4z m-144 -50 c9 -33 8 -38 -9 -38 -7 0 -19 -8 -25 -17 -9
-14 -10 -9 -5 22 10 61 27 75 39 33z m-94 -19 c0 -6 -7 -9 -15 -5 -8 3 -15 1
-15 -5 0 -6 -7 -9 -15 -5 -10 3 -15 -1 -15 -13 0 -23 -32 -23 -42 -1 -14 30
-7 36 47 38 35 1 55 -2 55 -9z m1180 -31 c25 -52 25 -95 1 -131 l-19 -29 0 49
c0 29 -8 66 -20 91 -11 23 -17 42 -12 42 4 0 10 -7 14 -15 3 -8 10 -15 16 -15
7 0 8 6 0 19 -11 21 -13 31 -5 31 2 0 14 -19 25 -42z m-313 -10 c-3 -8 -6 -5
-6 6 -1 11 2 17 5 13 3 -3 4 -12 1 -19z m-877 -23 c0 -8 -6 -15 -14 -15 -8 0
-17 -7 -20 -16 -3 -8 -10 -12 -16 -9 -17 11 -11 24 18 39 34 19 32 19 32 1z
m149 -11 c6 -15 9 -29 6 -33 -9 -8 -46 39 -39 50 9 16 20 10 33 -17z m451 -3
c0 -6 -4 -13 -10 -16 -5 -3 -10 1 -10 9 0 9 5 16 10 16 6 0 10 -4 10 -9z
m-488 -43 c-15 -15 -26 -4 -18 18 5 13 9 15 18 6 9 -9 9 -15 0 -24z m452 -16
c-15 -23 -7 -47 11 -32 9 8 17 6 30 -7 17 -16 17 -18 -4 -27 -12 -5 -21 -14
-20 -20 4 -31 -2 -47 -13 -40 -10 6 -10 4 0 -7 17 -18 15 -29 -4 -29 -13 0
-15 7 -10 30 3 17 1 30 -4 30 -5 0 -7 7 -4 15 4 8 1 22 -6 30 -7 9 -9 22 -5
32 5 10 7 22 6 27 -1 5 1 16 4 24 4 12 8 13 18 3 8 -8 9 -16 1 -29z m-344 18
c0 -5 -2 -10 -4 -10 -3 0 -8 5 -11 10 -3 6 -1 10 4 10 6 0 11 -4 11 -10z
m-390 -21 c0 -5 -9 -9 -20 -9 -13 0 -18 5 -14 14 6 15 34 11 34 -5z m-720 -89
c-4 -46 -9 -69 -14 -59 -4 9 -5 36 -2 60 3 24 5 55 5 69 1 13 5 20 9 15 5 -6
5 -44 2 -85z m910 74 c0 -8 -5 -12 -10 -9 -6 4 -8 11 -5 16 9 14 15 11 15 -7z
m120 2 c0 -16 -18 -31 -27 -22 -8 8 5 36 17 36 5 0 10 -6 10 -14z m-380 -35
c0 -24 -21 -62 -31 -55 -8 4 -8 9 0 17 6 6 11 19 11 29 0 10 5 18 10 18 6 0
10 -4 10 -9z m70 -31 c0 -12 -3 -12 -16 2 -9 9 -13 21 -9 28 9 14 25 -5 25
-30z m290 5 c0 -28 -17 -34 -27 -9 -3 9 0 20 8 25 19 12 19 12 19 -16z m-40
-1 c0 -8 -4 -12 -10 -9 -5 3 -10 10 -10 16 0 5 5 9 10 9 6 0 10 -7 10 -16z
m-375 -52 c-3 -8 0 -12 7 -10 21 7 36 -16 39 -64 3 -33 1 -44 -8 -41 -13 5
-17 -6 -14 -38 1 -9 -6 -19 -15 -23 -21 -8 -20 -9 -28 34 -5 23 -4 30 2 21 8
-11 11 -11 18 0 4 7 3 14 -4 17 -13 4 -16 38 -4 45 4 2 1 2 -7 0 -10 -2 -12 4
-8 25 4 18 0 37 -9 51 -8 11 -12 26 -8 32 9 15 45 -31 39 -49z m295 48 c0 -5
-4 -10 -10 -10 -5 0 -10 5 -10 10 0 6 5 10 10 10 6 0 10 -4 10 -10z m630 -25
c0 -8 -7 -15 -15 -15 -16 0 -20 12 -8 23 11 12 23 8 23 -8z m-988 -27 c-9 -9
-12 -7 -12 12 0 19 3 21 12 12 9 -9 9 -15 0 -24z m-37 12 c3 -5 -1 -10 -9 -10
-9 0 -16 5 -16 10 0 6 4 10 9 10 6 0 13 -4 16 -10z m425 2 c0 -13 -12 -22 -22
-16 -10 6 -1 24 13 24 5 0 9 -4 9 -8z m176 -17 c-3 -9 -11 -13 -16 -10 -8 5
-7 11 1 21 14 18 24 11 15 -11z m-704 -7 c-7 -7 -12 -8 -12 -2 0 6 3 14 7 17
3 4 9 5 12 2 2 -3 -1 -11 -7 -17z m338 -13 c0 -8 -9 -19 -20 -25 -11 -6 -20
-8 -20 -4 0 3 -7 1 -15 -6 -13 -10 -15 -9 -15 9 0 11 5 21 11 21 6 0 17 7 26
15 16 17 33 12 33 -10z m813 13 c15 13 27 6 27 -15 0 -10 -6 -12 -20 -8 -12 4
-20 2 -20 -5 0 -12 -49 20 -50 32 0 4 11 3 25 -4 18 -8 28 -8 38 0z m-43 -38
c0 -19 -11 -26 -23 -14 -8 8 3 34 14 34 5 0 9 -9 9 -20z m-450 -10 c0 -5 -7
-10 -15 -10 -8 0 -15 5 -15 10 0 6 7 10 15 10 8 0 15 -4 15 -10z m115 0 c3 -5
-1 -10 -9 -10 -9 0 -16 5 -16 10 0 6 4 10 9 10 6 0 13 -4 16 -10z m-597 -28
c2 -7 -3 -12 -12 -12 -9 0 -16 7 -16 16 0 17 22 14 28 -4z m714 3 c0 -5 -5
-11 -11 -13 -6 -2 -11 4 -11 13 0 9 5 15 11 13 6 -2 11 -8 11 -13z m-62 -20
c0 -10 10 -15 34 -15 19 0 37 -6 40 -12 5 -10 7 -10 12 0 7 15 30 16 39 2 8
-13 -34 -49 -55 -50 -9 0 -22 -6 -30 -12 -8 -7 -7 -4 3 8 23 28 22 34 -8 34
-14 0 -25 5 -25 10 0 6 -6 10 -12 10 -22 0 -41 17 -34 29 10 16 36 13 36 -4z
m-455 -9 c12 -12 12 -16 0 -26 -10 -8 -11 -18 -4 -36 14 -37 11 -57 -6 -50 -8
3 -22 -3 -31 -12 -16 -16 -16 -17 -1 -20 10 -2 17 -13 17 -26 0 -12 6 -31 14
-42 10 -13 11 -23 4 -31 -17 -21 -27 -15 -45 22 -10 21 -24 35 -35 35 -20 0
-24 15 -8 25 6 4 8 10 5 14 -2 5 8 22 24 38 21 22 27 38 26 64 -2 30 9 59 22
59 2 0 11 -6 18 -14z m-225 -16 c0 -11 -7 -20 -15 -20 -13 0 -14 4 -5 20 6 11
13 20 15 20 3 0 5 -9 5 -20z m270 0 c0 -11 -4 -20 -10 -20 -5 0 -10 9 -10 20
0 11 5 20 10 20 6 0 10 -9 10 -20z m-135 -10 c-3 -5 -10 -10 -16 -10 -5 0 -9
5 -9 10 0 6 7 10 16 10 8 0 12 -4 9 -10z m485 -9 c6 -12 17 -17 28 -14 25 6
38 -35 14 -44 -9 -4 -18 -1 -20 5 -2 7 -8 12 -13 12 -4 0 -6 -6 -3 -14 3 -8
-5 -21 -18 -30 -26 -18 -42 -21 -33 -6 4 6 1 17 -5 25 -14 17 -5 35 18 35 14
0 13 2 -3 13 -19 15 -13 37 10 37 8 0 19 -9 25 -19z m-450 -1 c0 -5 -5 -10
-11 -10 -5 0 -7 5 -4 10 3 6 8 10 11 10 2 0 4 -4 4 -10z m-147 -34 c-3 -14
-12 -27 -20 -30 -12 -5 -14 -1 -10 14 3 13 0 20 -9 20 -8 0 -14 5 -14 10 0 6
13 10 29 10 25 0 28 -3 24 -24z m2054 0 c-5 -16 -27 -19 -27 -3 0 7 7 14 15
14 9 0 14 -5 12 -11z m-2097 -42 c0 -15 -10 -17 -34 -8 -19 7 -21 30 -3 37 15
6 37 -11 37 -29z m1240 16 c0 -5 -4 -10 -10 -10 -5 0 -10 5 -10 10 0 6 5 10
10 10 6 0 10 -4 10 -10z m-1280 -55 c0 -3 -9 -5 -20 -5 -15 0 -20 7 -20 25 l0
25 20 -20 c11 -11 20 -22 20 -25z m176 18 c-10 -10 -19 5 -10 18 6 11 8 11 12
0 2 -7 1 -15 -2 -18z m594 17 c0 -6 -7 -13 -15 -16 -8 -4 -15 -12 -15 -20 0
-8 7 -14 15 -14 10 0 15 -10 15 -30 0 -16 -4 -30 -10 -30 -5 0 -10 5 -10 11 0
5 -11 26 -24 45 -19 29 -25 32 -30 18 -5 -14 -9 -15 -19 -5 -9 9 -7 16 13 31
27 21 80 27 80 10z m-625 -10 c3 -5 1 -10 -5 -10 -7 0 -9 -8 -5 -19 3 -12 0
-21 -10 -25 -9 -3 -15 0 -15 11 0 12 -3 13 -15 3 -8 -7 -13 -16 -10 -20 3 -5
-4 -15 -16 -23 -13 -9 -16 -17 -10 -22 19 -11 12 -27 -9 -20 -15 5 -18 3 -14
-9 3 -9 1 -16 -5 -16 -6 0 -8 -6 -5 -14 4 -11 0 -13 -15 -9 -25 6 -24 5 -9 38
10 21 9 27 -7 39 -23 17 -4 30 31 22 13 -4 24 -2 24 3 0 5 7 17 16 25 9 9 11
16 4 16 -6 0 -8 5 -5 10 4 6 15 8 26 5 13 -4 19 -2 19 9 0 18 25 22 35 6z
m435 -6 c0 -17 -22 -14 -28 4 -2 7 3 12 12 12 9 0 16 -7 16 -16z m-280 -20 c0
-17 -22 -14 -28 4 -2 7 3 12 12 12 9 0 16 -7 16 -16z m320 6 c0 -5 -7 -10 -16
-10 -8 0 -12 5 -9 10 3 6 10 10 16 10 5 0 9 -4 9 -10z m-580 -26 c0 -8 -4 -12
-10 -9 -5 3 -10 13 -10 21 0 8 5 12 10 9 6 -3 10 -13 10 -21z m326 19 c-10
-11 -37 -12 -30 -2 3 5 12 9 21 9 9 0 13 -3 9 -7z m59 -12 c3 -5 1 -12 -5 -16
-5 -3 -10 1 -10 9 0 18 6 21 15 7z m143 -21 c7 -11 17 -20 23 -20 6 0 17 -6
25 -14 18 -18 30 -76 16 -76 -5 0 -13 -11 -16 -25 -12 -47 -69 -20 -59 28 5
25 7 26 18 11 14 -20 45 -12 45 10 0 9 -11 23 -25 32 -13 9 -27 24 -30 34 -4
11 -12 17 -21 13 -8 -3 -14 1 -14 11 0 22 23 20 38 -4z m262 5 c0 -8 -9 -15
-20 -15 -20 0 -26 11 -13 23 12 13 33 7 33 -8z m-866 -31 c-4 -15 -2 -24 6
-24 6 0 8 -5 5 -11 -9 -14 -34 20 -35 48 0 16 4 21 15 17 10 -4 13 -14 9 -30z
m686 26 c0 -5 -4 -10 -10 -10 -5 0 -10 5 -10 10 0 6 5 10 10 10 6 0 10 -4 10
-10z m-500 -27 c0 -33 9 -47 34 -56 10 -4 16 -10 13 -14 -4 -3 -2 -12 4 -20
15 -17 -6 -44 -27 -36 -10 4 -12 0 -8 -11 4 -10 0 -18 -10 -22 -11 -4 -16 -18
-16 -44 0 -22 -5 -40 -13 -43 -16 -6 -44 52 -31 62 19 13 45 61 32 59 -8 -2
-13 7 -13 22 0 22 4 25 29 22 28 -3 29 -3 14 20 -21 32 -33 88 -19 88 6 0 11
-12 11 -27z m44 -25 c-11 -18 -34 -7 -34 17 0 24 1 24 19 8 11 -9 18 -20 15
-25z m341 32 c3 -5 -1 -10 -9 -10 -9 0 -16 5 -16 10 0 6 4 10 9 10 6 0 13 -4
16 -10z m170 -20 c0 -8 -7 -16 -15 -17 -22 -4 -44 13 -35 26 10 17 50 9 50 -9z
m-581 -22 c-3 -5 -12 -4 -20 3 -19 16 -18 18 6 12 11 -3 17 -9 14 -15z m106
-3 c0 -8 -4 -15 -10 -15 -5 0 -10 7 -10 15 0 8 5 15 10 15 6 0 10 -7 10 -15z
m556 0 c14 -4 12 -9 -9 -31 -19 -19 -32 -24 -47 -19 -15 5 -26 1 -35 -12 -11
-14 -16 -16 -26 -5 -10 9 -10 12 -1 12 7 0 12 9 12 19 0 25 17 36 35 21 10 -9
15 -7 20 9 3 11 12 18 21 15 7 -2 21 -6 30 -9z m-258 -13 c2 -7 -2 -12 -9 -12
-7 0 -21 -7 -31 -17 -17 -15 -18 -15 -18 10 0 33 48 49 58 19z m-258 -31 c0
-5 3 -16 6 -25 4 -11 0 -16 -13 -16 -17 0 -23 20 -14 48 3 7 21 1 21 -7z m270
-11 c0 -5 -7 -10 -16 -10 -8 0 -12 5 -9 10 3 6 10 10 16 10 5 0 9 -4 9 -10z
m118 -42 c2 -9 -6 -18 -20 -21 -23 -7 -42 3 -20 10 6 3 12 11 12 20 0 19 24
11 28 -9z m-548 3 c0 -6 -4 -13 -10 -16 -5 -3 -10 1 -10 9 0 9 5 16 10 16 6 0
10 -4 10 -9z m335 -2 c11 -17 -1 -21 -15 -4 -8 9 -8 15 -2 15 6 0 14 -5 17
-11z m259 -14 c-10 -8 -23 -14 -29 -14 -5 0 -1 6 9 14 11 8 24 15 30 15 5 0 1
-7 -10 -15z m-384 -16 c0 -5 -7 -9 -15 -9 -15 0 -20 12 -9 23 8 8 24 -1 24
-14z m-120 -3 c0 -3 -4 -8 -10 -11 -5 -3 -10 -1 -10 4 0 6 5 11 10 11 6 0 10
-2 10 -4z m58 -19 c4 -20 -25 -34 -40 -19 -15 15 -2 41 19 38 10 -2 19 -10 21
-19z m332 19 c0 -3 -4 -8 -10 -11 -5 -3 -10 -1 -10 4 0 6 5 11 10 11 6 0 10
-2 10 -4z m-55 -16 c3 -5 1 -10 -4 -10 -6 0 -11 5 -11 10 0 6 2 10 4 10 3 0 8
-4 11 -10z m120 -1 c4 -6 5 -12 2 -15 -7 -7 -37 7 -37 17 0 13 27 11 35 -2z
m-480 -19 c-3 -5 -10 -10 -16 -10 -5 0 -9 5 -9 10 0 6 7 10 16 10 8 0 12 -4 9
-10z m425 6 c0 -2 -7 -9 -15 -16 -12 -10 -15 -10 -15 4 0 9 7 16 15 16 8 0 15
-2 15 -4z m-330 -41 c0 -10 -10 -15 -27 -15 -26 0 -26 1 -7 15 25 19 34 19 34
0z m150 1 c0 -2 -7 -7 -16 -10 -8 -3 -12 -2 -9 4 6 10 25 14 25 6z m469 -88
c1 -5 -3 -8 -7 -8 -4 0 -8 12 -9 28 -1 23 -1 24 7 7 5 -11 9 -23 9 -27z m26
-18 c-3 -5 -12 -10 -18 -10 -7 0 -6 4 3 10 19 12 23 12 15 0z m-40 -20 c-3 -5
-10 -10 -16 -10 -5 0 -9 5 -9 10 0 6 7 10 16 10 8 0 12 -4 9 -10z m-97 -82 c5
-7 9 -31 8 -52 -1 -30 -7 -44 -28 -59 -22 -17 -30 -18 -43 -7 -22 18 -21 106
3 119 23 14 48 13 60 -1z m587 -48 c3 -5 -3 -10 -14 -10 -11 0 -23 5 -26 10
-3 6 3 10 14 10 11 0 23 -4 26 -10z m-1815 -39 c-1 -13 -3 -13 -15 3 -19 26
-19 42 0 26 8 -7 15 -20 15 -29z m80 14 c0 -2 -9 -3 -19 -2 -11 0 -18 5 -15 9
4 6 34 0 34 -7z m1790 0 c-33 -19 -49 -19 -24 0 10 8 26 14 34 14 9 0 4 -6
-10 -14z m18 -45 c-2 -6 -8 -6 -18 0 -13 9 -13 11 0 20 15 10 25 0 18 -20z
m-1942 -7 c-6 -6 -36 9 -36 18 0 5 9 4 20 -3 10 -7 18 -14 16 -15z m73 -53 c0
-9 -4 -8 -9 5 -5 11 -9 27 -9 35 0 9 4 8 9 -5 5 -11 9 -27 9 -35z m1131 -145
c11 -13 9 -20 -10 -40 -12 -13 -19 -28 -15 -34 10 -17 -6 -13 -27 6 -23 20
-23 52 0 69 23 18 37 17 52 -1z m255 -225 c3 -5 -1 -10 -9 -10 -8 0 -19 -7
-24 -16 -11 -20 -27 -1 -18 21 6 17 42 20 51 5z m157 -103 c-12 -13 -22 -31
-22 -40 0 -25 -19 -20 -32 8 -6 14 -9 26 -7 28 2 2 17 13 33 25 39 29 60 13
28 -21z m-127 -69 c30 -13 34 -52 7 -67 -15 -8 -18 -6 -18 12 1 14 -4 21 -13
19 -17 -4 -53 27 -45 39 7 12 38 11 69 -3z m208 -40 c6 -23 -18 -78 -39 -91
-8 -4 -14 -17 -14 -27 0 -17 -5 -19 -37 -14 -21 3 -47 11 -58 16 -31 17 -47
48 -24 48 5 0 7 -4 4 -10 -3 -5 -1 -10 4 -10 6 0 11 9 11 19 0 14 5 18 21 14
15 -4 22 0 26 16 3 11 9 21 14 21 13 0 11 -14 -3 -28 -15 -15 -6 -24 16 -16 9
3 16 17 16 30 0 13 5 24 10 24 6 0 10 7 10 15 0 23 37 18 43 -7z m-113 -143
c6 3 10 1 10 -5 0 -6 5 -8 11 -4 7 4 10 1 7 -7 -3 -9 -15 -13 -32 -11 -25 3
-27 1 -21 -18 4 -14 3 -20 -3 -16 -5 3 -12 21 -14 40 -3 31 -2 33 14 25 10 -6
23 -7 28 -4z m74 -21 c3 -9 6 -23 6 -32 -1 -12 -5 -10 -15 8 -8 14 -14 28 -15
33 0 13 18 7 24 -9z m33 -16 c-3 -7 -5 -2 -5 12 0 14 2 19 5 13 2 -7 2 -19 0
-25z m20 -30 c-3 -8 -6 -5 -6 6 -1 11 2 17 5 13 3 -3 4 -12 1 -19z m-55 -18
c10 -10 13 -22 8 -25 -5 -3 -12 0 -15 5 -5 8 -13 6 -26 -6 -25 -22 -35 -11
-21 21 14 30 32 32 54 5z m-10 -85 c-7 -25 -9 -26 -15 -11 -4 10 -2 25 4 33
16 19 20 12 11 -22z m-85 -7 c-3 -8 -6 -5 -6 6 -1 11 2 17 5 13 3 -3 4 -12 1
-19z m173 12 c0 -5 -4 -10 -10 -10 -5 0 -10 5 -10 10 0 6 5 10 10 10 6 0 10
-4 10 -10z m-150 -65 c-8 -9 -8 -15 0 -18 6 -3 5 -4 -2 -3 -7 1 -14 12 -16 24
-3 17 1 20 13 16 11 -5 13 -10 5 -19z m149 -27 c0 7 6 10 11 7 18 -11 -10 -36
-34 -30 -12 3 -15 2 -8 -1 6 -3 12 -12 12 -20 0 -17 5 -17 31 -4 12 7 19 7 19
1 0 -5 -9 -13 -20 -16 -11 -3 -20 -13 -20 -21 0 -17 16 -19 23 -1 3 7 6 5 6
-5 1 -17 -9 -22 -36 -19 -7 1 -13 -3 -13 -9 0 -12 -47 -12 -75 0 -22 9 -16 12
33 12 17 0 32 5 32 10 0 5 5 6 10 3 6 -3 10 1 10 10 0 12 -5 15 -17 10 -45
-17 -103 -14 -103 7 0 5 5 6 10 3 6 -3 10 1 10 9 0 9 -6 16 -14 16 -8 0 -16 6
-19 14 -10 25 27 12 41 -14 7 -14 10 -17 8 -8 -8 28 15 33 34 7 l18 -23 -1 27
c-1 17 -10 30 -26 37 -33 15 -21 22 18 10 30 -8 34 -7 39 13 6 20 7 19 13 -8
4 -16 7 -24 8 -17z m71 -63 c0 -1 -9 -10 -19 -19 -19 -17 -19 -17 -16 1 2 10
4 21 4 25 1 6 31 0 31 -7z m12 -72 c-1 -4 7 -17 16 -27 16 -18 16 -19 -5 -14
-12 3 -22 3 -21 -1 3 -23 -5 -22 -27 4 -13 17 -24 25 -25 19 0 -6 7 -17 15
-24 16 -13 21 -60 7 -60 -14 0 -32 23 -32 41 0 19 -27 45 -37 36 -3 -4 0 -13
7 -22 22 -27 -1 -31 -23 -5 -12 14 -32 26 -45 27 -20 2 -22 -1 -16 -38 7 -43
1 -50 -16 -18 -9 16 -9 28 0 50 12 28 19 30 65 18 6 -1 23 3 40 10 17 7 44 10
63 6 26 -5 32 -3 26 7 -4 7 -4 10 0 6 4 -3 8 -10 8 -15z m-138 -68 c3 -8 1
-15 -4 -15 -6 0 -10 7 -10 15 0 8 2 15 4 15 2 0 6 -7 10 -15z m-105 -299 c-9
-8 -10 -7 -5 7 3 10 7 24 7 30 1 7 3 4 6 -7 3 -10 -1 -23 -8 -30z"/>
<path d="M5978 12543 c7 -3 16 -2 19 1 4 3 -2 6 -13 5 -11 0 -14 -3 -6 -6z"/>
<path d="M5915 12490 c-3 -6 1 -7 9 -4 18 7 21 14 7 14 -6 0 -13 -4 -16 -10z"/>
<path d="M5320 10686 c0 -2 9 -6 20 -9 11 -3 18 -1 14 4 -5 9 -34 13 -34 5z"/>
<path d="M7428 10443 c7 -3 16 -2 19 1 4 3 -2 6 -13 5 -11 0 -14 -3 -6 -6z"/>
<path d="M7237 10373 c-11 -12 -17 -13 -17 -5 0 7 -4 10 -10 7 -18 -11 -11
-32 16 -44 23 -10 26 -9 31 9 3 11 9 20 14 20 5 0 9 7 9 15 0 20 -22 19 -43
-2z"/>
<path d="M4716 8291 c-3 -5 1 -14 8 -20 12 -10 13 -8 9 8 -6 23 -9 25 -17 12z"/>
<path d="M4355 7760 c-3 -5 -1 -10 4 -10 6 0 11 5 11 10 0 6 -2 10 -4 10 -3 0
-8 -4 -11 -10z"/>
<path d="M4281 7504 c0 -11 3 -14 6 -6 3 7 2 16 -1 19 -3 4 -6 -2 -5 -13z"/>
<path d="M5113 7445 c0 -8 4 -12 9 -9 5 3 6 10 3 15 -9 13 -12 11 -12 -6z"/>
<path d="M4332 7250 c7 -11 16 -20 20 -20 5 0 8 9 8 20 0 13 -7 20 -20 20 -18
0 -19 -2 -8 -20z"/>
<path d="M4328 6973 c7 -3 16 -2 19 1 4 3 -2 6 -13 5 -11 0 -14 -3 -6 -6z"/>
<path d="M4288 6963 c7 -3 16 -2 19 1 4 3 -2 6 -13 5 -11 0 -14 -3 -6 -6z"/>
<path d="M4655 6960 c-3 -5 -2 -10 4 -10 5 0 13 5 16 10 3 6 2 10 -4 10 -5 0
-13 -4 -16 -10z"/>
<path d="M4727 6003 c-4 -3 -7 -11 -7 -17 0 -6 5 -5 12 2 6 6 9 14 7 17 -3 3
-9 2 -12 -2z"/>
<path d="M4650 5900 c0 -5 5 -10 10 -10 6 0 10 5 10 10 0 6 -4 10 -10 10 -5 0
-10 -4 -10 -10z"/>
<path d="M4965 5870 c3 -5 10 -10 16 -10 5 0 9 5 9 10 0 6 -7 10 -16 10 -8 0
-12 -4 -9 -10z"/>
<path d="M5185 5690 c-3 -5 1 -10 10 -10 9 0 13 5 10 10 -3 6 -8 10 -10 10 -2
0 -7 -4 -10 -10z"/>
<path d="M5643 5656 c22 -17 22 -26 -3 -26 -15 0 -20 -7 -20 -29 0 -30 15 -49
28 -36 4 4 1 10 -5 12 -22 8 -14 32 12 39 14 3 25 9 25 14 0 10 -35 40 -46 40
-5 0 -1 -7 9 -14z"/>
<path d="M5545 5520 c-3 -5 -1 -10 4 -10 6 0 11 5 11 10 0 6 -2 10 -4 10 -3 0
-8 -4 -11 -10z"/>
<path d="M5306 5434 c-4 -10 -2 -20 4 -24 5 -3 9 -29 9 -56 -1 -28 4 -61 11
-73 6 -13 9 -25 6 -28 -7 -8 24 -66 40 -76 8 -4 14 -17 14 -28 0 -11 7 -22 15
-25 21 -8 30 -39 34 -109 3 -48 10 -34 35 70 9 38 30 90 46 115 35 53 38 50
10 -8 -27 -56 -25 -70 6 -37 l26 28 19 -24 19 -24 0 31 c0 26 6 33 45 52 25
12 63 22 85 22 36 0 41 4 60 40 11 21 20 42 20 45 0 11 -28 4 -40 -10 -7 -9
-19 -14 -26 -11 -7 3 -15 0 -17 -7 -3 -8 -10 -6 -19 7 -12 15 -18 17 -36 7
-12 -6 -22 -8 -22 -4 0 4 -5 1 -10 -7 -7 -11 -10 -12 -10 -2 0 8 -9 25 -20 39
-11 14 -17 29 -14 34 3 5 0 9 -6 9 -8 0 -10 -14 -5 -42 l6 -43 -20 23 c-24 28
-45 29 -36 2 5 -14 -4 -35 -30 -70 -20 -28 -41 -50 -47 -50 -6 0 -8 -6 -5 -14
3 -8 -1 -17 -9 -20 -11 -4 -22 9 -39 47 -29 60 -32 92 -10 83 8 -3 15 -1 15 4
0 6 -7 10 -16 10 -8 0 -12 5 -9 10 3 6 1 10 -5 10 -7 0 -10 6 -7 14 3 8 0 17
-8 20 -8 3 -15 22 -17 43 -3 41 -30 58 -42 27z"/>
<path d="M5565 5440 c4 -6 11 -8 16 -5 14 9 11 15 -7 15 -8 0 -12 -5 -9 -10z"/>
<path d="M5515 5420 c-3 -6 1 -7 9 -4 18 7 21 14 7 14 -6 0 -13 -4 -16 -10z"/>
<path d="M5610 5422 c0 -4 4 -13 9 -20 7 -11 9 -11 14 1 3 9 -1 18 -9 21 -8 3
-14 2 -14 -2z"/>
<path d="M5423 5400 c3 -12 -1 -24 -11 -29 -13 -7 -11 -10 9 -17 39 -13 50
-13 46 -1 -2 7 3 17 12 24 10 8 11 12 4 13 -6 0 -15 -4 -18 -10 -9 -15 -25
-12 -25 5 0 8 8 15 18 16 14 0 14 2 -3 9 -31 13 -38 11 -32 -10z"/>
<path d="M5550 5410 c0 -5 5 -10 10 -10 6 0 10 5 10 10 0 6 -4 10 -10 10 -5 0
-10 -4 -10 -10z"/>
<path d="M5650 5400 c0 -5 5 -10 10 -10 6 0 10 5 10 10 0 6 -4 10 -10 10 -5 0
-10 -4 -10 -10z"/>
<path d="M5500 5386 c0 -9 5 -16 10 -16 6 0 10 4 10 9 0 6 -4 13 -10 16 -5 3
-10 -1 -10 -9z"/>
<path d="M5449 5317 c7 -7 14 -8 21 -1 6 6 2 10 -12 11 -16 2 -18 -1 -9 -10z"/>
<path d="M5420 5310 c0 -5 5 -10 11 -10 5 0 7 5 4 10 -3 6 -8 10 -11 10 -2 0
-4 -4 -4 -10z"/>
<path d="M5844 5285 c-4 -8 -13 -15 -21 -15 -20 0 23 -34 55 -44 21 -7 22 -5
17 21 -4 15 -8 34 -11 41 -5 17 -33 15 -40 -3z m16 -25 c0 -5 -4 -10 -10 -10
-5 0 -10 5 -10 10 0 6 5 10 10 10 6 0 10 -4 10 -10z"/>
<path d="M5160 5272 c0 -12 11 -49 24 -81 14 -36 20 -63 15 -68 -6 -6 19 -34
63 -71 68 -57 73 -60 79 -39 3 12 2 29 -2 38 -5 9 -7 18 -5 20 2 2 6 19 9 37
6 27 3 32 -12 32 -19 0 -36 25 -32 46 1 7 -5 14 -13 17 -8 3 -17 20 -21 38 -5
21 -10 27 -15 19 -4 -7 -4 -27 1 -44 12 -42 11 -46 -6 -40 -8 4 -15 1 -15 -5
0 -6 7 -11 15 -11 8 0 15 -4 15 -10 0 -5 -9 -10 -19 -10 -14 0 -23 11 -32 37
-7 21 -20 56 -30 78 -14 31 -19 35 -19 17z"/>
<path d="M5917 5263 c-4 -3 -7 -13 -7 -22 1 -13 3 -13 11 2 11 19 8 33 -4 20z"/>
<path d="M6251 5163 c0 -31 2 -34 9 -18 12 28 12 55 0 55 -5 0 -10 -17 -9 -37z"/>
<path d="M4890 5182 c0 -14 82 -87 118 -106 17 -9 39 -16 49 -16 22 -1 53 -23
53 -39 0 -6 -11 -11 -25 -11 -22 0 -24 -3 -21 -37 3 -35 -2 -43 -58 -97 -33
-32 -52 -55 -41 -50 11 4 43 9 71 12 68 5 147 -32 162 -78 10 -28 15 -30 59
-31 88 -2 96 2 64 34 -16 15 -25 18 -28 10 -6 -17 -23 -16 -23 1 0 7 -9 16
-21 19 -17 5 -20 12 -18 47 3 39 0 44 -51 90 -30 27 -48 49 -40 50 8 0 35 -20
60 -44 l45 -45 24 20 c13 10 21 25 18 33 -3 8 -1 16 5 18 6 2 8 10 4 16 -4 7
-16 10 -26 7 -13 -4 -23 3 -36 25 -10 16 -26 30 -36 30 -10 0 -17 6 -15 13 1
7 -10 12 -30 12 -17 0 -35 4 -40 9 -5 5 -3 6 5 2 16 -9 15 4 -3 28 -7 10 -18
15 -23 12 -14 -8 -43 4 -37 15 3 4 -14 17 -37 27 -52 24 -128 38 -128 24z
m222 -274 c-11 -11 -32 -3 -32 12 0 4 9 6 21 3 13 -4 17 -9 11 -15z m48 -18
c0 -5 -6 -10 -12 -10 -7 -1 -2 -7 12 -15 23 -13 23 -14 4 -15 -11 0 -29 7 -40
15 -16 13 -17 16 -4 25 19 13 40 13 40 0z"/>
<path d="M6800 5180 c0 -5 5 -10 11 -10 5 0 7 5 4 10 -3 6 -8 10 -11 10 -2 0
-4 -4 -4 -10z"/>
<path d="M4796 5161 c15 -14 54 -23 54 -13 0 11 -24 22 -48 22 -10 0 -12 -3
-6 -9z"/>
<path d="M4610 5140 c0 -5 5 -10 10 -10 6 0 10 5 10 10 0 6 -4 10 -10 10 -5 0
-10 -4 -10 -10z"/>
<path d="M4868 5117 c12 -7 20 -16 16 -19 -3 -4 -3 -12 1 -18 6 -9 10 -9 16 1
6 11 11 11 21 1 6 -6 19 -12 27 -12 30 0 -33 49 -69 55 -33 5 -34 4 -12 -8z"/>
<path d="M4635 5100 c-3 -5 -7 -49 -9 -97 -2 -48 -1 -72 1 -51 2 20 11 39 19
42 19 7 53 -14 47 -30 -3 -9 5 -12 25 -12 25 1 29 5 28 29 -1 22 -4 25 -15 16
-11 -10 -13 -8 -6 12 5 17 4 22 -6 18 -8 -2 -13 -9 -12 -14 1 -6 -8 -9 -20 -8
-12 1 -28 3 -34 4 -7 0 -13 6 -13 11 0 6 6 10 13 9 27 -3 47 2 47 12 0 6 -9 9
-20 6 -22 -6 -26 3 -8 21 8 8 17 8 30 1 28 -15 35 -3 13 21 -19 21 -69 27 -80
10z"/>
<path d="M5140 5090 c0 -5 5 -10 11 -10 5 0 7 5 4 10 -3 6 -8 10 -11 10 -2 0
-4 -4 -4 -10z"/>
<path d="M5384 5021 c2 -23 7 -46 12 -51 12 -12 5 72 -6 84 -5 5 -7 -10 -6
-33z"/>
<path d="M5010 5040 c0 -5 -3 -9 -7 -7 -5 1 -9 -1 -10 -5 -6 -17 -2 -20 11 -9
10 8 16 9 21 1 3 -5 10 -10 16 -10 16 0 10 19 -11 30 -14 7 -20 7 -20 0z"/>
<path d="M4763 5023 c9 -9 19 -14 23 -11 10 10 -6 28 -24 28 -15 0 -15 -1 1
-17z"/>
<path d="M4810 5017 c0 -9 6 -17 12 -19 8 -3 1 -12 -15 -22 -32 -22 -34 -32
-6 -39 15 -4 23 1 30 21 5 14 9 35 7 46 -4 23 -28 34 -28 13z"/>
<path d="M6191 4963 l1 -38 13 30 c13 30 11 45 -6 45 -5 0 -9 -17 -8 -37z"/>
<path d="M4850 4979 c0 -5 5 -7 10 -4 6 3 10 8 10 11 0 2 -4 4 -10 4 -5 0 -10
-5 -10 -11z"/>
<path d="M4640 4960 c0 -5 4 -10 9 -10 6 0 13 5 16 10 3 6 -1 10 -9 10 -9 0
-16 -4 -16 -10z"/>
<path d="M5310 4950 c-9 -6 -10 -10 -3 -10 6 0 15 5 18 10 8 12 4 12 -15 0z"/>
<path d="M4881 4934 c0 -11 3 -14 6 -6 3 7 2 16 -1 19 -3 4 -6 -2 -5 -13z"/>
<path d="M4230 4904 c0 -21 5 -46 11 -54 7 -11 8 -1 3 35 -8 62 -14 70 -14 19z"/>
<path d="M5312 4860 c15 -24 38 -26 38 -4 0 8 -4 13 -9 9 -5 -3 -12 -1 -16 5
-3 5 -10 10 -16 10 -5 0 -4 -9 3 -20z"/>
<path d="M4643 4841 c-6 -14 -13 -61 -16 -104 l-4 -78 38 -41 c26 -26 41 -35
44 -26 2 7 9 31 15 53 6 22 17 51 24 64 12 22 11 28 -6 52 -25 33 -12 63 35
85 32 15 32 15 -20 9 -30 -3 -53 -2 -53 3 0 5 -10 10 -23 10 -16 0 -27 -9 -34
-27z"/>
<path d="M5390 4823 c-31 -12 -41 -25 -29 -39 9 -11 15 -11 25 -3 8 6 11 15 8
20 -3 5 2 9 10 9 9 0 16 5 16 10 0 11 -7 11 -30 3z"/>
<path d="M5305 4800 c3 -5 11 -10 16 -10 6 0 7 5 4 10 -3 6 -11 10 -16 10 -6
0 -7 -4 -4 -10z"/>
<path d="M5460 4788 c0 -16 4 -28 9 -28 18 0 20 17 6 36 -14 18 -14 18 -15 -8z"/>
<path d="M5525 4740 c-4 -6 -1 -18 6 -26 10 -13 10 -17 0 -24 -10 -6 -10 -9
-1 -15 14 -8 30 11 30 36 0 22 -26 44 -35 29z"/>
<path d="M4360 4721 c0 -8 81 -61 94 -61 17 0 2 31 -23 49 -30 21 -71 28 -71
12z"/>
<path d="M5475 4720 c-3 -5 -2 -10 4 -10 5 0 13 5 16 10 3 6 2 10 -4 10 -5 0
-13 -4 -16 -10z"/>
<path d="M4135 4375 c-22 -13 -33 -25 -24 -25 8 0 21 6 27 12 10 10 17 10 32
0 17 -10 20 -10 20 3 0 8 -5 15 -11 15 -5 0 -7 5 -4 10 9 14 5 13 -40 -15z"/>
<path d="M4210 4359 c0 -5 5 -7 10 -4 6 3 10 8 10 11 0 2 -4 4 -10 4 -5 0 -10
-5 -10 -11z"/>
<path d="M4675 6449 c-4 -6 -5 -12 -2 -15 2 -3 7 2 10 11 7 17 1 20 -8 4z"/>
<path d="M4795 6451 c-3 -5 0 -13 6 -17 7 -4 9 -3 5 4 -3 5 0 13 6 15 9 4 10
6 1 6 -6 1 -14 -3 -18 -8z"/>
<path d="M6665 5100 c-3 -5 -1 -10 4 -10 6 0 11 5 11 10 0 6 -2 10 -4 10 -3 0
-8 -4 -11 -10z"/>
<path d="M6625 5080 c-16 -7 -17 -9 -3 -9 9 -1 20 4 23 9 7 11 7 11 -20 0z"/>
<path d="M6674 5048 l-19 -23 23 19 c12 11 22 21 22 23 0 8 -8 2 -26 -19z"/>
<path d="M5770 4520 c-8 -11 -20 -18 -26 -16 -12 5 -34 -12 -34 -26 0 -4 7 -5
15 -2 20 8 32 -25 14 -37 -9 -7 -2 -8 22 -3 23 3 39 2 44 -6 9 -15 -3 -62 -14
-56 -5 3 -14 -1 -21 -9 -11 -13 -10 -14 4 -9 9 3 22 1 30 -5 18 -15 26 -4 19
30 -4 21 -1 30 11 35 17 7 22 39 7 48 -5 4 -20 7 -34 8 -16 1 -23 7 -20 16 4
9 16 11 40 7 31 -5 34 -3 31 17 -4 32 -66 38 -88 8z"/>
<path d="M5680 4430 c-8 -5 -12 -11 -9 -14 2 -3 11 -1 19 4 8 5 12 11 9 14 -2
3 -11 1 -19 -4z"/>
<path d="M5657 4392 c-6 -9 28 -52 41 -52 10 0 22 23 22 41 0 6 -9 7 -20 4
-11 -4 -20 -2 -20 4 0 13 -17 15 -23 3z"/>
<path d="M6098 2686 c-13 -28 -14 -35 -3 -39 8 -4 16 8 23 34 12 48 3 50 -20
5z"/>
<path d="M6070 2616 c0 -31 6 -34 13 -6 3 11 1 23 -4 26 -5 3 -9 -6 -9 -20z"/>
<path d="M6046 2615 c-3 -8 -1 -15 4 -15 6 0 10 7 10 15 0 8 -2 15 -4 15 -2 0
-6 -7 -10 -15z"/>
<path d="M4256 12021 c-4 -7 -5 -15 -2 -18 9 -9 19 4 14 18 -4 11 -6 11 -12 0z"/>
<path d="M3170 11625 c-7 -8 -22 -15 -34 -16 -13 -1 -9 -4 13 -9 25 -6 38 -4
52 8 14 12 15 18 6 24 -17 11 -23 10 -37 -7z"/>
<path d="M3214 11582 c-12 -18 -49 -23 -71 -9 -6 4 -14 3 -18 -2 -3 -6 -12 -8
-20 -4 -14 5 -19 -6 -16 -34 1 -7 -16 -17 -39 -24 -22 -7 -40 -17 -40 -23 1
-16 27 -48 37 -44 4 2 8 -4 9 -12 1 -8 2 -18 4 -22 1 -5 3 -13 4 -20 0 -7 11
-17 23 -23 19 -10 20 -12 5 -21 -9 -6 -12 -15 -8 -23 6 -9 31 -12 94 -8 79 4
87 6 92 26 3 12 10 22 15 21 14 -1 19 39 6 54 -6 8 -8 22 -4 31 4 12 3 16 -4
12 -11 -7 -36 120 -27 135 3 4 -3 8 -13 8 -10 0 -23 -8 -29 -18z"/>
<path d="M3283 10125 c-3 -9 -3 -18 -1 -21 3 -3 8 4 11 16 6 23 -1 27 -10 5z"/>
<path d="M3292 9820 c0 -19 2 -27 5 -17 2 9 2 25 0 35 -3 9 -5 1 -5 -18z"/>
<path d="M3291 9764 c0 -11 3 -14 6 -6 3 7 2 16 -1 19 -3 4 -6 -2 -5 -13z"/>
<path d="M3302 9475 c-17 -37 -14 -45 4 -12 9 16 14 31 11 33 -2 2 -9 -7 -15
-21z"/>
<path d="M712 8762 c-12 -8 -22 -18 -22 -23 0 -13 -43 -55 -53 -51 -4 1 -10
-5 -13 -13 -4 -8 -15 -15 -25 -15 -10 0 -19 -3 -19 -7 0 -8 -30 -28 -119 -79
-37 -21 -61 -44 -78 -74 -30 -54 -111 -133 -128 -126 -13 5 -35 -13 -58 -47
-7 -10 -19 -19 -27 -20 -16 -3 -78 -57 -65 -57 4 0 2 -7 -5 -15 -7 -8 -25 -15
-40 -15 -57 0 -60 -13 -60 -280 0 -196 2 -241 12 -229 28 32 59 52 86 55 75 8
93 12 99 18 3 3 19 6 34 6 15 0 29 7 33 15 3 8 12 15 21 15 8 0 15 9 15 20 0
11 5 20 10 20 6 0 10 7 10 15 0 8 9 15 20 15 11 0 20 5 20 11 0 6 13 22 30 36
16 13 30 34 30 46 0 35 39 104 88 154 50 52 62 55 147 38 33 -6 49 -19 90 -69
27 -33 50 -65 50 -71 1 -27 31 -85 45 -86 8 -1 28 -3 45 -5 32 -3 115 29 115
45 0 6 7 11 15 11 8 0 15 5 15 11 0 15 26 39 43 39 8 0 18 19 26 48 6 26 13
52 15 57 1 6 6 24 10 40 4 17 10 37 13 45 4 8 5 23 4 32 -4 30 40 145 60 159
5 3 11 26 14 53 2 26 7 51 10 56 3 5 -1 25 -9 45 -9 20 -15 41 -13 48 1 6 -7
13 -18 15 -11 2 -23 10 -27 17 -4 7 -28 16 -53 19 -25 4 -49 14 -54 23 -5 10
-15 14 -25 10 -10 -4 -27 -1 -39 5 -12 7 -33 13 -47 14 -43 4 -85 16 -95 28
-15 16 -107 15 -133 -2z"/>
<path d="M0 8674 c0 -36 4 -64 10 -64 6 0 10 6 10 14 0 7 7 19 15 26 8 7 13
22 11 34 -3 11 -5 26 -5 32 -1 7 -10 14 -21 17 -18 5 -20 0 -20 -59z"/>
<path d="M2050 7883 c0 -7 -7 -13 -16 -13 -16 0 -59 -46 -59 -63 0 -4 -6 -12
-14 -16 -7 -5 -10 -14 -6 -20 4 -8 -5 -16 -24 -24 -19 -7 -31 -18 -31 -29 0
-11 -7 -18 -19 -18 -10 0 -21 -6 -24 -13 -3 -9 -17 -12 -39 -10 -26 4 -30 2
-18 -7 11 -9 12 -13 2 -17 -19 -7 -4 -23 24 -23 13 0 24 -4 24 -10 0 -5 -10
-10 -22 -10 -18 0 -20 -2 -9 -9 9 -6 22 -6 34 1 17 8 19 8 14 -6 -8 -20 7 -28
57 -32 47 -3 95 10 216 56 68 26 183 82 198 95 5 5 -41 105 -49 105 -5 0 -9 7
-9 15 0 15 -38 41 -54 37 -4 -2 -14 2 -20 7 -8 7 -33 7 -76 0 -50 -8 -65 -7
-71 3 -7 10 -9 10 -9 1z"/>
<path d="M1042 7495 c-19 -8 -84 -31 -145 -51 -170 -56 -269 -104 -238 -116 6
-2 11 -14 13 -28 2 -14 7 -30 11 -36 4 -7 1 -14 -7 -17 -9 -4 -12 -14 -9 -25
3 -14 -1 -22 -14 -25 -16 -4 -16 -5 0 -6 20 -1 24 -21 4 -21 -8 0 -22 -9 -31
-19 -9 -10 -37 -22 -61 -26 -25 -3 -47 -10 -50 -15 -8 -13 -84 -50 -104 -50
-11 0 -38 -18 -62 -41 -28 -27 -49 -39 -61 -36 -10 3 -20 1 -23 -3 -3 -5 7
-10 22 -12 20 -2 29 -9 31 -25 3 -18 -1 -23 -21 -23 -33 0 -74 -44 -58 -64 9
-11 7 -15 -14 -20 -14 -4 -31 -4 -36 0 -32 19 -94 2 -71 -20 11 -11 11 -36 -1
-36 -5 0 -8 -3 -4 -6 7 -8 48 6 43 14 -2 4 8 8 22 9 15 0 28 6 30 12 2 6 9 11
17 11 18 0 156 57 441 181 289 126 384 174 384 195 0 8 5 14 10 14 6 0 10 7
10 15 0 8 5 15 10 15 6 0 10 7 10 15 0 8 5 15 10 15 6 0 10 10 10 23 0 18 2
19 11 7 8 -11 9 -7 6 18 -3 24 0 32 10 28 7 -3 13 -3 13 -1 0 5 -25 73 -40
110 -5 11 -11 28 -14 38 -6 20 -11 21 -54 2z"/>
<path d="M0 7310 c0 -46 3 -47 37 -20 25 19 25 20 4 20 -14 0 -21 6 -21 20 0
11 -4 20 -10 20 -5 0 -10 -18 -10 -40z"/>
<path d="M3027 7210 c-3 -11 -9 -19 -14 -18 -17 6 -112 -43 -117 -59 -3 -10
-2 -34 2 -53 12 -55 9 -64 -30 -85 -30 -16 -40 -17 -62 -7 -15 7 -35 25 -44
42 -19 34 -33 36 -105 15 -68 -20 -70 -21 -104 -80 -24 -41 -35 -51 -60 -53
-18 -2 -37 3 -47 13 -9 9 -32 19 -51 22 -19 3 -35 10 -35 14 0 17 -18 9 -23
-10 -7 -27 -103 -88 -161 -102 -46 -11 -50 -11 -66 11 l-17 23 -169 -62 c-93
-34 -214 -80 -269 -101 -55 -22 -158 -61 -230 -89 -71 -27 -164 -64 -205 -81
-41 -17 -127 -51 -191 -75 -64 -24 -140 -55 -169 -69 -30 -14 -59 -26 -64 -26
-6 0 -31 -10 -56 -22 -48 -23 -95 -41 -205 -80 -83 -30 -195 -82 -250 -117
-22 -14 -42 -26 -45 -27 -3 0 -18 -6 -35 -13 -16 -7 -42 -14 -56 -16 -14 -2
-54 -18 -88 -36 l-61 -32 0 -343 0 -342 23 6 c12 3 34 18 49 32 36 36 297 165
383 189 79 22 150 54 180 81 11 11 52 32 90 48 74 32 290 92 328 92 31 0 60
-22 62 -47 0 -10 10 -33 21 -49 36 -51 104 -191 104 -212 0 -12 5 -24 10 -27
5 -3 10 -25 10 -48 1 -63 23 -145 38 -140 7 3 12 -4 12 -16 0 -11 5 -23 11
-26 6 -4 8 -13 5 -21 -5 -12 12 -55 79 -209 41 -95 20 -145 -60 -145 -13 0
-27 -5 -30 -11 -4 -6 -12 -8 -19 -6 -6 3 -20 -1 -31 -9 -10 -8 -29 -14 -42
-14 -13 0 -23 -4 -23 -9 0 -4 -19 -11 -42 -14 -52 -7 -127 -42 -135 -62 -3 -8
-13 -15 -23 -15 -10 0 -25 -7 -34 -15 -10 -10 -24 -13 -39 -9 -17 4 -30 0 -43
-14 -11 -12 -40 -23 -69 -28 -27 -4 -66 -17 -85 -30 -19 -13 -40 -24 -46 -24
-6 0 -19 -9 -30 -21 -23 -26 -83 -52 -106 -46 -10 3 -33 -10 -55 -29 -21 -19
-49 -37 -63 -40 -14 -3 -35 -7 -47 -10 -12 -2 -33 -15 -45 -28 -13 -13 -61
-38 -108 -56 -47 -17 -92 -38 -100 -46 -26 -26 24 -17 97 18 38 17 93 34 124
38 41 6 62 14 83 35 26 26 31 27 94 21 56 -6 74 -3 109 14 23 11 46 19 50 18
14 -3 58 19 73 37 19 23 80 46 103 39 11 -3 22 -2 26 4 12 19 103 52 127 46
15 -4 24 -2 24 5 0 6 9 11 19 11 11 0 26 6 33 13 7 8 45 29 83 47 39 18 72 37
73 42 2 4 15 8 28 8 13 0 24 5 24 10 0 6 20 15 45 22 25 7 45 15 45 19 0 4 16
10 36 13 50 10 92 -24 123 -100 14 -33 34 -81 47 -109 12 -27 38 -90 58 -138
40 -98 79 -145 131 -157 38 -8 43 -3 39 45 -7 94 -18 139 -40 165 -16 19 -61
170 -70 235 -13 88 -11 157 6 165 54 27 84 34 132 31 21 -1 76 -80 84 -120 5
-25 14 -33 43 -42 47 -14 87 -9 84 11 -1 8 -12 54 -24 101 -19 72 -21 91 -11
113 12 27 74 62 152 85 25 7 56 18 70 24 14 6 28 10 33 9 4 -1 7 2 7 8 0 17
18 11 23 -7 2 -10 3 16 3 57 -1 41 3 86 7 100 6 19 6 21 -2 10 -9 -12 -11 -12
-11 -1 0 9 -6 7 -19 -8 -14 -16 -21 -18 -24 -9 -4 11 -6 10 -6 0 -1 -7 -5 -11
-10 -8 -5 3 -14 -1 -21 -9 -7 -8 -21 -15 -31 -15 -10 0 -34 -9 -54 -20 -20
-11 -62 -29 -95 -40 -61 -21 -98 -17 -116 12 -15 22 -34 82 -34 104 0 12 -9
43 -21 68 -11 26 -18 54 -15 61 3 8 -1 27 -9 42 -8 15 -15 33 -15 39 0 7 -26
35 -59 64 -32 28 -64 64 -72 78 -7 15 -19 34 -26 43 -25 30 -81 178 -88 231
-3 29 -8 60 -11 69 -10 36 94 105 221 148 83 27 111 41 178 84 32 21 98 52
147 69 89 31 90 32 121 87 118 208 318 376 523 438 21 7 40 27 68 74 21 35 61
86 88 112 43 41 54 61 81 143 17 52 29 97 26 100 -2 3 -7 -5 -10 -16z m-1530
-1287 c9 -16 22 -32 28 -38 27 -24 54 -76 78 -145 28 -83 36 -131 41 -237 2
-42 8 -79 16 -88 8 -10 15 -24 17 -33 1 -10 16 -45 33 -80 16 -34 30 -67 30
-72 0 -6 3 -10 8 -10 15 0 46 -83 44 -118 -3 -43 -25 -66 -88 -93 l-44 -20
-30 21 c-46 33 -130 217 -130 285 0 19 -4 35 -10 35 -5 0 -10 8 -10 18 0 9
-16 32 -35 51 -19 18 -37 43 -41 55 -3 11 -16 35 -29 51 -51 69 -79 149 -112
326 -4 20 2 32 27 52 17 15 38 27 47 27 8 0 29 6 46 14 75 33 92 33 114 -1z"/>
<path d="M87 7134 c-23 -13 -26 -18 -16 -35 6 -12 9 -29 6 -39 -3 -10 -1 -34
3 -52 4 -18 8 -25 9 -15 1 9 6 17 11 17 6 0 10 11 10 23 0 13 3 27 7 31 4 4 6
22 5 41 -3 25 1 34 15 38 16 4 16 5 -2 5 -11 1 -32 -6 -48 -14z"/>
<path d="M7260 6396 c0 -2 8 -10 18 -17 15 -13 16 -12 3 4 -13 16 -21 21 -21
13z"/>
<path d="M7317 6304 c6 -15 23 -19 23 -5 0 5 -7 11 -14 14 -10 4 -13 1 -9 -9z"/>
<path d="M7370 6309 c0 -5 5 -7 10 -4 6 3 10 8 10 11 0 2 -4 4 -10 4 -5 0 -10
-5 -10 -11z"/>
<path d="M7401 5841 c-10 -6 -10 -10 -1 -16 13 -8 24 -1 19 14 -3 6 -10 7 -18
2z"/>
<path d="M2216 5642 c4 -18 1 -32 -6 -37 -9 -5 -10 -1 -5 14 3 11 2 21 -3 21
-11 0 -23 -40 -16 -52 10 -16 35 -8 44 15 8 20 10 20 14 0 1 -5 7 -17 14 -28
12 -19 13 -18 6 5 -17 62 -59 116 -48 62z"/>
<path d="M2165 5620 c3 -5 8 -10 11 -10 2 0 4 5 4 10 0 6 -5 10 -11 10 -5 0
-7 -4 -4 -10z"/>
<path d="M2060 5575 c0 -8 5 -15 10 -15 6 0 10 7 10 15 0 8 -4 15 -10 15 -5 0
-10 -7 -10 -15z"/>
<path d="M1994 5569 c-8 -13 13 -29 39 -29 23 0 22 5 -7 24 -17 11 -27 12 -32
5z"/>
<path d="M2110 5525 c0 -8 4 -15 10 -15 5 0 7 7 4 15 -4 8 -8 15 -10 15 -2 0
-4 -7 -4 -15z"/>
<path d="M2331 5354 c0 -11 3 -14 6 -6 3 7 2 16 -1 19 -3 4 -6 -2 -5 -13z"/>
<path d="M2331 5304 c0 -11 3 -14 6 -6 3 7 2 16 -1 19 -3 4 -6 -2 -5 -13z"/>
<path d="M7175 4824 c-38 -35 -28 -37 19 -3 21 16 32 29 24 29 -8 0 -27 -11
-43 -26z"/>
<path d="M2051 4651 c-20 -26 -29 -45 -25 -58 15 -45 39 -92 70 -134 19 -26
34 -52 34 -58 0 -7 5 -9 11 -5 8 4 9 -1 4 -17 -5 -19 -2 -17 14 9 11 17 25 32
31 32 5 0 10 4 10 10 0 5 -7 6 -17 3 -11 -4 -14 -3 -9 5 8 13 -17 117 -41 170
-8 18 -11 38 -7 45 4 6 4 9 -1 5 -4 -4 -16 1 -25 12 -18 20 -18 20 -49 -19z"/>
<path d="M7199 4663 c-4 -21 -1 -34 8 -37 14 -6 15 5 4 44 -7 24 -8 24 -12 -7z"/>
<path d="M8460 4585 c-30 -13 -63 -24 -72 -25 -11 0 -18 -8 -18 -20 0 -11 1
-20 3 -20 1 0 38 13 82 29 50 18 81 35 83 45 5 22 -13 20 -78 -9z"/>
<path d="M7960 4330 c-8 -5 -10 -10 -5 -10 6 0 17 5 25 10 8 5 11 10 5 10 -5
0 -17 -5 -25 -10z"/>
<path d="M2067 4049 c-10 -6 -49 -8 -87 -6 -59 5 -71 3 -86 -14 -10 -11 -19
-30 -21 -42 -2 -12 -10 -32 -19 -44 -18 -29 -11 -43 45 -83 40 -29 43 -35 38
-66 -4 -23 -2 -34 6 -34 7 1 64 16 128 34 63 18 123 32 132 30 17 -2 20 6 37
118 16 104 1 138 -45 104 -12 -8 -26 -11 -35 -6 -28 14 -75 19 -93 9z m138
-49 c-3 -5 -1 -11 5 -15 11 -7 13 -54 4 -80 -21 -54 -184 -60 -184 -6 0 6 24
27 53 46 28 18 63 45 76 60 18 20 27 23 37 14 8 -6 12 -15 9 -19z"/>
<path d="M1815 3910 c-3 -5 -15 -10 -26 -10 -10 0 -19 -4 -19 -9 0 -13 48 0
54 15 6 16 0 19 -9 4z"/>
<path d="M1470 3783 c-8 -3 -31 -13 -50 -21 -19 -9 -42 -16 -50 -18 -16 -2
-113 -36 -285 -99 -180 -66 -181 -66 -204 -46 -11 10 -23 36 -27 58 -5 33 -12
43 -40 57 -19 9 -43 16 -54 16 -10 0 -21 4 -24 9 -9 13 -58 0 -52 -14 2 -7 2
-16 -2 -19 -6 -7 -10 -30 -16 -90 -6 -54 -33 -86 -104 -122 -34 -17 -84 -52
-111 -77 -57 -54 -83 -66 -209 -97 -95 -23 -193 -23 -216 0 -19 19 -26 10 -26
-30 0 -35 3 -40 27 -46 44 -11 196 19 278 55 39 18 106 41 115 41 21 0 8 -32
-24 -63 -27 -24 -36 -41 -38 -72 l-3 -40 -65 -7 c-153 -17 -198 -29 -245 -64
l-45 -35 0 -241 0 -240 27 7 c33 8 153 59 278 120 50 23 106 49 125 56 19 7
98 40 175 75 184 81 451 197 495 214 19 8 50 22 68 32 17 10 32 14 32 9 0 -14
54 -5 88 15 18 10 32 24 32 31 0 7 10 13 23 13 12 0 41 10 62 21 90 48 124 63
293 130 97 39 186 74 197 79 11 5 106 43 210 84 l190 74 -1 44 c-1 24 -9 60
-17 80 l-15 36 -109 -24 c-59 -13 -209 -44 -333 -69 -124 -25 -265 -56 -315
-70 -227 -61 -333 -88 -370 -96 -22 -4 -78 -19 -124 -33 -124 -39 -386 -106
-409 -106 -26 0 -40 37 -21 55 8 7 48 23 89 35 180 52 183 54 220 109 15 22
54 43 155 81 33 13 65 26 70 30 6 4 24 10 40 14 29 7 120 47 196 87 20 11 41
19 47 19 6 0 39 13 74 30 44 21 56 29 38 29 -14 0 -32 -3 -40 -6z"/>
<path d="M543 3735 c-38 -40 -41 -55 -13 -55 11 0 20 4 20 9 0 5 14 11 30 15
32 6 40 32 18 54 -17 17 -19 16 -55 -23z"/>
<path d="M470 3683 c0 -34 1 -36 16 -21 10 10 14 23 9 37 -10 34 -25 24 -25
-16z"/>
<path d="M8305 3510 c-4 -6 -10 -8 -15 -5 -4 3 -11 -2 -14 -11 -4 -10 -2 -13
6 -8 7 4 8 3 4 -4 -4 -7 -13 -12 -20 -12 -15 0 -66 -58 -66 -76 0 -6 -11 -19
-25 -28 -25 -16 -31 -40 -17 -62 9 -15 133 13 145 32 4 7 34 16 67 20 33 4 60
11 60 16 0 5 -9 18 -19 30 -20 21 -27 21 -123 2 -16 -3 -28 -2 -28 3 0 11 55
44 62 37 3 -3 8 2 11 11 8 18 -4 20 -21 3 -9 -9 -12 -8 -12 6 0 9 5 26 10 37
11 19 6 27 -5 9z"/>
<path d="M8490 3401 c13 -10 13 -12 0 -21 -23 -15 -6 -12 26 5 18 9 23 15 12
15 -9 0 -25 3 -35 6 -15 5 -16 4 -3 -5z"/>
<path d="M7835 3280 c-3 -5 1 -10 9 -10 9 0 19 0 23 -1 4 0 9 4 11 10 5 14
-35 14 -43 1z"/>
<path d="M8000 3271 c1 -22 17 -29 39 -17 l24 13 -32 5 c-17 2 -31 2 -31 -1z"/>
<path d="M7745 3205 c7 -33 12 -41 20 -33 3 3 -2 18 -11 34 l-16 29 7 -30z"/>
<path d="M7711 3134 c0 -11 3 -14 6 -6 3 7 2 16 -1 19 -3 4 -6 -2 -5 -13z"/>
<path d="M4058 2302 c-16 -10 -28 -21 -28 -25 0 -5 14 1 30 13 17 12 30 23 30
26 0 5 0 5 -32 -14z"/>
<path d="M1756 1938 c-10 -6 -64 -30 -120 -53 -55 -23 -186 -79 -291 -125
-104 -45 -264 -113 -354 -151 -90 -38 -186 -81 -213 -94 -27 -14 -54 -25 -59
-25 -4 0 -32 -11 -61 -24 -29 -13 -96 -42 -148 -64 -52 -22 -151 -66 -220 -97
-69 -32 -161 -72 -205 -90 -61 -25 -81 -37 -83 -54 -4 -26 -1 -26 46 -2 44 22
648 293 807 361 98 42 514 223 825 359 63 27 116 54 118 60 5 14 -18 14 -42
-1z"/>
<path d="M1080 1595 c0 -8 4 -15 9 -15 5 0 11 7 15 15 3 9 0 15 -9 15 -8 0
-15 -7 -15 -15z"/>
<path d="M1090 1523 c0 -29 10 -53 22 -53 6 0 7 11 3 28 -9 36 -25 52 -25 25z"/>
<path d="M859 1347 c6 -16 9 -32 6 -37 -8 -13 -56 -21 -68 -12 -14 11 -179
-58 -185 -76 -5 -16 -3 -16 79 19 69 29 73 30 86 13 7 -10 13 -21 13 -25 0 -5
-55 -32 -135 -65 -18 -7 -17 -8 8 -12 17 -2 27 -9 27 -20 0 -13 -38 -34 -137
-77 -76 -33 -144 -59 -151 -59 -7 1 -12 -5 -10 -15 5 -28 45 -24 120 12 40 19
102 48 136 63 62 27 64 29 60 60 -4 30 -1 34 45 55 48 23 49 24 43 61 -6 36
-5 38 22 38 15 0 37 7 49 15 20 14 21 19 11 43 -16 38 -32 53 -19 19z"/>
<path d="M1568 1332 c-4 -15 -11 -20 -22 -16 -9 3 -16 1 -16 -6 0 -6 -4 -9 -9
-5 -5 3 -12 1 -16 -5 -3 -5 -13 -10 -21 -10 -8 0 -34 -9 -59 -21 -24 -11 -49
-18 -55 -14 -5 3 -10 1 -10 -5 0 -6 -5 -8 -10 -5 -6 4 -17 1 -25 -5 -8 -7 -21
-10 -28 -7 -7 3 -19 -4 -25 -14 -7 -10 -20 -19 -30 -19 -10 0 -22 -4 -27 -8
-6 -5 -31 -17 -57 -26 -27 -10 -48 -22 -48 -27 0 -4 -7 -6 -15 -3 -8 3 -20 2
-27 -2 -7 -5 -17 -9 -23 -10 -11 -2 -158 -68 -187 -84 -10 -6 -23 -10 -29 -10
-11 0 -104 -40 -141 -60 -35 -19 -101 -38 -114 -33 -8 3 -14 -1 -14 -9 0 -7
-18 -18 -43 -24 -23 -7 -73 -24 -112 -38 -38 -15 -90 -34 -115 -42 -25 -8 -54
-19 -65 -23 -11 -4 -56 -23 -100 -40 -44 -18 -90 -35 -102 -38 l-23 -5 0 -359
0 -359 188 0 c204 0 199 -1 379 81 24 10 45 19 47 19 3 0 92 34 198 76 106 42
347 136 536 209 189 73 346 135 348 138 2 2 -5 24 -16 48 -24 54 -25 87 -4
118 12 16 22 21 39 17 19 -5 27 1 44 29 l21 36 -26 9 c-14 6 -31 10 -37 10 -7
0 -22 7 -34 15 -20 14 -24 13 -54 -12 l-32 -27 -18 22 c-19 25 -59 123 -59
148 0 8 -5 24 -11 35 -11 22 8 199 22 199 4 0 9 9 12 20 6 23 27 27 27 5 0
-20 32 -35 76 -35 32 0 35 2 22 13 -32 26 -72 90 -83 134 -9 37 -13 42 -17 25z
m-750 -769 c-3 -19 -95 -55 -112 -45 -6 3 4 10 22 16 17 6 31 15 31 21 -1 10
26 23 49 24 8 1 12 -7 10 -16z m-318 -128 c-7 -8 -17 -15 -22 -15 -6 0 -5 7 2
15 7 8 17 15 22 15 6 0 5 -7 -2 -15z"/>
<path d="M8290 1237 c0 -3 7 -36 15 -73 9 -36 14 -68 11 -71 -2 -2 -7 10 -11
28 -7 31 -8 32 -21 14 -8 -11 -11 -29 -7 -43 5 -22 3 -24 -15 -20 -12 3 -23 1
-26 -6 -2 -6 -5 4 -5 23 -1 46 -14 32 -15 -16 -1 -36 -3 -38 -31 -36 -20 2
-25 0 -16 -6 7 -5 10 -14 7 -20 -4 -6 -11 -9 -14 -7 -4 2 -7 -16 -6 -40 1 -24
-2 -47 -7 -50 -11 -7 -12 -101 -1 -108 5 -3 9 -24 10 -48 0 -32 -2 -38 -8 -23
-12 27 -12 24 -14 -79 -3 -92 6 -116 42 -116 18 0 42 -42 42 -74 0 -11 7 -27
15 -36 9 -10 17 -33 19 -51 2 -19 1 -26 -1 -16 -5 19 -18 22 -28 7 -3 -5 -1
-10 4 -10 6 0 11 -6 11 -14 0 -7 7 -19 15 -26 8 -7 15 -20 15 -29 0 -20 34
-51 55 -51 9 0 15 -9 15 -24 0 -49 -7 -54 -76 -50 -40 2 -63 0 -59 -6 3 -6 -1
-7 -9 -4 -11 4 -16 0 -16 -10 0 -9 4 -16 9 -16 5 0 11 -9 14 -21 7 -26 27 -16
27 14 0 13 3 17 8 11 4 -6 15 -13 25 -17 21 -8 22 -27 2 -74 -8 -19 -15 -37
-15 -39 0 -2 65 -4 145 -4 l145 0 0 298 c0 258 -8 391 -25 440 -4 11 -8 11
-25 -1 -20 -14 -99 -13 -111 1 -3 4 -11 74 -18 156 -7 88 -22 187 -37 244 -22
84 -34 120 -34 99z m-123 -549 c-3 -8 -6 -5 -6 6 -1 11 2 17 5 13 3 -3 4 -12
1 -19z m313 -18 c0 -5 -4 -10 -10 -10 -5 0 -10 5 -10 10 0 6 5 10 10 10 6 0
10 -4 10 -10z m-70 -41 c0 -6 -4 -7 -10 -4 -13 8 -13 -7 0 -40 5 -14 14 -23
20 -20 5 3 10 1 10 -5 0 -5 9 -29 19 -53 58 -126 71 -159 71 -175 0 -13 -4
-12 -20 8 -11 14 -20 33 -20 43 0 9 -4 17 -10 17 -5 0 -10 7 -10 15 0 8 -6 15
-14 15 -8 0 -18 23 -27 61 -8 34 -22 70 -31 82 -21 23 -22 31 -7 58 10 19 29
18 29 -2z m87 -41 c-3 -8 -6 -5 -6 6 -1 11 2 17 5 13 3 -3 4 -12 1 -19z m-100
-70 c-3 -8 -6 -5 -6 6 -1 11 2 17 5 13 3 -3 4 -12 1 -19z m-8 -36 c12 -23 -4
-55 -18 -33 -8 12 -4 51 5 51 2 0 8 -8 13 -18z"/>
<path d="M1055 1160 c-3 -5 3 -10 14 -10 11 0 23 5 26 10 3 6 -3 10 -14 10
-11 0 -23 -4 -26 -10z"/>
<path d="M367 1132 c-26 -5 -17 -34 14 -42 23 -7 25 -5 21 16 -5 28 -10 32
-35 26z"/>
<path d="M7244 966 c-27 -24 -46 -47 -43 -50 4 -4 28 13 55 38 26 25 46 48 42
51 -3 3 -27 -14 -54 -39z"/>
<path d="M4641 845 c0 -22 4 -47 10 -55 9 -13 10 -12 5 2 -3 10 -1 20 5 24 6
3 6 10 1 17 -6 7 -12 21 -15 32 -2 11 -5 2 -6 -20z"/>
<path d="M4700 769 c0 -5 5 -7 10 -4 6 3 10 8 10 11 0 2 -4 4 -10 4 -5 0 -10
-5 -10 -11z"/>
<path d="M6476 742 c-2 -4 -1 -14 5 -22 7 -12 9 -10 9 8 0 23 -5 28 -14 14z"/>
<path d="M6740 715 c0 -8 -4 -23 -9 -33 -9 -15 -82 -265 -94 -319 -3 -13 -2
-25 2 -28 13 -7 101 281 115 373 2 12 -1 22 -5 22 -5 0 -9 -7 -9 -15z"/>
<path d="M6492 670 c0 -14 4 -36 8 -50 6 -20 8 -21 8 -5 0 11 -4 34 -8 50 -7
27 -8 27 -8 5z"/>
<path d="M7032 564 c-7 -8 -8 -14 -3 -14 10 0 25 19 20 25 -2 1 -10 -3 -17
-11z"/>
<path d="M4631 324 c0 -11 3 -14 6 -6 3 7 2 16 -1 19 -3 4 -6 -2 -5 -13z"/>
<path d="M8200 266 c0 -13 -6 -27 -12 -30 -7 -3 -4 -5 7 -3 14 1 21 11 23 30
2 15 -1 27 -7 27 -6 0 -11 -11 -11 -24z"/>
<path d="M1648 215 c-3 -3 -128 -52 -279 -110 l-274 -104 303 -1 c251 0 304 2
308 14 3 8 -4 44 -15 81 -12 37 -21 80 -21 96 0 27 -9 37 -22 24z"/>
<path d="M8192 208 c-7 -7 -12 -19 -12 -27 0 -12 3 -12 18 1 9 9 24 13 32 10
16 -5 15 -4 -11 16 -12 9 -18 9 -27 0z"/>
<path d="M7057 118 c16 -21 23 -48 12 -48 -5 0 -15 11 -21 25 -11 26 -28 34
-28 14 0 -17 -64 -76 -77 -72 -7 3 -13 -2 -13 -10 0 -9 -8 -18 -17 -20 -12 -3
-9 -5 8 -6 14 0 30 4 37 11 9 9 12 9 12 0 0 -18 157 -16 175 2 17 16 7 30 -10
16 -12 -10 -16 -5 -40 60 -11 29 -20 40 -32 40 -11 0 -13 -4 -6 -12z"/>
<path d="M7110 101 c0 -6 5 -13 10 -16 6 -3 10 1 10 9 0 9 -4 16 -10 16 -5 0
-10 -4 -10 -9z"/>
<path d="M7165 70 c3 -5 8 -10 11 -10 2 0 4 5 4 10 0 6 -5 10 -11 10 -5 0 -7
-4 -4 -10z"/>
<path d="M7360 54 c0 -8 5 -12 10 -9 6 4 8 11 5 16 -9 14 -15 11 -15 -7z"/>
<path d="M850 15 c0 -8 7 -15 15 -15 9 0 12 6 9 15 -8 19 -24 19 -24 0z"/>
<path d="M7286 15 c-4 -11 2 -15 24 -15 20 0 30 5 30 15 0 20 -46 20 -54 0z"/>
</g>
</svg>
